M48
; DRILL file {KiCad (5.1.10)-1} date 06/12/21 19:04:12
; FORMAT={-:-/ absolute / metric / decimal}
; #@! TF.CreationDate,2021-06-12T19:04:12-06:00
; #@! TF.GenerationSoftware,Kicad,Pcbnew,(5.1.10)-1
; #@! TF.FileFunction,NonPlated,1,2,NPTH
FMAT,2
METRIC
T1C0.650
T2C1.750
T3C3.048
T4C3.988
%
G90
G05
T1
X204.073Y-81.815
X209.853Y-81.815
T2
X59.008Y-88.981
X61.389Y-165.181
X63.77Y-108.031
X66.15Y-127.081
X69.168Y-88.981
X70.914Y-146.131
X71.549Y-165.181
X73.93Y-108.031
X76.31Y-127.081
X78.058Y-88.981
X81.074Y-146.131
X85.2Y-165.181
X87.583Y-108.031
X88.218Y-88.981
X92.345Y-127.081
X95.36Y-165.181
X97.108Y-88.981
X97.743Y-108.031
X101.87Y-146.131
X102.505Y-127.081
X106.633Y-108.031
X107.268Y-88.981
X109.014Y-165.181
X111.395Y-127.081
X112.03Y-146.131
X116.158Y-88.981
X116.793Y-108.031
X119.174Y-165.181
X120.92Y-146.131
X121.555Y-127.081
X125.683Y-108.031
X126.318Y-88.981
X130.445Y-127.081
X131.08Y-146.131
X135.208Y-88.981
X135.843Y-108.031
X139.97Y-146.131
X140.605Y-127.081
X144.733Y-108.031
X145.368Y-88.981
X149.495Y-127.081
X150.13Y-146.131
X154.257Y-88.981
X154.893Y-108.031
X159.02Y-146.131
X159.655Y-127.081
X163.783Y-108.031
X164.417Y-88.981
X168.545Y-127.081
X169.18Y-146.131
X173.306Y-88.981
X173.943Y-108.031
X178.07Y-146.131
X178.705Y-127.081
X180.45Y-165.181
X182.833Y-108.031
X183.466Y-88.981
X187.595Y-127.081
X188.23Y-146.131
X190.61Y-165.181
X192.358Y-88.981
X192.993Y-108.031
X197.12Y-146.131
X197.755Y-127.081
X201.883Y-108.031
X202.518Y-88.981
X206.645Y-127.081
X207.28Y-146.131
X211.408Y-88.981
X212.043Y-108.031
X216.17Y-146.131
X216.805Y-127.081
X220.933Y-108.031
X221.568Y-88.981
X225.695Y-127.081
X226.33Y-146.131
X230.458Y-88.981
X231.093Y-108.031
X235.22Y-146.131
X235.855Y-127.081
X239.983Y-108.031
X240.618Y-88.981
X244.745Y-127.081
X245.38Y-146.131
X249.508Y-88.981
X249.508Y-165.181
X250.143Y-108.031
X254.27Y-146.131
X254.905Y-127.081
X259.033Y-108.031
X259.668Y-88.981
X259.668Y-165.181
X263.795Y-127.081
X264.43Y-146.131
X268.558Y-88.981
X268.558Y-165.181
X269.193Y-108.031
X273.32Y-146.131
X273.955Y-127.081
X278.083Y-108.031
X278.718Y-88.981
X278.718Y-165.181
X282.845Y-127.081
X283.48Y-146.131
X287.608Y-88.981
X287.608Y-165.181
X288.243Y-108.031
X293.005Y-127.081
X297.133Y-108.031
X297.768Y-88.981
X297.768Y-165.181
X299.514Y-146.131
X306.658Y-165.181
X307.293Y-108.031
X309.674Y-146.131
X313.8Y-127.081
X316.183Y-88.981
X316.818Y-165.181
X320.945Y-108.031
X323.96Y-127.081
X325.708Y-146.131
X325.708Y-165.181
X326.343Y-88.981
X331.105Y-108.031
X335.868Y-146.131
X335.868Y-165.181
X344.758Y-88.981
X344.758Y-108.031
X344.758Y-127.081
X344.758Y-146.131
X344.758Y-165.181
X354.918Y-88.981
X354.918Y-108.031
X354.918Y-127.081
X354.918Y-146.131
X354.918Y-165.181
T3
X64.056Y-153.116
X87.932Y-153.116
X135.53Y-172.166
X235.53Y-172.166
X306.942Y-134.066
X309.325Y-81.996
X330.818Y-134.066
X333.201Y-81.996
T4
X64.056Y-137.876
X64.088Y-88.981
X66.469Y-165.181
X68.85Y-108.031
X71.23Y-127.081
X75.994Y-146.131
X83.138Y-88.981
X87.932Y-137.876
X90.28Y-165.181
X92.663Y-108.031
X97.425Y-127.081
X102.188Y-88.981
X106.95Y-146.131
X111.713Y-108.031
X114.094Y-165.181
X116.475Y-127.081
X121.238Y-88.981
X126.0Y-146.131
X130.763Y-108.031
X135.525Y-127.081
X135.53Y-156.926
X140.288Y-88.981
X145.05Y-146.131
X149.813Y-108.031
X154.575Y-127.081
X159.337Y-88.981
X164.1Y-146.131
X168.863Y-108.031
X173.625Y-127.081
X178.386Y-88.981
X183.15Y-146.131
X185.53Y-165.181
X187.913Y-108.031
X192.675Y-127.081
X197.438Y-88.981
X202.2Y-146.131
X206.963Y-108.031
X211.725Y-127.081
X216.488Y-88.981
X221.25Y-146.131
X226.013Y-108.031
X230.775Y-127.081
X235.53Y-156.926
X235.538Y-88.981
X240.3Y-146.131
X245.063Y-108.031
X249.825Y-127.081
X254.588Y-88.981
X254.588Y-165.181
X259.35Y-146.131
X264.113Y-108.031
X268.875Y-127.081
X273.638Y-88.981
X273.638Y-165.181
X278.4Y-146.131
X283.163Y-108.031
X287.925Y-127.081
X292.688Y-88.981
X292.688Y-165.181
X302.213Y-108.031
X304.594Y-146.131
X306.942Y-118.826
X309.325Y-97.236
X311.738Y-165.181
X318.88Y-127.081
X321.263Y-88.981
X326.025Y-108.031
X330.788Y-146.131
X330.788Y-165.181
X330.818Y-118.826
X333.201Y-97.236
X349.838Y-88.981
X349.838Y-108.031
X349.838Y-127.081
X349.838Y-146.131
X349.838Y-165.181
T0
M30
