G04 #@! TF.GenerationSoftware,KiCad,Pcbnew,(5.1.10)-1*
G04 #@! TF.CreationDate,2021-06-12T19:03:55-06:00*
G04 #@! TF.ProjectId,pcb,7063622e-6b69-4636-9164-5f7063625858,rev?*
G04 #@! TF.SameCoordinates,Original*
G04 #@! TF.FileFunction,Legend,Bot*
G04 #@! TF.FilePolarity,Positive*
%FSLAX46Y46*%
G04 Gerber Fmt 4.6, Leading zero omitted, Abs format (unit mm)*
G04 Created by KiCad (PCBNEW (5.1.10)-1) date 2021-06-12 19:03:55*
%MOMM*%
%LPD*%
G01*
G04 APERTURE LIST*
%ADD10C,0.150000*%
%ADD11C,0.120000*%
%ADD12C,0.250000*%
%ADD13R,0.600000X1.450000*%
%ADD14R,0.300000X1.450000*%
%ADD15C,0.650000*%
%ADD16O,1.000000X2.100000*%
%ADD17O,1.000000X1.600000*%
%ADD18R,0.700000X0.600000*%
%ADD19R,0.700000X1.000000*%
%ADD20C,1.750000*%
%ADD21C,2.250000*%
%ADD22C,3.987800*%
%ADD23R,1.400000X1.200000*%
%ADD24R,0.550000X1.500000*%
%ADD25R,1.500000X0.550000*%
%ADD26R,1.800000X1.100000*%
%ADD27C,3.048000*%
%ADD28R,1.700000X1.700000*%
%ADD29C,1.700000*%
%ADD30R,1.200000X0.900000*%
G04 APERTURE END LIST*
D10*
X207549000Y-89322000D02*
X206249000Y-89322000D01*
X207549000Y-86422000D02*
X207549000Y-89322000D01*
X206249000Y-86422000D02*
X207549000Y-86422000D01*
X206249000Y-86422000D02*
X206249000Y-89322000D01*
D11*
X232129000Y-162359748D02*
X232129000Y-162882252D01*
X230659000Y-162359748D02*
X230659000Y-162882252D01*
X204502000Y-158431500D02*
X204502000Y-155131500D01*
X204502000Y-155131500D02*
X208502000Y-155131500D01*
D10*
X216757500Y-168306500D02*
X216757500Y-167731500D01*
X227107500Y-168306500D02*
X227107500Y-167631500D01*
X227107500Y-157956500D02*
X227107500Y-158631500D01*
X216757500Y-157956500D02*
X216757500Y-158631500D01*
X216757500Y-168306500D02*
X217432500Y-168306500D01*
X216757500Y-157956500D02*
X217432500Y-157956500D01*
X227107500Y-157956500D02*
X226432500Y-157956500D01*
X227107500Y-168306500D02*
X226432500Y-168306500D01*
X216757500Y-167731500D02*
X215482500Y-167731500D01*
X150415500Y-168021000D02*
G75*
G03*
X150415500Y-168021000I-1000000J0D01*
G01*
X152015500Y-170621000D02*
X152015500Y-165421000D01*
X146815500Y-170621000D02*
X152015500Y-170621000D01*
X146815500Y-165421000D02*
X146815500Y-170621000D01*
X152015500Y-165421000D02*
X146815500Y-165421000D01*
X150288500Y-157099000D02*
G75*
G03*
X150288500Y-157099000I-1000000J0D01*
G01*
X151888500Y-159699000D02*
X151888500Y-154499000D01*
X146688500Y-159699000D02*
X151888500Y-159699000D01*
X146688500Y-154499000D02*
X146688500Y-159699000D01*
X151888500Y-154499000D02*
X146688500Y-154499000D01*
D11*
X154840000Y-156006436D02*
X154840000Y-156460564D01*
X156310000Y-156006436D02*
X156310000Y-156460564D01*
X206602000Y-92960564D02*
X206602000Y-92506436D01*
X205132000Y-92960564D02*
X205132000Y-92506436D01*
X202568436Y-96420000D02*
X203022564Y-96420000D01*
X202568436Y-97890000D02*
X203022564Y-97890000D01*
X208761000Y-92960564D02*
X208761000Y-92506436D01*
X207291000Y-92960564D02*
X207291000Y-92506436D01*
X214095000Y-89658564D02*
X214095000Y-89204436D01*
X212625000Y-89658564D02*
X212625000Y-89204436D01*
X197639000Y-94103564D02*
X197639000Y-93649436D01*
X199109000Y-94103564D02*
X199109000Y-93649436D01*
D12*
X133925000Y-159425000D02*
X131425000Y-159425000D01*
X133925000Y-164425000D02*
X133925000Y-159425000D01*
X131425000Y-164425000D02*
X133925000Y-164425000D01*
X131425000Y-159425000D02*
X131425000Y-164425000D01*
D11*
X201570000Y-93950064D02*
X201570000Y-92745936D01*
X199750000Y-93950064D02*
X199750000Y-92745936D01*
X342312500Y-168143750D02*
X340312500Y-168143750D01*
X340312500Y-168143750D02*
X340312500Y-164243750D01*
X342312500Y-168143750D02*
X342312500Y-164243750D01*
X342312500Y-149093750D02*
X340312500Y-149093750D01*
X340312500Y-149093750D02*
X340312500Y-145193750D01*
X342312500Y-149093750D02*
X342312500Y-145193750D01*
X342312500Y-130043750D02*
X340312500Y-130043750D01*
X340312500Y-130043750D02*
X340312500Y-126143750D01*
X342312500Y-130043750D02*
X342312500Y-126143750D01*
X342312500Y-110993750D02*
X340312500Y-110993750D01*
X340312500Y-110993750D02*
X340312500Y-107093750D01*
X342312500Y-110993750D02*
X342312500Y-107093750D01*
X342312500Y-92421000D02*
X340312500Y-92421000D01*
X340312500Y-92421000D02*
X340312500Y-88521000D01*
X342312500Y-92421000D02*
X342312500Y-88521000D01*
X323262500Y-168143750D02*
X321262500Y-168143750D01*
X321262500Y-168143750D02*
X321262500Y-164243750D01*
X323262500Y-168143750D02*
X323262500Y-164243750D01*
X323262500Y-149093750D02*
X321262500Y-149093750D01*
X321262500Y-149093750D02*
X321262500Y-145193750D01*
X323262500Y-149093750D02*
X323262500Y-145193750D01*
X335962500Y-130043750D02*
X333962500Y-130043750D01*
X333962500Y-130043750D02*
X333962500Y-126143750D01*
X335962500Y-130043750D02*
X335962500Y-126143750D01*
X335962500Y-110993750D02*
X333962500Y-110993750D01*
X333962500Y-110993750D02*
X333962500Y-107093750D01*
X335962500Y-110993750D02*
X335962500Y-107093750D01*
X339137500Y-92421000D02*
X337137500Y-92421000D01*
X337137500Y-92421000D02*
X337137500Y-88521000D01*
X339137500Y-92421000D02*
X339137500Y-88521000D01*
X304212500Y-168143750D02*
X302212500Y-168143750D01*
X302212500Y-168143750D02*
X302212500Y-164243750D01*
X304212500Y-168143750D02*
X304212500Y-164243750D01*
X314531250Y-149093750D02*
X312531250Y-149093750D01*
X312531250Y-149093750D02*
X312531250Y-145193750D01*
X314531250Y-149093750D02*
X314531250Y-145193750D01*
X311356250Y-110993750D02*
X309356250Y-110993750D01*
X309356250Y-110993750D02*
X309356250Y-107093750D01*
X311356250Y-110993750D02*
X311356250Y-107093750D01*
X301831250Y-92421000D02*
X299831250Y-92421000D01*
X299831250Y-92421000D02*
X299831250Y-88521000D01*
X301831250Y-92421000D02*
X301831250Y-88521000D01*
X285162500Y-168143750D02*
X283162500Y-168143750D01*
X283162500Y-168143750D02*
X283162500Y-164243750D01*
X285162500Y-168143750D02*
X285162500Y-164243750D01*
X287543750Y-149093750D02*
X285543750Y-149093750D01*
X285543750Y-149093750D02*
X285543750Y-145193750D01*
X287543750Y-149093750D02*
X287543750Y-145193750D01*
X297068750Y-130043750D02*
X295068750Y-130043750D01*
X295068750Y-130043750D02*
X295068750Y-126143750D01*
X297068750Y-130043750D02*
X297068750Y-126143750D01*
X292306250Y-110993750D02*
X290306250Y-110993750D01*
X290306250Y-110993750D02*
X290306250Y-107093750D01*
X292306250Y-110993750D02*
X292306250Y-107093750D01*
X282781250Y-92421000D02*
X280781250Y-92421000D01*
X280781250Y-92421000D02*
X280781250Y-88521000D01*
X282781250Y-92421000D02*
X282781250Y-88521000D01*
X266112500Y-168143750D02*
X264112500Y-168143750D01*
X264112500Y-168143750D02*
X264112500Y-164243750D01*
X266112500Y-168143750D02*
X266112500Y-164243750D01*
X268493750Y-149093750D02*
X266493750Y-149093750D01*
X266493750Y-149093750D02*
X266493750Y-145193750D01*
X268493750Y-149093750D02*
X268493750Y-145193750D01*
X278018750Y-130043750D02*
X276018750Y-130043750D01*
X276018750Y-130043750D02*
X276018750Y-126143750D01*
X278018750Y-130043750D02*
X278018750Y-126143750D01*
X273256250Y-110993750D02*
X271256250Y-110993750D01*
X271256250Y-110993750D02*
X271256250Y-107093750D01*
X273256250Y-110993750D02*
X273256250Y-107093750D01*
X263731250Y-92421000D02*
X261731250Y-92421000D01*
X261731250Y-92421000D02*
X261731250Y-88521000D01*
X263731250Y-92421000D02*
X263731250Y-88521000D01*
X247062500Y-168143750D02*
X245062500Y-168143750D01*
X245062500Y-168143750D02*
X245062500Y-164243750D01*
X247062500Y-168143750D02*
X247062500Y-164243750D01*
X249443750Y-149093750D02*
X247443750Y-149093750D01*
X247443750Y-149093750D02*
X247443750Y-145193750D01*
X249443750Y-149093750D02*
X249443750Y-145193750D01*
X258968750Y-130043750D02*
X256968750Y-130043750D01*
X256968750Y-130043750D02*
X256968750Y-126143750D01*
X258968750Y-130043750D02*
X258968750Y-126143750D01*
X254206250Y-110993750D02*
X252206250Y-110993750D01*
X252206250Y-110993750D02*
X252206250Y-107093750D01*
X254206250Y-110993750D02*
X254206250Y-107093750D01*
X244681250Y-92421000D02*
X242681250Y-92421000D01*
X242681250Y-92421000D02*
X242681250Y-88521000D01*
X244681250Y-92421000D02*
X244681250Y-88521000D01*
X230393750Y-149093750D02*
X228393750Y-149093750D01*
X228393750Y-149093750D02*
X228393750Y-145193750D01*
X230393750Y-149093750D02*
X230393750Y-145193750D01*
X239918750Y-130043750D02*
X237918750Y-130043750D01*
X237918750Y-130043750D02*
X237918750Y-126143750D01*
X239918750Y-130043750D02*
X239918750Y-126143750D01*
X235156250Y-110993750D02*
X233156250Y-110993750D01*
X233156250Y-110993750D02*
X233156250Y-107093750D01*
X235156250Y-110993750D02*
X235156250Y-107093750D01*
X225631250Y-92421000D02*
X223631250Y-92421000D01*
X223631250Y-92421000D02*
X223631250Y-88521000D01*
X225631250Y-92421000D02*
X225631250Y-88521000D01*
X211343750Y-149093750D02*
X209343750Y-149093750D01*
X209343750Y-149093750D02*
X209343750Y-145193750D01*
X211343750Y-149093750D02*
X211343750Y-145193750D01*
X220868750Y-130043750D02*
X218868750Y-130043750D01*
X218868750Y-130043750D02*
X218868750Y-126143750D01*
X220868750Y-130043750D02*
X220868750Y-126143750D01*
X216106250Y-110993750D02*
X214106250Y-110993750D01*
X214106250Y-110993750D02*
X214106250Y-107093750D01*
X216106250Y-110993750D02*
X216106250Y-107093750D01*
X190357000Y-92420000D02*
X188357000Y-92420000D01*
X188357000Y-92420000D02*
X188357000Y-88520000D01*
X190357000Y-92420000D02*
X190357000Y-88520000D01*
X192293750Y-149093750D02*
X190293750Y-149093750D01*
X190293750Y-149093750D02*
X190293750Y-145193750D01*
X192293750Y-149093750D02*
X192293750Y-145193750D01*
X201818750Y-130043750D02*
X199818750Y-130043750D01*
X199818750Y-130043750D02*
X199818750Y-126143750D01*
X201818750Y-130043750D02*
X201818750Y-126143750D01*
X197056250Y-110993750D02*
X195056250Y-110993750D01*
X195056250Y-110993750D02*
X195056250Y-107093750D01*
X197056250Y-110993750D02*
X197056250Y-107093750D01*
X187531250Y-92421000D02*
X185531250Y-92421000D01*
X185531250Y-92421000D02*
X185531250Y-88521000D01*
X187531250Y-92421000D02*
X187531250Y-88521000D01*
X196262500Y-168111000D02*
X194262500Y-168111000D01*
X194262500Y-168111000D02*
X194262500Y-164211000D01*
X196262500Y-168111000D02*
X196262500Y-164211000D01*
X173243750Y-149093750D02*
X171243750Y-149093750D01*
X171243750Y-149093750D02*
X171243750Y-145193750D01*
X173243750Y-149093750D02*
X173243750Y-145193750D01*
X182768750Y-130043750D02*
X180768750Y-130043750D01*
X180768750Y-130043750D02*
X180768750Y-126143750D01*
X182768750Y-130043750D02*
X182768750Y-126143750D01*
X178006250Y-110993750D02*
X176006250Y-110993750D01*
X176006250Y-110993750D02*
X176006250Y-107093750D01*
X178006250Y-110993750D02*
X178006250Y-107093750D01*
X168481250Y-92421000D02*
X166481250Y-92421000D01*
X166481250Y-92421000D02*
X166481250Y-88521000D01*
X168481250Y-92421000D02*
X168481250Y-88521000D01*
X154193750Y-149093750D02*
X152193750Y-149093750D01*
X152193750Y-149093750D02*
X152193750Y-145193750D01*
X154193750Y-149093750D02*
X154193750Y-145193750D01*
X163718750Y-130043750D02*
X161718750Y-130043750D01*
X161718750Y-130043750D02*
X161718750Y-126143750D01*
X163718750Y-130043750D02*
X163718750Y-126143750D01*
X158956250Y-110993750D02*
X156956250Y-110993750D01*
X156956250Y-110993750D02*
X156956250Y-107093750D01*
X158956250Y-110993750D02*
X158956250Y-107093750D01*
X149431250Y-92419000D02*
X147431250Y-92419000D01*
X147431250Y-92419000D02*
X147431250Y-88519000D01*
X149431250Y-92419000D02*
X149431250Y-88519000D01*
X135143750Y-149093750D02*
X133143750Y-149093750D01*
X133143750Y-149093750D02*
X133143750Y-145193750D01*
X135143750Y-149093750D02*
X135143750Y-145193750D01*
X144668750Y-130043750D02*
X142668750Y-130043750D01*
X142668750Y-130043750D02*
X142668750Y-126143750D01*
X144668750Y-130043750D02*
X144668750Y-126143750D01*
X139906250Y-110993750D02*
X137906250Y-110993750D01*
X137906250Y-110993750D02*
X137906250Y-107093750D01*
X139906250Y-110993750D02*
X139906250Y-107093750D01*
X130381250Y-92419000D02*
X128381250Y-92419000D01*
X128381250Y-92419000D02*
X128381250Y-88519000D01*
X130381250Y-92419000D02*
X130381250Y-88519000D01*
X124031250Y-168143750D02*
X122031250Y-168143750D01*
X122031250Y-168143750D02*
X122031250Y-164243750D01*
X124031250Y-168143750D02*
X124031250Y-164243750D01*
X116093750Y-149093750D02*
X114093750Y-149093750D01*
X114093750Y-149093750D02*
X114093750Y-145193750D01*
X116093750Y-149093750D02*
X116093750Y-145193750D01*
X125618750Y-130043750D02*
X123618750Y-130043750D01*
X123618750Y-130043750D02*
X123618750Y-126143750D01*
X125618750Y-130043750D02*
X125618750Y-126143750D01*
X120856250Y-110993750D02*
X118856250Y-110993750D01*
X118856250Y-110993750D02*
X118856250Y-107093750D01*
X120856250Y-110993750D02*
X120856250Y-107093750D01*
X111331250Y-92419000D02*
X109331250Y-92419000D01*
X109331250Y-92419000D02*
X109331250Y-88519000D01*
X111331250Y-92419000D02*
X111331250Y-88519000D01*
X100218750Y-168143750D02*
X98218750Y-168143750D01*
X98218750Y-168143750D02*
X98218750Y-164243750D01*
X100218750Y-168143750D02*
X100218750Y-164243750D01*
X106568750Y-130043750D02*
X104568750Y-130043750D01*
X104568750Y-130043750D02*
X104568750Y-126143750D01*
X106568750Y-130043750D02*
X106568750Y-126143750D01*
X101806250Y-110993750D02*
X99806250Y-110993750D01*
X99806250Y-110993750D02*
X99806250Y-107093750D01*
X101806250Y-110993750D02*
X101806250Y-107093750D01*
X92281250Y-92419000D02*
X90281250Y-92419000D01*
X90281250Y-92419000D02*
X90281250Y-88519000D01*
X92281250Y-92419000D02*
X92281250Y-88519000D01*
X76406250Y-168143750D02*
X74406250Y-168143750D01*
X74406250Y-168143750D02*
X74406250Y-164243750D01*
X76406250Y-168143750D02*
X76406250Y-164243750D01*
X93868750Y-149093750D02*
X91868750Y-149093750D01*
X91868750Y-149093750D02*
X91868750Y-145193750D01*
X93868750Y-149093750D02*
X93868750Y-145193750D01*
X81168750Y-130106250D02*
X79168750Y-130106250D01*
X79168750Y-130106250D02*
X79168750Y-126206250D01*
X81168750Y-130106250D02*
X81168750Y-126206250D01*
X78787500Y-110993750D02*
X76787500Y-110993750D01*
X76787500Y-110993750D02*
X76787500Y-107093750D01*
X78787500Y-110993750D02*
X78787500Y-107093750D01*
X73231250Y-92419000D02*
X71231250Y-92419000D01*
X71231250Y-92419000D02*
X71231250Y-88519000D01*
X73231250Y-92419000D02*
X73231250Y-88519000D01*
X202200000Y-91094000D02*
X204200000Y-91094000D01*
X204200000Y-91094000D02*
X204200000Y-94994000D01*
X202200000Y-91094000D02*
X202200000Y-94994000D01*
X209693000Y-91094000D02*
X211693000Y-91094000D01*
X211693000Y-91094000D02*
X211693000Y-94994000D01*
X209693000Y-91094000D02*
X209693000Y-94994000D01*
X222704252Y-171858000D02*
X222181748Y-171858000D01*
X222704252Y-173328000D02*
X222181748Y-173328000D01*
X213587000Y-162628252D02*
X213587000Y-162105748D01*
X212117000Y-162628252D02*
X212117000Y-162105748D01*
X206760752Y-158967500D02*
X206238248Y-158967500D01*
X206760752Y-160437500D02*
X206238248Y-160437500D01*
X206240748Y-154595500D02*
X206763252Y-154595500D01*
X206240748Y-153125500D02*
X206763252Y-153125500D01*
X222054748Y-154405000D02*
X222577252Y-154405000D01*
X222054748Y-152935000D02*
X222577252Y-152935000D01*
D10*
X208701170Y-84267380D02*
X208701170Y-85076904D01*
X208653551Y-85172142D01*
X208605932Y-85219761D01*
X208510694Y-85267380D01*
X208320217Y-85267380D01*
X208224979Y-85219761D01*
X208177360Y-85172142D01*
X208129741Y-85076904D01*
X208129741Y-84267380D01*
X207701170Y-85219761D02*
X207558313Y-85267380D01*
X207320217Y-85267380D01*
X207224979Y-85219761D01*
X207177360Y-85172142D01*
X207129741Y-85076904D01*
X207129741Y-84981666D01*
X207177360Y-84886428D01*
X207224979Y-84838809D01*
X207320217Y-84791190D01*
X207510694Y-84743571D01*
X207605932Y-84695952D01*
X207653551Y-84648333D01*
X207701170Y-84553095D01*
X207701170Y-84457857D01*
X207653551Y-84362619D01*
X207605932Y-84315000D01*
X207510694Y-84267380D01*
X207272598Y-84267380D01*
X207129741Y-84315000D01*
X206367836Y-84743571D02*
X206224979Y-84791190D01*
X206177360Y-84838809D01*
X206129741Y-84934047D01*
X206129741Y-85076904D01*
X206177360Y-85172142D01*
X206224979Y-85219761D01*
X206320217Y-85267380D01*
X206701170Y-85267380D01*
X206701170Y-84267380D01*
X206367836Y-84267380D01*
X206272598Y-84315000D01*
X206224979Y-84362619D01*
X206177360Y-84457857D01*
X206177360Y-84553095D01*
X206224979Y-84648333D01*
X206272598Y-84695952D01*
X206367836Y-84743571D01*
X206701170Y-84743571D01*
X205177360Y-85267380D02*
X205748789Y-85267380D01*
X205463075Y-85267380D02*
X205463075Y-84267380D01*
X205558313Y-84410238D01*
X205653551Y-84505476D01*
X205748789Y-84553095D01*
X207660904Y-89774380D02*
X207660904Y-90583904D01*
X207613285Y-90679142D01*
X207565666Y-90726761D01*
X207470428Y-90774380D01*
X207279952Y-90774380D01*
X207184714Y-90726761D01*
X207137095Y-90679142D01*
X207089476Y-90583904D01*
X207089476Y-89774380D01*
X206660904Y-89869619D02*
X206613285Y-89822000D01*
X206518047Y-89774380D01*
X206279952Y-89774380D01*
X206184714Y-89822000D01*
X206137095Y-89869619D01*
X206089476Y-89964857D01*
X206089476Y-90060095D01*
X206137095Y-90202952D01*
X206708523Y-90774380D01*
X206089476Y-90774380D01*
X233402142Y-161504333D02*
X233449761Y-161456714D01*
X233497380Y-161313857D01*
X233497380Y-161218619D01*
X233449761Y-161075761D01*
X233354523Y-160980523D01*
X233259285Y-160932904D01*
X233068809Y-160885285D01*
X232925952Y-160885285D01*
X232735476Y-160932904D01*
X232640238Y-160980523D01*
X232545000Y-161075761D01*
X232497380Y-161218619D01*
X232497380Y-161313857D01*
X232545000Y-161456714D01*
X232592619Y-161504333D01*
X232497380Y-162361476D02*
X232497380Y-162171000D01*
X232545000Y-162075761D01*
X232592619Y-162028142D01*
X232735476Y-161932904D01*
X232925952Y-161885285D01*
X233306904Y-161885285D01*
X233402142Y-161932904D01*
X233449761Y-161980523D01*
X233497380Y-162075761D01*
X233497380Y-162266238D01*
X233449761Y-162361476D01*
X233402142Y-162409095D01*
X233306904Y-162456714D01*
X233068809Y-162456714D01*
X232973571Y-162409095D01*
X232925952Y-162361476D01*
X232878333Y-162266238D01*
X232878333Y-162075761D01*
X232925952Y-161980523D01*
X232973571Y-161932904D01*
X233068809Y-161885285D01*
X202922190Y-156305309D02*
X203398380Y-156305309D01*
X202398380Y-155971976D02*
X202922190Y-156305309D01*
X202398380Y-156638642D01*
X203398380Y-157495785D02*
X203398380Y-156924357D01*
X203398380Y-157210071D02*
X202398380Y-157210071D01*
X202541238Y-157114833D01*
X202636476Y-157019595D01*
X202684095Y-156924357D01*
X220916404Y-169949880D02*
X220916404Y-170759404D01*
X220868785Y-170854642D01*
X220821166Y-170902261D01*
X220725928Y-170949880D01*
X220535452Y-170949880D01*
X220440214Y-170902261D01*
X220392595Y-170854642D01*
X220344976Y-170759404D01*
X220344976Y-169949880D01*
X219344976Y-170949880D02*
X219916404Y-170949880D01*
X219630690Y-170949880D02*
X219630690Y-169949880D01*
X219725928Y-170092738D01*
X219821166Y-170187976D01*
X219916404Y-170235595D01*
X150748833Y-172489761D02*
X150605976Y-172537380D01*
X150367880Y-172537380D01*
X150272642Y-172489761D01*
X150225023Y-172442142D01*
X150177404Y-172346904D01*
X150177404Y-172251666D01*
X150225023Y-172156428D01*
X150272642Y-172108809D01*
X150367880Y-172061190D01*
X150558357Y-172013571D01*
X150653595Y-171965952D01*
X150701214Y-171918333D01*
X150748833Y-171823095D01*
X150748833Y-171727857D01*
X150701214Y-171632619D01*
X150653595Y-171585000D01*
X150558357Y-171537380D01*
X150320261Y-171537380D01*
X150177404Y-171585000D01*
X149844071Y-171537380D02*
X149605976Y-172537380D01*
X149415500Y-171823095D01*
X149225023Y-172537380D01*
X148986928Y-171537380D01*
X148653595Y-171632619D02*
X148605976Y-171585000D01*
X148510738Y-171537380D01*
X148272642Y-171537380D01*
X148177404Y-171585000D01*
X148129785Y-171632619D01*
X148082166Y-171727857D01*
X148082166Y-171823095D01*
X148129785Y-171965952D01*
X148701214Y-172537380D01*
X148082166Y-172537380D01*
X150621833Y-161567761D02*
X150478976Y-161615380D01*
X150240880Y-161615380D01*
X150145642Y-161567761D01*
X150098023Y-161520142D01*
X150050404Y-161424904D01*
X150050404Y-161329666D01*
X150098023Y-161234428D01*
X150145642Y-161186809D01*
X150240880Y-161139190D01*
X150431357Y-161091571D01*
X150526595Y-161043952D01*
X150574214Y-160996333D01*
X150621833Y-160901095D01*
X150621833Y-160805857D01*
X150574214Y-160710619D01*
X150526595Y-160663000D01*
X150431357Y-160615380D01*
X150193261Y-160615380D01*
X150050404Y-160663000D01*
X149717071Y-160615380D02*
X149478976Y-161615380D01*
X149288500Y-160901095D01*
X149098023Y-161615380D01*
X148859928Y-160615380D01*
X147955166Y-161615380D02*
X148526595Y-161615380D01*
X148240880Y-161615380D02*
X148240880Y-160615380D01*
X148336119Y-160758238D01*
X148431357Y-160853476D01*
X148526595Y-160901095D01*
X157805380Y-156297333D02*
X157329190Y-155964000D01*
X157805380Y-155725904D02*
X156805380Y-155725904D01*
X156805380Y-156106857D01*
X156853000Y-156202095D01*
X156900619Y-156249714D01*
X156995857Y-156297333D01*
X157138714Y-156297333D01*
X157233952Y-156249714D01*
X157281571Y-156202095D01*
X157329190Y-156106857D01*
X157329190Y-155725904D01*
X156805380Y-156630666D02*
X156805380Y-157297333D01*
X157805380Y-156868761D01*
X205906666Y-95575380D02*
X206240000Y-95099190D01*
X206478095Y-95575380D02*
X206478095Y-94575380D01*
X206097142Y-94575380D01*
X206001904Y-94623000D01*
X205954285Y-94670619D01*
X205906666Y-94765857D01*
X205906666Y-94908714D01*
X205954285Y-95003952D01*
X206001904Y-95051571D01*
X206097142Y-95099190D01*
X206478095Y-95099190D01*
X205001904Y-94575380D02*
X205478095Y-94575380D01*
X205525714Y-95051571D01*
X205478095Y-95003952D01*
X205382857Y-94956333D01*
X205144761Y-94956333D01*
X205049523Y-95003952D01*
X205001904Y-95051571D01*
X204954285Y-95146809D01*
X204954285Y-95384904D01*
X205001904Y-95480142D01*
X205049523Y-95527761D01*
X205144761Y-95575380D01*
X205382857Y-95575380D01*
X205478095Y-95527761D01*
X205525714Y-95480142D01*
X202962166Y-99257380D02*
X203295500Y-98781190D01*
X203533595Y-99257380D02*
X203533595Y-98257380D01*
X203152642Y-98257380D01*
X203057404Y-98305000D01*
X203009785Y-98352619D01*
X202962166Y-98447857D01*
X202962166Y-98590714D01*
X203009785Y-98685952D01*
X203057404Y-98733571D01*
X203152642Y-98781190D01*
X203533595Y-98781190D01*
X202105023Y-98590714D02*
X202105023Y-99257380D01*
X202343119Y-98209761D02*
X202581214Y-98924047D01*
X201962166Y-98924047D01*
X208446666Y-95575380D02*
X208780000Y-95099190D01*
X209018095Y-95575380D02*
X209018095Y-94575380D01*
X208637142Y-94575380D01*
X208541904Y-94623000D01*
X208494285Y-94670619D01*
X208446666Y-94765857D01*
X208446666Y-94908714D01*
X208494285Y-95003952D01*
X208541904Y-95051571D01*
X208637142Y-95099190D01*
X209018095Y-95099190D01*
X208113333Y-94575380D02*
X207494285Y-94575380D01*
X207827619Y-94956333D01*
X207684761Y-94956333D01*
X207589523Y-95003952D01*
X207541904Y-95051571D01*
X207494285Y-95146809D01*
X207494285Y-95384904D01*
X207541904Y-95480142D01*
X207589523Y-95527761D01*
X207684761Y-95575380D01*
X207970476Y-95575380D01*
X208065714Y-95527761D01*
X208113333Y-95480142D01*
X214669666Y-92273380D02*
X215003000Y-91797190D01*
X215241095Y-92273380D02*
X215241095Y-91273380D01*
X214860142Y-91273380D01*
X214764904Y-91321000D01*
X214717285Y-91368619D01*
X214669666Y-91463857D01*
X214669666Y-91606714D01*
X214717285Y-91701952D01*
X214764904Y-91749571D01*
X214860142Y-91797190D01*
X215241095Y-91797190D01*
X214288714Y-91368619D02*
X214241095Y-91321000D01*
X214145857Y-91273380D01*
X213907761Y-91273380D01*
X213812523Y-91321000D01*
X213764904Y-91368619D01*
X213717285Y-91463857D01*
X213717285Y-91559095D01*
X213764904Y-91701952D01*
X214336333Y-92273380D01*
X213717285Y-92273380D01*
X198032666Y-96591380D02*
X198366000Y-96115190D01*
X198604095Y-96591380D02*
X198604095Y-95591380D01*
X198223142Y-95591380D01*
X198127904Y-95639000D01*
X198080285Y-95686619D01*
X198032666Y-95781857D01*
X198032666Y-95924714D01*
X198080285Y-96019952D01*
X198127904Y-96067571D01*
X198223142Y-96115190D01*
X198604095Y-96115190D01*
X197080285Y-96591380D02*
X197651714Y-96591380D01*
X197366000Y-96591380D02*
X197366000Y-95591380D01*
X197461238Y-95734238D01*
X197556476Y-95829476D01*
X197651714Y-95877095D01*
X128127380Y-156103571D02*
X127127380Y-156103571D01*
X127841666Y-156436904D01*
X127127380Y-156770238D01*
X128127380Y-156770238D01*
X128127380Y-157246428D02*
X127127380Y-157246428D01*
X128079761Y-157675000D02*
X128127380Y-157817857D01*
X128127380Y-158055952D01*
X128079761Y-158151190D01*
X128032142Y-158198809D01*
X127936904Y-158246428D01*
X127841666Y-158246428D01*
X127746428Y-158198809D01*
X127698809Y-158151190D01*
X127651190Y-158055952D01*
X127603571Y-157865476D01*
X127555952Y-157770238D01*
X127508333Y-157722619D01*
X127413095Y-157675000D01*
X127317857Y-157675000D01*
X127222619Y-157722619D01*
X127175000Y-157770238D01*
X127127380Y-157865476D01*
X127127380Y-158103571D01*
X127175000Y-158246428D01*
X127127380Y-158865476D02*
X127127380Y-159055952D01*
X127175000Y-159151190D01*
X127270238Y-159246428D01*
X127460714Y-159294047D01*
X127794047Y-159294047D01*
X127984523Y-159246428D01*
X128079761Y-159151190D01*
X128127380Y-159055952D01*
X128127380Y-158865476D01*
X128079761Y-158770238D01*
X127984523Y-158675000D01*
X127794047Y-158627380D01*
X127460714Y-158627380D01*
X127270238Y-158675000D01*
X127175000Y-158770238D01*
X127127380Y-158865476D01*
X127127380Y-164591666D02*
X128127380Y-164925000D01*
X127127380Y-165258333D01*
X128032142Y-166163095D02*
X128079761Y-166115476D01*
X128127380Y-165972619D01*
X128127380Y-165877380D01*
X128079761Y-165734523D01*
X127984523Y-165639285D01*
X127889285Y-165591666D01*
X127698809Y-165544047D01*
X127555952Y-165544047D01*
X127365476Y-165591666D01*
X127270238Y-165639285D01*
X127175000Y-165734523D01*
X127127380Y-165877380D01*
X127127380Y-165972619D01*
X127175000Y-166115476D01*
X127222619Y-166163095D01*
X128032142Y-167163095D02*
X128079761Y-167115476D01*
X128127380Y-166972619D01*
X128127380Y-166877380D01*
X128079761Y-166734523D01*
X127984523Y-166639285D01*
X127889285Y-166591666D01*
X127698809Y-166544047D01*
X127555952Y-166544047D01*
X127365476Y-166591666D01*
X127270238Y-166639285D01*
X127175000Y-166734523D01*
X127127380Y-166877380D01*
X127127380Y-166972619D01*
X127175000Y-167115476D01*
X127222619Y-167163095D01*
X130579761Y-156639285D02*
X130627380Y-156782142D01*
X130627380Y-157020238D01*
X130579761Y-157115476D01*
X130532142Y-157163095D01*
X130436904Y-157210714D01*
X130341666Y-157210714D01*
X130246428Y-157163095D01*
X130198809Y-157115476D01*
X130151190Y-157020238D01*
X130103571Y-156829761D01*
X130055952Y-156734523D01*
X130008333Y-156686904D01*
X129913095Y-156639285D01*
X129817857Y-156639285D01*
X129722619Y-156686904D01*
X129675000Y-156734523D01*
X129627380Y-156829761D01*
X129627380Y-157067857D01*
X129675000Y-157210714D01*
X130532142Y-158210714D02*
X130579761Y-158163095D01*
X130627380Y-158020238D01*
X130627380Y-157925000D01*
X130579761Y-157782142D01*
X130484523Y-157686904D01*
X130389285Y-157639285D01*
X130198809Y-157591666D01*
X130055952Y-157591666D01*
X129865476Y-157639285D01*
X129770238Y-157686904D01*
X129675000Y-157782142D01*
X129627380Y-157925000D01*
X129627380Y-158020238D01*
X129675000Y-158163095D01*
X129722619Y-158210714D01*
X130627380Y-158639285D02*
X129627380Y-158639285D01*
X130627380Y-159210714D02*
X130055952Y-158782142D01*
X129627380Y-159210714D02*
X130198809Y-158639285D01*
X130627380Y-164603571D02*
X129627380Y-164603571D01*
X130341666Y-164936904D01*
X129627380Y-165270238D01*
X130627380Y-165270238D01*
X129627380Y-165936904D02*
X129627380Y-166127380D01*
X129675000Y-166222619D01*
X129770238Y-166317857D01*
X129960714Y-166365476D01*
X130294047Y-166365476D01*
X130484523Y-166317857D01*
X130579761Y-166222619D01*
X130627380Y-166127380D01*
X130627380Y-165936904D01*
X130579761Y-165841666D01*
X130484523Y-165746428D01*
X130294047Y-165698809D01*
X129960714Y-165698809D01*
X129770238Y-165746428D01*
X129675000Y-165841666D01*
X129627380Y-165936904D01*
X130579761Y-166746428D02*
X130627380Y-166889285D01*
X130627380Y-167127380D01*
X130579761Y-167222619D01*
X130532142Y-167270238D01*
X130436904Y-167317857D01*
X130341666Y-167317857D01*
X130246428Y-167270238D01*
X130198809Y-167222619D01*
X130151190Y-167127380D01*
X130103571Y-166936904D01*
X130055952Y-166841666D01*
X130008333Y-166794047D01*
X129913095Y-166746428D01*
X129817857Y-166746428D01*
X129722619Y-166794047D01*
X129675000Y-166841666D01*
X129627380Y-166936904D01*
X129627380Y-167175000D01*
X129675000Y-167317857D01*
X130627380Y-167746428D02*
X129627380Y-167746428D01*
X133127380Y-157127380D02*
X132651190Y-156794047D01*
X133127380Y-156555952D02*
X132127380Y-156555952D01*
X132127380Y-156936904D01*
X132175000Y-157032142D01*
X132222619Y-157079761D01*
X132317857Y-157127380D01*
X132460714Y-157127380D01*
X132555952Y-157079761D01*
X132603571Y-157032142D01*
X132651190Y-156936904D01*
X132651190Y-156555952D01*
X133079761Y-157508333D02*
X133127380Y-157651190D01*
X133127380Y-157889285D01*
X133079761Y-157984523D01*
X133032142Y-158032142D01*
X132936904Y-158079761D01*
X132841666Y-158079761D01*
X132746428Y-158032142D01*
X132698809Y-157984523D01*
X132651190Y-157889285D01*
X132603571Y-157698809D01*
X132555952Y-157603571D01*
X132508333Y-157555952D01*
X132413095Y-157508333D01*
X132317857Y-157508333D01*
X132222619Y-157555952D01*
X132175000Y-157603571D01*
X132127380Y-157698809D01*
X132127380Y-157936904D01*
X132175000Y-158079761D01*
X132127380Y-158365476D02*
X132127380Y-158936904D01*
X133127380Y-158651190D02*
X132127380Y-158651190D01*
X132175000Y-165413095D02*
X132127380Y-165317857D01*
X132127380Y-165175000D01*
X132175000Y-165032142D01*
X132270238Y-164936904D01*
X132365476Y-164889285D01*
X132555952Y-164841666D01*
X132698809Y-164841666D01*
X132889285Y-164889285D01*
X132984523Y-164936904D01*
X133079761Y-165032142D01*
X133127380Y-165175000D01*
X133127380Y-165270238D01*
X133079761Y-165413095D01*
X133032142Y-165460714D01*
X132698809Y-165460714D01*
X132698809Y-165270238D01*
X133127380Y-165889285D02*
X132127380Y-165889285D01*
X133127380Y-166460714D01*
X132127380Y-166460714D01*
X133127380Y-166936904D02*
X132127380Y-166936904D01*
X132127380Y-167175000D01*
X132175000Y-167317857D01*
X132270238Y-167413095D01*
X132365476Y-167460714D01*
X132555952Y-167508333D01*
X132698809Y-167508333D01*
X132889285Y-167460714D01*
X132984523Y-167413095D01*
X133079761Y-167317857D01*
X133127380Y-167175000D01*
X133127380Y-166936904D01*
X204168333Y-90352571D02*
X204501666Y-90352571D01*
X204501666Y-90876380D02*
X204501666Y-89876380D01*
X204025476Y-89876380D01*
X203120714Y-90876380D02*
X203692142Y-90876380D01*
X203406428Y-90876380D02*
X203406428Y-89876380D01*
X203501666Y-90019238D01*
X203596904Y-90114476D01*
X203692142Y-90162095D01*
X343606380Y-165917714D02*
X342606380Y-165917714D01*
X342606380Y-166155809D01*
X342654000Y-166298666D01*
X342749238Y-166393904D01*
X342844476Y-166441523D01*
X343034952Y-166489142D01*
X343177809Y-166489142D01*
X343368285Y-166441523D01*
X343463523Y-166393904D01*
X343558761Y-166298666D01*
X343606380Y-166155809D01*
X343606380Y-165917714D01*
X342606380Y-166822476D02*
X342606380Y-167489142D01*
X343606380Y-167060571D01*
X342606380Y-168060571D02*
X342606380Y-168155809D01*
X342654000Y-168251047D01*
X342701619Y-168298666D01*
X342796857Y-168346285D01*
X342987333Y-168393904D01*
X343225428Y-168393904D01*
X343415904Y-168346285D01*
X343511142Y-168298666D01*
X343558761Y-168251047D01*
X343606380Y-168155809D01*
X343606380Y-168060571D01*
X343558761Y-167965333D01*
X343511142Y-167917714D01*
X343415904Y-167870095D01*
X343225428Y-167822476D01*
X342987333Y-167822476D01*
X342796857Y-167870095D01*
X342701619Y-167917714D01*
X342654000Y-167965333D01*
X342606380Y-168060571D01*
X343606380Y-146740714D02*
X342606380Y-146740714D01*
X342606380Y-146978809D01*
X342654000Y-147121666D01*
X342749238Y-147216904D01*
X342844476Y-147264523D01*
X343034952Y-147312142D01*
X343177809Y-147312142D01*
X343368285Y-147264523D01*
X343463523Y-147216904D01*
X343558761Y-147121666D01*
X343606380Y-146978809D01*
X343606380Y-146740714D01*
X342606380Y-148169285D02*
X342606380Y-147978809D01*
X342654000Y-147883571D01*
X342701619Y-147835952D01*
X342844476Y-147740714D01*
X343034952Y-147693095D01*
X343415904Y-147693095D01*
X343511142Y-147740714D01*
X343558761Y-147788333D01*
X343606380Y-147883571D01*
X343606380Y-148074047D01*
X343558761Y-148169285D01*
X343511142Y-148216904D01*
X343415904Y-148264523D01*
X343177809Y-148264523D01*
X343082571Y-148216904D01*
X343034952Y-148169285D01*
X342987333Y-148074047D01*
X342987333Y-147883571D01*
X343034952Y-147788333D01*
X343082571Y-147740714D01*
X343177809Y-147693095D01*
X343606380Y-148740714D02*
X343606380Y-148931190D01*
X343558761Y-149026428D01*
X343511142Y-149074047D01*
X343368285Y-149169285D01*
X343177809Y-149216904D01*
X342796857Y-149216904D01*
X342701619Y-149169285D01*
X342654000Y-149121666D01*
X342606380Y-149026428D01*
X342606380Y-148835952D01*
X342654000Y-148740714D01*
X342701619Y-148693095D01*
X342796857Y-148645476D01*
X343034952Y-148645476D01*
X343130190Y-148693095D01*
X343177809Y-148740714D01*
X343225428Y-148835952D01*
X343225428Y-149026428D01*
X343177809Y-149121666D01*
X343130190Y-149169285D01*
X343034952Y-149216904D01*
X343606380Y-127436714D02*
X342606380Y-127436714D01*
X342606380Y-127674809D01*
X342654000Y-127817666D01*
X342749238Y-127912904D01*
X342844476Y-127960523D01*
X343034952Y-128008142D01*
X343177809Y-128008142D01*
X343368285Y-127960523D01*
X343463523Y-127912904D01*
X343558761Y-127817666D01*
X343606380Y-127674809D01*
X343606380Y-127436714D01*
X342606380Y-128865285D02*
X342606380Y-128674809D01*
X342654000Y-128579571D01*
X342701619Y-128531952D01*
X342844476Y-128436714D01*
X343034952Y-128389095D01*
X343415904Y-128389095D01*
X343511142Y-128436714D01*
X343558761Y-128484333D01*
X343606380Y-128579571D01*
X343606380Y-128770047D01*
X343558761Y-128865285D01*
X343511142Y-128912904D01*
X343415904Y-128960523D01*
X343177809Y-128960523D01*
X343082571Y-128912904D01*
X343034952Y-128865285D01*
X342987333Y-128770047D01*
X342987333Y-128579571D01*
X343034952Y-128484333D01*
X343082571Y-128436714D01*
X343177809Y-128389095D01*
X343034952Y-129531952D02*
X342987333Y-129436714D01*
X342939714Y-129389095D01*
X342844476Y-129341476D01*
X342796857Y-129341476D01*
X342701619Y-129389095D01*
X342654000Y-129436714D01*
X342606380Y-129531952D01*
X342606380Y-129722428D01*
X342654000Y-129817666D01*
X342701619Y-129865285D01*
X342796857Y-129912904D01*
X342844476Y-129912904D01*
X342939714Y-129865285D01*
X342987333Y-129817666D01*
X343034952Y-129722428D01*
X343034952Y-129531952D01*
X343082571Y-129436714D01*
X343130190Y-129389095D01*
X343225428Y-129341476D01*
X343415904Y-129341476D01*
X343511142Y-129389095D01*
X343558761Y-129436714D01*
X343606380Y-129531952D01*
X343606380Y-129722428D01*
X343558761Y-129817666D01*
X343511142Y-129865285D01*
X343415904Y-129912904D01*
X343225428Y-129912904D01*
X343130190Y-129865285D01*
X343082571Y-129817666D01*
X343034952Y-129722428D01*
X343606380Y-108386714D02*
X342606380Y-108386714D01*
X342606380Y-108624809D01*
X342654000Y-108767666D01*
X342749238Y-108862904D01*
X342844476Y-108910523D01*
X343034952Y-108958142D01*
X343177809Y-108958142D01*
X343368285Y-108910523D01*
X343463523Y-108862904D01*
X343558761Y-108767666D01*
X343606380Y-108624809D01*
X343606380Y-108386714D01*
X342606380Y-109815285D02*
X342606380Y-109624809D01*
X342654000Y-109529571D01*
X342701619Y-109481952D01*
X342844476Y-109386714D01*
X343034952Y-109339095D01*
X343415904Y-109339095D01*
X343511142Y-109386714D01*
X343558761Y-109434333D01*
X343606380Y-109529571D01*
X343606380Y-109720047D01*
X343558761Y-109815285D01*
X343511142Y-109862904D01*
X343415904Y-109910523D01*
X343177809Y-109910523D01*
X343082571Y-109862904D01*
X343034952Y-109815285D01*
X342987333Y-109720047D01*
X342987333Y-109529571D01*
X343034952Y-109434333D01*
X343082571Y-109386714D01*
X343177809Y-109339095D01*
X342606380Y-110243857D02*
X342606380Y-110910523D01*
X343606380Y-110481952D01*
X343606380Y-89717714D02*
X342606380Y-89717714D01*
X342606380Y-89955809D01*
X342654000Y-90098666D01*
X342749238Y-90193904D01*
X342844476Y-90241523D01*
X343034952Y-90289142D01*
X343177809Y-90289142D01*
X343368285Y-90241523D01*
X343463523Y-90193904D01*
X343558761Y-90098666D01*
X343606380Y-89955809D01*
X343606380Y-89717714D01*
X342606380Y-91146285D02*
X342606380Y-90955809D01*
X342654000Y-90860571D01*
X342701619Y-90812952D01*
X342844476Y-90717714D01*
X343034952Y-90670095D01*
X343415904Y-90670095D01*
X343511142Y-90717714D01*
X343558761Y-90765333D01*
X343606380Y-90860571D01*
X343606380Y-91051047D01*
X343558761Y-91146285D01*
X343511142Y-91193904D01*
X343415904Y-91241523D01*
X343177809Y-91241523D01*
X343082571Y-91193904D01*
X343034952Y-91146285D01*
X342987333Y-91051047D01*
X342987333Y-90860571D01*
X343034952Y-90765333D01*
X343082571Y-90717714D01*
X343177809Y-90670095D01*
X342606380Y-92098666D02*
X342606380Y-91908190D01*
X342654000Y-91812952D01*
X342701619Y-91765333D01*
X342844476Y-91670095D01*
X343034952Y-91622476D01*
X343415904Y-91622476D01*
X343511142Y-91670095D01*
X343558761Y-91717714D01*
X343606380Y-91812952D01*
X343606380Y-92003428D01*
X343558761Y-92098666D01*
X343511142Y-92146285D01*
X343415904Y-92193904D01*
X343177809Y-92193904D01*
X343082571Y-92146285D01*
X343034952Y-92098666D01*
X342987333Y-92003428D01*
X342987333Y-91812952D01*
X343034952Y-91717714D01*
X343082571Y-91670095D01*
X343177809Y-91622476D01*
X324429380Y-165790714D02*
X323429380Y-165790714D01*
X323429380Y-166028809D01*
X323477000Y-166171666D01*
X323572238Y-166266904D01*
X323667476Y-166314523D01*
X323857952Y-166362142D01*
X324000809Y-166362142D01*
X324191285Y-166314523D01*
X324286523Y-166266904D01*
X324381761Y-166171666D01*
X324429380Y-166028809D01*
X324429380Y-165790714D01*
X323429380Y-167219285D02*
X323429380Y-167028809D01*
X323477000Y-166933571D01*
X323524619Y-166885952D01*
X323667476Y-166790714D01*
X323857952Y-166743095D01*
X324238904Y-166743095D01*
X324334142Y-166790714D01*
X324381761Y-166838333D01*
X324429380Y-166933571D01*
X324429380Y-167124047D01*
X324381761Y-167219285D01*
X324334142Y-167266904D01*
X324238904Y-167314523D01*
X324000809Y-167314523D01*
X323905571Y-167266904D01*
X323857952Y-167219285D01*
X323810333Y-167124047D01*
X323810333Y-166933571D01*
X323857952Y-166838333D01*
X323905571Y-166790714D01*
X324000809Y-166743095D01*
X323429380Y-168219285D02*
X323429380Y-167743095D01*
X323905571Y-167695476D01*
X323857952Y-167743095D01*
X323810333Y-167838333D01*
X323810333Y-168076428D01*
X323857952Y-168171666D01*
X323905571Y-168219285D01*
X324000809Y-168266904D01*
X324238904Y-168266904D01*
X324334142Y-168219285D01*
X324381761Y-168171666D01*
X324429380Y-168076428D01*
X324429380Y-167838333D01*
X324381761Y-167743095D01*
X324334142Y-167695476D01*
X324556380Y-146613714D02*
X323556380Y-146613714D01*
X323556380Y-146851809D01*
X323604000Y-146994666D01*
X323699238Y-147089904D01*
X323794476Y-147137523D01*
X323984952Y-147185142D01*
X324127809Y-147185142D01*
X324318285Y-147137523D01*
X324413523Y-147089904D01*
X324508761Y-146994666D01*
X324556380Y-146851809D01*
X324556380Y-146613714D01*
X323556380Y-148042285D02*
X323556380Y-147851809D01*
X323604000Y-147756571D01*
X323651619Y-147708952D01*
X323794476Y-147613714D01*
X323984952Y-147566095D01*
X324365904Y-147566095D01*
X324461142Y-147613714D01*
X324508761Y-147661333D01*
X324556380Y-147756571D01*
X324556380Y-147947047D01*
X324508761Y-148042285D01*
X324461142Y-148089904D01*
X324365904Y-148137523D01*
X324127809Y-148137523D01*
X324032571Y-148089904D01*
X323984952Y-148042285D01*
X323937333Y-147947047D01*
X323937333Y-147756571D01*
X323984952Y-147661333D01*
X324032571Y-147613714D01*
X324127809Y-147566095D01*
X323889714Y-148994666D02*
X324556380Y-148994666D01*
X323508761Y-148756571D02*
X324223047Y-148518476D01*
X324223047Y-149137523D01*
X337256380Y-127436714D02*
X336256380Y-127436714D01*
X336256380Y-127674809D01*
X336304000Y-127817666D01*
X336399238Y-127912904D01*
X336494476Y-127960523D01*
X336684952Y-128008142D01*
X336827809Y-128008142D01*
X337018285Y-127960523D01*
X337113523Y-127912904D01*
X337208761Y-127817666D01*
X337256380Y-127674809D01*
X337256380Y-127436714D01*
X336256380Y-128865285D02*
X336256380Y-128674809D01*
X336304000Y-128579571D01*
X336351619Y-128531952D01*
X336494476Y-128436714D01*
X336684952Y-128389095D01*
X337065904Y-128389095D01*
X337161142Y-128436714D01*
X337208761Y-128484333D01*
X337256380Y-128579571D01*
X337256380Y-128770047D01*
X337208761Y-128865285D01*
X337161142Y-128912904D01*
X337065904Y-128960523D01*
X336827809Y-128960523D01*
X336732571Y-128912904D01*
X336684952Y-128865285D01*
X336637333Y-128770047D01*
X336637333Y-128579571D01*
X336684952Y-128484333D01*
X336732571Y-128436714D01*
X336827809Y-128389095D01*
X336256380Y-129293857D02*
X336256380Y-129912904D01*
X336637333Y-129579571D01*
X336637333Y-129722428D01*
X336684952Y-129817666D01*
X336732571Y-129865285D01*
X336827809Y-129912904D01*
X337065904Y-129912904D01*
X337161142Y-129865285D01*
X337208761Y-129817666D01*
X337256380Y-129722428D01*
X337256380Y-129436714D01*
X337208761Y-129341476D01*
X337161142Y-129293857D01*
X337383380Y-108386714D02*
X336383380Y-108386714D01*
X336383380Y-108624809D01*
X336431000Y-108767666D01*
X336526238Y-108862904D01*
X336621476Y-108910523D01*
X336811952Y-108958142D01*
X336954809Y-108958142D01*
X337145285Y-108910523D01*
X337240523Y-108862904D01*
X337335761Y-108767666D01*
X337383380Y-108624809D01*
X337383380Y-108386714D01*
X336383380Y-109815285D02*
X336383380Y-109624809D01*
X336431000Y-109529571D01*
X336478619Y-109481952D01*
X336621476Y-109386714D01*
X336811952Y-109339095D01*
X337192904Y-109339095D01*
X337288142Y-109386714D01*
X337335761Y-109434333D01*
X337383380Y-109529571D01*
X337383380Y-109720047D01*
X337335761Y-109815285D01*
X337288142Y-109862904D01*
X337192904Y-109910523D01*
X336954809Y-109910523D01*
X336859571Y-109862904D01*
X336811952Y-109815285D01*
X336764333Y-109720047D01*
X336764333Y-109529571D01*
X336811952Y-109434333D01*
X336859571Y-109386714D01*
X336954809Y-109339095D01*
X336478619Y-110291476D02*
X336431000Y-110339095D01*
X336383380Y-110434333D01*
X336383380Y-110672428D01*
X336431000Y-110767666D01*
X336478619Y-110815285D01*
X336573857Y-110862904D01*
X336669095Y-110862904D01*
X336811952Y-110815285D01*
X337383380Y-110243857D01*
X337383380Y-110862904D01*
X336748380Y-89590714D02*
X335748380Y-89590714D01*
X335748380Y-89828809D01*
X335796000Y-89971666D01*
X335891238Y-90066904D01*
X335986476Y-90114523D01*
X336176952Y-90162142D01*
X336319809Y-90162142D01*
X336510285Y-90114523D01*
X336605523Y-90066904D01*
X336700761Y-89971666D01*
X336748380Y-89828809D01*
X336748380Y-89590714D01*
X335748380Y-91019285D02*
X335748380Y-90828809D01*
X335796000Y-90733571D01*
X335843619Y-90685952D01*
X335986476Y-90590714D01*
X336176952Y-90543095D01*
X336557904Y-90543095D01*
X336653142Y-90590714D01*
X336700761Y-90638333D01*
X336748380Y-90733571D01*
X336748380Y-90924047D01*
X336700761Y-91019285D01*
X336653142Y-91066904D01*
X336557904Y-91114523D01*
X336319809Y-91114523D01*
X336224571Y-91066904D01*
X336176952Y-91019285D01*
X336129333Y-90924047D01*
X336129333Y-90733571D01*
X336176952Y-90638333D01*
X336224571Y-90590714D01*
X336319809Y-90543095D01*
X336748380Y-92066904D02*
X336748380Y-91495476D01*
X336748380Y-91781190D02*
X335748380Y-91781190D01*
X335891238Y-91685952D01*
X335986476Y-91590714D01*
X336034095Y-91495476D01*
X305506380Y-165663714D02*
X304506380Y-165663714D01*
X304506380Y-165901809D01*
X304554000Y-166044666D01*
X304649238Y-166139904D01*
X304744476Y-166187523D01*
X304934952Y-166235142D01*
X305077809Y-166235142D01*
X305268285Y-166187523D01*
X305363523Y-166139904D01*
X305458761Y-166044666D01*
X305506380Y-165901809D01*
X305506380Y-165663714D01*
X304506380Y-167092285D02*
X304506380Y-166901809D01*
X304554000Y-166806571D01*
X304601619Y-166758952D01*
X304744476Y-166663714D01*
X304934952Y-166616095D01*
X305315904Y-166616095D01*
X305411142Y-166663714D01*
X305458761Y-166711333D01*
X305506380Y-166806571D01*
X305506380Y-166997047D01*
X305458761Y-167092285D01*
X305411142Y-167139904D01*
X305315904Y-167187523D01*
X305077809Y-167187523D01*
X304982571Y-167139904D01*
X304934952Y-167092285D01*
X304887333Y-166997047D01*
X304887333Y-166806571D01*
X304934952Y-166711333D01*
X304982571Y-166663714D01*
X305077809Y-166616095D01*
X304506380Y-167806571D02*
X304506380Y-167901809D01*
X304554000Y-167997047D01*
X304601619Y-168044666D01*
X304696857Y-168092285D01*
X304887333Y-168139904D01*
X305125428Y-168139904D01*
X305315904Y-168092285D01*
X305411142Y-168044666D01*
X305458761Y-167997047D01*
X305506380Y-167901809D01*
X305506380Y-167806571D01*
X305458761Y-167711333D01*
X305411142Y-167663714D01*
X305315904Y-167616095D01*
X305125428Y-167568476D01*
X304887333Y-167568476D01*
X304696857Y-167616095D01*
X304601619Y-167663714D01*
X304554000Y-167711333D01*
X304506380Y-167806571D01*
X315983630Y-145629464D02*
X314983630Y-145629464D01*
X314983630Y-145867559D01*
X315031250Y-146010416D01*
X315126488Y-146105654D01*
X315221726Y-146153273D01*
X315412202Y-146200892D01*
X315555059Y-146200892D01*
X315745535Y-146153273D01*
X315840773Y-146105654D01*
X315936011Y-146010416D01*
X315983630Y-145867559D01*
X315983630Y-145629464D01*
X314983630Y-147105654D02*
X314983630Y-146629464D01*
X315459821Y-146581845D01*
X315412202Y-146629464D01*
X315364583Y-146724702D01*
X315364583Y-146962797D01*
X315412202Y-147058035D01*
X315459821Y-147105654D01*
X315555059Y-147153273D01*
X315793154Y-147153273D01*
X315888392Y-147105654D01*
X315936011Y-147058035D01*
X315983630Y-146962797D01*
X315983630Y-146724702D01*
X315936011Y-146629464D01*
X315888392Y-146581845D01*
X315983630Y-147629464D02*
X315983630Y-147819940D01*
X315936011Y-147915178D01*
X315888392Y-147962797D01*
X315745535Y-148058035D01*
X315555059Y-148105654D01*
X315174107Y-148105654D01*
X315078869Y-148058035D01*
X315031250Y-148010416D01*
X314983630Y-147915178D01*
X314983630Y-147724702D01*
X315031250Y-147629464D01*
X315078869Y-147581845D01*
X315174107Y-147534226D01*
X315412202Y-147534226D01*
X315507440Y-147581845D01*
X315555059Y-147629464D01*
X315602678Y-147724702D01*
X315602678Y-147915178D01*
X315555059Y-148010416D01*
X315507440Y-148058035D01*
X315412202Y-148105654D01*
X312808630Y-107529464D02*
X311808630Y-107529464D01*
X311808630Y-107767559D01*
X311856250Y-107910416D01*
X311951488Y-108005654D01*
X312046726Y-108053273D01*
X312237202Y-108100892D01*
X312380059Y-108100892D01*
X312570535Y-108053273D01*
X312665773Y-108005654D01*
X312761011Y-107910416D01*
X312808630Y-107767559D01*
X312808630Y-107529464D01*
X311808630Y-109005654D02*
X311808630Y-108529464D01*
X312284821Y-108481845D01*
X312237202Y-108529464D01*
X312189583Y-108624702D01*
X312189583Y-108862797D01*
X312237202Y-108958035D01*
X312284821Y-109005654D01*
X312380059Y-109053273D01*
X312618154Y-109053273D01*
X312713392Y-109005654D01*
X312761011Y-108958035D01*
X312808630Y-108862797D01*
X312808630Y-108624702D01*
X312761011Y-108529464D01*
X312713392Y-108481845D01*
X312237202Y-109624702D02*
X312189583Y-109529464D01*
X312141964Y-109481845D01*
X312046726Y-109434226D01*
X311999107Y-109434226D01*
X311903869Y-109481845D01*
X311856250Y-109529464D01*
X311808630Y-109624702D01*
X311808630Y-109815178D01*
X311856250Y-109910416D01*
X311903869Y-109958035D01*
X311999107Y-110005654D01*
X312046726Y-110005654D01*
X312141964Y-109958035D01*
X312189583Y-109910416D01*
X312237202Y-109815178D01*
X312237202Y-109624702D01*
X312284821Y-109529464D01*
X312332440Y-109481845D01*
X312427678Y-109434226D01*
X312618154Y-109434226D01*
X312713392Y-109481845D01*
X312761011Y-109529464D01*
X312808630Y-109624702D01*
X312808630Y-109815178D01*
X312761011Y-109910416D01*
X312713392Y-109958035D01*
X312618154Y-110005654D01*
X312427678Y-110005654D01*
X312332440Y-109958035D01*
X312284821Y-109910416D01*
X312237202Y-109815178D01*
X303283630Y-88956714D02*
X302283630Y-88956714D01*
X302283630Y-89194809D01*
X302331250Y-89337666D01*
X302426488Y-89432904D01*
X302521726Y-89480523D01*
X302712202Y-89528142D01*
X302855059Y-89528142D01*
X303045535Y-89480523D01*
X303140773Y-89432904D01*
X303236011Y-89337666D01*
X303283630Y-89194809D01*
X303283630Y-88956714D01*
X302283630Y-90432904D02*
X302283630Y-89956714D01*
X302759821Y-89909095D01*
X302712202Y-89956714D01*
X302664583Y-90051952D01*
X302664583Y-90290047D01*
X302712202Y-90385285D01*
X302759821Y-90432904D01*
X302855059Y-90480523D01*
X303093154Y-90480523D01*
X303188392Y-90432904D01*
X303236011Y-90385285D01*
X303283630Y-90290047D01*
X303283630Y-90051952D01*
X303236011Y-89956714D01*
X303188392Y-89909095D01*
X302283630Y-90813857D02*
X302283630Y-91480523D01*
X303283630Y-91051952D01*
X286456380Y-165536714D02*
X285456380Y-165536714D01*
X285456380Y-165774809D01*
X285504000Y-165917666D01*
X285599238Y-166012904D01*
X285694476Y-166060523D01*
X285884952Y-166108142D01*
X286027809Y-166108142D01*
X286218285Y-166060523D01*
X286313523Y-166012904D01*
X286408761Y-165917666D01*
X286456380Y-165774809D01*
X286456380Y-165536714D01*
X285456380Y-167012904D02*
X285456380Y-166536714D01*
X285932571Y-166489095D01*
X285884952Y-166536714D01*
X285837333Y-166631952D01*
X285837333Y-166870047D01*
X285884952Y-166965285D01*
X285932571Y-167012904D01*
X286027809Y-167060523D01*
X286265904Y-167060523D01*
X286361142Y-167012904D01*
X286408761Y-166965285D01*
X286456380Y-166870047D01*
X286456380Y-166631952D01*
X286408761Y-166536714D01*
X286361142Y-166489095D01*
X285456380Y-167917666D02*
X285456380Y-167727190D01*
X285504000Y-167631952D01*
X285551619Y-167584333D01*
X285694476Y-167489095D01*
X285884952Y-167441476D01*
X286265904Y-167441476D01*
X286361142Y-167489095D01*
X286408761Y-167536714D01*
X286456380Y-167631952D01*
X286456380Y-167822428D01*
X286408761Y-167917666D01*
X286361142Y-167965285D01*
X286265904Y-168012904D01*
X286027809Y-168012904D01*
X285932571Y-167965285D01*
X285884952Y-167917666D01*
X285837333Y-167822428D01*
X285837333Y-167631952D01*
X285884952Y-167536714D01*
X285932571Y-167489095D01*
X286027809Y-167441476D01*
X288996130Y-145629464D02*
X287996130Y-145629464D01*
X287996130Y-145867559D01*
X288043750Y-146010416D01*
X288138988Y-146105654D01*
X288234226Y-146153273D01*
X288424702Y-146200892D01*
X288567559Y-146200892D01*
X288758035Y-146153273D01*
X288853273Y-146105654D01*
X288948511Y-146010416D01*
X288996130Y-145867559D01*
X288996130Y-145629464D01*
X287996130Y-147105654D02*
X287996130Y-146629464D01*
X288472321Y-146581845D01*
X288424702Y-146629464D01*
X288377083Y-146724702D01*
X288377083Y-146962797D01*
X288424702Y-147058035D01*
X288472321Y-147105654D01*
X288567559Y-147153273D01*
X288805654Y-147153273D01*
X288900892Y-147105654D01*
X288948511Y-147058035D01*
X288996130Y-146962797D01*
X288996130Y-146724702D01*
X288948511Y-146629464D01*
X288900892Y-146581845D01*
X287996130Y-148058035D02*
X287996130Y-147581845D01*
X288472321Y-147534226D01*
X288424702Y-147581845D01*
X288377083Y-147677083D01*
X288377083Y-147915178D01*
X288424702Y-148010416D01*
X288472321Y-148058035D01*
X288567559Y-148105654D01*
X288805654Y-148105654D01*
X288900892Y-148058035D01*
X288948511Y-148010416D01*
X288996130Y-147915178D01*
X288996130Y-147677083D01*
X288948511Y-147581845D01*
X288900892Y-147534226D01*
X298521130Y-126579464D02*
X297521130Y-126579464D01*
X297521130Y-126817559D01*
X297568750Y-126960416D01*
X297663988Y-127055654D01*
X297759226Y-127103273D01*
X297949702Y-127150892D01*
X298092559Y-127150892D01*
X298283035Y-127103273D01*
X298378273Y-127055654D01*
X298473511Y-126960416D01*
X298521130Y-126817559D01*
X298521130Y-126579464D01*
X297521130Y-128055654D02*
X297521130Y-127579464D01*
X297997321Y-127531845D01*
X297949702Y-127579464D01*
X297902083Y-127674702D01*
X297902083Y-127912797D01*
X297949702Y-128008035D01*
X297997321Y-128055654D01*
X298092559Y-128103273D01*
X298330654Y-128103273D01*
X298425892Y-128055654D01*
X298473511Y-128008035D01*
X298521130Y-127912797D01*
X298521130Y-127674702D01*
X298473511Y-127579464D01*
X298425892Y-127531845D01*
X297854464Y-128960416D02*
X298521130Y-128960416D01*
X297473511Y-128722321D02*
X298187797Y-128484226D01*
X298187797Y-129103273D01*
X293758630Y-107529464D02*
X292758630Y-107529464D01*
X292758630Y-107767559D01*
X292806250Y-107910416D01*
X292901488Y-108005654D01*
X292996726Y-108053273D01*
X293187202Y-108100892D01*
X293330059Y-108100892D01*
X293520535Y-108053273D01*
X293615773Y-108005654D01*
X293711011Y-107910416D01*
X293758630Y-107767559D01*
X293758630Y-107529464D01*
X292758630Y-109005654D02*
X292758630Y-108529464D01*
X293234821Y-108481845D01*
X293187202Y-108529464D01*
X293139583Y-108624702D01*
X293139583Y-108862797D01*
X293187202Y-108958035D01*
X293234821Y-109005654D01*
X293330059Y-109053273D01*
X293568154Y-109053273D01*
X293663392Y-109005654D01*
X293711011Y-108958035D01*
X293758630Y-108862797D01*
X293758630Y-108624702D01*
X293711011Y-108529464D01*
X293663392Y-108481845D01*
X292758630Y-109386607D02*
X292758630Y-110005654D01*
X293139583Y-109672321D01*
X293139583Y-109815178D01*
X293187202Y-109910416D01*
X293234821Y-109958035D01*
X293330059Y-110005654D01*
X293568154Y-110005654D01*
X293663392Y-109958035D01*
X293711011Y-109910416D01*
X293758630Y-109815178D01*
X293758630Y-109529464D01*
X293711011Y-109434226D01*
X293663392Y-109386607D01*
X284233630Y-88956714D02*
X283233630Y-88956714D01*
X283233630Y-89194809D01*
X283281250Y-89337666D01*
X283376488Y-89432904D01*
X283471726Y-89480523D01*
X283662202Y-89528142D01*
X283805059Y-89528142D01*
X283995535Y-89480523D01*
X284090773Y-89432904D01*
X284186011Y-89337666D01*
X284233630Y-89194809D01*
X284233630Y-88956714D01*
X283233630Y-90432904D02*
X283233630Y-89956714D01*
X283709821Y-89909095D01*
X283662202Y-89956714D01*
X283614583Y-90051952D01*
X283614583Y-90290047D01*
X283662202Y-90385285D01*
X283709821Y-90432904D01*
X283805059Y-90480523D01*
X284043154Y-90480523D01*
X284138392Y-90432904D01*
X284186011Y-90385285D01*
X284233630Y-90290047D01*
X284233630Y-90051952D01*
X284186011Y-89956714D01*
X284138392Y-89909095D01*
X283328869Y-90861476D02*
X283281250Y-90909095D01*
X283233630Y-91004333D01*
X283233630Y-91242428D01*
X283281250Y-91337666D01*
X283328869Y-91385285D01*
X283424107Y-91432904D01*
X283519345Y-91432904D01*
X283662202Y-91385285D01*
X284233630Y-90813857D01*
X284233630Y-91432904D01*
X267406380Y-165536714D02*
X266406380Y-165536714D01*
X266406380Y-165774809D01*
X266454000Y-165917666D01*
X266549238Y-166012904D01*
X266644476Y-166060523D01*
X266834952Y-166108142D01*
X266977809Y-166108142D01*
X267168285Y-166060523D01*
X267263523Y-166012904D01*
X267358761Y-165917666D01*
X267406380Y-165774809D01*
X267406380Y-165536714D01*
X266406380Y-167012904D02*
X266406380Y-166536714D01*
X266882571Y-166489095D01*
X266834952Y-166536714D01*
X266787333Y-166631952D01*
X266787333Y-166870047D01*
X266834952Y-166965285D01*
X266882571Y-167012904D01*
X266977809Y-167060523D01*
X267215904Y-167060523D01*
X267311142Y-167012904D01*
X267358761Y-166965285D01*
X267406380Y-166870047D01*
X267406380Y-166631952D01*
X267358761Y-166536714D01*
X267311142Y-166489095D01*
X267406380Y-168012904D02*
X267406380Y-167441476D01*
X267406380Y-167727190D02*
X266406380Y-167727190D01*
X266549238Y-167631952D01*
X266644476Y-167536714D01*
X266692095Y-167441476D01*
X269946130Y-145629464D02*
X268946130Y-145629464D01*
X268946130Y-145867559D01*
X268993750Y-146010416D01*
X269088988Y-146105654D01*
X269184226Y-146153273D01*
X269374702Y-146200892D01*
X269517559Y-146200892D01*
X269708035Y-146153273D01*
X269803273Y-146105654D01*
X269898511Y-146010416D01*
X269946130Y-145867559D01*
X269946130Y-145629464D01*
X268946130Y-147105654D02*
X268946130Y-146629464D01*
X269422321Y-146581845D01*
X269374702Y-146629464D01*
X269327083Y-146724702D01*
X269327083Y-146962797D01*
X269374702Y-147058035D01*
X269422321Y-147105654D01*
X269517559Y-147153273D01*
X269755654Y-147153273D01*
X269850892Y-147105654D01*
X269898511Y-147058035D01*
X269946130Y-146962797D01*
X269946130Y-146724702D01*
X269898511Y-146629464D01*
X269850892Y-146581845D01*
X268946130Y-147772321D02*
X268946130Y-147867559D01*
X268993750Y-147962797D01*
X269041369Y-148010416D01*
X269136607Y-148058035D01*
X269327083Y-148105654D01*
X269565178Y-148105654D01*
X269755654Y-148058035D01*
X269850892Y-148010416D01*
X269898511Y-147962797D01*
X269946130Y-147867559D01*
X269946130Y-147772321D01*
X269898511Y-147677083D01*
X269850892Y-147629464D01*
X269755654Y-147581845D01*
X269565178Y-147534226D01*
X269327083Y-147534226D01*
X269136607Y-147581845D01*
X269041369Y-147629464D01*
X268993750Y-147677083D01*
X268946130Y-147772321D01*
X279471130Y-126579464D02*
X278471130Y-126579464D01*
X278471130Y-126817559D01*
X278518750Y-126960416D01*
X278613988Y-127055654D01*
X278709226Y-127103273D01*
X278899702Y-127150892D01*
X279042559Y-127150892D01*
X279233035Y-127103273D01*
X279328273Y-127055654D01*
X279423511Y-126960416D01*
X279471130Y-126817559D01*
X279471130Y-126579464D01*
X278804464Y-128008035D02*
X279471130Y-128008035D01*
X278423511Y-127769940D02*
X279137797Y-127531845D01*
X279137797Y-128150892D01*
X279471130Y-128579464D02*
X279471130Y-128769940D01*
X279423511Y-128865178D01*
X279375892Y-128912797D01*
X279233035Y-129008035D01*
X279042559Y-129055654D01*
X278661607Y-129055654D01*
X278566369Y-129008035D01*
X278518750Y-128960416D01*
X278471130Y-128865178D01*
X278471130Y-128674702D01*
X278518750Y-128579464D01*
X278566369Y-128531845D01*
X278661607Y-128484226D01*
X278899702Y-128484226D01*
X278994940Y-128531845D01*
X279042559Y-128579464D01*
X279090178Y-128674702D01*
X279090178Y-128865178D01*
X279042559Y-128960416D01*
X278994940Y-129008035D01*
X278899702Y-129055654D01*
X274708630Y-107529464D02*
X273708630Y-107529464D01*
X273708630Y-107767559D01*
X273756250Y-107910416D01*
X273851488Y-108005654D01*
X273946726Y-108053273D01*
X274137202Y-108100892D01*
X274280059Y-108100892D01*
X274470535Y-108053273D01*
X274565773Y-108005654D01*
X274661011Y-107910416D01*
X274708630Y-107767559D01*
X274708630Y-107529464D01*
X274041964Y-108958035D02*
X274708630Y-108958035D01*
X273661011Y-108719940D02*
X274375297Y-108481845D01*
X274375297Y-109100892D01*
X274137202Y-109624702D02*
X274089583Y-109529464D01*
X274041964Y-109481845D01*
X273946726Y-109434226D01*
X273899107Y-109434226D01*
X273803869Y-109481845D01*
X273756250Y-109529464D01*
X273708630Y-109624702D01*
X273708630Y-109815178D01*
X273756250Y-109910416D01*
X273803869Y-109958035D01*
X273899107Y-110005654D01*
X273946726Y-110005654D01*
X274041964Y-109958035D01*
X274089583Y-109910416D01*
X274137202Y-109815178D01*
X274137202Y-109624702D01*
X274184821Y-109529464D01*
X274232440Y-109481845D01*
X274327678Y-109434226D01*
X274518154Y-109434226D01*
X274613392Y-109481845D01*
X274661011Y-109529464D01*
X274708630Y-109624702D01*
X274708630Y-109815178D01*
X274661011Y-109910416D01*
X274613392Y-109958035D01*
X274518154Y-110005654D01*
X274327678Y-110005654D01*
X274232440Y-109958035D01*
X274184821Y-109910416D01*
X274137202Y-109815178D01*
X265183630Y-88956714D02*
X264183630Y-88956714D01*
X264183630Y-89194809D01*
X264231250Y-89337666D01*
X264326488Y-89432904D01*
X264421726Y-89480523D01*
X264612202Y-89528142D01*
X264755059Y-89528142D01*
X264945535Y-89480523D01*
X265040773Y-89432904D01*
X265136011Y-89337666D01*
X265183630Y-89194809D01*
X265183630Y-88956714D01*
X264516964Y-90385285D02*
X265183630Y-90385285D01*
X264136011Y-90147190D02*
X264850297Y-89909095D01*
X264850297Y-90528142D01*
X264183630Y-90813857D02*
X264183630Y-91480523D01*
X265183630Y-91051952D01*
X248356380Y-165536714D02*
X247356380Y-165536714D01*
X247356380Y-165774809D01*
X247404000Y-165917666D01*
X247499238Y-166012904D01*
X247594476Y-166060523D01*
X247784952Y-166108142D01*
X247927809Y-166108142D01*
X248118285Y-166060523D01*
X248213523Y-166012904D01*
X248308761Y-165917666D01*
X248356380Y-165774809D01*
X248356380Y-165536714D01*
X247689714Y-166965285D02*
X248356380Y-166965285D01*
X247308761Y-166727190D02*
X248023047Y-166489095D01*
X248023047Y-167108142D01*
X247356380Y-167917666D02*
X247356380Y-167727190D01*
X247404000Y-167631952D01*
X247451619Y-167584333D01*
X247594476Y-167489095D01*
X247784952Y-167441476D01*
X248165904Y-167441476D01*
X248261142Y-167489095D01*
X248308761Y-167536714D01*
X248356380Y-167631952D01*
X248356380Y-167822428D01*
X248308761Y-167917666D01*
X248261142Y-167965285D01*
X248165904Y-168012904D01*
X247927809Y-168012904D01*
X247832571Y-167965285D01*
X247784952Y-167917666D01*
X247737333Y-167822428D01*
X247737333Y-167631952D01*
X247784952Y-167536714D01*
X247832571Y-167489095D01*
X247927809Y-167441476D01*
X250896130Y-145629464D02*
X249896130Y-145629464D01*
X249896130Y-145867559D01*
X249943750Y-146010416D01*
X250038988Y-146105654D01*
X250134226Y-146153273D01*
X250324702Y-146200892D01*
X250467559Y-146200892D01*
X250658035Y-146153273D01*
X250753273Y-146105654D01*
X250848511Y-146010416D01*
X250896130Y-145867559D01*
X250896130Y-145629464D01*
X250229464Y-147058035D02*
X250896130Y-147058035D01*
X249848511Y-146819940D02*
X250562797Y-146581845D01*
X250562797Y-147200892D01*
X249896130Y-148058035D02*
X249896130Y-147581845D01*
X250372321Y-147534226D01*
X250324702Y-147581845D01*
X250277083Y-147677083D01*
X250277083Y-147915178D01*
X250324702Y-148010416D01*
X250372321Y-148058035D01*
X250467559Y-148105654D01*
X250705654Y-148105654D01*
X250800892Y-148058035D01*
X250848511Y-148010416D01*
X250896130Y-147915178D01*
X250896130Y-147677083D01*
X250848511Y-147581845D01*
X250800892Y-147534226D01*
X260421130Y-126579464D02*
X259421130Y-126579464D01*
X259421130Y-126817559D01*
X259468750Y-126960416D01*
X259563988Y-127055654D01*
X259659226Y-127103273D01*
X259849702Y-127150892D01*
X259992559Y-127150892D01*
X260183035Y-127103273D01*
X260278273Y-127055654D01*
X260373511Y-126960416D01*
X260421130Y-126817559D01*
X260421130Y-126579464D01*
X259754464Y-128008035D02*
X260421130Y-128008035D01*
X259373511Y-127769940D02*
X260087797Y-127531845D01*
X260087797Y-128150892D01*
X259754464Y-128960416D02*
X260421130Y-128960416D01*
X259373511Y-128722321D02*
X260087797Y-128484226D01*
X260087797Y-129103273D01*
X255658630Y-107529464D02*
X254658630Y-107529464D01*
X254658630Y-107767559D01*
X254706250Y-107910416D01*
X254801488Y-108005654D01*
X254896726Y-108053273D01*
X255087202Y-108100892D01*
X255230059Y-108100892D01*
X255420535Y-108053273D01*
X255515773Y-108005654D01*
X255611011Y-107910416D01*
X255658630Y-107767559D01*
X255658630Y-107529464D01*
X254991964Y-108958035D02*
X255658630Y-108958035D01*
X254611011Y-108719940D02*
X255325297Y-108481845D01*
X255325297Y-109100892D01*
X254658630Y-109386607D02*
X254658630Y-110005654D01*
X255039583Y-109672321D01*
X255039583Y-109815178D01*
X255087202Y-109910416D01*
X255134821Y-109958035D01*
X255230059Y-110005654D01*
X255468154Y-110005654D01*
X255563392Y-109958035D01*
X255611011Y-109910416D01*
X255658630Y-109815178D01*
X255658630Y-109529464D01*
X255611011Y-109434226D01*
X255563392Y-109386607D01*
X246133630Y-88956714D02*
X245133630Y-88956714D01*
X245133630Y-89194809D01*
X245181250Y-89337666D01*
X245276488Y-89432904D01*
X245371726Y-89480523D01*
X245562202Y-89528142D01*
X245705059Y-89528142D01*
X245895535Y-89480523D01*
X245990773Y-89432904D01*
X246086011Y-89337666D01*
X246133630Y-89194809D01*
X246133630Y-88956714D01*
X245466964Y-90385285D02*
X246133630Y-90385285D01*
X245086011Y-90147190D02*
X245800297Y-89909095D01*
X245800297Y-90528142D01*
X245228869Y-90861476D02*
X245181250Y-90909095D01*
X245133630Y-91004333D01*
X245133630Y-91242428D01*
X245181250Y-91337666D01*
X245228869Y-91385285D01*
X245324107Y-91432904D01*
X245419345Y-91432904D01*
X245562202Y-91385285D01*
X246133630Y-90813857D01*
X246133630Y-91432904D01*
X231846130Y-145629464D02*
X230846130Y-145629464D01*
X230846130Y-145867559D01*
X230893750Y-146010416D01*
X230988988Y-146105654D01*
X231084226Y-146153273D01*
X231274702Y-146200892D01*
X231417559Y-146200892D01*
X231608035Y-146153273D01*
X231703273Y-146105654D01*
X231798511Y-146010416D01*
X231846130Y-145867559D01*
X231846130Y-145629464D01*
X231179464Y-147058035D02*
X231846130Y-147058035D01*
X230798511Y-146819940D02*
X231512797Y-146581845D01*
X231512797Y-147200892D01*
X231846130Y-148105654D02*
X231846130Y-147534226D01*
X231846130Y-147819940D02*
X230846130Y-147819940D01*
X230988988Y-147724702D01*
X231084226Y-147629464D01*
X231131845Y-147534226D01*
X241371130Y-126579464D02*
X240371130Y-126579464D01*
X240371130Y-126817559D01*
X240418750Y-126960416D01*
X240513988Y-127055654D01*
X240609226Y-127103273D01*
X240799702Y-127150892D01*
X240942559Y-127150892D01*
X241133035Y-127103273D01*
X241228273Y-127055654D01*
X241323511Y-126960416D01*
X241371130Y-126817559D01*
X241371130Y-126579464D01*
X240704464Y-128008035D02*
X241371130Y-128008035D01*
X240323511Y-127769940D02*
X241037797Y-127531845D01*
X241037797Y-128150892D01*
X240371130Y-128722321D02*
X240371130Y-128817559D01*
X240418750Y-128912797D01*
X240466369Y-128960416D01*
X240561607Y-129008035D01*
X240752083Y-129055654D01*
X240990178Y-129055654D01*
X241180654Y-129008035D01*
X241275892Y-128960416D01*
X241323511Y-128912797D01*
X241371130Y-128817559D01*
X241371130Y-128722321D01*
X241323511Y-128627083D01*
X241275892Y-128579464D01*
X241180654Y-128531845D01*
X240990178Y-128484226D01*
X240752083Y-128484226D01*
X240561607Y-128531845D01*
X240466369Y-128579464D01*
X240418750Y-128627083D01*
X240371130Y-128722321D01*
X236608630Y-107529464D02*
X235608630Y-107529464D01*
X235608630Y-107767559D01*
X235656250Y-107910416D01*
X235751488Y-108005654D01*
X235846726Y-108053273D01*
X236037202Y-108100892D01*
X236180059Y-108100892D01*
X236370535Y-108053273D01*
X236465773Y-108005654D01*
X236561011Y-107910416D01*
X236608630Y-107767559D01*
X236608630Y-107529464D01*
X235608630Y-108434226D02*
X235608630Y-109053273D01*
X235989583Y-108719940D01*
X235989583Y-108862797D01*
X236037202Y-108958035D01*
X236084821Y-109005654D01*
X236180059Y-109053273D01*
X236418154Y-109053273D01*
X236513392Y-109005654D01*
X236561011Y-108958035D01*
X236608630Y-108862797D01*
X236608630Y-108577083D01*
X236561011Y-108481845D01*
X236513392Y-108434226D01*
X236608630Y-109529464D02*
X236608630Y-109719940D01*
X236561011Y-109815178D01*
X236513392Y-109862797D01*
X236370535Y-109958035D01*
X236180059Y-110005654D01*
X235799107Y-110005654D01*
X235703869Y-109958035D01*
X235656250Y-109910416D01*
X235608630Y-109815178D01*
X235608630Y-109624702D01*
X235656250Y-109529464D01*
X235703869Y-109481845D01*
X235799107Y-109434226D01*
X236037202Y-109434226D01*
X236132440Y-109481845D01*
X236180059Y-109529464D01*
X236227678Y-109624702D01*
X236227678Y-109815178D01*
X236180059Y-109910416D01*
X236132440Y-109958035D01*
X236037202Y-110005654D01*
X227083630Y-88956714D02*
X226083630Y-88956714D01*
X226083630Y-89194809D01*
X226131250Y-89337666D01*
X226226488Y-89432904D01*
X226321726Y-89480523D01*
X226512202Y-89528142D01*
X226655059Y-89528142D01*
X226845535Y-89480523D01*
X226940773Y-89432904D01*
X227036011Y-89337666D01*
X227083630Y-89194809D01*
X227083630Y-88956714D01*
X226083630Y-89861476D02*
X226083630Y-90480523D01*
X226464583Y-90147190D01*
X226464583Y-90290047D01*
X226512202Y-90385285D01*
X226559821Y-90432904D01*
X226655059Y-90480523D01*
X226893154Y-90480523D01*
X226988392Y-90432904D01*
X227036011Y-90385285D01*
X227083630Y-90290047D01*
X227083630Y-90004333D01*
X227036011Y-89909095D01*
X226988392Y-89861476D01*
X226512202Y-91051952D02*
X226464583Y-90956714D01*
X226416964Y-90909095D01*
X226321726Y-90861476D01*
X226274107Y-90861476D01*
X226178869Y-90909095D01*
X226131250Y-90956714D01*
X226083630Y-91051952D01*
X226083630Y-91242428D01*
X226131250Y-91337666D01*
X226178869Y-91385285D01*
X226274107Y-91432904D01*
X226321726Y-91432904D01*
X226416964Y-91385285D01*
X226464583Y-91337666D01*
X226512202Y-91242428D01*
X226512202Y-91051952D01*
X226559821Y-90956714D01*
X226607440Y-90909095D01*
X226702678Y-90861476D01*
X226893154Y-90861476D01*
X226988392Y-90909095D01*
X227036011Y-90956714D01*
X227083630Y-91051952D01*
X227083630Y-91242428D01*
X227036011Y-91337666D01*
X226988392Y-91385285D01*
X226893154Y-91432904D01*
X226702678Y-91432904D01*
X226607440Y-91385285D01*
X226559821Y-91337666D01*
X226512202Y-91242428D01*
X212796130Y-145629464D02*
X211796130Y-145629464D01*
X211796130Y-145867559D01*
X211843750Y-146010416D01*
X211938988Y-146105654D01*
X212034226Y-146153273D01*
X212224702Y-146200892D01*
X212367559Y-146200892D01*
X212558035Y-146153273D01*
X212653273Y-146105654D01*
X212748511Y-146010416D01*
X212796130Y-145867559D01*
X212796130Y-145629464D01*
X211796130Y-146534226D02*
X211796130Y-147153273D01*
X212177083Y-146819940D01*
X212177083Y-146962797D01*
X212224702Y-147058035D01*
X212272321Y-147105654D01*
X212367559Y-147153273D01*
X212605654Y-147153273D01*
X212700892Y-147105654D01*
X212748511Y-147058035D01*
X212796130Y-146962797D01*
X212796130Y-146677083D01*
X212748511Y-146581845D01*
X212700892Y-146534226D01*
X211796130Y-147486607D02*
X211796130Y-148153273D01*
X212796130Y-147724702D01*
X222321130Y-126579464D02*
X221321130Y-126579464D01*
X221321130Y-126817559D01*
X221368750Y-126960416D01*
X221463988Y-127055654D01*
X221559226Y-127103273D01*
X221749702Y-127150892D01*
X221892559Y-127150892D01*
X222083035Y-127103273D01*
X222178273Y-127055654D01*
X222273511Y-126960416D01*
X222321130Y-126817559D01*
X222321130Y-126579464D01*
X221321130Y-127484226D02*
X221321130Y-128103273D01*
X221702083Y-127769940D01*
X221702083Y-127912797D01*
X221749702Y-128008035D01*
X221797321Y-128055654D01*
X221892559Y-128103273D01*
X222130654Y-128103273D01*
X222225892Y-128055654D01*
X222273511Y-128008035D01*
X222321130Y-127912797D01*
X222321130Y-127627083D01*
X222273511Y-127531845D01*
X222225892Y-127484226D01*
X221321130Y-128960416D02*
X221321130Y-128769940D01*
X221368750Y-128674702D01*
X221416369Y-128627083D01*
X221559226Y-128531845D01*
X221749702Y-128484226D01*
X222130654Y-128484226D01*
X222225892Y-128531845D01*
X222273511Y-128579464D01*
X222321130Y-128674702D01*
X222321130Y-128865178D01*
X222273511Y-128960416D01*
X222225892Y-129008035D01*
X222130654Y-129055654D01*
X221892559Y-129055654D01*
X221797321Y-129008035D01*
X221749702Y-128960416D01*
X221702083Y-128865178D01*
X221702083Y-128674702D01*
X221749702Y-128579464D01*
X221797321Y-128531845D01*
X221892559Y-128484226D01*
X217558630Y-107529464D02*
X216558630Y-107529464D01*
X216558630Y-107767559D01*
X216606250Y-107910416D01*
X216701488Y-108005654D01*
X216796726Y-108053273D01*
X216987202Y-108100892D01*
X217130059Y-108100892D01*
X217320535Y-108053273D01*
X217415773Y-108005654D01*
X217511011Y-107910416D01*
X217558630Y-107767559D01*
X217558630Y-107529464D01*
X216558630Y-108434226D02*
X216558630Y-109053273D01*
X216939583Y-108719940D01*
X216939583Y-108862797D01*
X216987202Y-108958035D01*
X217034821Y-109005654D01*
X217130059Y-109053273D01*
X217368154Y-109053273D01*
X217463392Y-109005654D01*
X217511011Y-108958035D01*
X217558630Y-108862797D01*
X217558630Y-108577083D01*
X217511011Y-108481845D01*
X217463392Y-108434226D01*
X216558630Y-109958035D02*
X216558630Y-109481845D01*
X217034821Y-109434226D01*
X216987202Y-109481845D01*
X216939583Y-109577083D01*
X216939583Y-109815178D01*
X216987202Y-109910416D01*
X217034821Y-109958035D01*
X217130059Y-110005654D01*
X217368154Y-110005654D01*
X217463392Y-109958035D01*
X217511011Y-109910416D01*
X217558630Y-109815178D01*
X217558630Y-109577083D01*
X217511011Y-109481845D01*
X217463392Y-109434226D01*
X190698285Y-93797380D02*
X190698285Y-92797380D01*
X190460190Y-92797380D01*
X190317333Y-92845000D01*
X190222095Y-92940238D01*
X190174476Y-93035476D01*
X190126857Y-93225952D01*
X190126857Y-93368809D01*
X190174476Y-93559285D01*
X190222095Y-93654523D01*
X190317333Y-93749761D01*
X190460190Y-93797380D01*
X190698285Y-93797380D01*
X189793523Y-92797380D02*
X189174476Y-92797380D01*
X189507809Y-93178333D01*
X189364952Y-93178333D01*
X189269714Y-93225952D01*
X189222095Y-93273571D01*
X189174476Y-93368809D01*
X189174476Y-93606904D01*
X189222095Y-93702142D01*
X189269714Y-93749761D01*
X189364952Y-93797380D01*
X189650666Y-93797380D01*
X189745904Y-93749761D01*
X189793523Y-93702142D01*
X188317333Y-93130714D02*
X188317333Y-93797380D01*
X188555428Y-92749761D02*
X188793523Y-93464047D01*
X188174476Y-93464047D01*
X193746130Y-145629464D02*
X192746130Y-145629464D01*
X192746130Y-145867559D01*
X192793750Y-146010416D01*
X192888988Y-146105654D01*
X192984226Y-146153273D01*
X193174702Y-146200892D01*
X193317559Y-146200892D01*
X193508035Y-146153273D01*
X193603273Y-146105654D01*
X193698511Y-146010416D01*
X193746130Y-145867559D01*
X193746130Y-145629464D01*
X192746130Y-146534226D02*
X192746130Y-147153273D01*
X193127083Y-146819940D01*
X193127083Y-146962797D01*
X193174702Y-147058035D01*
X193222321Y-147105654D01*
X193317559Y-147153273D01*
X193555654Y-147153273D01*
X193650892Y-147105654D01*
X193698511Y-147058035D01*
X193746130Y-146962797D01*
X193746130Y-146677083D01*
X193698511Y-146581845D01*
X193650892Y-146534226D01*
X192746130Y-147486607D02*
X192746130Y-148105654D01*
X193127083Y-147772321D01*
X193127083Y-147915178D01*
X193174702Y-148010416D01*
X193222321Y-148058035D01*
X193317559Y-148105654D01*
X193555654Y-148105654D01*
X193650892Y-148058035D01*
X193698511Y-148010416D01*
X193746130Y-147915178D01*
X193746130Y-147629464D01*
X193698511Y-147534226D01*
X193650892Y-147486607D01*
X203271130Y-126579464D02*
X202271130Y-126579464D01*
X202271130Y-126817559D01*
X202318750Y-126960416D01*
X202413988Y-127055654D01*
X202509226Y-127103273D01*
X202699702Y-127150892D01*
X202842559Y-127150892D01*
X203033035Y-127103273D01*
X203128273Y-127055654D01*
X203223511Y-126960416D01*
X203271130Y-126817559D01*
X203271130Y-126579464D01*
X202271130Y-127484226D02*
X202271130Y-128103273D01*
X202652083Y-127769940D01*
X202652083Y-127912797D01*
X202699702Y-128008035D01*
X202747321Y-128055654D01*
X202842559Y-128103273D01*
X203080654Y-128103273D01*
X203175892Y-128055654D01*
X203223511Y-128008035D01*
X203271130Y-127912797D01*
X203271130Y-127627083D01*
X203223511Y-127531845D01*
X203175892Y-127484226D01*
X202366369Y-128484226D02*
X202318750Y-128531845D01*
X202271130Y-128627083D01*
X202271130Y-128865178D01*
X202318750Y-128960416D01*
X202366369Y-129008035D01*
X202461607Y-129055654D01*
X202556845Y-129055654D01*
X202699702Y-129008035D01*
X203271130Y-128436607D01*
X203271130Y-129055654D01*
X198508630Y-107529464D02*
X197508630Y-107529464D01*
X197508630Y-107767559D01*
X197556250Y-107910416D01*
X197651488Y-108005654D01*
X197746726Y-108053273D01*
X197937202Y-108100892D01*
X198080059Y-108100892D01*
X198270535Y-108053273D01*
X198365773Y-108005654D01*
X198461011Y-107910416D01*
X198508630Y-107767559D01*
X198508630Y-107529464D01*
X197508630Y-108434226D02*
X197508630Y-109053273D01*
X197889583Y-108719940D01*
X197889583Y-108862797D01*
X197937202Y-108958035D01*
X197984821Y-109005654D01*
X198080059Y-109053273D01*
X198318154Y-109053273D01*
X198413392Y-109005654D01*
X198461011Y-108958035D01*
X198508630Y-108862797D01*
X198508630Y-108577083D01*
X198461011Y-108481845D01*
X198413392Y-108434226D01*
X198508630Y-110005654D02*
X198508630Y-109434226D01*
X198508630Y-109719940D02*
X197508630Y-109719940D01*
X197651488Y-109624702D01*
X197746726Y-109529464D01*
X197794345Y-109434226D01*
X187650285Y-93797380D02*
X187650285Y-92797380D01*
X187412190Y-92797380D01*
X187269333Y-92845000D01*
X187174095Y-92940238D01*
X187126476Y-93035476D01*
X187078857Y-93225952D01*
X187078857Y-93368809D01*
X187126476Y-93559285D01*
X187174095Y-93654523D01*
X187269333Y-93749761D01*
X187412190Y-93797380D01*
X187650285Y-93797380D01*
X186745523Y-92797380D02*
X186126476Y-92797380D01*
X186459809Y-93178333D01*
X186316952Y-93178333D01*
X186221714Y-93225952D01*
X186174095Y-93273571D01*
X186126476Y-93368809D01*
X186126476Y-93606904D01*
X186174095Y-93702142D01*
X186221714Y-93749761D01*
X186316952Y-93797380D01*
X186602666Y-93797380D01*
X186697904Y-93749761D01*
X186745523Y-93702142D01*
X185507428Y-92797380D02*
X185412190Y-92797380D01*
X185316952Y-92845000D01*
X185269333Y-92892619D01*
X185221714Y-92987857D01*
X185174095Y-93178333D01*
X185174095Y-93416428D01*
X185221714Y-93606904D01*
X185269333Y-93702142D01*
X185316952Y-93749761D01*
X185412190Y-93797380D01*
X185507428Y-93797380D01*
X185602666Y-93749761D01*
X185650285Y-93702142D01*
X185697904Y-93606904D01*
X185745523Y-93416428D01*
X185745523Y-93178333D01*
X185697904Y-92987857D01*
X185650285Y-92892619D01*
X185602666Y-92845000D01*
X185507428Y-92797380D01*
X197714880Y-164646714D02*
X196714880Y-164646714D01*
X196714880Y-164884809D01*
X196762500Y-165027666D01*
X196857738Y-165122904D01*
X196952976Y-165170523D01*
X197143452Y-165218142D01*
X197286309Y-165218142D01*
X197476785Y-165170523D01*
X197572023Y-165122904D01*
X197667261Y-165027666D01*
X197714880Y-164884809D01*
X197714880Y-164646714D01*
X196810119Y-165599095D02*
X196762500Y-165646714D01*
X196714880Y-165741952D01*
X196714880Y-165980047D01*
X196762500Y-166075285D01*
X196810119Y-166122904D01*
X196905357Y-166170523D01*
X197000595Y-166170523D01*
X197143452Y-166122904D01*
X197714880Y-165551476D01*
X197714880Y-166170523D01*
X197714880Y-166646714D02*
X197714880Y-166837190D01*
X197667261Y-166932428D01*
X197619642Y-166980047D01*
X197476785Y-167075285D01*
X197286309Y-167122904D01*
X196905357Y-167122904D01*
X196810119Y-167075285D01*
X196762500Y-167027666D01*
X196714880Y-166932428D01*
X196714880Y-166741952D01*
X196762500Y-166646714D01*
X196810119Y-166599095D01*
X196905357Y-166551476D01*
X197143452Y-166551476D01*
X197238690Y-166599095D01*
X197286309Y-166646714D01*
X197333928Y-166741952D01*
X197333928Y-166932428D01*
X197286309Y-167027666D01*
X197238690Y-167075285D01*
X197143452Y-167122904D01*
X174696130Y-145629464D02*
X173696130Y-145629464D01*
X173696130Y-145867559D01*
X173743750Y-146010416D01*
X173838988Y-146105654D01*
X173934226Y-146153273D01*
X174124702Y-146200892D01*
X174267559Y-146200892D01*
X174458035Y-146153273D01*
X174553273Y-146105654D01*
X174648511Y-146010416D01*
X174696130Y-145867559D01*
X174696130Y-145629464D01*
X173791369Y-146581845D02*
X173743750Y-146629464D01*
X173696130Y-146724702D01*
X173696130Y-146962797D01*
X173743750Y-147058035D01*
X173791369Y-147105654D01*
X173886607Y-147153273D01*
X173981845Y-147153273D01*
X174124702Y-147105654D01*
X174696130Y-146534226D01*
X174696130Y-147153273D01*
X174124702Y-147724702D02*
X174077083Y-147629464D01*
X174029464Y-147581845D01*
X173934226Y-147534226D01*
X173886607Y-147534226D01*
X173791369Y-147581845D01*
X173743750Y-147629464D01*
X173696130Y-147724702D01*
X173696130Y-147915178D01*
X173743750Y-148010416D01*
X173791369Y-148058035D01*
X173886607Y-148105654D01*
X173934226Y-148105654D01*
X174029464Y-148058035D01*
X174077083Y-148010416D01*
X174124702Y-147915178D01*
X174124702Y-147724702D01*
X174172321Y-147629464D01*
X174219940Y-147581845D01*
X174315178Y-147534226D01*
X174505654Y-147534226D01*
X174600892Y-147581845D01*
X174648511Y-147629464D01*
X174696130Y-147724702D01*
X174696130Y-147915178D01*
X174648511Y-148010416D01*
X174600892Y-148058035D01*
X174505654Y-148105654D01*
X174315178Y-148105654D01*
X174219940Y-148058035D01*
X174172321Y-148010416D01*
X174124702Y-147915178D01*
X184221130Y-126579464D02*
X183221130Y-126579464D01*
X183221130Y-126817559D01*
X183268750Y-126960416D01*
X183363988Y-127055654D01*
X183459226Y-127103273D01*
X183649702Y-127150892D01*
X183792559Y-127150892D01*
X183983035Y-127103273D01*
X184078273Y-127055654D01*
X184173511Y-126960416D01*
X184221130Y-126817559D01*
X184221130Y-126579464D01*
X183316369Y-127531845D02*
X183268750Y-127579464D01*
X183221130Y-127674702D01*
X183221130Y-127912797D01*
X183268750Y-128008035D01*
X183316369Y-128055654D01*
X183411607Y-128103273D01*
X183506845Y-128103273D01*
X183649702Y-128055654D01*
X184221130Y-127484226D01*
X184221130Y-128103273D01*
X183221130Y-128436607D02*
X183221130Y-129103273D01*
X184221130Y-128674702D01*
X179458630Y-107529464D02*
X178458630Y-107529464D01*
X178458630Y-107767559D01*
X178506250Y-107910416D01*
X178601488Y-108005654D01*
X178696726Y-108053273D01*
X178887202Y-108100892D01*
X179030059Y-108100892D01*
X179220535Y-108053273D01*
X179315773Y-108005654D01*
X179411011Y-107910416D01*
X179458630Y-107767559D01*
X179458630Y-107529464D01*
X178553869Y-108481845D02*
X178506250Y-108529464D01*
X178458630Y-108624702D01*
X178458630Y-108862797D01*
X178506250Y-108958035D01*
X178553869Y-109005654D01*
X178649107Y-109053273D01*
X178744345Y-109053273D01*
X178887202Y-109005654D01*
X179458630Y-108434226D01*
X179458630Y-109053273D01*
X178458630Y-109910416D02*
X178458630Y-109719940D01*
X178506250Y-109624702D01*
X178553869Y-109577083D01*
X178696726Y-109481845D01*
X178887202Y-109434226D01*
X179268154Y-109434226D01*
X179363392Y-109481845D01*
X179411011Y-109529464D01*
X179458630Y-109624702D01*
X179458630Y-109815178D01*
X179411011Y-109910416D01*
X179363392Y-109958035D01*
X179268154Y-110005654D01*
X179030059Y-110005654D01*
X178934821Y-109958035D01*
X178887202Y-109910416D01*
X178839583Y-109815178D01*
X178839583Y-109624702D01*
X178887202Y-109529464D01*
X178934821Y-109481845D01*
X179030059Y-109434226D01*
X169933630Y-88956714D02*
X168933630Y-88956714D01*
X168933630Y-89194809D01*
X168981250Y-89337666D01*
X169076488Y-89432904D01*
X169171726Y-89480523D01*
X169362202Y-89528142D01*
X169505059Y-89528142D01*
X169695535Y-89480523D01*
X169790773Y-89432904D01*
X169886011Y-89337666D01*
X169933630Y-89194809D01*
X169933630Y-88956714D01*
X169028869Y-89909095D02*
X168981250Y-89956714D01*
X168933630Y-90051952D01*
X168933630Y-90290047D01*
X168981250Y-90385285D01*
X169028869Y-90432904D01*
X169124107Y-90480523D01*
X169219345Y-90480523D01*
X169362202Y-90432904D01*
X169933630Y-89861476D01*
X169933630Y-90480523D01*
X168933630Y-91385285D02*
X168933630Y-90909095D01*
X169409821Y-90861476D01*
X169362202Y-90909095D01*
X169314583Y-91004333D01*
X169314583Y-91242428D01*
X169362202Y-91337666D01*
X169409821Y-91385285D01*
X169505059Y-91432904D01*
X169743154Y-91432904D01*
X169838392Y-91385285D01*
X169886011Y-91337666D01*
X169933630Y-91242428D01*
X169933630Y-91004333D01*
X169886011Y-90909095D01*
X169838392Y-90861476D01*
X155646130Y-145629464D02*
X154646130Y-145629464D01*
X154646130Y-145867559D01*
X154693750Y-146010416D01*
X154788988Y-146105654D01*
X154884226Y-146153273D01*
X155074702Y-146200892D01*
X155217559Y-146200892D01*
X155408035Y-146153273D01*
X155503273Y-146105654D01*
X155598511Y-146010416D01*
X155646130Y-145867559D01*
X155646130Y-145629464D01*
X154741369Y-146581845D02*
X154693750Y-146629464D01*
X154646130Y-146724702D01*
X154646130Y-146962797D01*
X154693750Y-147058035D01*
X154741369Y-147105654D01*
X154836607Y-147153273D01*
X154931845Y-147153273D01*
X155074702Y-147105654D01*
X155646130Y-146534226D01*
X155646130Y-147153273D01*
X154979464Y-148010416D02*
X155646130Y-148010416D01*
X154598511Y-147772321D02*
X155312797Y-147534226D01*
X155312797Y-148153273D01*
X165171130Y-126579464D02*
X164171130Y-126579464D01*
X164171130Y-126817559D01*
X164218750Y-126960416D01*
X164313988Y-127055654D01*
X164409226Y-127103273D01*
X164599702Y-127150892D01*
X164742559Y-127150892D01*
X164933035Y-127103273D01*
X165028273Y-127055654D01*
X165123511Y-126960416D01*
X165171130Y-126817559D01*
X165171130Y-126579464D01*
X164266369Y-127531845D02*
X164218750Y-127579464D01*
X164171130Y-127674702D01*
X164171130Y-127912797D01*
X164218750Y-128008035D01*
X164266369Y-128055654D01*
X164361607Y-128103273D01*
X164456845Y-128103273D01*
X164599702Y-128055654D01*
X165171130Y-127484226D01*
X165171130Y-128103273D01*
X164171130Y-128436607D02*
X164171130Y-129055654D01*
X164552083Y-128722321D01*
X164552083Y-128865178D01*
X164599702Y-128960416D01*
X164647321Y-129008035D01*
X164742559Y-129055654D01*
X164980654Y-129055654D01*
X165075892Y-129008035D01*
X165123511Y-128960416D01*
X165171130Y-128865178D01*
X165171130Y-128579464D01*
X165123511Y-128484226D01*
X165075892Y-128436607D01*
X160408630Y-107529464D02*
X159408630Y-107529464D01*
X159408630Y-107767559D01*
X159456250Y-107910416D01*
X159551488Y-108005654D01*
X159646726Y-108053273D01*
X159837202Y-108100892D01*
X159980059Y-108100892D01*
X160170535Y-108053273D01*
X160265773Y-108005654D01*
X160361011Y-107910416D01*
X160408630Y-107767559D01*
X160408630Y-107529464D01*
X159503869Y-108481845D02*
X159456250Y-108529464D01*
X159408630Y-108624702D01*
X159408630Y-108862797D01*
X159456250Y-108958035D01*
X159503869Y-109005654D01*
X159599107Y-109053273D01*
X159694345Y-109053273D01*
X159837202Y-109005654D01*
X160408630Y-108434226D01*
X160408630Y-109053273D01*
X159503869Y-109434226D02*
X159456250Y-109481845D01*
X159408630Y-109577083D01*
X159408630Y-109815178D01*
X159456250Y-109910416D01*
X159503869Y-109958035D01*
X159599107Y-110005654D01*
X159694345Y-110005654D01*
X159837202Y-109958035D01*
X160408630Y-109386607D01*
X160408630Y-110005654D01*
X150883630Y-88954714D02*
X149883630Y-88954714D01*
X149883630Y-89192809D01*
X149931250Y-89335666D01*
X150026488Y-89430904D01*
X150121726Y-89478523D01*
X150312202Y-89526142D01*
X150455059Y-89526142D01*
X150645535Y-89478523D01*
X150740773Y-89430904D01*
X150836011Y-89335666D01*
X150883630Y-89192809D01*
X150883630Y-88954714D01*
X149978869Y-89907095D02*
X149931250Y-89954714D01*
X149883630Y-90049952D01*
X149883630Y-90288047D01*
X149931250Y-90383285D01*
X149978869Y-90430904D01*
X150074107Y-90478523D01*
X150169345Y-90478523D01*
X150312202Y-90430904D01*
X150883630Y-89859476D01*
X150883630Y-90478523D01*
X150883630Y-91430904D02*
X150883630Y-90859476D01*
X150883630Y-91145190D02*
X149883630Y-91145190D01*
X150026488Y-91049952D01*
X150121726Y-90954714D01*
X150169345Y-90859476D01*
X136596130Y-145629464D02*
X135596130Y-145629464D01*
X135596130Y-145867559D01*
X135643750Y-146010416D01*
X135738988Y-146105654D01*
X135834226Y-146153273D01*
X136024702Y-146200892D01*
X136167559Y-146200892D01*
X136358035Y-146153273D01*
X136453273Y-146105654D01*
X136548511Y-146010416D01*
X136596130Y-145867559D01*
X136596130Y-145629464D01*
X135691369Y-146581845D02*
X135643750Y-146629464D01*
X135596130Y-146724702D01*
X135596130Y-146962797D01*
X135643750Y-147058035D01*
X135691369Y-147105654D01*
X135786607Y-147153273D01*
X135881845Y-147153273D01*
X136024702Y-147105654D01*
X136596130Y-146534226D01*
X136596130Y-147153273D01*
X135596130Y-147772321D02*
X135596130Y-147867559D01*
X135643750Y-147962797D01*
X135691369Y-148010416D01*
X135786607Y-148058035D01*
X135977083Y-148105654D01*
X136215178Y-148105654D01*
X136405654Y-148058035D01*
X136500892Y-148010416D01*
X136548511Y-147962797D01*
X136596130Y-147867559D01*
X136596130Y-147772321D01*
X136548511Y-147677083D01*
X136500892Y-147629464D01*
X136405654Y-147581845D01*
X136215178Y-147534226D01*
X135977083Y-147534226D01*
X135786607Y-147581845D01*
X135691369Y-147629464D01*
X135643750Y-147677083D01*
X135596130Y-147772321D01*
X146121130Y-126579464D02*
X145121130Y-126579464D01*
X145121130Y-126817559D01*
X145168750Y-126960416D01*
X145263988Y-127055654D01*
X145359226Y-127103273D01*
X145549702Y-127150892D01*
X145692559Y-127150892D01*
X145883035Y-127103273D01*
X145978273Y-127055654D01*
X146073511Y-126960416D01*
X146121130Y-126817559D01*
X146121130Y-126579464D01*
X146121130Y-128103273D02*
X146121130Y-127531845D01*
X146121130Y-127817559D02*
X145121130Y-127817559D01*
X145263988Y-127722321D01*
X145359226Y-127627083D01*
X145406845Y-127531845D01*
X146121130Y-128579464D02*
X146121130Y-128769940D01*
X146073511Y-128865178D01*
X146025892Y-128912797D01*
X145883035Y-129008035D01*
X145692559Y-129055654D01*
X145311607Y-129055654D01*
X145216369Y-129008035D01*
X145168750Y-128960416D01*
X145121130Y-128865178D01*
X145121130Y-128674702D01*
X145168750Y-128579464D01*
X145216369Y-128531845D01*
X145311607Y-128484226D01*
X145549702Y-128484226D01*
X145644940Y-128531845D01*
X145692559Y-128579464D01*
X145740178Y-128674702D01*
X145740178Y-128865178D01*
X145692559Y-128960416D01*
X145644940Y-129008035D01*
X145549702Y-129055654D01*
X141358630Y-107529464D02*
X140358630Y-107529464D01*
X140358630Y-107767559D01*
X140406250Y-107910416D01*
X140501488Y-108005654D01*
X140596726Y-108053273D01*
X140787202Y-108100892D01*
X140930059Y-108100892D01*
X141120535Y-108053273D01*
X141215773Y-108005654D01*
X141311011Y-107910416D01*
X141358630Y-107767559D01*
X141358630Y-107529464D01*
X141358630Y-109053273D02*
X141358630Y-108481845D01*
X141358630Y-108767559D02*
X140358630Y-108767559D01*
X140501488Y-108672321D01*
X140596726Y-108577083D01*
X140644345Y-108481845D01*
X140787202Y-109624702D02*
X140739583Y-109529464D01*
X140691964Y-109481845D01*
X140596726Y-109434226D01*
X140549107Y-109434226D01*
X140453869Y-109481845D01*
X140406250Y-109529464D01*
X140358630Y-109624702D01*
X140358630Y-109815178D01*
X140406250Y-109910416D01*
X140453869Y-109958035D01*
X140549107Y-110005654D01*
X140596726Y-110005654D01*
X140691964Y-109958035D01*
X140739583Y-109910416D01*
X140787202Y-109815178D01*
X140787202Y-109624702D01*
X140834821Y-109529464D01*
X140882440Y-109481845D01*
X140977678Y-109434226D01*
X141168154Y-109434226D01*
X141263392Y-109481845D01*
X141311011Y-109529464D01*
X141358630Y-109624702D01*
X141358630Y-109815178D01*
X141311011Y-109910416D01*
X141263392Y-109958035D01*
X141168154Y-110005654D01*
X140977678Y-110005654D01*
X140882440Y-109958035D01*
X140834821Y-109910416D01*
X140787202Y-109815178D01*
X131833630Y-88954714D02*
X130833630Y-88954714D01*
X130833630Y-89192809D01*
X130881250Y-89335666D01*
X130976488Y-89430904D01*
X131071726Y-89478523D01*
X131262202Y-89526142D01*
X131405059Y-89526142D01*
X131595535Y-89478523D01*
X131690773Y-89430904D01*
X131786011Y-89335666D01*
X131833630Y-89192809D01*
X131833630Y-88954714D01*
X131833630Y-90478523D02*
X131833630Y-89907095D01*
X131833630Y-90192809D02*
X130833630Y-90192809D01*
X130976488Y-90097571D01*
X131071726Y-90002333D01*
X131119345Y-89907095D01*
X130833630Y-90811857D02*
X130833630Y-91478523D01*
X131833630Y-91049952D01*
X125483630Y-164679464D02*
X124483630Y-164679464D01*
X124483630Y-164917559D01*
X124531250Y-165060416D01*
X124626488Y-165155654D01*
X124721726Y-165203273D01*
X124912202Y-165250892D01*
X125055059Y-165250892D01*
X125245535Y-165203273D01*
X125340773Y-165155654D01*
X125436011Y-165060416D01*
X125483630Y-164917559D01*
X125483630Y-164679464D01*
X125483630Y-166203273D02*
X125483630Y-165631845D01*
X125483630Y-165917559D02*
X124483630Y-165917559D01*
X124626488Y-165822321D01*
X124721726Y-165727083D01*
X124769345Y-165631845D01*
X124483630Y-167060416D02*
X124483630Y-166869940D01*
X124531250Y-166774702D01*
X124578869Y-166727083D01*
X124721726Y-166631845D01*
X124912202Y-166584226D01*
X125293154Y-166584226D01*
X125388392Y-166631845D01*
X125436011Y-166679464D01*
X125483630Y-166774702D01*
X125483630Y-166965178D01*
X125436011Y-167060416D01*
X125388392Y-167108035D01*
X125293154Y-167155654D01*
X125055059Y-167155654D01*
X124959821Y-167108035D01*
X124912202Y-167060416D01*
X124864583Y-166965178D01*
X124864583Y-166774702D01*
X124912202Y-166679464D01*
X124959821Y-166631845D01*
X125055059Y-166584226D01*
X117546130Y-145629464D02*
X116546130Y-145629464D01*
X116546130Y-145867559D01*
X116593750Y-146010416D01*
X116688988Y-146105654D01*
X116784226Y-146153273D01*
X116974702Y-146200892D01*
X117117559Y-146200892D01*
X117308035Y-146153273D01*
X117403273Y-146105654D01*
X117498511Y-146010416D01*
X117546130Y-145867559D01*
X117546130Y-145629464D01*
X117546130Y-147153273D02*
X117546130Y-146581845D01*
X117546130Y-146867559D02*
X116546130Y-146867559D01*
X116688988Y-146772321D01*
X116784226Y-146677083D01*
X116831845Y-146581845D01*
X116546130Y-148058035D02*
X116546130Y-147581845D01*
X117022321Y-147534226D01*
X116974702Y-147581845D01*
X116927083Y-147677083D01*
X116927083Y-147915178D01*
X116974702Y-148010416D01*
X117022321Y-148058035D01*
X117117559Y-148105654D01*
X117355654Y-148105654D01*
X117450892Y-148058035D01*
X117498511Y-148010416D01*
X117546130Y-147915178D01*
X117546130Y-147677083D01*
X117498511Y-147581845D01*
X117450892Y-147534226D01*
X127071130Y-126579464D02*
X126071130Y-126579464D01*
X126071130Y-126817559D01*
X126118750Y-126960416D01*
X126213988Y-127055654D01*
X126309226Y-127103273D01*
X126499702Y-127150892D01*
X126642559Y-127150892D01*
X126833035Y-127103273D01*
X126928273Y-127055654D01*
X127023511Y-126960416D01*
X127071130Y-126817559D01*
X127071130Y-126579464D01*
X127071130Y-128103273D02*
X127071130Y-127531845D01*
X127071130Y-127817559D02*
X126071130Y-127817559D01*
X126213988Y-127722321D01*
X126309226Y-127627083D01*
X126356845Y-127531845D01*
X126404464Y-128960416D02*
X127071130Y-128960416D01*
X126023511Y-128722321D02*
X126737797Y-128484226D01*
X126737797Y-129103273D01*
X122308630Y-107529464D02*
X121308630Y-107529464D01*
X121308630Y-107767559D01*
X121356250Y-107910416D01*
X121451488Y-108005654D01*
X121546726Y-108053273D01*
X121737202Y-108100892D01*
X121880059Y-108100892D01*
X122070535Y-108053273D01*
X122165773Y-108005654D01*
X122261011Y-107910416D01*
X122308630Y-107767559D01*
X122308630Y-107529464D01*
X122308630Y-109053273D02*
X122308630Y-108481845D01*
X122308630Y-108767559D02*
X121308630Y-108767559D01*
X121451488Y-108672321D01*
X121546726Y-108577083D01*
X121594345Y-108481845D01*
X121308630Y-109386607D02*
X121308630Y-110005654D01*
X121689583Y-109672321D01*
X121689583Y-109815178D01*
X121737202Y-109910416D01*
X121784821Y-109958035D01*
X121880059Y-110005654D01*
X122118154Y-110005654D01*
X122213392Y-109958035D01*
X122261011Y-109910416D01*
X122308630Y-109815178D01*
X122308630Y-109529464D01*
X122261011Y-109434226D01*
X122213392Y-109386607D01*
X112783630Y-88954714D02*
X111783630Y-88954714D01*
X111783630Y-89192809D01*
X111831250Y-89335666D01*
X111926488Y-89430904D01*
X112021726Y-89478523D01*
X112212202Y-89526142D01*
X112355059Y-89526142D01*
X112545535Y-89478523D01*
X112640773Y-89430904D01*
X112736011Y-89335666D01*
X112783630Y-89192809D01*
X112783630Y-88954714D01*
X112783630Y-90478523D02*
X112783630Y-89907095D01*
X112783630Y-90192809D02*
X111783630Y-90192809D01*
X111926488Y-90097571D01*
X112021726Y-90002333D01*
X112069345Y-89907095D01*
X111878869Y-90859476D02*
X111831250Y-90907095D01*
X111783630Y-91002333D01*
X111783630Y-91240428D01*
X111831250Y-91335666D01*
X111878869Y-91383285D01*
X111974107Y-91430904D01*
X112069345Y-91430904D01*
X112212202Y-91383285D01*
X112783630Y-90811857D01*
X112783630Y-91430904D01*
X101671130Y-164679464D02*
X100671130Y-164679464D01*
X100671130Y-164917559D01*
X100718750Y-165060416D01*
X100813988Y-165155654D01*
X100909226Y-165203273D01*
X101099702Y-165250892D01*
X101242559Y-165250892D01*
X101433035Y-165203273D01*
X101528273Y-165155654D01*
X101623511Y-165060416D01*
X101671130Y-164917559D01*
X101671130Y-164679464D01*
X101671130Y-166203273D02*
X101671130Y-165631845D01*
X101671130Y-165917559D02*
X100671130Y-165917559D01*
X100813988Y-165822321D01*
X100909226Y-165727083D01*
X100956845Y-165631845D01*
X101671130Y-167155654D02*
X101671130Y-166584226D01*
X101671130Y-166869940D02*
X100671130Y-166869940D01*
X100813988Y-166774702D01*
X100909226Y-166679464D01*
X100956845Y-166584226D01*
X108021130Y-126579464D02*
X107021130Y-126579464D01*
X107021130Y-126817559D01*
X107068750Y-126960416D01*
X107163988Y-127055654D01*
X107259226Y-127103273D01*
X107449702Y-127150892D01*
X107592559Y-127150892D01*
X107783035Y-127103273D01*
X107878273Y-127055654D01*
X107973511Y-126960416D01*
X108021130Y-126817559D01*
X108021130Y-126579464D01*
X108021130Y-128103273D02*
X108021130Y-127531845D01*
X108021130Y-127817559D02*
X107021130Y-127817559D01*
X107163988Y-127722321D01*
X107259226Y-127627083D01*
X107306845Y-127531845D01*
X107021130Y-128722321D02*
X107021130Y-128817559D01*
X107068750Y-128912797D01*
X107116369Y-128960416D01*
X107211607Y-129008035D01*
X107402083Y-129055654D01*
X107640178Y-129055654D01*
X107830654Y-129008035D01*
X107925892Y-128960416D01*
X107973511Y-128912797D01*
X108021130Y-128817559D01*
X108021130Y-128722321D01*
X107973511Y-128627083D01*
X107925892Y-128579464D01*
X107830654Y-128531845D01*
X107640178Y-128484226D01*
X107402083Y-128484226D01*
X107211607Y-128531845D01*
X107116369Y-128579464D01*
X107068750Y-128627083D01*
X107021130Y-128722321D01*
X103258630Y-108005654D02*
X102258630Y-108005654D01*
X102258630Y-108243750D01*
X102306250Y-108386607D01*
X102401488Y-108481845D01*
X102496726Y-108529464D01*
X102687202Y-108577083D01*
X102830059Y-108577083D01*
X103020535Y-108529464D01*
X103115773Y-108481845D01*
X103211011Y-108386607D01*
X103258630Y-108243750D01*
X103258630Y-108005654D01*
X103258630Y-109053273D02*
X103258630Y-109243750D01*
X103211011Y-109338988D01*
X103163392Y-109386607D01*
X103020535Y-109481845D01*
X102830059Y-109529464D01*
X102449107Y-109529464D01*
X102353869Y-109481845D01*
X102306250Y-109434226D01*
X102258630Y-109338988D01*
X102258630Y-109148511D01*
X102306250Y-109053273D01*
X102353869Y-109005654D01*
X102449107Y-108958035D01*
X102687202Y-108958035D01*
X102782440Y-109005654D01*
X102830059Y-109053273D01*
X102877678Y-109148511D01*
X102877678Y-109338988D01*
X102830059Y-109434226D01*
X102782440Y-109481845D01*
X102687202Y-109529464D01*
X93733630Y-89430904D02*
X92733630Y-89430904D01*
X92733630Y-89669000D01*
X92781250Y-89811857D01*
X92876488Y-89907095D01*
X92971726Y-89954714D01*
X93162202Y-90002333D01*
X93305059Y-90002333D01*
X93495535Y-89954714D01*
X93590773Y-89907095D01*
X93686011Y-89811857D01*
X93733630Y-89669000D01*
X93733630Y-89430904D01*
X93162202Y-90573761D02*
X93114583Y-90478523D01*
X93066964Y-90430904D01*
X92971726Y-90383285D01*
X92924107Y-90383285D01*
X92828869Y-90430904D01*
X92781250Y-90478523D01*
X92733630Y-90573761D01*
X92733630Y-90764238D01*
X92781250Y-90859476D01*
X92828869Y-90907095D01*
X92924107Y-90954714D01*
X92971726Y-90954714D01*
X93066964Y-90907095D01*
X93114583Y-90859476D01*
X93162202Y-90764238D01*
X93162202Y-90573761D01*
X93209821Y-90478523D01*
X93257440Y-90430904D01*
X93352678Y-90383285D01*
X93543154Y-90383285D01*
X93638392Y-90430904D01*
X93686011Y-90478523D01*
X93733630Y-90573761D01*
X93733630Y-90764238D01*
X93686011Y-90859476D01*
X93638392Y-90907095D01*
X93543154Y-90954714D01*
X93352678Y-90954714D01*
X93257440Y-90907095D01*
X93209821Y-90859476D01*
X93162202Y-90764238D01*
X77858630Y-165155654D02*
X76858630Y-165155654D01*
X76858630Y-165393750D01*
X76906250Y-165536607D01*
X77001488Y-165631845D01*
X77096726Y-165679464D01*
X77287202Y-165727083D01*
X77430059Y-165727083D01*
X77620535Y-165679464D01*
X77715773Y-165631845D01*
X77811011Y-165536607D01*
X77858630Y-165393750D01*
X77858630Y-165155654D01*
X76858630Y-166060416D02*
X76858630Y-166727083D01*
X77858630Y-166298511D01*
X95321130Y-146105654D02*
X94321130Y-146105654D01*
X94321130Y-146343750D01*
X94368750Y-146486607D01*
X94463988Y-146581845D01*
X94559226Y-146629464D01*
X94749702Y-146677083D01*
X94892559Y-146677083D01*
X95083035Y-146629464D01*
X95178273Y-146581845D01*
X95273511Y-146486607D01*
X95321130Y-146343750D01*
X95321130Y-146105654D01*
X94321130Y-147534226D02*
X94321130Y-147343750D01*
X94368750Y-147248511D01*
X94416369Y-147200892D01*
X94559226Y-147105654D01*
X94749702Y-147058035D01*
X95130654Y-147058035D01*
X95225892Y-147105654D01*
X95273511Y-147153273D01*
X95321130Y-147248511D01*
X95321130Y-147438988D01*
X95273511Y-147534226D01*
X95225892Y-147581845D01*
X95130654Y-147629464D01*
X94892559Y-147629464D01*
X94797321Y-147581845D01*
X94749702Y-147534226D01*
X94702083Y-147438988D01*
X94702083Y-147248511D01*
X94749702Y-147153273D01*
X94797321Y-147105654D01*
X94892559Y-147058035D01*
X82621130Y-127118154D02*
X81621130Y-127118154D01*
X81621130Y-127356250D01*
X81668750Y-127499107D01*
X81763988Y-127594345D01*
X81859226Y-127641964D01*
X82049702Y-127689583D01*
X82192559Y-127689583D01*
X82383035Y-127641964D01*
X82478273Y-127594345D01*
X82573511Y-127499107D01*
X82621130Y-127356250D01*
X82621130Y-127118154D01*
X81621130Y-128594345D02*
X81621130Y-128118154D01*
X82097321Y-128070535D01*
X82049702Y-128118154D01*
X82002083Y-128213392D01*
X82002083Y-128451488D01*
X82049702Y-128546726D01*
X82097321Y-128594345D01*
X82192559Y-128641964D01*
X82430654Y-128641964D01*
X82525892Y-128594345D01*
X82573511Y-128546726D01*
X82621130Y-128451488D01*
X82621130Y-128213392D01*
X82573511Y-128118154D01*
X82525892Y-128070535D01*
X80239880Y-108005654D02*
X79239880Y-108005654D01*
X79239880Y-108243750D01*
X79287500Y-108386607D01*
X79382738Y-108481845D01*
X79477976Y-108529464D01*
X79668452Y-108577083D01*
X79811309Y-108577083D01*
X80001785Y-108529464D01*
X80097023Y-108481845D01*
X80192261Y-108386607D01*
X80239880Y-108243750D01*
X80239880Y-108005654D01*
X79573214Y-109434226D02*
X80239880Y-109434226D01*
X79192261Y-109196130D02*
X79906547Y-108958035D01*
X79906547Y-109577083D01*
X74683630Y-89430904D02*
X73683630Y-89430904D01*
X73683630Y-89669000D01*
X73731250Y-89811857D01*
X73826488Y-89907095D01*
X73921726Y-89954714D01*
X74112202Y-90002333D01*
X74255059Y-90002333D01*
X74445535Y-89954714D01*
X74540773Y-89907095D01*
X74636011Y-89811857D01*
X74683630Y-89669000D01*
X74683630Y-89430904D01*
X73683630Y-90335666D02*
X73683630Y-90954714D01*
X74064583Y-90621380D01*
X74064583Y-90764238D01*
X74112202Y-90859476D01*
X74159821Y-90907095D01*
X74255059Y-90954714D01*
X74493154Y-90954714D01*
X74588392Y-90907095D01*
X74636011Y-90859476D01*
X74683630Y-90764238D01*
X74683630Y-90478523D01*
X74636011Y-90383285D01*
X74588392Y-90335666D01*
X200985380Y-95781904D02*
X199985380Y-95781904D01*
X199985380Y-96020000D01*
X200033000Y-96162857D01*
X200128238Y-96258095D01*
X200223476Y-96305714D01*
X200413952Y-96353333D01*
X200556809Y-96353333D01*
X200747285Y-96305714D01*
X200842523Y-96258095D01*
X200937761Y-96162857D01*
X200985380Y-96020000D01*
X200985380Y-95781904D01*
X200080619Y-96734285D02*
X200033000Y-96781904D01*
X199985380Y-96877142D01*
X199985380Y-97115238D01*
X200033000Y-97210476D01*
X200080619Y-97258095D01*
X200175857Y-97305714D01*
X200271095Y-97305714D01*
X200413952Y-97258095D01*
X200985380Y-96686666D01*
X200985380Y-97305714D01*
X211685095Y-96972380D02*
X211685095Y-95972380D01*
X211447000Y-95972380D01*
X211304142Y-96020000D01*
X211208904Y-96115238D01*
X211161285Y-96210476D01*
X211113666Y-96400952D01*
X211113666Y-96543809D01*
X211161285Y-96734285D01*
X211208904Y-96829523D01*
X211304142Y-96924761D01*
X211447000Y-96972380D01*
X211685095Y-96972380D01*
X210161285Y-96972380D02*
X210732714Y-96972380D01*
X210447000Y-96972380D02*
X210447000Y-95972380D01*
X210542238Y-96115238D01*
X210637476Y-96210476D01*
X210732714Y-96258095D01*
X225213142Y-172426333D02*
X225260761Y-172378714D01*
X225308380Y-172235857D01*
X225308380Y-172140619D01*
X225260761Y-171997761D01*
X225165523Y-171902523D01*
X225070285Y-171854904D01*
X224879809Y-171807285D01*
X224736952Y-171807285D01*
X224546476Y-171854904D01*
X224451238Y-171902523D01*
X224356000Y-171997761D01*
X224308380Y-172140619D01*
X224308380Y-172235857D01*
X224356000Y-172378714D01*
X224403619Y-172426333D01*
X224308380Y-173331095D02*
X224308380Y-172854904D01*
X224784571Y-172807285D01*
X224736952Y-172854904D01*
X224689333Y-172950142D01*
X224689333Y-173188238D01*
X224736952Y-173283476D01*
X224784571Y-173331095D01*
X224879809Y-173378714D01*
X225117904Y-173378714D01*
X225213142Y-173331095D01*
X225260761Y-173283476D01*
X225308380Y-173188238D01*
X225308380Y-172950142D01*
X225260761Y-172854904D01*
X225213142Y-172807285D01*
X211558142Y-161377333D02*
X211605761Y-161329714D01*
X211653380Y-161186857D01*
X211653380Y-161091619D01*
X211605761Y-160948761D01*
X211510523Y-160853523D01*
X211415285Y-160805904D01*
X211224809Y-160758285D01*
X211081952Y-160758285D01*
X210891476Y-160805904D01*
X210796238Y-160853523D01*
X210701000Y-160948761D01*
X210653380Y-161091619D01*
X210653380Y-161186857D01*
X210701000Y-161329714D01*
X210748619Y-161377333D01*
X210986714Y-162234476D02*
X211653380Y-162234476D01*
X210605761Y-161996380D02*
X211320047Y-161758285D01*
X211320047Y-162377333D01*
X206795666Y-161774142D02*
X206843285Y-161821761D01*
X206986142Y-161869380D01*
X207081380Y-161869380D01*
X207224238Y-161821761D01*
X207319476Y-161726523D01*
X207367095Y-161631285D01*
X207414714Y-161440809D01*
X207414714Y-161297952D01*
X207367095Y-161107476D01*
X207319476Y-161012238D01*
X207224238Y-160917000D01*
X207081380Y-160869380D01*
X206986142Y-160869380D01*
X206843285Y-160917000D01*
X206795666Y-160964619D01*
X206462333Y-160869380D02*
X205843285Y-160869380D01*
X206176619Y-161250333D01*
X206033761Y-161250333D01*
X205938523Y-161297952D01*
X205890904Y-161345571D01*
X205843285Y-161440809D01*
X205843285Y-161678904D01*
X205890904Y-161774142D01*
X205938523Y-161821761D01*
X206033761Y-161869380D01*
X206319476Y-161869380D01*
X206414714Y-161821761D01*
X206462333Y-161774142D01*
X206795666Y-152630142D02*
X206843285Y-152677761D01*
X206986142Y-152725380D01*
X207081380Y-152725380D01*
X207224238Y-152677761D01*
X207319476Y-152582523D01*
X207367095Y-152487285D01*
X207414714Y-152296809D01*
X207414714Y-152153952D01*
X207367095Y-151963476D01*
X207319476Y-151868238D01*
X207224238Y-151773000D01*
X207081380Y-151725380D01*
X206986142Y-151725380D01*
X206843285Y-151773000D01*
X206795666Y-151820619D01*
X206414714Y-151820619D02*
X206367095Y-151773000D01*
X206271857Y-151725380D01*
X206033761Y-151725380D01*
X205938523Y-151773000D01*
X205890904Y-151820619D01*
X205843285Y-151915857D01*
X205843285Y-152011095D01*
X205890904Y-152153952D01*
X206462333Y-152725380D01*
X205843285Y-152725380D01*
X222609666Y-152503142D02*
X222657285Y-152550761D01*
X222800142Y-152598380D01*
X222895380Y-152598380D01*
X223038238Y-152550761D01*
X223133476Y-152455523D01*
X223181095Y-152360285D01*
X223228714Y-152169809D01*
X223228714Y-152026952D01*
X223181095Y-151836476D01*
X223133476Y-151741238D01*
X223038238Y-151646000D01*
X222895380Y-151598380D01*
X222800142Y-151598380D01*
X222657285Y-151646000D01*
X222609666Y-151693619D01*
X221657285Y-152598380D02*
X222228714Y-152598380D01*
X221943000Y-152598380D02*
X221943000Y-151598380D01*
X222038238Y-151741238D01*
X222133476Y-151836476D01*
X222228714Y-151884095D01*
%LPC*%
D13*
X210188075Y-83260000D03*
X203738075Y-83260000D03*
X209413075Y-83260000D03*
X204513075Y-83260000D03*
D14*
X205213075Y-83260000D03*
X208713075Y-83260000D03*
X205713075Y-83260000D03*
X208213075Y-83260000D03*
X206213075Y-83260000D03*
X207713075Y-83260000D03*
X207213075Y-83260000D03*
X206713075Y-83260000D03*
D15*
X209853075Y-81815000D03*
X204073075Y-81815000D03*
D16*
X202643075Y-82345000D03*
X211283075Y-82345000D03*
D17*
X202643075Y-78165000D03*
X211283075Y-78165000D03*
D18*
X205899000Y-88822000D03*
X207899000Y-88822000D03*
X205899000Y-86922000D03*
D19*
X207899000Y-87122000D03*
D20*
X221568275Y-88980600D03*
X211408275Y-88980600D03*
D21*
X213988275Y-84980600D03*
D22*
X216488275Y-88980600D03*
G36*
G01*
X211926963Y-87277950D02*
X211926958Y-87277945D01*
G75*
G02*
X211840930Y-85689283I751317J837345D01*
G01*
X213150932Y-84229283D01*
G75*
G02*
X214739594Y-84143255I837345J-751317D01*
G01*
X214739594Y-84143255D01*
G75*
G02*
X214825622Y-85731917I-751317J-837345D01*
G01*
X213515620Y-87191917D01*
G75*
G02*
X211926958Y-87277945I-837345J751317D01*
G01*
G37*
D21*
X219028275Y-83900600D03*
G36*
G01*
X218911758Y-85602995D02*
X218910872Y-85602934D01*
G75*
G02*
X217865941Y-84403197I77403J1122334D01*
G01*
X217905941Y-83823197D01*
G75*
G02*
X219105678Y-82778266I1122334J-77403D01*
G01*
X219105678Y-82778266D01*
G75*
G02*
X220150609Y-83978003I-77403J-1122334D01*
G01*
X220110609Y-84558003D01*
G75*
G02*
X218910872Y-85602934I-1122334J77403D01*
G01*
G37*
G36*
G01*
X230919000Y-163071000D02*
X231869000Y-163071000D01*
G75*
G02*
X232119000Y-163321000I0J-250000D01*
G01*
X232119000Y-163821000D01*
G75*
G02*
X231869000Y-164071000I-250000J0D01*
G01*
X230919000Y-164071000D01*
G75*
G02*
X230669000Y-163821000I0J250000D01*
G01*
X230669000Y-163321000D01*
G75*
G02*
X230919000Y-163071000I250000J0D01*
G01*
G37*
G36*
G01*
X230919000Y-161171000D02*
X231869000Y-161171000D01*
G75*
G02*
X232119000Y-161421000I0J-250000D01*
G01*
X232119000Y-161921000D01*
G75*
G02*
X231869000Y-162171000I-250000J0D01*
G01*
X230919000Y-162171000D01*
G75*
G02*
X230669000Y-161921000I0J250000D01*
G01*
X230669000Y-161421000D01*
G75*
G02*
X230919000Y-161171000I250000J0D01*
G01*
G37*
D20*
X354918275Y-108030601D03*
X344758275Y-108030601D03*
D21*
X347338275Y-104030601D03*
D22*
X349838275Y-108030601D03*
G36*
G01*
X345276963Y-106327951D02*
X345276958Y-106327946D01*
G75*
G02*
X345190930Y-104739284I751317J837345D01*
G01*
X346500932Y-103279284D01*
G75*
G02*
X348089594Y-103193256I837345J-751317D01*
G01*
X348089594Y-103193256D01*
G75*
G02*
X348175622Y-104781918I-751317J-837345D01*
G01*
X346865620Y-106241918D01*
G75*
G02*
X345276958Y-106327946I-837345J751317D01*
G01*
G37*
D21*
X352378275Y-102950601D03*
G36*
G01*
X352261758Y-104652996D02*
X352260872Y-104652935D01*
G75*
G02*
X351215941Y-103453198I77403J1122334D01*
G01*
X351255941Y-102873198D01*
G75*
G02*
X352455678Y-101828267I1122334J-77403D01*
G01*
X352455678Y-101828267D01*
G75*
G02*
X353500609Y-103028004I-77403J-1122334D01*
G01*
X353460609Y-103608004D01*
G75*
G02*
X352260872Y-104652935I-1122334J77403D01*
G01*
G37*
D20*
X331105275Y-108030601D03*
X320945275Y-108030601D03*
D21*
X323525275Y-104030601D03*
D22*
X326025275Y-108030601D03*
G36*
G01*
X321463963Y-106327951D02*
X321463958Y-106327946D01*
G75*
G02*
X321377930Y-104739284I751317J837345D01*
G01*
X322687932Y-103279284D01*
G75*
G02*
X324276594Y-103193256I837345J-751317D01*
G01*
X324276594Y-103193256D01*
G75*
G02*
X324362622Y-104781918I-751317J-837345D01*
G01*
X323052620Y-106241918D01*
G75*
G02*
X321463958Y-106327946I-837345J751317D01*
G01*
G37*
D21*
X328565275Y-102950601D03*
G36*
G01*
X328448758Y-104652996D02*
X328447872Y-104652935D01*
G75*
G02*
X327402941Y-103453198I77403J1122334D01*
G01*
X327442941Y-102873198D01*
G75*
G02*
X328642678Y-101828267I1122334J-77403D01*
G01*
X328642678Y-101828267D01*
G75*
G02*
X329687609Y-103028004I-77403J-1122334D01*
G01*
X329647609Y-103608004D01*
G75*
G02*
X328447872Y-104652935I-1122334J77403D01*
G01*
G37*
D23*
X205402000Y-157631500D03*
X207602000Y-157631500D03*
X207602000Y-155931500D03*
X205402000Y-155931500D03*
D24*
X217932500Y-168831500D03*
X218732500Y-168831500D03*
X219532500Y-168831500D03*
X220332500Y-168831500D03*
X221132500Y-168831500D03*
X221932500Y-168831500D03*
X222732500Y-168831500D03*
X223532500Y-168831500D03*
X224332500Y-168831500D03*
X225132500Y-168831500D03*
X225932500Y-168831500D03*
D25*
X227632500Y-167131500D03*
X227632500Y-166331500D03*
X227632500Y-165531500D03*
X227632500Y-164731500D03*
X227632500Y-163931500D03*
X227632500Y-163131500D03*
X227632500Y-162331500D03*
X227632500Y-161531500D03*
X227632500Y-160731500D03*
X227632500Y-159931500D03*
X227632500Y-159131500D03*
D24*
X225932500Y-157431500D03*
X225132500Y-157431500D03*
X224332500Y-157431500D03*
X223532500Y-157431500D03*
X222732500Y-157431500D03*
X221932500Y-157431500D03*
X221132500Y-157431500D03*
X220332500Y-157431500D03*
X219532500Y-157431500D03*
X218732500Y-157431500D03*
X217932500Y-157431500D03*
D25*
X216232500Y-159131500D03*
X216232500Y-159931500D03*
X216232500Y-160731500D03*
X216232500Y-161531500D03*
X216232500Y-162331500D03*
X216232500Y-163131500D03*
X216232500Y-163931500D03*
X216232500Y-164731500D03*
X216232500Y-165531500D03*
X216232500Y-166331500D03*
X216232500Y-167131500D03*
D26*
X152515500Y-169871000D03*
X146315500Y-166171000D03*
X152515500Y-166171000D03*
X146315500Y-169871000D03*
X152388500Y-158949000D03*
X146188500Y-155249000D03*
X152388500Y-155249000D03*
X146188500Y-158949000D03*
G36*
G01*
X155124998Y-156633500D02*
X156025002Y-156633500D01*
G75*
G02*
X156275000Y-156883498I0J-249998D01*
G01*
X156275000Y-157408502D01*
G75*
G02*
X156025002Y-157658500I-249998J0D01*
G01*
X155124998Y-157658500D01*
G75*
G02*
X154875000Y-157408502I0J249998D01*
G01*
X154875000Y-156883498D01*
G75*
G02*
X155124998Y-156633500I249998J0D01*
G01*
G37*
G36*
G01*
X155124998Y-154808500D02*
X156025002Y-154808500D01*
G75*
G02*
X156275000Y-155058498I0J-249998D01*
G01*
X156275000Y-155583502D01*
G75*
G02*
X156025002Y-155833500I-249998J0D01*
G01*
X155124998Y-155833500D01*
G75*
G02*
X154875000Y-155583502I0J249998D01*
G01*
X154875000Y-155058498D01*
G75*
G02*
X155124998Y-154808500I249998J0D01*
G01*
G37*
G36*
G01*
X206317002Y-92333500D02*
X205416998Y-92333500D01*
G75*
G02*
X205167000Y-92083502I0J249998D01*
G01*
X205167000Y-91558498D01*
G75*
G02*
X205416998Y-91308500I249998J0D01*
G01*
X206317002Y-91308500D01*
G75*
G02*
X206567000Y-91558498I0J-249998D01*
G01*
X206567000Y-92083502D01*
G75*
G02*
X206317002Y-92333500I-249998J0D01*
G01*
G37*
G36*
G01*
X206317002Y-94158500D02*
X205416998Y-94158500D01*
G75*
G02*
X205167000Y-93908502I0J249998D01*
G01*
X205167000Y-93383498D01*
G75*
G02*
X205416998Y-93133500I249998J0D01*
G01*
X206317002Y-93133500D01*
G75*
G02*
X206567000Y-93383498I0J-249998D01*
G01*
X206567000Y-93908502D01*
G75*
G02*
X206317002Y-94158500I-249998J0D01*
G01*
G37*
G36*
G01*
X201370500Y-97605002D02*
X201370500Y-96704998D01*
G75*
G02*
X201620498Y-96455000I249998J0D01*
G01*
X202145502Y-96455000D01*
G75*
G02*
X202395500Y-96704998I0J-249998D01*
G01*
X202395500Y-97605002D01*
G75*
G02*
X202145502Y-97855000I-249998J0D01*
G01*
X201620498Y-97855000D01*
G75*
G02*
X201370500Y-97605002I0J249998D01*
G01*
G37*
G36*
G01*
X203195500Y-97605002D02*
X203195500Y-96704998D01*
G75*
G02*
X203445498Y-96455000I249998J0D01*
G01*
X203970502Y-96455000D01*
G75*
G02*
X204220500Y-96704998I0J-249998D01*
G01*
X204220500Y-97605002D01*
G75*
G02*
X203970502Y-97855000I-249998J0D01*
G01*
X203445498Y-97855000D01*
G75*
G02*
X203195500Y-97605002I0J249998D01*
G01*
G37*
G36*
G01*
X208476002Y-92333500D02*
X207575998Y-92333500D01*
G75*
G02*
X207326000Y-92083502I0J249998D01*
G01*
X207326000Y-91558498D01*
G75*
G02*
X207575998Y-91308500I249998J0D01*
G01*
X208476002Y-91308500D01*
G75*
G02*
X208726000Y-91558498I0J-249998D01*
G01*
X208726000Y-92083502D01*
G75*
G02*
X208476002Y-92333500I-249998J0D01*
G01*
G37*
G36*
G01*
X208476002Y-94158500D02*
X207575998Y-94158500D01*
G75*
G02*
X207326000Y-93908502I0J249998D01*
G01*
X207326000Y-93383498D01*
G75*
G02*
X207575998Y-93133500I249998J0D01*
G01*
X208476002Y-93133500D01*
G75*
G02*
X208726000Y-93383498I0J-249998D01*
G01*
X208726000Y-93908502D01*
G75*
G02*
X208476002Y-94158500I-249998J0D01*
G01*
G37*
G36*
G01*
X213810002Y-89031500D02*
X212909998Y-89031500D01*
G75*
G02*
X212660000Y-88781502I0J249998D01*
G01*
X212660000Y-88256498D01*
G75*
G02*
X212909998Y-88006500I249998J0D01*
G01*
X213810002Y-88006500D01*
G75*
G02*
X214060000Y-88256498I0J-249998D01*
G01*
X214060000Y-88781502D01*
G75*
G02*
X213810002Y-89031500I-249998J0D01*
G01*
G37*
G36*
G01*
X213810002Y-90856500D02*
X212909998Y-90856500D01*
G75*
G02*
X212660000Y-90606502I0J249998D01*
G01*
X212660000Y-90081498D01*
G75*
G02*
X212909998Y-89831500I249998J0D01*
G01*
X213810002Y-89831500D01*
G75*
G02*
X214060000Y-90081498I0J-249998D01*
G01*
X214060000Y-90606502D01*
G75*
G02*
X213810002Y-90856500I-249998J0D01*
G01*
G37*
G36*
G01*
X198824002Y-95301500D02*
X197923998Y-95301500D01*
G75*
G02*
X197674000Y-95051502I0J249998D01*
G01*
X197674000Y-94526498D01*
G75*
G02*
X197923998Y-94276500I249998J0D01*
G01*
X198824002Y-94276500D01*
G75*
G02*
X199074000Y-94526498I0J-249998D01*
G01*
X199074000Y-95051502D01*
G75*
G02*
X198824002Y-95301500I-249998J0D01*
G01*
G37*
G36*
G01*
X198824002Y-93476500D02*
X197923998Y-93476500D01*
G75*
G02*
X197674000Y-93226502I0J249998D01*
G01*
X197674000Y-92701498D01*
G75*
G02*
X197923998Y-92451500I249998J0D01*
G01*
X198824002Y-92451500D01*
G75*
G02*
X199074000Y-92701498I0J-249998D01*
G01*
X199074000Y-93226502D01*
G75*
G02*
X198824002Y-93476500I-249998J0D01*
G01*
G37*
D20*
X354918275Y-165180760D03*
X344758275Y-165180760D03*
D21*
X347338275Y-161180760D03*
D22*
X349838275Y-165180760D03*
G36*
G01*
X345276963Y-163478110D02*
X345276958Y-163478105D01*
G75*
G02*
X345190930Y-161889443I751317J837345D01*
G01*
X346500932Y-160429443D01*
G75*
G02*
X348089594Y-160343415I837345J-751317D01*
G01*
X348089594Y-160343415D01*
G75*
G02*
X348175622Y-161932077I-751317J-837345D01*
G01*
X346865620Y-163392077D01*
G75*
G02*
X345276958Y-163478105I-837345J751317D01*
G01*
G37*
D21*
X352378275Y-160100760D03*
G36*
G01*
X352261758Y-161803155D02*
X352260872Y-161803094D01*
G75*
G02*
X351215941Y-160603357I77403J1122334D01*
G01*
X351255941Y-160023357D01*
G75*
G02*
X352455678Y-158978426I1122334J-77403D01*
G01*
X352455678Y-158978426D01*
G75*
G02*
X353500609Y-160178163I-77403J-1122334D01*
G01*
X353460609Y-160758163D01*
G75*
G02*
X352260872Y-161803094I-1122334J77403D01*
G01*
G37*
D20*
X335868275Y-165180760D03*
X325708275Y-165180760D03*
D21*
X328288275Y-161180760D03*
D22*
X330788275Y-165180760D03*
G36*
G01*
X326226963Y-163478110D02*
X326226958Y-163478105D01*
G75*
G02*
X326140930Y-161889443I751317J837345D01*
G01*
X327450932Y-160429443D01*
G75*
G02*
X329039594Y-160343415I837345J-751317D01*
G01*
X329039594Y-160343415D01*
G75*
G02*
X329125622Y-161932077I-751317J-837345D01*
G01*
X327815620Y-163392077D01*
G75*
G02*
X326226958Y-163478105I-837345J751317D01*
G01*
G37*
D21*
X333328275Y-160100760D03*
G36*
G01*
X333211758Y-161803155D02*
X333210872Y-161803094D01*
G75*
G02*
X332165941Y-160603357I77403J1122334D01*
G01*
X332205941Y-160023357D01*
G75*
G02*
X333405678Y-158978426I1122334J-77403D01*
G01*
X333405678Y-158978426D01*
G75*
G02*
X334450609Y-160178163I-77403J-1122334D01*
G01*
X334410609Y-160758163D01*
G75*
G02*
X333210872Y-161803094I-1122334J77403D01*
G01*
G37*
D20*
X316818275Y-165180760D03*
X306658275Y-165180760D03*
D21*
X309238275Y-161180760D03*
D22*
X311738275Y-165180760D03*
G36*
G01*
X307176963Y-163478110D02*
X307176958Y-163478105D01*
G75*
G02*
X307090930Y-161889443I751317J837345D01*
G01*
X308400932Y-160429443D01*
G75*
G02*
X309989594Y-160343415I837345J-751317D01*
G01*
X309989594Y-160343415D01*
G75*
G02*
X310075622Y-161932077I-751317J-837345D01*
G01*
X308765620Y-163392077D01*
G75*
G02*
X307176958Y-163478105I-837345J751317D01*
G01*
G37*
D21*
X314278275Y-160100760D03*
G36*
G01*
X314161758Y-161803155D02*
X314160872Y-161803094D01*
G75*
G02*
X313115941Y-160603357I77403J1122334D01*
G01*
X313155941Y-160023357D01*
G75*
G02*
X314355678Y-158978426I1122334J-77403D01*
G01*
X314355678Y-158978426D01*
G75*
G02*
X315400609Y-160178163I-77403J-1122334D01*
G01*
X315360609Y-160758163D01*
G75*
G02*
X314160872Y-161803094I-1122334J77403D01*
G01*
G37*
D20*
X297768275Y-165180760D03*
X287608275Y-165180760D03*
D21*
X290188275Y-161180760D03*
D22*
X292688275Y-165180760D03*
G36*
G01*
X288126963Y-163478110D02*
X288126958Y-163478105D01*
G75*
G02*
X288040930Y-161889443I751317J837345D01*
G01*
X289350932Y-160429443D01*
G75*
G02*
X290939594Y-160343415I837345J-751317D01*
G01*
X290939594Y-160343415D01*
G75*
G02*
X291025622Y-161932077I-751317J-837345D01*
G01*
X289715620Y-163392077D01*
G75*
G02*
X288126958Y-163478105I-837345J751317D01*
G01*
G37*
D21*
X295228275Y-160100760D03*
G36*
G01*
X295111758Y-161803155D02*
X295110872Y-161803094D01*
G75*
G02*
X294065941Y-160603357I77403J1122334D01*
G01*
X294105941Y-160023357D01*
G75*
G02*
X295305678Y-158978426I1122334J-77403D01*
G01*
X295305678Y-158978426D01*
G75*
G02*
X296350609Y-160178163I-77403J-1122334D01*
G01*
X296310609Y-160758163D01*
G75*
G02*
X295110872Y-161803094I-1122334J77403D01*
G01*
G37*
D20*
X278718275Y-165180760D03*
X268558275Y-165180760D03*
D21*
X271138275Y-161180760D03*
D22*
X273638275Y-165180760D03*
G36*
G01*
X269076963Y-163478110D02*
X269076958Y-163478105D01*
G75*
G02*
X268990930Y-161889443I751317J837345D01*
G01*
X270300932Y-160429443D01*
G75*
G02*
X271889594Y-160343415I837345J-751317D01*
G01*
X271889594Y-160343415D01*
G75*
G02*
X271975622Y-161932077I-751317J-837345D01*
G01*
X270665620Y-163392077D01*
G75*
G02*
X269076958Y-163478105I-837345J751317D01*
G01*
G37*
D21*
X276178275Y-160100760D03*
G36*
G01*
X276061758Y-161803155D02*
X276060872Y-161803094D01*
G75*
G02*
X275015941Y-160603357I77403J1122334D01*
G01*
X275055941Y-160023357D01*
G75*
G02*
X276255678Y-158978426I1122334J-77403D01*
G01*
X276255678Y-158978426D01*
G75*
G02*
X277300609Y-160178163I-77403J-1122334D01*
G01*
X277260609Y-160758163D01*
G75*
G02*
X276060872Y-161803094I-1122334J77403D01*
G01*
G37*
D20*
X259668275Y-165180760D03*
X249508275Y-165180760D03*
D21*
X252088275Y-161180760D03*
D22*
X254588275Y-165180760D03*
G36*
G01*
X250026963Y-163478110D02*
X250026958Y-163478105D01*
G75*
G02*
X249940930Y-161889443I751317J837345D01*
G01*
X251250932Y-160429443D01*
G75*
G02*
X252839594Y-160343415I837345J-751317D01*
G01*
X252839594Y-160343415D01*
G75*
G02*
X252925622Y-161932077I-751317J-837345D01*
G01*
X251615620Y-163392077D01*
G75*
G02*
X250026958Y-163478105I-837345J751317D01*
G01*
G37*
D21*
X257128275Y-160100760D03*
G36*
G01*
X257011758Y-161803155D02*
X257010872Y-161803094D01*
G75*
G02*
X255965941Y-160603357I77403J1122334D01*
G01*
X256005941Y-160023357D01*
G75*
G02*
X257205678Y-158978426I1122334J-77403D01*
G01*
X257205678Y-158978426D01*
G75*
G02*
X258250609Y-160178163I-77403J-1122334D01*
G01*
X258210609Y-160758163D01*
G75*
G02*
X257010872Y-161803094I-1122334J77403D01*
G01*
G37*
D22*
X235530175Y-156925760D03*
X135530375Y-156925760D03*
D27*
X235530175Y-172165760D03*
X135530375Y-172165760D03*
D20*
X190610275Y-165180760D03*
X180450275Y-165180760D03*
D21*
X183030275Y-161180760D03*
D22*
X185530275Y-165180760D03*
G36*
G01*
X180968963Y-163478110D02*
X180968958Y-163478105D01*
G75*
G02*
X180882930Y-161889443I751317J837345D01*
G01*
X182192932Y-160429443D01*
G75*
G02*
X183781594Y-160343415I837345J-751317D01*
G01*
X183781594Y-160343415D01*
G75*
G02*
X183867622Y-161932077I-751317J-837345D01*
G01*
X182557620Y-163392077D01*
G75*
G02*
X180968958Y-163478105I-837345J751317D01*
G01*
G37*
D21*
X188070275Y-160100760D03*
G36*
G01*
X187953758Y-161803155D02*
X187952872Y-161803094D01*
G75*
G02*
X186907941Y-160603357I77403J1122334D01*
G01*
X186947941Y-160023357D01*
G75*
G02*
X188147678Y-158978426I1122334J-77403D01*
G01*
X188147678Y-158978426D01*
G75*
G02*
X189192609Y-160178163I-77403J-1122334D01*
G01*
X189152609Y-160758163D01*
G75*
G02*
X187952872Y-161803094I-1122334J77403D01*
G01*
G37*
D20*
X119174275Y-165180760D03*
X109014275Y-165180760D03*
D21*
X111594275Y-161180760D03*
D22*
X114094275Y-165180760D03*
G36*
G01*
X109532963Y-163478110D02*
X109532958Y-163478105D01*
G75*
G02*
X109446930Y-161889443I751317J837345D01*
G01*
X110756932Y-160429443D01*
G75*
G02*
X112345594Y-160343415I837345J-751317D01*
G01*
X112345594Y-160343415D01*
G75*
G02*
X112431622Y-161932077I-751317J-837345D01*
G01*
X111121620Y-163392077D01*
G75*
G02*
X109532958Y-163478105I-837345J751317D01*
G01*
G37*
D21*
X116634275Y-160100760D03*
G36*
G01*
X116517758Y-161803155D02*
X116516872Y-161803094D01*
G75*
G02*
X115471941Y-160603357I77403J1122334D01*
G01*
X115511941Y-160023357D01*
G75*
G02*
X116711678Y-158978426I1122334J-77403D01*
G01*
X116711678Y-158978426D01*
G75*
G02*
X117756609Y-160178163I-77403J-1122334D01*
G01*
X117716609Y-160758163D01*
G75*
G02*
X116516872Y-161803094I-1122334J77403D01*
G01*
G37*
D20*
X95360275Y-165180760D03*
X85200275Y-165180760D03*
D21*
X87780275Y-161180760D03*
D22*
X90280275Y-165180760D03*
G36*
G01*
X85718963Y-163478110D02*
X85718958Y-163478105D01*
G75*
G02*
X85632930Y-161889443I751317J837345D01*
G01*
X86942932Y-160429443D01*
G75*
G02*
X88531594Y-160343415I837345J-751317D01*
G01*
X88531594Y-160343415D01*
G75*
G02*
X88617622Y-161932077I-751317J-837345D01*
G01*
X87307620Y-163392077D01*
G75*
G02*
X85718958Y-163478105I-837345J751317D01*
G01*
G37*
D21*
X92820275Y-160100760D03*
G36*
G01*
X92703758Y-161803155D02*
X92702872Y-161803094D01*
G75*
G02*
X91657941Y-160603357I77403J1122334D01*
G01*
X91697941Y-160023357D01*
G75*
G02*
X92897678Y-158978426I1122334J-77403D01*
G01*
X92897678Y-158978426D01*
G75*
G02*
X93942609Y-160178163I-77403J-1122334D01*
G01*
X93902609Y-160758163D01*
G75*
G02*
X92702872Y-161803094I-1122334J77403D01*
G01*
G37*
D20*
X71549185Y-165180760D03*
X61389185Y-165180760D03*
D21*
X63969185Y-161180760D03*
D22*
X66469185Y-165180760D03*
G36*
G01*
X61907873Y-163478110D02*
X61907868Y-163478105D01*
G75*
G02*
X61821840Y-161889443I751317J837345D01*
G01*
X63131842Y-160429443D01*
G75*
G02*
X64720504Y-160343415I837345J-751317D01*
G01*
X64720504Y-160343415D01*
G75*
G02*
X64806532Y-161932077I-751317J-837345D01*
G01*
X63496530Y-163392077D01*
G75*
G02*
X61907868Y-163478105I-837345J751317D01*
G01*
G37*
D21*
X69009185Y-160100760D03*
G36*
G01*
X68892668Y-161803155D02*
X68891782Y-161803094D01*
G75*
G02*
X67846851Y-160603357I77403J1122334D01*
G01*
X67886851Y-160023357D01*
G75*
G02*
X69086588Y-158978426I1122334J-77403D01*
G01*
X69086588Y-158978426D01*
G75*
G02*
X70131519Y-160178163I-77403J-1122334D01*
G01*
X70091519Y-160758163D01*
G75*
G02*
X68891782Y-161803094I-1122334J77403D01*
G01*
G37*
D20*
X354918275Y-146130800D03*
X344758275Y-146130800D03*
D21*
X347338275Y-142130800D03*
D22*
X349838275Y-146130800D03*
G36*
G01*
X345276963Y-144428150D02*
X345276958Y-144428145D01*
G75*
G02*
X345190930Y-142839483I751317J837345D01*
G01*
X346500932Y-141379483D01*
G75*
G02*
X348089594Y-141293455I837345J-751317D01*
G01*
X348089594Y-141293455D01*
G75*
G02*
X348175622Y-142882117I-751317J-837345D01*
G01*
X346865620Y-144342117D01*
G75*
G02*
X345276958Y-144428145I-837345J751317D01*
G01*
G37*
D21*
X352378275Y-141050800D03*
G36*
G01*
X352261758Y-142753195D02*
X352260872Y-142753134D01*
G75*
G02*
X351215941Y-141553397I77403J1122334D01*
G01*
X351255941Y-140973397D01*
G75*
G02*
X352455678Y-139928466I1122334J-77403D01*
G01*
X352455678Y-139928466D01*
G75*
G02*
X353500609Y-141128203I-77403J-1122334D01*
G01*
X353460609Y-141708203D01*
G75*
G02*
X352260872Y-142753134I-1122334J77403D01*
G01*
G37*
D20*
X335868275Y-146130800D03*
X325708275Y-146130800D03*
D21*
X328288275Y-142130800D03*
D22*
X330788275Y-146130800D03*
G36*
G01*
X326226963Y-144428150D02*
X326226958Y-144428145D01*
G75*
G02*
X326140930Y-142839483I751317J837345D01*
G01*
X327450932Y-141379483D01*
G75*
G02*
X329039594Y-141293455I837345J-751317D01*
G01*
X329039594Y-141293455D01*
G75*
G02*
X329125622Y-142882117I-751317J-837345D01*
G01*
X327815620Y-144342117D01*
G75*
G02*
X326226958Y-144428145I-837345J751317D01*
G01*
G37*
D21*
X333328275Y-141050800D03*
G36*
G01*
X333211758Y-142753195D02*
X333210872Y-142753134D01*
G75*
G02*
X332165941Y-141553397I77403J1122334D01*
G01*
X332205941Y-140973397D01*
G75*
G02*
X333405678Y-139928466I1122334J-77403D01*
G01*
X333405678Y-139928466D01*
G75*
G02*
X334450609Y-141128203I-77403J-1122334D01*
G01*
X334410609Y-141708203D01*
G75*
G02*
X333210872Y-142753134I-1122334J77403D01*
G01*
G37*
D20*
X309674274Y-146130800D03*
X299514274Y-146130800D03*
D21*
X302094274Y-142130800D03*
D22*
X304594274Y-146130800D03*
G36*
G01*
X300032962Y-144428150D02*
X300032957Y-144428145D01*
G75*
G02*
X299946929Y-142839483I751317J837345D01*
G01*
X301256931Y-141379483D01*
G75*
G02*
X302845593Y-141293455I837345J-751317D01*
G01*
X302845593Y-141293455D01*
G75*
G02*
X302931621Y-142882117I-751317J-837345D01*
G01*
X301621619Y-144342117D01*
G75*
G02*
X300032957Y-144428145I-837345J751317D01*
G01*
G37*
D21*
X307134274Y-141050800D03*
G36*
G01*
X307017757Y-142753195D02*
X307016871Y-142753134D01*
G75*
G02*
X305971940Y-141553397I77403J1122334D01*
G01*
X306011940Y-140973397D01*
G75*
G02*
X307211677Y-139928466I1122334J-77403D01*
G01*
X307211677Y-139928466D01*
G75*
G02*
X308256608Y-141128203I-77403J-1122334D01*
G01*
X308216608Y-141708203D01*
G75*
G02*
X307016871Y-142753134I-1122334J77403D01*
G01*
G37*
D20*
X283480275Y-146130800D03*
X273320275Y-146130800D03*
D21*
X275900275Y-142130800D03*
D22*
X278400275Y-146130800D03*
G36*
G01*
X273838963Y-144428150D02*
X273838958Y-144428145D01*
G75*
G02*
X273752930Y-142839483I751317J837345D01*
G01*
X275062932Y-141379483D01*
G75*
G02*
X276651594Y-141293455I837345J-751317D01*
G01*
X276651594Y-141293455D01*
G75*
G02*
X276737622Y-142882117I-751317J-837345D01*
G01*
X275427620Y-144342117D01*
G75*
G02*
X273838958Y-144428145I-837345J751317D01*
G01*
G37*
D21*
X280940275Y-141050800D03*
G36*
G01*
X280823758Y-142753195D02*
X280822872Y-142753134D01*
G75*
G02*
X279777941Y-141553397I77403J1122334D01*
G01*
X279817941Y-140973397D01*
G75*
G02*
X281017678Y-139928466I1122334J-77403D01*
G01*
X281017678Y-139928466D01*
G75*
G02*
X282062609Y-141128203I-77403J-1122334D01*
G01*
X282022609Y-141708203D01*
G75*
G02*
X280822872Y-142753134I-1122334J77403D01*
G01*
G37*
D20*
X264430275Y-146130800D03*
X254270275Y-146130800D03*
D21*
X256850275Y-142130800D03*
D22*
X259350275Y-146130800D03*
G36*
G01*
X254788963Y-144428150D02*
X254788958Y-144428145D01*
G75*
G02*
X254702930Y-142839483I751317J837345D01*
G01*
X256012932Y-141379483D01*
G75*
G02*
X257601594Y-141293455I837345J-751317D01*
G01*
X257601594Y-141293455D01*
G75*
G02*
X257687622Y-142882117I-751317J-837345D01*
G01*
X256377620Y-144342117D01*
G75*
G02*
X254788958Y-144428145I-837345J751317D01*
G01*
G37*
D21*
X261890275Y-141050800D03*
G36*
G01*
X261773758Y-142753195D02*
X261772872Y-142753134D01*
G75*
G02*
X260727941Y-141553397I77403J1122334D01*
G01*
X260767941Y-140973397D01*
G75*
G02*
X261967678Y-139928466I1122334J-77403D01*
G01*
X261967678Y-139928466D01*
G75*
G02*
X263012609Y-141128203I-77403J-1122334D01*
G01*
X262972609Y-141708203D01*
G75*
G02*
X261772872Y-142753134I-1122334J77403D01*
G01*
G37*
D20*
X245380275Y-146130800D03*
X235220275Y-146130800D03*
D21*
X237800275Y-142130800D03*
D22*
X240300275Y-146130800D03*
G36*
G01*
X235738963Y-144428150D02*
X235738958Y-144428145D01*
G75*
G02*
X235652930Y-142839483I751317J837345D01*
G01*
X236962932Y-141379483D01*
G75*
G02*
X238551594Y-141293455I837345J-751317D01*
G01*
X238551594Y-141293455D01*
G75*
G02*
X238637622Y-142882117I-751317J-837345D01*
G01*
X237327620Y-144342117D01*
G75*
G02*
X235738958Y-144428145I-837345J751317D01*
G01*
G37*
D21*
X242840275Y-141050800D03*
G36*
G01*
X242723758Y-142753195D02*
X242722872Y-142753134D01*
G75*
G02*
X241677941Y-141553397I77403J1122334D01*
G01*
X241717941Y-140973397D01*
G75*
G02*
X242917678Y-139928466I1122334J-77403D01*
G01*
X242917678Y-139928466D01*
G75*
G02*
X243962609Y-141128203I-77403J-1122334D01*
G01*
X243922609Y-141708203D01*
G75*
G02*
X242722872Y-142753134I-1122334J77403D01*
G01*
G37*
D20*
X226330275Y-146130800D03*
X216170275Y-146130800D03*
D21*
X218750275Y-142130800D03*
D22*
X221250275Y-146130800D03*
G36*
G01*
X216688963Y-144428150D02*
X216688958Y-144428145D01*
G75*
G02*
X216602930Y-142839483I751317J837345D01*
G01*
X217912932Y-141379483D01*
G75*
G02*
X219501594Y-141293455I837345J-751317D01*
G01*
X219501594Y-141293455D01*
G75*
G02*
X219587622Y-142882117I-751317J-837345D01*
G01*
X218277620Y-144342117D01*
G75*
G02*
X216688958Y-144428145I-837345J751317D01*
G01*
G37*
D21*
X223790275Y-141050800D03*
G36*
G01*
X223673758Y-142753195D02*
X223672872Y-142753134D01*
G75*
G02*
X222627941Y-141553397I77403J1122334D01*
G01*
X222667941Y-140973397D01*
G75*
G02*
X223867678Y-139928466I1122334J-77403D01*
G01*
X223867678Y-139928466D01*
G75*
G02*
X224912609Y-141128203I-77403J-1122334D01*
G01*
X224872609Y-141708203D01*
G75*
G02*
X223672872Y-142753134I-1122334J77403D01*
G01*
G37*
D20*
X207280275Y-146130800D03*
X197120275Y-146130800D03*
D21*
X199700275Y-142130800D03*
D22*
X202200275Y-146130800D03*
G36*
G01*
X197638963Y-144428150D02*
X197638958Y-144428145D01*
G75*
G02*
X197552930Y-142839483I751317J837345D01*
G01*
X198862932Y-141379483D01*
G75*
G02*
X200451594Y-141293455I837345J-751317D01*
G01*
X200451594Y-141293455D01*
G75*
G02*
X200537622Y-142882117I-751317J-837345D01*
G01*
X199227620Y-144342117D01*
G75*
G02*
X197638958Y-144428145I-837345J751317D01*
G01*
G37*
D21*
X204740275Y-141050800D03*
G36*
G01*
X204623758Y-142753195D02*
X204622872Y-142753134D01*
G75*
G02*
X203577941Y-141553397I77403J1122334D01*
G01*
X203617941Y-140973397D01*
G75*
G02*
X204817678Y-139928466I1122334J-77403D01*
G01*
X204817678Y-139928466D01*
G75*
G02*
X205862609Y-141128203I-77403J-1122334D01*
G01*
X205822609Y-141708203D01*
G75*
G02*
X204622872Y-142753134I-1122334J77403D01*
G01*
G37*
D20*
X188230275Y-146130800D03*
X178070275Y-146130800D03*
D21*
X180650275Y-142130800D03*
D22*
X183150275Y-146130800D03*
G36*
G01*
X178588963Y-144428150D02*
X178588958Y-144428145D01*
G75*
G02*
X178502930Y-142839483I751317J837345D01*
G01*
X179812932Y-141379483D01*
G75*
G02*
X181401594Y-141293455I837345J-751317D01*
G01*
X181401594Y-141293455D01*
G75*
G02*
X181487622Y-142882117I-751317J-837345D01*
G01*
X180177620Y-144342117D01*
G75*
G02*
X178588958Y-144428145I-837345J751317D01*
G01*
G37*
D21*
X185690275Y-141050800D03*
G36*
G01*
X185573758Y-142753195D02*
X185572872Y-142753134D01*
G75*
G02*
X184527941Y-141553397I77403J1122334D01*
G01*
X184567941Y-140973397D01*
G75*
G02*
X185767678Y-139928466I1122334J-77403D01*
G01*
X185767678Y-139928466D01*
G75*
G02*
X186812609Y-141128203I-77403J-1122334D01*
G01*
X186772609Y-141708203D01*
G75*
G02*
X185572872Y-142753134I-1122334J77403D01*
G01*
G37*
D20*
X169180275Y-146130800D03*
X159020275Y-146130800D03*
D21*
X161600275Y-142130800D03*
D22*
X164100275Y-146130800D03*
G36*
G01*
X159538963Y-144428150D02*
X159538958Y-144428145D01*
G75*
G02*
X159452930Y-142839483I751317J837345D01*
G01*
X160762932Y-141379483D01*
G75*
G02*
X162351594Y-141293455I837345J-751317D01*
G01*
X162351594Y-141293455D01*
G75*
G02*
X162437622Y-142882117I-751317J-837345D01*
G01*
X161127620Y-144342117D01*
G75*
G02*
X159538958Y-144428145I-837345J751317D01*
G01*
G37*
D21*
X166640275Y-141050800D03*
G36*
G01*
X166523758Y-142753195D02*
X166522872Y-142753134D01*
G75*
G02*
X165477941Y-141553397I77403J1122334D01*
G01*
X165517941Y-140973397D01*
G75*
G02*
X166717678Y-139928466I1122334J-77403D01*
G01*
X166717678Y-139928466D01*
G75*
G02*
X167762609Y-141128203I-77403J-1122334D01*
G01*
X167722609Y-141708203D01*
G75*
G02*
X166522872Y-142753134I-1122334J77403D01*
G01*
G37*
D20*
X150130475Y-146130800D03*
X139970475Y-146130800D03*
D21*
X142550475Y-142130800D03*
D22*
X145050475Y-146130800D03*
G36*
G01*
X140489163Y-144428150D02*
X140489158Y-144428145D01*
G75*
G02*
X140403130Y-142839483I751317J837345D01*
G01*
X141713132Y-141379483D01*
G75*
G02*
X143301794Y-141293455I837345J-751317D01*
G01*
X143301794Y-141293455D01*
G75*
G02*
X143387822Y-142882117I-751317J-837345D01*
G01*
X142077820Y-144342117D01*
G75*
G02*
X140489158Y-144428145I-837345J751317D01*
G01*
G37*
D21*
X147590475Y-141050800D03*
G36*
G01*
X147473958Y-142753195D02*
X147473072Y-142753134D01*
G75*
G02*
X146428141Y-141553397I77403J1122334D01*
G01*
X146468141Y-140973397D01*
G75*
G02*
X147667878Y-139928466I1122334J-77403D01*
G01*
X147667878Y-139928466D01*
G75*
G02*
X148712809Y-141128203I-77403J-1122334D01*
G01*
X148672809Y-141708203D01*
G75*
G02*
X147473072Y-142753134I-1122334J77403D01*
G01*
G37*
D20*
X131080475Y-146130800D03*
X120920475Y-146130800D03*
D21*
X123500475Y-142130800D03*
D22*
X126000475Y-146130800D03*
G36*
G01*
X121439163Y-144428150D02*
X121439158Y-144428145D01*
G75*
G02*
X121353130Y-142839483I751317J837345D01*
G01*
X122663132Y-141379483D01*
G75*
G02*
X124251794Y-141293455I837345J-751317D01*
G01*
X124251794Y-141293455D01*
G75*
G02*
X124337822Y-142882117I-751317J-837345D01*
G01*
X123027820Y-144342117D01*
G75*
G02*
X121439158Y-144428145I-837345J751317D01*
G01*
G37*
D21*
X128540475Y-141050800D03*
G36*
G01*
X128423958Y-142753195D02*
X128423072Y-142753134D01*
G75*
G02*
X127378141Y-141553397I77403J1122334D01*
G01*
X127418141Y-140973397D01*
G75*
G02*
X128617878Y-139928466I1122334J-77403D01*
G01*
X128617878Y-139928466D01*
G75*
G02*
X129662809Y-141128203I-77403J-1122334D01*
G01*
X129622809Y-141708203D01*
G75*
G02*
X128423072Y-142753134I-1122334J77403D01*
G01*
G37*
D20*
X112030475Y-146130800D03*
X101870475Y-146130800D03*
D21*
X104450475Y-142130800D03*
D22*
X106950475Y-146130800D03*
G36*
G01*
X102389163Y-144428150D02*
X102389158Y-144428145D01*
G75*
G02*
X102303130Y-142839483I751317J837345D01*
G01*
X103613132Y-141379483D01*
G75*
G02*
X105201794Y-141293455I837345J-751317D01*
G01*
X105201794Y-141293455D01*
G75*
G02*
X105287822Y-142882117I-751317J-837345D01*
G01*
X103977820Y-144342117D01*
G75*
G02*
X102389158Y-144428145I-837345J751317D01*
G01*
G37*
D21*
X109490475Y-141050800D03*
G36*
G01*
X109373958Y-142753195D02*
X109373072Y-142753134D01*
G75*
G02*
X108328141Y-141553397I77403J1122334D01*
G01*
X108368141Y-140973397D01*
G75*
G02*
X109567878Y-139928466I1122334J-77403D01*
G01*
X109567878Y-139928466D01*
G75*
G02*
X110612809Y-141128203I-77403J-1122334D01*
G01*
X110572809Y-141708203D01*
G75*
G02*
X109373072Y-142753134I-1122334J77403D01*
G01*
G37*
D22*
X87932175Y-137875800D03*
X64056175Y-137875800D03*
D27*
X87932175Y-153115800D03*
X64056175Y-153115800D03*
D20*
X81074175Y-146130800D03*
X70914175Y-146130800D03*
D21*
X73494175Y-142130800D03*
D22*
X75994175Y-146130800D03*
G36*
G01*
X71432863Y-144428150D02*
X71432858Y-144428145D01*
G75*
G02*
X71346830Y-142839483I751317J837345D01*
G01*
X72656832Y-141379483D01*
G75*
G02*
X74245494Y-141293455I837345J-751317D01*
G01*
X74245494Y-141293455D01*
G75*
G02*
X74331522Y-142882117I-751317J-837345D01*
G01*
X73021520Y-144342117D01*
G75*
G02*
X71432858Y-144428145I-837345J751317D01*
G01*
G37*
D21*
X78534175Y-141050800D03*
G36*
G01*
X78417658Y-142753195D02*
X78416772Y-142753134D01*
G75*
G02*
X77371841Y-141553397I77403J1122334D01*
G01*
X77411841Y-140973397D01*
G75*
G02*
X78611578Y-139928466I1122334J-77403D01*
G01*
X78611578Y-139928466D01*
G75*
G02*
X79656509Y-141128203I-77403J-1122334D01*
G01*
X79616509Y-141708203D01*
G75*
G02*
X78416772Y-142753134I-1122334J77403D01*
G01*
G37*
D20*
X354918275Y-127080601D03*
X344758275Y-127080601D03*
D21*
X347338275Y-123080601D03*
D22*
X349838275Y-127080601D03*
G36*
G01*
X345276963Y-125377951D02*
X345276958Y-125377946D01*
G75*
G02*
X345190930Y-123789284I751317J837345D01*
G01*
X346500932Y-122329284D01*
G75*
G02*
X348089594Y-122243256I837345J-751317D01*
G01*
X348089594Y-122243256D01*
G75*
G02*
X348175622Y-123831918I-751317J-837345D01*
G01*
X346865620Y-125291918D01*
G75*
G02*
X345276958Y-125377946I-837345J751317D01*
G01*
G37*
D21*
X352378275Y-122000601D03*
G36*
G01*
X352261758Y-123702996D02*
X352260872Y-123702935D01*
G75*
G02*
X351215941Y-122503198I77403J1122334D01*
G01*
X351255941Y-121923198D01*
G75*
G02*
X352455678Y-120878267I1122334J-77403D01*
G01*
X352455678Y-120878267D01*
G75*
G02*
X353500609Y-122078004I-77403J-1122334D01*
G01*
X353460609Y-122658004D01*
G75*
G02*
X352260872Y-123702935I-1122334J77403D01*
G01*
G37*
D22*
X330818275Y-118825601D03*
X306942275Y-118825601D03*
D27*
X330818275Y-134065601D03*
X306942275Y-134065601D03*
D20*
X323960275Y-127080601D03*
X313800275Y-127080601D03*
D21*
X316380275Y-123080601D03*
D22*
X318880275Y-127080601D03*
G36*
G01*
X314318963Y-125377951D02*
X314318958Y-125377946D01*
G75*
G02*
X314232930Y-123789284I751317J837345D01*
G01*
X315542932Y-122329284D01*
G75*
G02*
X317131594Y-122243256I837345J-751317D01*
G01*
X317131594Y-122243256D01*
G75*
G02*
X317217622Y-123831918I-751317J-837345D01*
G01*
X315907620Y-125291918D01*
G75*
G02*
X314318958Y-125377946I-837345J751317D01*
G01*
G37*
D21*
X321420275Y-122000601D03*
G36*
G01*
X321303758Y-123702996D02*
X321302872Y-123702935D01*
G75*
G02*
X320257941Y-122503198I77403J1122334D01*
G01*
X320297941Y-121923198D01*
G75*
G02*
X321497678Y-120878267I1122334J-77403D01*
G01*
X321497678Y-120878267D01*
G75*
G02*
X322542609Y-122078004I-77403J-1122334D01*
G01*
X322502609Y-122658004D01*
G75*
G02*
X321302872Y-123702935I-1122334J77403D01*
G01*
G37*
D20*
X293005275Y-127080601D03*
X282845275Y-127080601D03*
D21*
X285425275Y-123080601D03*
D22*
X287925275Y-127080601D03*
G36*
G01*
X283363963Y-125377951D02*
X283363958Y-125377946D01*
G75*
G02*
X283277930Y-123789284I751317J837345D01*
G01*
X284587932Y-122329284D01*
G75*
G02*
X286176594Y-122243256I837345J-751317D01*
G01*
X286176594Y-122243256D01*
G75*
G02*
X286262622Y-123831918I-751317J-837345D01*
G01*
X284952620Y-125291918D01*
G75*
G02*
X283363958Y-125377946I-837345J751317D01*
G01*
G37*
D21*
X290465275Y-122000601D03*
G36*
G01*
X290348758Y-123702996D02*
X290347872Y-123702935D01*
G75*
G02*
X289302941Y-122503198I77403J1122334D01*
G01*
X289342941Y-121923198D01*
G75*
G02*
X290542678Y-120878267I1122334J-77403D01*
G01*
X290542678Y-120878267D01*
G75*
G02*
X291587609Y-122078004I-77403J-1122334D01*
G01*
X291547609Y-122658004D01*
G75*
G02*
X290347872Y-123702935I-1122334J77403D01*
G01*
G37*
G36*
G01*
X271298758Y-123702996D02*
X271297872Y-123702935D01*
G75*
G02*
X270252941Y-122503198I77403J1122334D01*
G01*
X270292941Y-121923198D01*
G75*
G02*
X271492678Y-120878267I1122334J-77403D01*
G01*
X271492678Y-120878267D01*
G75*
G02*
X272537609Y-122078004I-77403J-1122334D01*
G01*
X272497609Y-122658004D01*
G75*
G02*
X271297872Y-123702935I-1122334J77403D01*
G01*
G37*
X271415275Y-122000601D03*
G36*
G01*
X264313963Y-125377951D02*
X264313958Y-125377946D01*
G75*
G02*
X264227930Y-123789284I751317J837345D01*
G01*
X265537932Y-122329284D01*
G75*
G02*
X267126594Y-122243256I837345J-751317D01*
G01*
X267126594Y-122243256D01*
G75*
G02*
X267212622Y-123831918I-751317J-837345D01*
G01*
X265902620Y-125291918D01*
G75*
G02*
X264313958Y-125377946I-837345J751317D01*
G01*
G37*
D22*
X268875275Y-127080601D03*
D21*
X266375275Y-123080601D03*
D20*
X263795275Y-127080601D03*
X273955275Y-127080601D03*
X254905275Y-127080601D03*
X244745275Y-127080601D03*
D21*
X247325275Y-123080601D03*
D22*
X249825275Y-127080601D03*
G36*
G01*
X245263963Y-125377951D02*
X245263958Y-125377946D01*
G75*
G02*
X245177930Y-123789284I751317J837345D01*
G01*
X246487932Y-122329284D01*
G75*
G02*
X248076594Y-122243256I837345J-751317D01*
G01*
X248076594Y-122243256D01*
G75*
G02*
X248162622Y-123831918I-751317J-837345D01*
G01*
X246852620Y-125291918D01*
G75*
G02*
X245263958Y-125377946I-837345J751317D01*
G01*
G37*
D21*
X252365275Y-122000601D03*
G36*
G01*
X252248758Y-123702996D02*
X252247872Y-123702935D01*
G75*
G02*
X251202941Y-122503198I77403J1122334D01*
G01*
X251242941Y-121923198D01*
G75*
G02*
X252442678Y-120878267I1122334J-77403D01*
G01*
X252442678Y-120878267D01*
G75*
G02*
X253487609Y-122078004I-77403J-1122334D01*
G01*
X253447609Y-122658004D01*
G75*
G02*
X252247872Y-123702935I-1122334J77403D01*
G01*
G37*
D20*
X235855275Y-127080601D03*
X225695275Y-127080601D03*
D21*
X228275275Y-123080601D03*
D22*
X230775275Y-127080601D03*
G36*
G01*
X226213963Y-125377951D02*
X226213958Y-125377946D01*
G75*
G02*
X226127930Y-123789284I751317J837345D01*
G01*
X227437932Y-122329284D01*
G75*
G02*
X229026594Y-122243256I837345J-751317D01*
G01*
X229026594Y-122243256D01*
G75*
G02*
X229112622Y-123831918I-751317J-837345D01*
G01*
X227802620Y-125291918D01*
G75*
G02*
X226213958Y-125377946I-837345J751317D01*
G01*
G37*
D21*
X233315275Y-122000601D03*
G36*
G01*
X233198758Y-123702996D02*
X233197872Y-123702935D01*
G75*
G02*
X232152941Y-122503198I77403J1122334D01*
G01*
X232192941Y-121923198D01*
G75*
G02*
X233392678Y-120878267I1122334J-77403D01*
G01*
X233392678Y-120878267D01*
G75*
G02*
X234437609Y-122078004I-77403J-1122334D01*
G01*
X234397609Y-122658004D01*
G75*
G02*
X233197872Y-123702935I-1122334J77403D01*
G01*
G37*
D20*
X216805275Y-127080601D03*
X206645275Y-127080601D03*
D21*
X209225275Y-123080601D03*
D22*
X211725275Y-127080601D03*
G36*
G01*
X207163963Y-125377951D02*
X207163958Y-125377946D01*
G75*
G02*
X207077930Y-123789284I751317J837345D01*
G01*
X208387932Y-122329284D01*
G75*
G02*
X209976594Y-122243256I837345J-751317D01*
G01*
X209976594Y-122243256D01*
G75*
G02*
X210062622Y-123831918I-751317J-837345D01*
G01*
X208752620Y-125291918D01*
G75*
G02*
X207163958Y-125377946I-837345J751317D01*
G01*
G37*
D21*
X214265275Y-122000601D03*
G36*
G01*
X214148758Y-123702996D02*
X214147872Y-123702935D01*
G75*
G02*
X213102941Y-122503198I77403J1122334D01*
G01*
X213142941Y-121923198D01*
G75*
G02*
X214342678Y-120878267I1122334J-77403D01*
G01*
X214342678Y-120878267D01*
G75*
G02*
X215387609Y-122078004I-77403J-1122334D01*
G01*
X215347609Y-122658004D01*
G75*
G02*
X214147872Y-123702935I-1122334J77403D01*
G01*
G37*
D20*
X197755275Y-127080601D03*
X187595275Y-127080601D03*
D21*
X190175275Y-123080601D03*
D22*
X192675275Y-127080601D03*
G36*
G01*
X188113963Y-125377951D02*
X188113958Y-125377946D01*
G75*
G02*
X188027930Y-123789284I751317J837345D01*
G01*
X189337932Y-122329284D01*
G75*
G02*
X190926594Y-122243256I837345J-751317D01*
G01*
X190926594Y-122243256D01*
G75*
G02*
X191012622Y-123831918I-751317J-837345D01*
G01*
X189702620Y-125291918D01*
G75*
G02*
X188113958Y-125377946I-837345J751317D01*
G01*
G37*
D21*
X195215275Y-122000601D03*
G36*
G01*
X195098758Y-123702996D02*
X195097872Y-123702935D01*
G75*
G02*
X194052941Y-122503198I77403J1122334D01*
G01*
X194092941Y-121923198D01*
G75*
G02*
X195292678Y-120878267I1122334J-77403D01*
G01*
X195292678Y-120878267D01*
G75*
G02*
X196337609Y-122078004I-77403J-1122334D01*
G01*
X196297609Y-122658004D01*
G75*
G02*
X195097872Y-123702935I-1122334J77403D01*
G01*
G37*
D20*
X178705274Y-127080601D03*
X168545274Y-127080601D03*
D21*
X171125274Y-123080601D03*
D22*
X173625274Y-127080601D03*
G36*
G01*
X169063962Y-125377951D02*
X169063957Y-125377946D01*
G75*
G02*
X168977929Y-123789284I751317J837345D01*
G01*
X170287931Y-122329284D01*
G75*
G02*
X171876593Y-122243256I837345J-751317D01*
G01*
X171876593Y-122243256D01*
G75*
G02*
X171962621Y-123831918I-751317J-837345D01*
G01*
X170652619Y-125291918D01*
G75*
G02*
X169063957Y-125377946I-837345J751317D01*
G01*
G37*
D21*
X176165274Y-122000601D03*
G36*
G01*
X176048757Y-123702996D02*
X176047871Y-123702935D01*
G75*
G02*
X175002940Y-122503198I77403J1122334D01*
G01*
X175042940Y-121923198D01*
G75*
G02*
X176242677Y-120878267I1122334J-77403D01*
G01*
X176242677Y-120878267D01*
G75*
G02*
X177287608Y-122078004I-77403J-1122334D01*
G01*
X177247608Y-122658004D01*
G75*
G02*
X176047871Y-123702935I-1122334J77403D01*
G01*
G37*
D20*
X159655475Y-127080601D03*
X149495475Y-127080601D03*
D21*
X152075475Y-123080601D03*
D22*
X154575475Y-127080601D03*
G36*
G01*
X150014163Y-125377951D02*
X150014158Y-125377946D01*
G75*
G02*
X149928130Y-123789284I751317J837345D01*
G01*
X151238132Y-122329284D01*
G75*
G02*
X152826794Y-122243256I837345J-751317D01*
G01*
X152826794Y-122243256D01*
G75*
G02*
X152912822Y-123831918I-751317J-837345D01*
G01*
X151602820Y-125291918D01*
G75*
G02*
X150014158Y-125377946I-837345J751317D01*
G01*
G37*
D21*
X157115475Y-122000601D03*
G36*
G01*
X156998958Y-123702996D02*
X156998072Y-123702935D01*
G75*
G02*
X155953141Y-122503198I77403J1122334D01*
G01*
X155993141Y-121923198D01*
G75*
G02*
X157192878Y-120878267I1122334J-77403D01*
G01*
X157192878Y-120878267D01*
G75*
G02*
X158237809Y-122078004I-77403J-1122334D01*
G01*
X158197809Y-122658004D01*
G75*
G02*
X156998072Y-123702935I-1122334J77403D01*
G01*
G37*
D20*
X140605474Y-127080601D03*
X130445474Y-127080601D03*
D21*
X133025474Y-123080601D03*
D22*
X135525474Y-127080601D03*
G36*
G01*
X130964162Y-125377951D02*
X130964157Y-125377946D01*
G75*
G02*
X130878129Y-123789284I751317J837345D01*
G01*
X132188131Y-122329284D01*
G75*
G02*
X133776793Y-122243256I837345J-751317D01*
G01*
X133776793Y-122243256D01*
G75*
G02*
X133862821Y-123831918I-751317J-837345D01*
G01*
X132552819Y-125291918D01*
G75*
G02*
X130964157Y-125377946I-837345J751317D01*
G01*
G37*
D21*
X138065474Y-122000601D03*
G36*
G01*
X137948957Y-123702996D02*
X137948071Y-123702935D01*
G75*
G02*
X136903140Y-122503198I77403J1122334D01*
G01*
X136943140Y-121923198D01*
G75*
G02*
X138142877Y-120878267I1122334J-77403D01*
G01*
X138142877Y-120878267D01*
G75*
G02*
X139187808Y-122078004I-77403J-1122334D01*
G01*
X139147808Y-122658004D01*
G75*
G02*
X137948071Y-123702935I-1122334J77403D01*
G01*
G37*
D20*
X121555474Y-127080601D03*
X111395474Y-127080601D03*
D21*
X113975474Y-123080601D03*
D22*
X116475474Y-127080601D03*
G36*
G01*
X111914162Y-125377951D02*
X111914157Y-125377946D01*
G75*
G02*
X111828129Y-123789284I751317J837345D01*
G01*
X113138131Y-122329284D01*
G75*
G02*
X114726793Y-122243256I837345J-751317D01*
G01*
X114726793Y-122243256D01*
G75*
G02*
X114812821Y-123831918I-751317J-837345D01*
G01*
X113502819Y-125291918D01*
G75*
G02*
X111914157Y-125377946I-837345J751317D01*
G01*
G37*
D21*
X119015474Y-122000601D03*
G36*
G01*
X118898957Y-123702996D02*
X118898071Y-123702935D01*
G75*
G02*
X117853140Y-122503198I77403J1122334D01*
G01*
X117893140Y-121923198D01*
G75*
G02*
X119092877Y-120878267I1122334J-77403D01*
G01*
X119092877Y-120878267D01*
G75*
G02*
X120137808Y-122078004I-77403J-1122334D01*
G01*
X120097808Y-122658004D01*
G75*
G02*
X118898071Y-123702935I-1122334J77403D01*
G01*
G37*
D20*
X102505475Y-127080601D03*
X92345475Y-127080601D03*
D21*
X94925475Y-123080601D03*
D22*
X97425475Y-127080601D03*
G36*
G01*
X92864163Y-125377951D02*
X92864158Y-125377946D01*
G75*
G02*
X92778130Y-123789284I751317J837345D01*
G01*
X94088132Y-122329284D01*
G75*
G02*
X95676794Y-122243256I837345J-751317D01*
G01*
X95676794Y-122243256D01*
G75*
G02*
X95762822Y-123831918I-751317J-837345D01*
G01*
X94452820Y-125291918D01*
G75*
G02*
X92864158Y-125377946I-837345J751317D01*
G01*
G37*
D21*
X99965475Y-122000601D03*
G36*
G01*
X99848958Y-123702996D02*
X99848072Y-123702935D01*
G75*
G02*
X98803141Y-122503198I77403J1122334D01*
G01*
X98843141Y-121923198D01*
G75*
G02*
X100042878Y-120878267I1122334J-77403D01*
G01*
X100042878Y-120878267D01*
G75*
G02*
X101087809Y-122078004I-77403J-1122334D01*
G01*
X101047809Y-122658004D01*
G75*
G02*
X99848072Y-123702935I-1122334J77403D01*
G01*
G37*
D20*
X76310305Y-127080601D03*
X66150305Y-127080601D03*
D21*
X68730305Y-123080601D03*
D22*
X71230305Y-127080601D03*
G36*
G01*
X66668993Y-125377951D02*
X66668988Y-125377946D01*
G75*
G02*
X66582960Y-123789284I751317J837345D01*
G01*
X67892962Y-122329284D01*
G75*
G02*
X69481624Y-122243256I837345J-751317D01*
G01*
X69481624Y-122243256D01*
G75*
G02*
X69567652Y-123831918I-751317J-837345D01*
G01*
X68257650Y-125291918D01*
G75*
G02*
X66668988Y-125377946I-837345J751317D01*
G01*
G37*
D21*
X73770305Y-122000601D03*
G36*
G01*
X73653788Y-123702996D02*
X73652902Y-123702935D01*
G75*
G02*
X72607971Y-122503198I77403J1122334D01*
G01*
X72647971Y-121923198D01*
G75*
G02*
X73847708Y-120878267I1122334J-77403D01*
G01*
X73847708Y-120878267D01*
G75*
G02*
X74892639Y-122078004I-77403J-1122334D01*
G01*
X74852639Y-122658004D01*
G75*
G02*
X73652902Y-123702935I-1122334J77403D01*
G01*
G37*
D20*
X307293274Y-108030601D03*
X297133274Y-108030601D03*
D21*
X299713274Y-104030601D03*
D22*
X302213274Y-108030601D03*
G36*
G01*
X297651962Y-106327951D02*
X297651957Y-106327946D01*
G75*
G02*
X297565929Y-104739284I751317J837345D01*
G01*
X298875931Y-103279284D01*
G75*
G02*
X300464593Y-103193256I837345J-751317D01*
G01*
X300464593Y-103193256D01*
G75*
G02*
X300550621Y-104781918I-751317J-837345D01*
G01*
X299240619Y-106241918D01*
G75*
G02*
X297651957Y-106327946I-837345J751317D01*
G01*
G37*
D21*
X304753274Y-102950601D03*
G36*
G01*
X304636757Y-104652996D02*
X304635871Y-104652935D01*
G75*
G02*
X303590940Y-103453198I77403J1122334D01*
G01*
X303630940Y-102873198D01*
G75*
G02*
X304830677Y-101828267I1122334J-77403D01*
G01*
X304830677Y-101828267D01*
G75*
G02*
X305875608Y-103028004I-77403J-1122334D01*
G01*
X305835608Y-103608004D01*
G75*
G02*
X304635871Y-104652935I-1122334J77403D01*
G01*
G37*
D20*
X288243275Y-108030601D03*
X278083275Y-108030601D03*
D21*
X280663275Y-104030601D03*
D22*
X283163275Y-108030601D03*
G36*
G01*
X278601963Y-106327951D02*
X278601958Y-106327946D01*
G75*
G02*
X278515930Y-104739284I751317J837345D01*
G01*
X279825932Y-103279284D01*
G75*
G02*
X281414594Y-103193256I837345J-751317D01*
G01*
X281414594Y-103193256D01*
G75*
G02*
X281500622Y-104781918I-751317J-837345D01*
G01*
X280190620Y-106241918D01*
G75*
G02*
X278601958Y-106327946I-837345J751317D01*
G01*
G37*
D21*
X285703275Y-102950601D03*
G36*
G01*
X285586758Y-104652996D02*
X285585872Y-104652935D01*
G75*
G02*
X284540941Y-103453198I77403J1122334D01*
G01*
X284580941Y-102873198D01*
G75*
G02*
X285780678Y-101828267I1122334J-77403D01*
G01*
X285780678Y-101828267D01*
G75*
G02*
X286825609Y-103028004I-77403J-1122334D01*
G01*
X286785609Y-103608004D01*
G75*
G02*
X285585872Y-104652935I-1122334J77403D01*
G01*
G37*
D20*
X269193275Y-108030601D03*
X259033275Y-108030601D03*
D21*
X261613275Y-104030601D03*
D22*
X264113275Y-108030601D03*
G36*
G01*
X259551963Y-106327951D02*
X259551958Y-106327946D01*
G75*
G02*
X259465930Y-104739284I751317J837345D01*
G01*
X260775932Y-103279284D01*
G75*
G02*
X262364594Y-103193256I837345J-751317D01*
G01*
X262364594Y-103193256D01*
G75*
G02*
X262450622Y-104781918I-751317J-837345D01*
G01*
X261140620Y-106241918D01*
G75*
G02*
X259551958Y-106327946I-837345J751317D01*
G01*
G37*
D21*
X266653275Y-102950601D03*
G36*
G01*
X266536758Y-104652996D02*
X266535872Y-104652935D01*
G75*
G02*
X265490941Y-103453198I77403J1122334D01*
G01*
X265530941Y-102873198D01*
G75*
G02*
X266730678Y-101828267I1122334J-77403D01*
G01*
X266730678Y-101828267D01*
G75*
G02*
X267775609Y-103028004I-77403J-1122334D01*
G01*
X267735609Y-103608004D01*
G75*
G02*
X266535872Y-104652935I-1122334J77403D01*
G01*
G37*
D20*
X250143275Y-108030601D03*
X239983275Y-108030601D03*
D21*
X242563275Y-104030601D03*
D22*
X245063275Y-108030601D03*
G36*
G01*
X240501963Y-106327951D02*
X240501958Y-106327946D01*
G75*
G02*
X240415930Y-104739284I751317J837345D01*
G01*
X241725932Y-103279284D01*
G75*
G02*
X243314594Y-103193256I837345J-751317D01*
G01*
X243314594Y-103193256D01*
G75*
G02*
X243400622Y-104781918I-751317J-837345D01*
G01*
X242090620Y-106241918D01*
G75*
G02*
X240501958Y-106327946I-837345J751317D01*
G01*
G37*
D21*
X247603275Y-102950601D03*
G36*
G01*
X247486758Y-104652996D02*
X247485872Y-104652935D01*
G75*
G02*
X246440941Y-103453198I77403J1122334D01*
G01*
X246480941Y-102873198D01*
G75*
G02*
X247680678Y-101828267I1122334J-77403D01*
G01*
X247680678Y-101828267D01*
G75*
G02*
X248725609Y-103028004I-77403J-1122334D01*
G01*
X248685609Y-103608004D01*
G75*
G02*
X247485872Y-104652935I-1122334J77403D01*
G01*
G37*
D20*
X231093275Y-108030601D03*
X220933275Y-108030601D03*
D21*
X223513275Y-104030601D03*
D22*
X226013275Y-108030601D03*
G36*
G01*
X221451963Y-106327951D02*
X221451958Y-106327946D01*
G75*
G02*
X221365930Y-104739284I751317J837345D01*
G01*
X222675932Y-103279284D01*
G75*
G02*
X224264594Y-103193256I837345J-751317D01*
G01*
X224264594Y-103193256D01*
G75*
G02*
X224350622Y-104781918I-751317J-837345D01*
G01*
X223040620Y-106241918D01*
G75*
G02*
X221451958Y-106327946I-837345J751317D01*
G01*
G37*
D21*
X228553275Y-102950601D03*
G36*
G01*
X228436758Y-104652996D02*
X228435872Y-104652935D01*
G75*
G02*
X227390941Y-103453198I77403J1122334D01*
G01*
X227430941Y-102873198D01*
G75*
G02*
X228630678Y-101828267I1122334J-77403D01*
G01*
X228630678Y-101828267D01*
G75*
G02*
X229675609Y-103028004I-77403J-1122334D01*
G01*
X229635609Y-103608004D01*
G75*
G02*
X228435872Y-104652935I-1122334J77403D01*
G01*
G37*
D20*
X212043275Y-108030601D03*
X201883275Y-108030601D03*
D21*
X204463275Y-104030601D03*
D22*
X206963275Y-108030601D03*
G36*
G01*
X202401963Y-106327951D02*
X202401958Y-106327946D01*
G75*
G02*
X202315930Y-104739284I751317J837345D01*
G01*
X203625932Y-103279284D01*
G75*
G02*
X205214594Y-103193256I837345J-751317D01*
G01*
X205214594Y-103193256D01*
G75*
G02*
X205300622Y-104781918I-751317J-837345D01*
G01*
X203990620Y-106241918D01*
G75*
G02*
X202401958Y-106327946I-837345J751317D01*
G01*
G37*
D21*
X209503275Y-102950601D03*
G36*
G01*
X209386758Y-104652996D02*
X209385872Y-104652935D01*
G75*
G02*
X208340941Y-103453198I77403J1122334D01*
G01*
X208380941Y-102873198D01*
G75*
G02*
X209580678Y-101828267I1122334J-77403D01*
G01*
X209580678Y-101828267D01*
G75*
G02*
X210625609Y-103028004I-77403J-1122334D01*
G01*
X210585609Y-103608004D01*
G75*
G02*
X209385872Y-104652935I-1122334J77403D01*
G01*
G37*
D20*
X192993275Y-108030601D03*
X182833275Y-108030601D03*
D21*
X185413275Y-104030601D03*
D22*
X187913275Y-108030601D03*
G36*
G01*
X183351963Y-106327951D02*
X183351958Y-106327946D01*
G75*
G02*
X183265930Y-104739284I751317J837345D01*
G01*
X184575932Y-103279284D01*
G75*
G02*
X186164594Y-103193256I837345J-751317D01*
G01*
X186164594Y-103193256D01*
G75*
G02*
X186250622Y-104781918I-751317J-837345D01*
G01*
X184940620Y-106241918D01*
G75*
G02*
X183351958Y-106327946I-837345J751317D01*
G01*
G37*
D21*
X190453275Y-102950601D03*
G36*
G01*
X190336758Y-104652996D02*
X190335872Y-104652935D01*
G75*
G02*
X189290941Y-103453198I77403J1122334D01*
G01*
X189330941Y-102873198D01*
G75*
G02*
X190530678Y-101828267I1122334J-77403D01*
G01*
X190530678Y-101828267D01*
G75*
G02*
X191575609Y-103028004I-77403J-1122334D01*
G01*
X191535609Y-103608004D01*
G75*
G02*
X190335872Y-104652935I-1122334J77403D01*
G01*
G37*
D20*
X173943275Y-108030601D03*
X163783275Y-108030601D03*
D21*
X166363275Y-104030601D03*
D22*
X168863275Y-108030601D03*
G36*
G01*
X164301963Y-106327951D02*
X164301958Y-106327946D01*
G75*
G02*
X164215930Y-104739284I751317J837345D01*
G01*
X165525932Y-103279284D01*
G75*
G02*
X167114594Y-103193256I837345J-751317D01*
G01*
X167114594Y-103193256D01*
G75*
G02*
X167200622Y-104781918I-751317J-837345D01*
G01*
X165890620Y-106241918D01*
G75*
G02*
X164301958Y-106327946I-837345J751317D01*
G01*
G37*
D21*
X171403275Y-102950601D03*
G36*
G01*
X171286758Y-104652996D02*
X171285872Y-104652935D01*
G75*
G02*
X170240941Y-103453198I77403J1122334D01*
G01*
X170280941Y-102873198D01*
G75*
G02*
X171480678Y-101828267I1122334J-77403D01*
G01*
X171480678Y-101828267D01*
G75*
G02*
X172525609Y-103028004I-77403J-1122334D01*
G01*
X172485609Y-103608004D01*
G75*
G02*
X171285872Y-104652935I-1122334J77403D01*
G01*
G37*
D20*
X154892975Y-108030601D03*
X144732975Y-108030601D03*
D21*
X147312975Y-104030601D03*
D22*
X149812975Y-108030601D03*
G36*
G01*
X145251663Y-106327951D02*
X145251658Y-106327946D01*
G75*
G02*
X145165630Y-104739284I751317J837345D01*
G01*
X146475632Y-103279284D01*
G75*
G02*
X148064294Y-103193256I837345J-751317D01*
G01*
X148064294Y-103193256D01*
G75*
G02*
X148150322Y-104781918I-751317J-837345D01*
G01*
X146840320Y-106241918D01*
G75*
G02*
X145251658Y-106327946I-837345J751317D01*
G01*
G37*
D21*
X152352975Y-102950601D03*
G36*
G01*
X152236458Y-104652996D02*
X152235572Y-104652935D01*
G75*
G02*
X151190641Y-103453198I77403J1122334D01*
G01*
X151230641Y-102873198D01*
G75*
G02*
X152430378Y-101828267I1122334J-77403D01*
G01*
X152430378Y-101828267D01*
G75*
G02*
X153475309Y-103028004I-77403J-1122334D01*
G01*
X153435309Y-103608004D01*
G75*
G02*
X152235572Y-104652935I-1122334J77403D01*
G01*
G37*
D20*
X135842975Y-108030601D03*
X125682975Y-108030601D03*
D21*
X128262975Y-104030601D03*
D22*
X130762975Y-108030601D03*
G36*
G01*
X126201663Y-106327951D02*
X126201658Y-106327946D01*
G75*
G02*
X126115630Y-104739284I751317J837345D01*
G01*
X127425632Y-103279284D01*
G75*
G02*
X129014294Y-103193256I837345J-751317D01*
G01*
X129014294Y-103193256D01*
G75*
G02*
X129100322Y-104781918I-751317J-837345D01*
G01*
X127790320Y-106241918D01*
G75*
G02*
X126201658Y-106327946I-837345J751317D01*
G01*
G37*
D21*
X133302975Y-102950601D03*
G36*
G01*
X133186458Y-104652996D02*
X133185572Y-104652935D01*
G75*
G02*
X132140641Y-103453198I77403J1122334D01*
G01*
X132180641Y-102873198D01*
G75*
G02*
X133380378Y-101828267I1122334J-77403D01*
G01*
X133380378Y-101828267D01*
G75*
G02*
X134425309Y-103028004I-77403J-1122334D01*
G01*
X134385309Y-103608004D01*
G75*
G02*
X133185572Y-104652935I-1122334J77403D01*
G01*
G37*
D20*
X116792975Y-108030601D03*
X106632975Y-108030601D03*
D21*
X109212975Y-104030601D03*
D22*
X111712975Y-108030601D03*
G36*
G01*
X107151663Y-106327951D02*
X107151658Y-106327946D01*
G75*
G02*
X107065630Y-104739284I751317J837345D01*
G01*
X108375632Y-103279284D01*
G75*
G02*
X109964294Y-103193256I837345J-751317D01*
G01*
X109964294Y-103193256D01*
G75*
G02*
X110050322Y-104781918I-751317J-837345D01*
G01*
X108740320Y-106241918D01*
G75*
G02*
X107151658Y-106327946I-837345J751317D01*
G01*
G37*
D21*
X114252975Y-102950601D03*
G36*
G01*
X114136458Y-104652996D02*
X114135572Y-104652935D01*
G75*
G02*
X113090641Y-103453198I77403J1122334D01*
G01*
X113130641Y-102873198D01*
G75*
G02*
X114330378Y-101828267I1122334J-77403D01*
G01*
X114330378Y-101828267D01*
G75*
G02*
X115375309Y-103028004I-77403J-1122334D01*
G01*
X115335309Y-103608004D01*
G75*
G02*
X114135572Y-104652935I-1122334J77403D01*
G01*
G37*
D20*
X97742974Y-108030601D03*
X87582974Y-108030601D03*
D21*
X90162974Y-104030601D03*
D22*
X92662974Y-108030601D03*
G36*
G01*
X88101662Y-106327951D02*
X88101657Y-106327946D01*
G75*
G02*
X88015629Y-104739284I751317J837345D01*
G01*
X89325631Y-103279284D01*
G75*
G02*
X90914293Y-103193256I837345J-751317D01*
G01*
X90914293Y-103193256D01*
G75*
G02*
X91000321Y-104781918I-751317J-837345D01*
G01*
X89690319Y-106241918D01*
G75*
G02*
X88101657Y-106327946I-837345J751317D01*
G01*
G37*
D21*
X95202974Y-102950601D03*
G36*
G01*
X95086457Y-104652996D02*
X95085571Y-104652935D01*
G75*
G02*
X94040640Y-103453198I77403J1122334D01*
G01*
X94080640Y-102873198D01*
G75*
G02*
X95280377Y-101828267I1122334J-77403D01*
G01*
X95280377Y-101828267D01*
G75*
G02*
X96325308Y-103028004I-77403J-1122334D01*
G01*
X96285308Y-103608004D01*
G75*
G02*
X95085571Y-104652935I-1122334J77403D01*
G01*
G37*
D20*
X73930435Y-108030601D03*
X63770435Y-108030601D03*
D21*
X66350435Y-104030601D03*
D22*
X68850435Y-108030601D03*
G36*
G01*
X64289123Y-106327951D02*
X64289118Y-106327946D01*
G75*
G02*
X64203090Y-104739284I751317J837345D01*
G01*
X65513092Y-103279284D01*
G75*
G02*
X67101754Y-103193256I837345J-751317D01*
G01*
X67101754Y-103193256D01*
G75*
G02*
X67187782Y-104781918I-751317J-837345D01*
G01*
X65877780Y-106241918D01*
G75*
G02*
X64289118Y-106327946I-837345J751317D01*
G01*
G37*
D21*
X71390435Y-102950601D03*
G36*
G01*
X71273918Y-104652996D02*
X71273032Y-104652935D01*
G75*
G02*
X70228101Y-103453198I77403J1122334D01*
G01*
X70268101Y-102873198D01*
G75*
G02*
X71467838Y-101828267I1122334J-77403D01*
G01*
X71467838Y-101828267D01*
G75*
G02*
X72512769Y-103028004I-77403J-1122334D01*
G01*
X72472769Y-103608004D01*
G75*
G02*
X71273032Y-104652935I-1122334J77403D01*
G01*
G37*
D20*
X354918275Y-88980600D03*
X344758275Y-88980600D03*
D21*
X347338275Y-84980600D03*
D22*
X349838275Y-88980600D03*
G36*
G01*
X345276963Y-87277950D02*
X345276958Y-87277945D01*
G75*
G02*
X345190930Y-85689283I751317J837345D01*
G01*
X346500932Y-84229283D01*
G75*
G02*
X348089594Y-84143255I837345J-751317D01*
G01*
X348089594Y-84143255D01*
G75*
G02*
X348175622Y-85731917I-751317J-837345D01*
G01*
X346865620Y-87191917D01*
G75*
G02*
X345276958Y-87277945I-837345J751317D01*
G01*
G37*
D21*
X352378275Y-83900600D03*
G36*
G01*
X352261758Y-85602995D02*
X352260872Y-85602934D01*
G75*
G02*
X351215941Y-84403197I77403J1122334D01*
G01*
X351255941Y-83823197D01*
G75*
G02*
X352455678Y-82778266I1122334J-77403D01*
G01*
X352455678Y-82778266D01*
G75*
G02*
X353500609Y-83978003I-77403J-1122334D01*
G01*
X353460609Y-84558003D01*
G75*
G02*
X352260872Y-85602934I-1122334J77403D01*
G01*
G37*
D22*
X333201275Y-97235600D03*
X309325275Y-97235600D03*
D27*
X333201275Y-81995600D03*
X309325275Y-81995600D03*
D20*
X326343275Y-88980600D03*
X316183275Y-88980600D03*
D21*
X318763275Y-84980600D03*
D22*
X321263275Y-88980600D03*
G36*
G01*
X316701963Y-87277950D02*
X316701958Y-87277945D01*
G75*
G02*
X316615930Y-85689283I751317J837345D01*
G01*
X317925932Y-84229283D01*
G75*
G02*
X319514594Y-84143255I837345J-751317D01*
G01*
X319514594Y-84143255D01*
G75*
G02*
X319600622Y-85731917I-751317J-837345D01*
G01*
X318290620Y-87191917D01*
G75*
G02*
X316701958Y-87277945I-837345J751317D01*
G01*
G37*
D21*
X323803275Y-83900600D03*
G36*
G01*
X323686758Y-85602995D02*
X323685872Y-85602934D01*
G75*
G02*
X322640941Y-84403197I77403J1122334D01*
G01*
X322680941Y-83823197D01*
G75*
G02*
X323880678Y-82778266I1122334J-77403D01*
G01*
X323880678Y-82778266D01*
G75*
G02*
X324925609Y-83978003I-77403J-1122334D01*
G01*
X324885609Y-84558003D01*
G75*
G02*
X323685872Y-85602934I-1122334J77403D01*
G01*
G37*
D20*
X297768275Y-88980600D03*
X287608275Y-88980600D03*
D21*
X290188275Y-84980600D03*
D22*
X292688275Y-88980600D03*
G36*
G01*
X288126963Y-87277950D02*
X288126958Y-87277945D01*
G75*
G02*
X288040930Y-85689283I751317J837345D01*
G01*
X289350932Y-84229283D01*
G75*
G02*
X290939594Y-84143255I837345J-751317D01*
G01*
X290939594Y-84143255D01*
G75*
G02*
X291025622Y-85731917I-751317J-837345D01*
G01*
X289715620Y-87191917D01*
G75*
G02*
X288126958Y-87277945I-837345J751317D01*
G01*
G37*
D21*
X295228275Y-83900600D03*
G36*
G01*
X295111758Y-85602995D02*
X295110872Y-85602934D01*
G75*
G02*
X294065941Y-84403197I77403J1122334D01*
G01*
X294105941Y-83823197D01*
G75*
G02*
X295305678Y-82778266I1122334J-77403D01*
G01*
X295305678Y-82778266D01*
G75*
G02*
X296350609Y-83978003I-77403J-1122334D01*
G01*
X296310609Y-84558003D01*
G75*
G02*
X295110872Y-85602934I-1122334J77403D01*
G01*
G37*
D20*
X278718275Y-88980600D03*
X268558275Y-88980600D03*
D21*
X271138275Y-84980600D03*
D22*
X273638275Y-88980600D03*
G36*
G01*
X269076963Y-87277950D02*
X269076958Y-87277945D01*
G75*
G02*
X268990930Y-85689283I751317J837345D01*
G01*
X270300932Y-84229283D01*
G75*
G02*
X271889594Y-84143255I837345J-751317D01*
G01*
X271889594Y-84143255D01*
G75*
G02*
X271975622Y-85731917I-751317J-837345D01*
G01*
X270665620Y-87191917D01*
G75*
G02*
X269076958Y-87277945I-837345J751317D01*
G01*
G37*
D21*
X276178275Y-83900600D03*
G36*
G01*
X276061758Y-85602995D02*
X276060872Y-85602934D01*
G75*
G02*
X275015941Y-84403197I77403J1122334D01*
G01*
X275055941Y-83823197D01*
G75*
G02*
X276255678Y-82778266I1122334J-77403D01*
G01*
X276255678Y-82778266D01*
G75*
G02*
X277300609Y-83978003I-77403J-1122334D01*
G01*
X277260609Y-84558003D01*
G75*
G02*
X276060872Y-85602934I-1122334J77403D01*
G01*
G37*
D20*
X259668275Y-88980600D03*
X249508275Y-88980600D03*
D21*
X252088275Y-84980600D03*
D22*
X254588275Y-88980600D03*
G36*
G01*
X250026963Y-87277950D02*
X250026958Y-87277945D01*
G75*
G02*
X249940930Y-85689283I751317J837345D01*
G01*
X251250932Y-84229283D01*
G75*
G02*
X252839594Y-84143255I837345J-751317D01*
G01*
X252839594Y-84143255D01*
G75*
G02*
X252925622Y-85731917I-751317J-837345D01*
G01*
X251615620Y-87191917D01*
G75*
G02*
X250026958Y-87277945I-837345J751317D01*
G01*
G37*
D21*
X257128275Y-83900600D03*
G36*
G01*
X257011758Y-85602995D02*
X257010872Y-85602934D01*
G75*
G02*
X255965941Y-84403197I77403J1122334D01*
G01*
X256005941Y-83823197D01*
G75*
G02*
X257205678Y-82778266I1122334J-77403D01*
G01*
X257205678Y-82778266D01*
G75*
G02*
X258250609Y-83978003I-77403J-1122334D01*
G01*
X258210609Y-84558003D01*
G75*
G02*
X257010872Y-85602934I-1122334J77403D01*
G01*
G37*
D20*
X240618275Y-88980600D03*
X230458275Y-88980600D03*
D21*
X233038275Y-84980600D03*
D22*
X235538275Y-88980600D03*
G36*
G01*
X230976963Y-87277950D02*
X230976958Y-87277945D01*
G75*
G02*
X230890930Y-85689283I751317J837345D01*
G01*
X232200932Y-84229283D01*
G75*
G02*
X233789594Y-84143255I837345J-751317D01*
G01*
X233789594Y-84143255D01*
G75*
G02*
X233875622Y-85731917I-751317J-837345D01*
G01*
X232565620Y-87191917D01*
G75*
G02*
X230976958Y-87277945I-837345J751317D01*
G01*
G37*
D21*
X238078275Y-83900600D03*
G36*
G01*
X237961758Y-85602995D02*
X237960872Y-85602934D01*
G75*
G02*
X236915941Y-84403197I77403J1122334D01*
G01*
X236955941Y-83823197D01*
G75*
G02*
X238155678Y-82778266I1122334J-77403D01*
G01*
X238155678Y-82778266D01*
G75*
G02*
X239200609Y-83978003I-77403J-1122334D01*
G01*
X239160609Y-84558003D01*
G75*
G02*
X237960872Y-85602934I-1122334J77403D01*
G01*
G37*
D20*
X202518275Y-88980600D03*
X192358275Y-88980600D03*
D21*
X194938275Y-84980600D03*
D22*
X197438275Y-88980600D03*
G36*
G01*
X192876963Y-87277950D02*
X192876958Y-87277945D01*
G75*
G02*
X192790930Y-85689283I751317J837345D01*
G01*
X194100932Y-84229283D01*
G75*
G02*
X195689594Y-84143255I837345J-751317D01*
G01*
X195689594Y-84143255D01*
G75*
G02*
X195775622Y-85731917I-751317J-837345D01*
G01*
X194465620Y-87191917D01*
G75*
G02*
X192876958Y-87277945I-837345J751317D01*
G01*
G37*
D21*
X199978275Y-83900600D03*
G36*
G01*
X199861758Y-85602995D02*
X199860872Y-85602934D01*
G75*
G02*
X198815941Y-84403197I77403J1122334D01*
G01*
X198855941Y-83823197D01*
G75*
G02*
X200055678Y-82778266I1122334J-77403D01*
G01*
X200055678Y-82778266D01*
G75*
G02*
X201100609Y-83978003I-77403J-1122334D01*
G01*
X201060609Y-84558003D01*
G75*
G02*
X199860872Y-85602934I-1122334J77403D01*
G01*
G37*
D20*
X183466275Y-88980600D03*
X173306275Y-88980600D03*
D21*
X175886275Y-84980600D03*
D22*
X178386275Y-88980600D03*
G36*
G01*
X173824963Y-87277950D02*
X173824958Y-87277945D01*
G75*
G02*
X173738930Y-85689283I751317J837345D01*
G01*
X175048932Y-84229283D01*
G75*
G02*
X176637594Y-84143255I837345J-751317D01*
G01*
X176637594Y-84143255D01*
G75*
G02*
X176723622Y-85731917I-751317J-837345D01*
G01*
X175413620Y-87191917D01*
G75*
G02*
X173824958Y-87277945I-837345J751317D01*
G01*
G37*
D21*
X180926275Y-83900600D03*
G36*
G01*
X180809758Y-85602995D02*
X180808872Y-85602934D01*
G75*
G02*
X179763941Y-84403197I77403J1122334D01*
G01*
X179803941Y-83823197D01*
G75*
G02*
X181003678Y-82778266I1122334J-77403D01*
G01*
X181003678Y-82778266D01*
G75*
G02*
X182048609Y-83978003I-77403J-1122334D01*
G01*
X182008609Y-84558003D01*
G75*
G02*
X180808872Y-85602934I-1122334J77403D01*
G01*
G37*
D20*
X164416575Y-88980600D03*
X154256575Y-88980600D03*
D21*
X156836575Y-84980600D03*
D22*
X159336575Y-88980600D03*
G36*
G01*
X154775263Y-87277950D02*
X154775258Y-87277945D01*
G75*
G02*
X154689230Y-85689283I751317J837345D01*
G01*
X155999232Y-84229283D01*
G75*
G02*
X157587894Y-84143255I837345J-751317D01*
G01*
X157587894Y-84143255D01*
G75*
G02*
X157673922Y-85731917I-751317J-837345D01*
G01*
X156363920Y-87191917D01*
G75*
G02*
X154775258Y-87277945I-837345J751317D01*
G01*
G37*
D21*
X161876575Y-83900600D03*
G36*
G01*
X161760058Y-85602995D02*
X161759172Y-85602934D01*
G75*
G02*
X160714241Y-84403197I77403J1122334D01*
G01*
X160754241Y-83823197D01*
G75*
G02*
X161953978Y-82778266I1122334J-77403D01*
G01*
X161953978Y-82778266D01*
G75*
G02*
X162998909Y-83978003I-77403J-1122334D01*
G01*
X162958909Y-84558003D01*
G75*
G02*
X161759172Y-85602934I-1122334J77403D01*
G01*
G37*
D20*
X145367974Y-88980600D03*
X135207974Y-88980600D03*
D21*
X137787974Y-84980600D03*
D22*
X140287974Y-88980600D03*
G36*
G01*
X135726662Y-87277950D02*
X135726657Y-87277945D01*
G75*
G02*
X135640629Y-85689283I751317J837345D01*
G01*
X136950631Y-84229283D01*
G75*
G02*
X138539293Y-84143255I837345J-751317D01*
G01*
X138539293Y-84143255D01*
G75*
G02*
X138625321Y-85731917I-751317J-837345D01*
G01*
X137315319Y-87191917D01*
G75*
G02*
X135726657Y-87277945I-837345J751317D01*
G01*
G37*
D21*
X142827974Y-83900600D03*
G36*
G01*
X142711457Y-85602995D02*
X142710571Y-85602934D01*
G75*
G02*
X141665640Y-84403197I77403J1122334D01*
G01*
X141705640Y-83823197D01*
G75*
G02*
X142905377Y-82778266I1122334J-77403D01*
G01*
X142905377Y-82778266D01*
G75*
G02*
X143950308Y-83978003I-77403J-1122334D01*
G01*
X143910308Y-84558003D01*
G75*
G02*
X142710571Y-85602934I-1122334J77403D01*
G01*
G37*
D20*
X126317975Y-88980600D03*
X116157975Y-88980600D03*
D21*
X118737975Y-84980600D03*
D22*
X121237975Y-88980600D03*
G36*
G01*
X116676663Y-87277950D02*
X116676658Y-87277945D01*
G75*
G02*
X116590630Y-85689283I751317J837345D01*
G01*
X117900632Y-84229283D01*
G75*
G02*
X119489294Y-84143255I837345J-751317D01*
G01*
X119489294Y-84143255D01*
G75*
G02*
X119575322Y-85731917I-751317J-837345D01*
G01*
X118265320Y-87191917D01*
G75*
G02*
X116676658Y-87277945I-837345J751317D01*
G01*
G37*
D21*
X123777975Y-83900600D03*
G36*
G01*
X123661458Y-85602995D02*
X123660572Y-85602934D01*
G75*
G02*
X122615641Y-84403197I77403J1122334D01*
G01*
X122655641Y-83823197D01*
G75*
G02*
X123855378Y-82778266I1122334J-77403D01*
G01*
X123855378Y-82778266D01*
G75*
G02*
X124900309Y-83978003I-77403J-1122334D01*
G01*
X124860309Y-84558003D01*
G75*
G02*
X123660572Y-85602934I-1122334J77403D01*
G01*
G37*
D20*
X107267975Y-88980600D03*
X97107975Y-88980600D03*
D21*
X99687975Y-84980600D03*
D22*
X102187975Y-88980600D03*
G36*
G01*
X97626663Y-87277950D02*
X97626658Y-87277945D01*
G75*
G02*
X97540630Y-85689283I751317J837345D01*
G01*
X98850632Y-84229283D01*
G75*
G02*
X100439294Y-84143255I837345J-751317D01*
G01*
X100439294Y-84143255D01*
G75*
G02*
X100525322Y-85731917I-751317J-837345D01*
G01*
X99215320Y-87191917D01*
G75*
G02*
X97626658Y-87277945I-837345J751317D01*
G01*
G37*
D21*
X104727975Y-83900600D03*
G36*
G01*
X104611458Y-85602995D02*
X104610572Y-85602934D01*
G75*
G02*
X103565641Y-84403197I77403J1122334D01*
G01*
X103605641Y-83823197D01*
G75*
G02*
X104805378Y-82778266I1122334J-77403D01*
G01*
X104805378Y-82778266D01*
G75*
G02*
X105850309Y-83978003I-77403J-1122334D01*
G01*
X105810309Y-84558003D01*
G75*
G02*
X104610572Y-85602934I-1122334J77403D01*
G01*
G37*
D20*
X88217975Y-88980600D03*
X78057975Y-88980600D03*
D21*
X80637975Y-84980600D03*
D22*
X83137975Y-88980600D03*
G36*
G01*
X78576663Y-87277950D02*
X78576658Y-87277945D01*
G75*
G02*
X78490630Y-85689283I751317J837345D01*
G01*
X79800632Y-84229283D01*
G75*
G02*
X81389294Y-84143255I837345J-751317D01*
G01*
X81389294Y-84143255D01*
G75*
G02*
X81475322Y-85731917I-751317J-837345D01*
G01*
X80165320Y-87191917D01*
G75*
G02*
X78576658Y-87277945I-837345J751317D01*
G01*
G37*
D21*
X85677975Y-83900600D03*
G36*
G01*
X85561458Y-85602995D02*
X85560572Y-85602934D01*
G75*
G02*
X84515641Y-84403197I77403J1122334D01*
G01*
X84555641Y-83823197D01*
G75*
G02*
X85755378Y-82778266I1122334J-77403D01*
G01*
X85755378Y-82778266D01*
G75*
G02*
X86800309Y-83978003I-77403J-1122334D01*
G01*
X86760309Y-84558003D01*
G75*
G02*
X85560572Y-85602934I-1122334J77403D01*
G01*
G37*
D20*
X69167925Y-88980600D03*
X59007925Y-88980600D03*
D21*
X61587925Y-84980600D03*
D22*
X64087925Y-88980600D03*
G36*
G01*
X59526613Y-87277950D02*
X59526608Y-87277945D01*
G75*
G02*
X59440580Y-85689283I751317J837345D01*
G01*
X60750582Y-84229283D01*
G75*
G02*
X62339244Y-84143255I837345J-751317D01*
G01*
X62339244Y-84143255D01*
G75*
G02*
X62425272Y-85731917I-751317J-837345D01*
G01*
X61115270Y-87191917D01*
G75*
G02*
X59526608Y-87277945I-837345J751317D01*
G01*
G37*
D21*
X66627925Y-83900600D03*
G36*
G01*
X66511408Y-85602995D02*
X66510522Y-85602934D01*
G75*
G02*
X65465591Y-84403197I77403J1122334D01*
G01*
X65505591Y-83823197D01*
G75*
G02*
X66705328Y-82778266I1122334J-77403D01*
G01*
X66705328Y-82778266D01*
G75*
G02*
X67750259Y-83978003I-77403J-1122334D01*
G01*
X67710259Y-84558003D01*
G75*
G02*
X66510522Y-85602934I-1122334J77403D01*
G01*
G37*
D28*
X132715000Y-163195000D03*
D29*
X132715000Y-160655000D03*
X130175000Y-163195000D03*
X130175000Y-160655000D03*
X127635000Y-163195000D03*
X127635000Y-160655000D03*
G36*
G01*
X201285000Y-92573000D02*
X200035000Y-92573000D01*
G75*
G02*
X199785000Y-92323000I0J250000D01*
G01*
X199785000Y-91573000D01*
G75*
G02*
X200035000Y-91323000I250000J0D01*
G01*
X201285000Y-91323000D01*
G75*
G02*
X201535000Y-91573000I0J-250000D01*
G01*
X201535000Y-92323000D01*
G75*
G02*
X201285000Y-92573000I-250000J0D01*
G01*
G37*
G36*
G01*
X201285000Y-95373000D02*
X200035000Y-95373000D01*
G75*
G02*
X199785000Y-95123000I0J250000D01*
G01*
X199785000Y-94373000D01*
G75*
G02*
X200035000Y-94123000I250000J0D01*
G01*
X201285000Y-94123000D01*
G75*
G02*
X201535000Y-94373000I0J-250000D01*
G01*
X201535000Y-95123000D01*
G75*
G02*
X201285000Y-95373000I-250000J0D01*
G01*
G37*
D30*
X341312500Y-164243750D03*
X341312500Y-167543750D03*
X341312500Y-145193750D03*
X341312500Y-148493750D03*
X341312500Y-126143750D03*
X341312500Y-129443750D03*
X341312500Y-107093750D03*
X341312500Y-110393750D03*
X341312500Y-88521000D03*
X341312500Y-91821000D03*
X322262500Y-164243750D03*
X322262500Y-167543750D03*
X322262500Y-145193750D03*
X322262500Y-148493750D03*
X334962500Y-126143750D03*
X334962500Y-129443750D03*
X334962500Y-107093750D03*
X334962500Y-110393750D03*
X338137500Y-88521000D03*
X338137500Y-91821000D03*
X303212500Y-164243750D03*
X303212500Y-167543750D03*
X313531250Y-145193750D03*
X313531250Y-148493750D03*
X310356250Y-107093750D03*
X310356250Y-110393750D03*
X300831250Y-88521000D03*
X300831250Y-91821000D03*
X284162500Y-164243750D03*
X284162500Y-167543750D03*
X286543750Y-145193750D03*
X286543750Y-148493750D03*
X296068750Y-126143750D03*
X296068750Y-129443750D03*
X291306250Y-107093750D03*
X291306250Y-110393750D03*
X281781250Y-88521000D03*
X281781250Y-91821000D03*
X265112500Y-164243750D03*
X265112500Y-167543750D03*
X267493750Y-145193750D03*
X267493750Y-148493750D03*
X277018750Y-126143750D03*
X277018750Y-129443750D03*
X272256250Y-107093750D03*
X272256250Y-110393750D03*
X262731250Y-88521000D03*
X262731250Y-91821000D03*
X246062500Y-164243750D03*
X246062500Y-167543750D03*
X248443750Y-145193750D03*
X248443750Y-148493750D03*
X257968750Y-126143750D03*
X257968750Y-129443750D03*
X253206250Y-107093750D03*
X253206250Y-110393750D03*
X243681250Y-88521000D03*
X243681250Y-91821000D03*
X229393750Y-145193750D03*
X229393750Y-148493750D03*
X238918750Y-126143750D03*
X238918750Y-129443750D03*
X234156250Y-107093750D03*
X234156250Y-110393750D03*
X224631250Y-88521000D03*
X224631250Y-91821000D03*
X210343750Y-145193750D03*
X210343750Y-148493750D03*
X219868750Y-126143750D03*
X219868750Y-129443750D03*
X215106250Y-107093750D03*
X215106250Y-110393750D03*
X189357000Y-88520000D03*
X189357000Y-91820000D03*
X191293750Y-145193750D03*
X191293750Y-148493750D03*
X200818750Y-126143750D03*
X200818750Y-129443750D03*
X196056250Y-107093750D03*
X196056250Y-110393750D03*
X186531250Y-88521000D03*
X186531250Y-91821000D03*
X195262500Y-164211000D03*
X195262500Y-167511000D03*
X172243750Y-145193750D03*
X172243750Y-148493750D03*
X181768750Y-126143750D03*
X181768750Y-129443750D03*
X177006250Y-107093750D03*
X177006250Y-110393750D03*
X167481250Y-88521000D03*
X167481250Y-91821000D03*
X153193750Y-145193750D03*
X153193750Y-148493750D03*
X162718750Y-126143750D03*
X162718750Y-129443750D03*
X157956250Y-107093750D03*
X157956250Y-110393750D03*
X148431250Y-88519000D03*
X148431250Y-91819000D03*
X134143750Y-145193750D03*
X134143750Y-148493750D03*
X143668750Y-126143750D03*
X143668750Y-129443750D03*
X138906250Y-107093750D03*
X138906250Y-110393750D03*
X129381250Y-88519000D03*
X129381250Y-91819000D03*
X123031250Y-164243750D03*
X123031250Y-167543750D03*
X115093750Y-145193750D03*
X115093750Y-148493750D03*
X124618750Y-126143750D03*
X124618750Y-129443750D03*
X119856250Y-107093750D03*
X119856250Y-110393750D03*
X110331250Y-88519000D03*
X110331250Y-91819000D03*
X99218750Y-164243750D03*
X99218750Y-167543750D03*
X105568750Y-126143750D03*
X105568750Y-129443750D03*
X100806250Y-107093750D03*
X100806250Y-110393750D03*
X91281250Y-88519000D03*
X91281250Y-91819000D03*
X75406250Y-164243750D03*
X75406250Y-167543750D03*
X92868750Y-145193750D03*
X92868750Y-148493750D03*
X80168750Y-126206250D03*
X80168750Y-129506250D03*
X77787500Y-107093750D03*
X77787500Y-110393750D03*
X72231250Y-88519000D03*
X72231250Y-91819000D03*
X203200000Y-94994000D03*
X203200000Y-91694000D03*
X210693000Y-94994000D03*
X210693000Y-91694000D03*
G36*
G01*
X221993000Y-172118000D02*
X221993000Y-173068000D01*
G75*
G02*
X221743000Y-173318000I-250000J0D01*
G01*
X221243000Y-173318000D01*
G75*
G02*
X220993000Y-173068000I0J250000D01*
G01*
X220993000Y-172118000D01*
G75*
G02*
X221243000Y-171868000I250000J0D01*
G01*
X221743000Y-171868000D01*
G75*
G02*
X221993000Y-172118000I0J-250000D01*
G01*
G37*
G36*
G01*
X223893000Y-172118000D02*
X223893000Y-173068000D01*
G75*
G02*
X223643000Y-173318000I-250000J0D01*
G01*
X223143000Y-173318000D01*
G75*
G02*
X222893000Y-173068000I0J250000D01*
G01*
X222893000Y-172118000D01*
G75*
G02*
X223143000Y-171868000I250000J0D01*
G01*
X223643000Y-171868000D01*
G75*
G02*
X223893000Y-172118000I0J-250000D01*
G01*
G37*
G36*
G01*
X213327000Y-161917000D02*
X212377000Y-161917000D01*
G75*
G02*
X212127000Y-161667000I0J250000D01*
G01*
X212127000Y-161167000D01*
G75*
G02*
X212377000Y-160917000I250000J0D01*
G01*
X213327000Y-160917000D01*
G75*
G02*
X213577000Y-161167000I0J-250000D01*
G01*
X213577000Y-161667000D01*
G75*
G02*
X213327000Y-161917000I-250000J0D01*
G01*
G37*
G36*
G01*
X213327000Y-163817000D02*
X212377000Y-163817000D01*
G75*
G02*
X212127000Y-163567000I0J250000D01*
G01*
X212127000Y-163067000D01*
G75*
G02*
X212377000Y-162817000I250000J0D01*
G01*
X213327000Y-162817000D01*
G75*
G02*
X213577000Y-163067000I0J-250000D01*
G01*
X213577000Y-163567000D01*
G75*
G02*
X213327000Y-163817000I-250000J0D01*
G01*
G37*
G36*
G01*
X206049500Y-159227500D02*
X206049500Y-160177500D01*
G75*
G02*
X205799500Y-160427500I-250000J0D01*
G01*
X205299500Y-160427500D01*
G75*
G02*
X205049500Y-160177500I0J250000D01*
G01*
X205049500Y-159227500D01*
G75*
G02*
X205299500Y-158977500I250000J0D01*
G01*
X205799500Y-158977500D01*
G75*
G02*
X206049500Y-159227500I0J-250000D01*
G01*
G37*
G36*
G01*
X207949500Y-159227500D02*
X207949500Y-160177500D01*
G75*
G02*
X207699500Y-160427500I-250000J0D01*
G01*
X207199500Y-160427500D01*
G75*
G02*
X206949500Y-160177500I0J250000D01*
G01*
X206949500Y-159227500D01*
G75*
G02*
X207199500Y-158977500I250000J0D01*
G01*
X207699500Y-158977500D01*
G75*
G02*
X207949500Y-159227500I0J-250000D01*
G01*
G37*
G36*
G01*
X206952000Y-154335500D02*
X206952000Y-153385500D01*
G75*
G02*
X207202000Y-153135500I250000J0D01*
G01*
X207702000Y-153135500D01*
G75*
G02*
X207952000Y-153385500I0J-250000D01*
G01*
X207952000Y-154335500D01*
G75*
G02*
X207702000Y-154585500I-250000J0D01*
G01*
X207202000Y-154585500D01*
G75*
G02*
X206952000Y-154335500I0J250000D01*
G01*
G37*
G36*
G01*
X205052000Y-154335500D02*
X205052000Y-153385500D01*
G75*
G02*
X205302000Y-153135500I250000J0D01*
G01*
X205802000Y-153135500D01*
G75*
G02*
X206052000Y-153385500I0J-250000D01*
G01*
X206052000Y-154335500D01*
G75*
G02*
X205802000Y-154585500I-250000J0D01*
G01*
X205302000Y-154585500D01*
G75*
G02*
X205052000Y-154335500I0J250000D01*
G01*
G37*
G36*
G01*
X222766000Y-154145000D02*
X222766000Y-153195000D01*
G75*
G02*
X223016000Y-152945000I250000J0D01*
G01*
X223516000Y-152945000D01*
G75*
G02*
X223766000Y-153195000I0J-250000D01*
G01*
X223766000Y-154145000D01*
G75*
G02*
X223516000Y-154395000I-250000J0D01*
G01*
X223016000Y-154395000D01*
G75*
G02*
X222766000Y-154145000I0J250000D01*
G01*
G37*
G36*
G01*
X220866000Y-154145000D02*
X220866000Y-153195000D01*
G75*
G02*
X221116000Y-152945000I250000J0D01*
G01*
X221616000Y-152945000D01*
G75*
G02*
X221866000Y-153195000I0J-250000D01*
G01*
X221866000Y-154145000D01*
G75*
G02*
X221616000Y-154395000I-250000J0D01*
G01*
X221116000Y-154395000D01*
G75*
G02*
X220866000Y-154145000I0J250000D01*
G01*
G37*
M02*
