G04 #@! TF.GenerationSoftware,KiCad,Pcbnew,(5.1.10)-1*
G04 #@! TF.CreationDate,2021-06-12T19:03:55-06:00*
G04 #@! TF.ProjectId,pcb,7063622e-6b69-4636-9164-5f7063625858,rev?*
G04 #@! TF.SameCoordinates,Original*
G04 #@! TF.FileFunction,Soldermask,Bot*
G04 #@! TF.FilePolarity,Negative*
%FSLAX46Y46*%
G04 Gerber Fmt 4.6, Leading zero omitted, Abs format (unit mm)*
G04 Created by KiCad (PCBNEW (5.1.10)-1) date 2021-06-12 19:03:55*
%MOMM*%
%LPD*%
G01*
G04 APERTURE LIST*
%ADD10R,0.600000X1.450000*%
%ADD11R,0.300000X1.450000*%
%ADD12C,0.650000*%
%ADD13O,1.000000X2.100000*%
%ADD14O,1.000000X1.600000*%
%ADD15R,0.700000X0.600000*%
%ADD16R,0.700000X1.000000*%
%ADD17C,1.750000*%
%ADD18C,2.250000*%
%ADD19C,3.987800*%
%ADD20R,1.400000X1.200000*%
%ADD21R,0.550000X1.500000*%
%ADD22R,1.500000X0.550000*%
%ADD23R,1.800000X1.100000*%
%ADD24C,3.048000*%
%ADD25R,1.700000X1.700000*%
%ADD26C,1.700000*%
%ADD27R,1.200000X0.900000*%
G04 APERTURE END LIST*
D10*
X210188075Y-83260000D03*
X203738075Y-83260000D03*
X209413075Y-83260000D03*
X204513075Y-83260000D03*
D11*
X205213075Y-83260000D03*
X208713075Y-83260000D03*
X205713075Y-83260000D03*
X208213075Y-83260000D03*
X206213075Y-83260000D03*
X207713075Y-83260000D03*
X207213075Y-83260000D03*
X206713075Y-83260000D03*
D12*
X209853075Y-81815000D03*
X204073075Y-81815000D03*
D13*
X202643075Y-82345000D03*
X211283075Y-82345000D03*
D14*
X202643075Y-78165000D03*
X211283075Y-78165000D03*
D15*
X205899000Y-88822000D03*
X207899000Y-88822000D03*
X205899000Y-86922000D03*
D16*
X207899000Y-87122000D03*
D17*
X221568275Y-88980600D03*
X211408275Y-88980600D03*
D18*
X213988275Y-84980600D03*
D19*
X216488275Y-88980600D03*
G36*
G01*
X211926963Y-87277950D02*
X211926958Y-87277945D01*
G75*
G02*
X211840930Y-85689283I751317J837345D01*
G01*
X213150932Y-84229283D01*
G75*
G02*
X214739594Y-84143255I837345J-751317D01*
G01*
X214739594Y-84143255D01*
G75*
G02*
X214825622Y-85731917I-751317J-837345D01*
G01*
X213515620Y-87191917D01*
G75*
G02*
X211926958Y-87277945I-837345J751317D01*
G01*
G37*
D18*
X219028275Y-83900600D03*
G36*
G01*
X218911758Y-85602995D02*
X218910872Y-85602934D01*
G75*
G02*
X217865941Y-84403197I77403J1122334D01*
G01*
X217905941Y-83823197D01*
G75*
G02*
X219105678Y-82778266I1122334J-77403D01*
G01*
X219105678Y-82778266D01*
G75*
G02*
X220150609Y-83978003I-77403J-1122334D01*
G01*
X220110609Y-84558003D01*
G75*
G02*
X218910872Y-85602934I-1122334J77403D01*
G01*
G37*
G36*
G01*
X230919000Y-163071000D02*
X231869000Y-163071000D01*
G75*
G02*
X232119000Y-163321000I0J-250000D01*
G01*
X232119000Y-163821000D01*
G75*
G02*
X231869000Y-164071000I-250000J0D01*
G01*
X230919000Y-164071000D01*
G75*
G02*
X230669000Y-163821000I0J250000D01*
G01*
X230669000Y-163321000D01*
G75*
G02*
X230919000Y-163071000I250000J0D01*
G01*
G37*
G36*
G01*
X230919000Y-161171000D02*
X231869000Y-161171000D01*
G75*
G02*
X232119000Y-161421000I0J-250000D01*
G01*
X232119000Y-161921000D01*
G75*
G02*
X231869000Y-162171000I-250000J0D01*
G01*
X230919000Y-162171000D01*
G75*
G02*
X230669000Y-161921000I0J250000D01*
G01*
X230669000Y-161421000D01*
G75*
G02*
X230919000Y-161171000I250000J0D01*
G01*
G37*
D17*
X354918275Y-108030601D03*
X344758275Y-108030601D03*
D18*
X347338275Y-104030601D03*
D19*
X349838275Y-108030601D03*
G36*
G01*
X345276963Y-106327951D02*
X345276958Y-106327946D01*
G75*
G02*
X345190930Y-104739284I751317J837345D01*
G01*
X346500932Y-103279284D01*
G75*
G02*
X348089594Y-103193256I837345J-751317D01*
G01*
X348089594Y-103193256D01*
G75*
G02*
X348175622Y-104781918I-751317J-837345D01*
G01*
X346865620Y-106241918D01*
G75*
G02*
X345276958Y-106327946I-837345J751317D01*
G01*
G37*
D18*
X352378275Y-102950601D03*
G36*
G01*
X352261758Y-104652996D02*
X352260872Y-104652935D01*
G75*
G02*
X351215941Y-103453198I77403J1122334D01*
G01*
X351255941Y-102873198D01*
G75*
G02*
X352455678Y-101828267I1122334J-77403D01*
G01*
X352455678Y-101828267D01*
G75*
G02*
X353500609Y-103028004I-77403J-1122334D01*
G01*
X353460609Y-103608004D01*
G75*
G02*
X352260872Y-104652935I-1122334J77403D01*
G01*
G37*
D17*
X331105275Y-108030601D03*
X320945275Y-108030601D03*
D18*
X323525275Y-104030601D03*
D19*
X326025275Y-108030601D03*
G36*
G01*
X321463963Y-106327951D02*
X321463958Y-106327946D01*
G75*
G02*
X321377930Y-104739284I751317J837345D01*
G01*
X322687932Y-103279284D01*
G75*
G02*
X324276594Y-103193256I837345J-751317D01*
G01*
X324276594Y-103193256D01*
G75*
G02*
X324362622Y-104781918I-751317J-837345D01*
G01*
X323052620Y-106241918D01*
G75*
G02*
X321463958Y-106327946I-837345J751317D01*
G01*
G37*
D18*
X328565275Y-102950601D03*
G36*
G01*
X328448758Y-104652996D02*
X328447872Y-104652935D01*
G75*
G02*
X327402941Y-103453198I77403J1122334D01*
G01*
X327442941Y-102873198D01*
G75*
G02*
X328642678Y-101828267I1122334J-77403D01*
G01*
X328642678Y-101828267D01*
G75*
G02*
X329687609Y-103028004I-77403J-1122334D01*
G01*
X329647609Y-103608004D01*
G75*
G02*
X328447872Y-104652935I-1122334J77403D01*
G01*
G37*
D20*
X205402000Y-157631500D03*
X207602000Y-157631500D03*
X207602000Y-155931500D03*
X205402000Y-155931500D03*
D21*
X217932500Y-168831500D03*
X218732500Y-168831500D03*
X219532500Y-168831500D03*
X220332500Y-168831500D03*
X221132500Y-168831500D03*
X221932500Y-168831500D03*
X222732500Y-168831500D03*
X223532500Y-168831500D03*
X224332500Y-168831500D03*
X225132500Y-168831500D03*
X225932500Y-168831500D03*
D22*
X227632500Y-167131500D03*
X227632500Y-166331500D03*
X227632500Y-165531500D03*
X227632500Y-164731500D03*
X227632500Y-163931500D03*
X227632500Y-163131500D03*
X227632500Y-162331500D03*
X227632500Y-161531500D03*
X227632500Y-160731500D03*
X227632500Y-159931500D03*
X227632500Y-159131500D03*
D21*
X225932500Y-157431500D03*
X225132500Y-157431500D03*
X224332500Y-157431500D03*
X223532500Y-157431500D03*
X222732500Y-157431500D03*
X221932500Y-157431500D03*
X221132500Y-157431500D03*
X220332500Y-157431500D03*
X219532500Y-157431500D03*
X218732500Y-157431500D03*
X217932500Y-157431500D03*
D22*
X216232500Y-159131500D03*
X216232500Y-159931500D03*
X216232500Y-160731500D03*
X216232500Y-161531500D03*
X216232500Y-162331500D03*
X216232500Y-163131500D03*
X216232500Y-163931500D03*
X216232500Y-164731500D03*
X216232500Y-165531500D03*
X216232500Y-166331500D03*
X216232500Y-167131500D03*
D23*
X152515500Y-169871000D03*
X146315500Y-166171000D03*
X152515500Y-166171000D03*
X146315500Y-169871000D03*
X152388500Y-158949000D03*
X146188500Y-155249000D03*
X152388500Y-155249000D03*
X146188500Y-158949000D03*
G36*
G01*
X155124998Y-156633500D02*
X156025002Y-156633500D01*
G75*
G02*
X156275000Y-156883498I0J-249998D01*
G01*
X156275000Y-157408502D01*
G75*
G02*
X156025002Y-157658500I-249998J0D01*
G01*
X155124998Y-157658500D01*
G75*
G02*
X154875000Y-157408502I0J249998D01*
G01*
X154875000Y-156883498D01*
G75*
G02*
X155124998Y-156633500I249998J0D01*
G01*
G37*
G36*
G01*
X155124998Y-154808500D02*
X156025002Y-154808500D01*
G75*
G02*
X156275000Y-155058498I0J-249998D01*
G01*
X156275000Y-155583502D01*
G75*
G02*
X156025002Y-155833500I-249998J0D01*
G01*
X155124998Y-155833500D01*
G75*
G02*
X154875000Y-155583502I0J249998D01*
G01*
X154875000Y-155058498D01*
G75*
G02*
X155124998Y-154808500I249998J0D01*
G01*
G37*
G36*
G01*
X206317002Y-92333500D02*
X205416998Y-92333500D01*
G75*
G02*
X205167000Y-92083502I0J249998D01*
G01*
X205167000Y-91558498D01*
G75*
G02*
X205416998Y-91308500I249998J0D01*
G01*
X206317002Y-91308500D01*
G75*
G02*
X206567000Y-91558498I0J-249998D01*
G01*
X206567000Y-92083502D01*
G75*
G02*
X206317002Y-92333500I-249998J0D01*
G01*
G37*
G36*
G01*
X206317002Y-94158500D02*
X205416998Y-94158500D01*
G75*
G02*
X205167000Y-93908502I0J249998D01*
G01*
X205167000Y-93383498D01*
G75*
G02*
X205416998Y-93133500I249998J0D01*
G01*
X206317002Y-93133500D01*
G75*
G02*
X206567000Y-93383498I0J-249998D01*
G01*
X206567000Y-93908502D01*
G75*
G02*
X206317002Y-94158500I-249998J0D01*
G01*
G37*
G36*
G01*
X201370500Y-97605002D02*
X201370500Y-96704998D01*
G75*
G02*
X201620498Y-96455000I249998J0D01*
G01*
X202145502Y-96455000D01*
G75*
G02*
X202395500Y-96704998I0J-249998D01*
G01*
X202395500Y-97605002D01*
G75*
G02*
X202145502Y-97855000I-249998J0D01*
G01*
X201620498Y-97855000D01*
G75*
G02*
X201370500Y-97605002I0J249998D01*
G01*
G37*
G36*
G01*
X203195500Y-97605002D02*
X203195500Y-96704998D01*
G75*
G02*
X203445498Y-96455000I249998J0D01*
G01*
X203970502Y-96455000D01*
G75*
G02*
X204220500Y-96704998I0J-249998D01*
G01*
X204220500Y-97605002D01*
G75*
G02*
X203970502Y-97855000I-249998J0D01*
G01*
X203445498Y-97855000D01*
G75*
G02*
X203195500Y-97605002I0J249998D01*
G01*
G37*
G36*
G01*
X208476002Y-92333500D02*
X207575998Y-92333500D01*
G75*
G02*
X207326000Y-92083502I0J249998D01*
G01*
X207326000Y-91558498D01*
G75*
G02*
X207575998Y-91308500I249998J0D01*
G01*
X208476002Y-91308500D01*
G75*
G02*
X208726000Y-91558498I0J-249998D01*
G01*
X208726000Y-92083502D01*
G75*
G02*
X208476002Y-92333500I-249998J0D01*
G01*
G37*
G36*
G01*
X208476002Y-94158500D02*
X207575998Y-94158500D01*
G75*
G02*
X207326000Y-93908502I0J249998D01*
G01*
X207326000Y-93383498D01*
G75*
G02*
X207575998Y-93133500I249998J0D01*
G01*
X208476002Y-93133500D01*
G75*
G02*
X208726000Y-93383498I0J-249998D01*
G01*
X208726000Y-93908502D01*
G75*
G02*
X208476002Y-94158500I-249998J0D01*
G01*
G37*
G36*
G01*
X213810002Y-89031500D02*
X212909998Y-89031500D01*
G75*
G02*
X212660000Y-88781502I0J249998D01*
G01*
X212660000Y-88256498D01*
G75*
G02*
X212909998Y-88006500I249998J0D01*
G01*
X213810002Y-88006500D01*
G75*
G02*
X214060000Y-88256498I0J-249998D01*
G01*
X214060000Y-88781502D01*
G75*
G02*
X213810002Y-89031500I-249998J0D01*
G01*
G37*
G36*
G01*
X213810002Y-90856500D02*
X212909998Y-90856500D01*
G75*
G02*
X212660000Y-90606502I0J249998D01*
G01*
X212660000Y-90081498D01*
G75*
G02*
X212909998Y-89831500I249998J0D01*
G01*
X213810002Y-89831500D01*
G75*
G02*
X214060000Y-90081498I0J-249998D01*
G01*
X214060000Y-90606502D01*
G75*
G02*
X213810002Y-90856500I-249998J0D01*
G01*
G37*
G36*
G01*
X198824002Y-95301500D02*
X197923998Y-95301500D01*
G75*
G02*
X197674000Y-95051502I0J249998D01*
G01*
X197674000Y-94526498D01*
G75*
G02*
X197923998Y-94276500I249998J0D01*
G01*
X198824002Y-94276500D01*
G75*
G02*
X199074000Y-94526498I0J-249998D01*
G01*
X199074000Y-95051502D01*
G75*
G02*
X198824002Y-95301500I-249998J0D01*
G01*
G37*
G36*
G01*
X198824002Y-93476500D02*
X197923998Y-93476500D01*
G75*
G02*
X197674000Y-93226502I0J249998D01*
G01*
X197674000Y-92701498D01*
G75*
G02*
X197923998Y-92451500I249998J0D01*
G01*
X198824002Y-92451500D01*
G75*
G02*
X199074000Y-92701498I0J-249998D01*
G01*
X199074000Y-93226502D01*
G75*
G02*
X198824002Y-93476500I-249998J0D01*
G01*
G37*
D17*
X354918275Y-165180760D03*
X344758275Y-165180760D03*
D18*
X347338275Y-161180760D03*
D19*
X349838275Y-165180760D03*
G36*
G01*
X345276963Y-163478110D02*
X345276958Y-163478105D01*
G75*
G02*
X345190930Y-161889443I751317J837345D01*
G01*
X346500932Y-160429443D01*
G75*
G02*
X348089594Y-160343415I837345J-751317D01*
G01*
X348089594Y-160343415D01*
G75*
G02*
X348175622Y-161932077I-751317J-837345D01*
G01*
X346865620Y-163392077D01*
G75*
G02*
X345276958Y-163478105I-837345J751317D01*
G01*
G37*
D18*
X352378275Y-160100760D03*
G36*
G01*
X352261758Y-161803155D02*
X352260872Y-161803094D01*
G75*
G02*
X351215941Y-160603357I77403J1122334D01*
G01*
X351255941Y-160023357D01*
G75*
G02*
X352455678Y-158978426I1122334J-77403D01*
G01*
X352455678Y-158978426D01*
G75*
G02*
X353500609Y-160178163I-77403J-1122334D01*
G01*
X353460609Y-160758163D01*
G75*
G02*
X352260872Y-161803094I-1122334J77403D01*
G01*
G37*
D17*
X335868275Y-165180760D03*
X325708275Y-165180760D03*
D18*
X328288275Y-161180760D03*
D19*
X330788275Y-165180760D03*
G36*
G01*
X326226963Y-163478110D02*
X326226958Y-163478105D01*
G75*
G02*
X326140930Y-161889443I751317J837345D01*
G01*
X327450932Y-160429443D01*
G75*
G02*
X329039594Y-160343415I837345J-751317D01*
G01*
X329039594Y-160343415D01*
G75*
G02*
X329125622Y-161932077I-751317J-837345D01*
G01*
X327815620Y-163392077D01*
G75*
G02*
X326226958Y-163478105I-837345J751317D01*
G01*
G37*
D18*
X333328275Y-160100760D03*
G36*
G01*
X333211758Y-161803155D02*
X333210872Y-161803094D01*
G75*
G02*
X332165941Y-160603357I77403J1122334D01*
G01*
X332205941Y-160023357D01*
G75*
G02*
X333405678Y-158978426I1122334J-77403D01*
G01*
X333405678Y-158978426D01*
G75*
G02*
X334450609Y-160178163I-77403J-1122334D01*
G01*
X334410609Y-160758163D01*
G75*
G02*
X333210872Y-161803094I-1122334J77403D01*
G01*
G37*
D17*
X316818275Y-165180760D03*
X306658275Y-165180760D03*
D18*
X309238275Y-161180760D03*
D19*
X311738275Y-165180760D03*
G36*
G01*
X307176963Y-163478110D02*
X307176958Y-163478105D01*
G75*
G02*
X307090930Y-161889443I751317J837345D01*
G01*
X308400932Y-160429443D01*
G75*
G02*
X309989594Y-160343415I837345J-751317D01*
G01*
X309989594Y-160343415D01*
G75*
G02*
X310075622Y-161932077I-751317J-837345D01*
G01*
X308765620Y-163392077D01*
G75*
G02*
X307176958Y-163478105I-837345J751317D01*
G01*
G37*
D18*
X314278275Y-160100760D03*
G36*
G01*
X314161758Y-161803155D02*
X314160872Y-161803094D01*
G75*
G02*
X313115941Y-160603357I77403J1122334D01*
G01*
X313155941Y-160023357D01*
G75*
G02*
X314355678Y-158978426I1122334J-77403D01*
G01*
X314355678Y-158978426D01*
G75*
G02*
X315400609Y-160178163I-77403J-1122334D01*
G01*
X315360609Y-160758163D01*
G75*
G02*
X314160872Y-161803094I-1122334J77403D01*
G01*
G37*
D17*
X297768275Y-165180760D03*
X287608275Y-165180760D03*
D18*
X290188275Y-161180760D03*
D19*
X292688275Y-165180760D03*
G36*
G01*
X288126963Y-163478110D02*
X288126958Y-163478105D01*
G75*
G02*
X288040930Y-161889443I751317J837345D01*
G01*
X289350932Y-160429443D01*
G75*
G02*
X290939594Y-160343415I837345J-751317D01*
G01*
X290939594Y-160343415D01*
G75*
G02*
X291025622Y-161932077I-751317J-837345D01*
G01*
X289715620Y-163392077D01*
G75*
G02*
X288126958Y-163478105I-837345J751317D01*
G01*
G37*
D18*
X295228275Y-160100760D03*
G36*
G01*
X295111758Y-161803155D02*
X295110872Y-161803094D01*
G75*
G02*
X294065941Y-160603357I77403J1122334D01*
G01*
X294105941Y-160023357D01*
G75*
G02*
X295305678Y-158978426I1122334J-77403D01*
G01*
X295305678Y-158978426D01*
G75*
G02*
X296350609Y-160178163I-77403J-1122334D01*
G01*
X296310609Y-160758163D01*
G75*
G02*
X295110872Y-161803094I-1122334J77403D01*
G01*
G37*
D17*
X278718275Y-165180760D03*
X268558275Y-165180760D03*
D18*
X271138275Y-161180760D03*
D19*
X273638275Y-165180760D03*
G36*
G01*
X269076963Y-163478110D02*
X269076958Y-163478105D01*
G75*
G02*
X268990930Y-161889443I751317J837345D01*
G01*
X270300932Y-160429443D01*
G75*
G02*
X271889594Y-160343415I837345J-751317D01*
G01*
X271889594Y-160343415D01*
G75*
G02*
X271975622Y-161932077I-751317J-837345D01*
G01*
X270665620Y-163392077D01*
G75*
G02*
X269076958Y-163478105I-837345J751317D01*
G01*
G37*
D18*
X276178275Y-160100760D03*
G36*
G01*
X276061758Y-161803155D02*
X276060872Y-161803094D01*
G75*
G02*
X275015941Y-160603357I77403J1122334D01*
G01*
X275055941Y-160023357D01*
G75*
G02*
X276255678Y-158978426I1122334J-77403D01*
G01*
X276255678Y-158978426D01*
G75*
G02*
X277300609Y-160178163I-77403J-1122334D01*
G01*
X277260609Y-160758163D01*
G75*
G02*
X276060872Y-161803094I-1122334J77403D01*
G01*
G37*
D17*
X259668275Y-165180760D03*
X249508275Y-165180760D03*
D18*
X252088275Y-161180760D03*
D19*
X254588275Y-165180760D03*
G36*
G01*
X250026963Y-163478110D02*
X250026958Y-163478105D01*
G75*
G02*
X249940930Y-161889443I751317J837345D01*
G01*
X251250932Y-160429443D01*
G75*
G02*
X252839594Y-160343415I837345J-751317D01*
G01*
X252839594Y-160343415D01*
G75*
G02*
X252925622Y-161932077I-751317J-837345D01*
G01*
X251615620Y-163392077D01*
G75*
G02*
X250026958Y-163478105I-837345J751317D01*
G01*
G37*
D18*
X257128275Y-160100760D03*
G36*
G01*
X257011758Y-161803155D02*
X257010872Y-161803094D01*
G75*
G02*
X255965941Y-160603357I77403J1122334D01*
G01*
X256005941Y-160023357D01*
G75*
G02*
X257205678Y-158978426I1122334J-77403D01*
G01*
X257205678Y-158978426D01*
G75*
G02*
X258250609Y-160178163I-77403J-1122334D01*
G01*
X258210609Y-160758163D01*
G75*
G02*
X257010872Y-161803094I-1122334J77403D01*
G01*
G37*
D19*
X235530175Y-156925760D03*
X135530375Y-156925760D03*
D24*
X235530175Y-172165760D03*
X135530375Y-172165760D03*
D17*
X190610275Y-165180760D03*
X180450275Y-165180760D03*
D18*
X183030275Y-161180760D03*
D19*
X185530275Y-165180760D03*
G36*
G01*
X180968963Y-163478110D02*
X180968958Y-163478105D01*
G75*
G02*
X180882930Y-161889443I751317J837345D01*
G01*
X182192932Y-160429443D01*
G75*
G02*
X183781594Y-160343415I837345J-751317D01*
G01*
X183781594Y-160343415D01*
G75*
G02*
X183867622Y-161932077I-751317J-837345D01*
G01*
X182557620Y-163392077D01*
G75*
G02*
X180968958Y-163478105I-837345J751317D01*
G01*
G37*
D18*
X188070275Y-160100760D03*
G36*
G01*
X187953758Y-161803155D02*
X187952872Y-161803094D01*
G75*
G02*
X186907941Y-160603357I77403J1122334D01*
G01*
X186947941Y-160023357D01*
G75*
G02*
X188147678Y-158978426I1122334J-77403D01*
G01*
X188147678Y-158978426D01*
G75*
G02*
X189192609Y-160178163I-77403J-1122334D01*
G01*
X189152609Y-160758163D01*
G75*
G02*
X187952872Y-161803094I-1122334J77403D01*
G01*
G37*
D17*
X119174275Y-165180760D03*
X109014275Y-165180760D03*
D18*
X111594275Y-161180760D03*
D19*
X114094275Y-165180760D03*
G36*
G01*
X109532963Y-163478110D02*
X109532958Y-163478105D01*
G75*
G02*
X109446930Y-161889443I751317J837345D01*
G01*
X110756932Y-160429443D01*
G75*
G02*
X112345594Y-160343415I837345J-751317D01*
G01*
X112345594Y-160343415D01*
G75*
G02*
X112431622Y-161932077I-751317J-837345D01*
G01*
X111121620Y-163392077D01*
G75*
G02*
X109532958Y-163478105I-837345J751317D01*
G01*
G37*
D18*
X116634275Y-160100760D03*
G36*
G01*
X116517758Y-161803155D02*
X116516872Y-161803094D01*
G75*
G02*
X115471941Y-160603357I77403J1122334D01*
G01*
X115511941Y-160023357D01*
G75*
G02*
X116711678Y-158978426I1122334J-77403D01*
G01*
X116711678Y-158978426D01*
G75*
G02*
X117756609Y-160178163I-77403J-1122334D01*
G01*
X117716609Y-160758163D01*
G75*
G02*
X116516872Y-161803094I-1122334J77403D01*
G01*
G37*
D17*
X95360275Y-165180760D03*
X85200275Y-165180760D03*
D18*
X87780275Y-161180760D03*
D19*
X90280275Y-165180760D03*
G36*
G01*
X85718963Y-163478110D02*
X85718958Y-163478105D01*
G75*
G02*
X85632930Y-161889443I751317J837345D01*
G01*
X86942932Y-160429443D01*
G75*
G02*
X88531594Y-160343415I837345J-751317D01*
G01*
X88531594Y-160343415D01*
G75*
G02*
X88617622Y-161932077I-751317J-837345D01*
G01*
X87307620Y-163392077D01*
G75*
G02*
X85718958Y-163478105I-837345J751317D01*
G01*
G37*
D18*
X92820275Y-160100760D03*
G36*
G01*
X92703758Y-161803155D02*
X92702872Y-161803094D01*
G75*
G02*
X91657941Y-160603357I77403J1122334D01*
G01*
X91697941Y-160023357D01*
G75*
G02*
X92897678Y-158978426I1122334J-77403D01*
G01*
X92897678Y-158978426D01*
G75*
G02*
X93942609Y-160178163I-77403J-1122334D01*
G01*
X93902609Y-160758163D01*
G75*
G02*
X92702872Y-161803094I-1122334J77403D01*
G01*
G37*
D17*
X71549185Y-165180760D03*
X61389185Y-165180760D03*
D18*
X63969185Y-161180760D03*
D19*
X66469185Y-165180760D03*
G36*
G01*
X61907873Y-163478110D02*
X61907868Y-163478105D01*
G75*
G02*
X61821840Y-161889443I751317J837345D01*
G01*
X63131842Y-160429443D01*
G75*
G02*
X64720504Y-160343415I837345J-751317D01*
G01*
X64720504Y-160343415D01*
G75*
G02*
X64806532Y-161932077I-751317J-837345D01*
G01*
X63496530Y-163392077D01*
G75*
G02*
X61907868Y-163478105I-837345J751317D01*
G01*
G37*
D18*
X69009185Y-160100760D03*
G36*
G01*
X68892668Y-161803155D02*
X68891782Y-161803094D01*
G75*
G02*
X67846851Y-160603357I77403J1122334D01*
G01*
X67886851Y-160023357D01*
G75*
G02*
X69086588Y-158978426I1122334J-77403D01*
G01*
X69086588Y-158978426D01*
G75*
G02*
X70131519Y-160178163I-77403J-1122334D01*
G01*
X70091519Y-160758163D01*
G75*
G02*
X68891782Y-161803094I-1122334J77403D01*
G01*
G37*
D17*
X354918275Y-146130800D03*
X344758275Y-146130800D03*
D18*
X347338275Y-142130800D03*
D19*
X349838275Y-146130800D03*
G36*
G01*
X345276963Y-144428150D02*
X345276958Y-144428145D01*
G75*
G02*
X345190930Y-142839483I751317J837345D01*
G01*
X346500932Y-141379483D01*
G75*
G02*
X348089594Y-141293455I837345J-751317D01*
G01*
X348089594Y-141293455D01*
G75*
G02*
X348175622Y-142882117I-751317J-837345D01*
G01*
X346865620Y-144342117D01*
G75*
G02*
X345276958Y-144428145I-837345J751317D01*
G01*
G37*
D18*
X352378275Y-141050800D03*
G36*
G01*
X352261758Y-142753195D02*
X352260872Y-142753134D01*
G75*
G02*
X351215941Y-141553397I77403J1122334D01*
G01*
X351255941Y-140973397D01*
G75*
G02*
X352455678Y-139928466I1122334J-77403D01*
G01*
X352455678Y-139928466D01*
G75*
G02*
X353500609Y-141128203I-77403J-1122334D01*
G01*
X353460609Y-141708203D01*
G75*
G02*
X352260872Y-142753134I-1122334J77403D01*
G01*
G37*
D17*
X335868275Y-146130800D03*
X325708275Y-146130800D03*
D18*
X328288275Y-142130800D03*
D19*
X330788275Y-146130800D03*
G36*
G01*
X326226963Y-144428150D02*
X326226958Y-144428145D01*
G75*
G02*
X326140930Y-142839483I751317J837345D01*
G01*
X327450932Y-141379483D01*
G75*
G02*
X329039594Y-141293455I837345J-751317D01*
G01*
X329039594Y-141293455D01*
G75*
G02*
X329125622Y-142882117I-751317J-837345D01*
G01*
X327815620Y-144342117D01*
G75*
G02*
X326226958Y-144428145I-837345J751317D01*
G01*
G37*
D18*
X333328275Y-141050800D03*
G36*
G01*
X333211758Y-142753195D02*
X333210872Y-142753134D01*
G75*
G02*
X332165941Y-141553397I77403J1122334D01*
G01*
X332205941Y-140973397D01*
G75*
G02*
X333405678Y-139928466I1122334J-77403D01*
G01*
X333405678Y-139928466D01*
G75*
G02*
X334450609Y-141128203I-77403J-1122334D01*
G01*
X334410609Y-141708203D01*
G75*
G02*
X333210872Y-142753134I-1122334J77403D01*
G01*
G37*
D17*
X309674274Y-146130800D03*
X299514274Y-146130800D03*
D18*
X302094274Y-142130800D03*
D19*
X304594274Y-146130800D03*
G36*
G01*
X300032962Y-144428150D02*
X300032957Y-144428145D01*
G75*
G02*
X299946929Y-142839483I751317J837345D01*
G01*
X301256931Y-141379483D01*
G75*
G02*
X302845593Y-141293455I837345J-751317D01*
G01*
X302845593Y-141293455D01*
G75*
G02*
X302931621Y-142882117I-751317J-837345D01*
G01*
X301621619Y-144342117D01*
G75*
G02*
X300032957Y-144428145I-837345J751317D01*
G01*
G37*
D18*
X307134274Y-141050800D03*
G36*
G01*
X307017757Y-142753195D02*
X307016871Y-142753134D01*
G75*
G02*
X305971940Y-141553397I77403J1122334D01*
G01*
X306011940Y-140973397D01*
G75*
G02*
X307211677Y-139928466I1122334J-77403D01*
G01*
X307211677Y-139928466D01*
G75*
G02*
X308256608Y-141128203I-77403J-1122334D01*
G01*
X308216608Y-141708203D01*
G75*
G02*
X307016871Y-142753134I-1122334J77403D01*
G01*
G37*
D17*
X283480275Y-146130800D03*
X273320275Y-146130800D03*
D18*
X275900275Y-142130800D03*
D19*
X278400275Y-146130800D03*
G36*
G01*
X273838963Y-144428150D02*
X273838958Y-144428145D01*
G75*
G02*
X273752930Y-142839483I751317J837345D01*
G01*
X275062932Y-141379483D01*
G75*
G02*
X276651594Y-141293455I837345J-751317D01*
G01*
X276651594Y-141293455D01*
G75*
G02*
X276737622Y-142882117I-751317J-837345D01*
G01*
X275427620Y-144342117D01*
G75*
G02*
X273838958Y-144428145I-837345J751317D01*
G01*
G37*
D18*
X280940275Y-141050800D03*
G36*
G01*
X280823758Y-142753195D02*
X280822872Y-142753134D01*
G75*
G02*
X279777941Y-141553397I77403J1122334D01*
G01*
X279817941Y-140973397D01*
G75*
G02*
X281017678Y-139928466I1122334J-77403D01*
G01*
X281017678Y-139928466D01*
G75*
G02*
X282062609Y-141128203I-77403J-1122334D01*
G01*
X282022609Y-141708203D01*
G75*
G02*
X280822872Y-142753134I-1122334J77403D01*
G01*
G37*
D17*
X264430275Y-146130800D03*
X254270275Y-146130800D03*
D18*
X256850275Y-142130800D03*
D19*
X259350275Y-146130800D03*
G36*
G01*
X254788963Y-144428150D02*
X254788958Y-144428145D01*
G75*
G02*
X254702930Y-142839483I751317J837345D01*
G01*
X256012932Y-141379483D01*
G75*
G02*
X257601594Y-141293455I837345J-751317D01*
G01*
X257601594Y-141293455D01*
G75*
G02*
X257687622Y-142882117I-751317J-837345D01*
G01*
X256377620Y-144342117D01*
G75*
G02*
X254788958Y-144428145I-837345J751317D01*
G01*
G37*
D18*
X261890275Y-141050800D03*
G36*
G01*
X261773758Y-142753195D02*
X261772872Y-142753134D01*
G75*
G02*
X260727941Y-141553397I77403J1122334D01*
G01*
X260767941Y-140973397D01*
G75*
G02*
X261967678Y-139928466I1122334J-77403D01*
G01*
X261967678Y-139928466D01*
G75*
G02*
X263012609Y-141128203I-77403J-1122334D01*
G01*
X262972609Y-141708203D01*
G75*
G02*
X261772872Y-142753134I-1122334J77403D01*
G01*
G37*
D17*
X245380275Y-146130800D03*
X235220275Y-146130800D03*
D18*
X237800275Y-142130800D03*
D19*
X240300275Y-146130800D03*
G36*
G01*
X235738963Y-144428150D02*
X235738958Y-144428145D01*
G75*
G02*
X235652930Y-142839483I751317J837345D01*
G01*
X236962932Y-141379483D01*
G75*
G02*
X238551594Y-141293455I837345J-751317D01*
G01*
X238551594Y-141293455D01*
G75*
G02*
X238637622Y-142882117I-751317J-837345D01*
G01*
X237327620Y-144342117D01*
G75*
G02*
X235738958Y-144428145I-837345J751317D01*
G01*
G37*
D18*
X242840275Y-141050800D03*
G36*
G01*
X242723758Y-142753195D02*
X242722872Y-142753134D01*
G75*
G02*
X241677941Y-141553397I77403J1122334D01*
G01*
X241717941Y-140973397D01*
G75*
G02*
X242917678Y-139928466I1122334J-77403D01*
G01*
X242917678Y-139928466D01*
G75*
G02*
X243962609Y-141128203I-77403J-1122334D01*
G01*
X243922609Y-141708203D01*
G75*
G02*
X242722872Y-142753134I-1122334J77403D01*
G01*
G37*
D17*
X226330275Y-146130800D03*
X216170275Y-146130800D03*
D18*
X218750275Y-142130800D03*
D19*
X221250275Y-146130800D03*
G36*
G01*
X216688963Y-144428150D02*
X216688958Y-144428145D01*
G75*
G02*
X216602930Y-142839483I751317J837345D01*
G01*
X217912932Y-141379483D01*
G75*
G02*
X219501594Y-141293455I837345J-751317D01*
G01*
X219501594Y-141293455D01*
G75*
G02*
X219587622Y-142882117I-751317J-837345D01*
G01*
X218277620Y-144342117D01*
G75*
G02*
X216688958Y-144428145I-837345J751317D01*
G01*
G37*
D18*
X223790275Y-141050800D03*
G36*
G01*
X223673758Y-142753195D02*
X223672872Y-142753134D01*
G75*
G02*
X222627941Y-141553397I77403J1122334D01*
G01*
X222667941Y-140973397D01*
G75*
G02*
X223867678Y-139928466I1122334J-77403D01*
G01*
X223867678Y-139928466D01*
G75*
G02*
X224912609Y-141128203I-77403J-1122334D01*
G01*
X224872609Y-141708203D01*
G75*
G02*
X223672872Y-142753134I-1122334J77403D01*
G01*
G37*
D17*
X207280275Y-146130800D03*
X197120275Y-146130800D03*
D18*
X199700275Y-142130800D03*
D19*
X202200275Y-146130800D03*
G36*
G01*
X197638963Y-144428150D02*
X197638958Y-144428145D01*
G75*
G02*
X197552930Y-142839483I751317J837345D01*
G01*
X198862932Y-141379483D01*
G75*
G02*
X200451594Y-141293455I837345J-751317D01*
G01*
X200451594Y-141293455D01*
G75*
G02*
X200537622Y-142882117I-751317J-837345D01*
G01*
X199227620Y-144342117D01*
G75*
G02*
X197638958Y-144428145I-837345J751317D01*
G01*
G37*
D18*
X204740275Y-141050800D03*
G36*
G01*
X204623758Y-142753195D02*
X204622872Y-142753134D01*
G75*
G02*
X203577941Y-141553397I77403J1122334D01*
G01*
X203617941Y-140973397D01*
G75*
G02*
X204817678Y-139928466I1122334J-77403D01*
G01*
X204817678Y-139928466D01*
G75*
G02*
X205862609Y-141128203I-77403J-1122334D01*
G01*
X205822609Y-141708203D01*
G75*
G02*
X204622872Y-142753134I-1122334J77403D01*
G01*
G37*
D17*
X188230275Y-146130800D03*
X178070275Y-146130800D03*
D18*
X180650275Y-142130800D03*
D19*
X183150275Y-146130800D03*
G36*
G01*
X178588963Y-144428150D02*
X178588958Y-144428145D01*
G75*
G02*
X178502930Y-142839483I751317J837345D01*
G01*
X179812932Y-141379483D01*
G75*
G02*
X181401594Y-141293455I837345J-751317D01*
G01*
X181401594Y-141293455D01*
G75*
G02*
X181487622Y-142882117I-751317J-837345D01*
G01*
X180177620Y-144342117D01*
G75*
G02*
X178588958Y-144428145I-837345J751317D01*
G01*
G37*
D18*
X185690275Y-141050800D03*
G36*
G01*
X185573758Y-142753195D02*
X185572872Y-142753134D01*
G75*
G02*
X184527941Y-141553397I77403J1122334D01*
G01*
X184567941Y-140973397D01*
G75*
G02*
X185767678Y-139928466I1122334J-77403D01*
G01*
X185767678Y-139928466D01*
G75*
G02*
X186812609Y-141128203I-77403J-1122334D01*
G01*
X186772609Y-141708203D01*
G75*
G02*
X185572872Y-142753134I-1122334J77403D01*
G01*
G37*
D17*
X169180275Y-146130800D03*
X159020275Y-146130800D03*
D18*
X161600275Y-142130800D03*
D19*
X164100275Y-146130800D03*
G36*
G01*
X159538963Y-144428150D02*
X159538958Y-144428145D01*
G75*
G02*
X159452930Y-142839483I751317J837345D01*
G01*
X160762932Y-141379483D01*
G75*
G02*
X162351594Y-141293455I837345J-751317D01*
G01*
X162351594Y-141293455D01*
G75*
G02*
X162437622Y-142882117I-751317J-837345D01*
G01*
X161127620Y-144342117D01*
G75*
G02*
X159538958Y-144428145I-837345J751317D01*
G01*
G37*
D18*
X166640275Y-141050800D03*
G36*
G01*
X166523758Y-142753195D02*
X166522872Y-142753134D01*
G75*
G02*
X165477941Y-141553397I77403J1122334D01*
G01*
X165517941Y-140973397D01*
G75*
G02*
X166717678Y-139928466I1122334J-77403D01*
G01*
X166717678Y-139928466D01*
G75*
G02*
X167762609Y-141128203I-77403J-1122334D01*
G01*
X167722609Y-141708203D01*
G75*
G02*
X166522872Y-142753134I-1122334J77403D01*
G01*
G37*
D17*
X150130475Y-146130800D03*
X139970475Y-146130800D03*
D18*
X142550475Y-142130800D03*
D19*
X145050475Y-146130800D03*
G36*
G01*
X140489163Y-144428150D02*
X140489158Y-144428145D01*
G75*
G02*
X140403130Y-142839483I751317J837345D01*
G01*
X141713132Y-141379483D01*
G75*
G02*
X143301794Y-141293455I837345J-751317D01*
G01*
X143301794Y-141293455D01*
G75*
G02*
X143387822Y-142882117I-751317J-837345D01*
G01*
X142077820Y-144342117D01*
G75*
G02*
X140489158Y-144428145I-837345J751317D01*
G01*
G37*
D18*
X147590475Y-141050800D03*
G36*
G01*
X147473958Y-142753195D02*
X147473072Y-142753134D01*
G75*
G02*
X146428141Y-141553397I77403J1122334D01*
G01*
X146468141Y-140973397D01*
G75*
G02*
X147667878Y-139928466I1122334J-77403D01*
G01*
X147667878Y-139928466D01*
G75*
G02*
X148712809Y-141128203I-77403J-1122334D01*
G01*
X148672809Y-141708203D01*
G75*
G02*
X147473072Y-142753134I-1122334J77403D01*
G01*
G37*
D17*
X131080475Y-146130800D03*
X120920475Y-146130800D03*
D18*
X123500475Y-142130800D03*
D19*
X126000475Y-146130800D03*
G36*
G01*
X121439163Y-144428150D02*
X121439158Y-144428145D01*
G75*
G02*
X121353130Y-142839483I751317J837345D01*
G01*
X122663132Y-141379483D01*
G75*
G02*
X124251794Y-141293455I837345J-751317D01*
G01*
X124251794Y-141293455D01*
G75*
G02*
X124337822Y-142882117I-751317J-837345D01*
G01*
X123027820Y-144342117D01*
G75*
G02*
X121439158Y-144428145I-837345J751317D01*
G01*
G37*
D18*
X128540475Y-141050800D03*
G36*
G01*
X128423958Y-142753195D02*
X128423072Y-142753134D01*
G75*
G02*
X127378141Y-141553397I77403J1122334D01*
G01*
X127418141Y-140973397D01*
G75*
G02*
X128617878Y-139928466I1122334J-77403D01*
G01*
X128617878Y-139928466D01*
G75*
G02*
X129662809Y-141128203I-77403J-1122334D01*
G01*
X129622809Y-141708203D01*
G75*
G02*
X128423072Y-142753134I-1122334J77403D01*
G01*
G37*
D17*
X112030475Y-146130800D03*
X101870475Y-146130800D03*
D18*
X104450475Y-142130800D03*
D19*
X106950475Y-146130800D03*
G36*
G01*
X102389163Y-144428150D02*
X102389158Y-144428145D01*
G75*
G02*
X102303130Y-142839483I751317J837345D01*
G01*
X103613132Y-141379483D01*
G75*
G02*
X105201794Y-141293455I837345J-751317D01*
G01*
X105201794Y-141293455D01*
G75*
G02*
X105287822Y-142882117I-751317J-837345D01*
G01*
X103977820Y-144342117D01*
G75*
G02*
X102389158Y-144428145I-837345J751317D01*
G01*
G37*
D18*
X109490475Y-141050800D03*
G36*
G01*
X109373958Y-142753195D02*
X109373072Y-142753134D01*
G75*
G02*
X108328141Y-141553397I77403J1122334D01*
G01*
X108368141Y-140973397D01*
G75*
G02*
X109567878Y-139928466I1122334J-77403D01*
G01*
X109567878Y-139928466D01*
G75*
G02*
X110612809Y-141128203I-77403J-1122334D01*
G01*
X110572809Y-141708203D01*
G75*
G02*
X109373072Y-142753134I-1122334J77403D01*
G01*
G37*
D19*
X87932175Y-137875800D03*
X64056175Y-137875800D03*
D24*
X87932175Y-153115800D03*
X64056175Y-153115800D03*
D17*
X81074175Y-146130800D03*
X70914175Y-146130800D03*
D18*
X73494175Y-142130800D03*
D19*
X75994175Y-146130800D03*
G36*
G01*
X71432863Y-144428150D02*
X71432858Y-144428145D01*
G75*
G02*
X71346830Y-142839483I751317J837345D01*
G01*
X72656832Y-141379483D01*
G75*
G02*
X74245494Y-141293455I837345J-751317D01*
G01*
X74245494Y-141293455D01*
G75*
G02*
X74331522Y-142882117I-751317J-837345D01*
G01*
X73021520Y-144342117D01*
G75*
G02*
X71432858Y-144428145I-837345J751317D01*
G01*
G37*
D18*
X78534175Y-141050800D03*
G36*
G01*
X78417658Y-142753195D02*
X78416772Y-142753134D01*
G75*
G02*
X77371841Y-141553397I77403J1122334D01*
G01*
X77411841Y-140973397D01*
G75*
G02*
X78611578Y-139928466I1122334J-77403D01*
G01*
X78611578Y-139928466D01*
G75*
G02*
X79656509Y-141128203I-77403J-1122334D01*
G01*
X79616509Y-141708203D01*
G75*
G02*
X78416772Y-142753134I-1122334J77403D01*
G01*
G37*
D17*
X354918275Y-127080601D03*
X344758275Y-127080601D03*
D18*
X347338275Y-123080601D03*
D19*
X349838275Y-127080601D03*
G36*
G01*
X345276963Y-125377951D02*
X345276958Y-125377946D01*
G75*
G02*
X345190930Y-123789284I751317J837345D01*
G01*
X346500932Y-122329284D01*
G75*
G02*
X348089594Y-122243256I837345J-751317D01*
G01*
X348089594Y-122243256D01*
G75*
G02*
X348175622Y-123831918I-751317J-837345D01*
G01*
X346865620Y-125291918D01*
G75*
G02*
X345276958Y-125377946I-837345J751317D01*
G01*
G37*
D18*
X352378275Y-122000601D03*
G36*
G01*
X352261758Y-123702996D02*
X352260872Y-123702935D01*
G75*
G02*
X351215941Y-122503198I77403J1122334D01*
G01*
X351255941Y-121923198D01*
G75*
G02*
X352455678Y-120878267I1122334J-77403D01*
G01*
X352455678Y-120878267D01*
G75*
G02*
X353500609Y-122078004I-77403J-1122334D01*
G01*
X353460609Y-122658004D01*
G75*
G02*
X352260872Y-123702935I-1122334J77403D01*
G01*
G37*
D19*
X330818275Y-118825601D03*
X306942275Y-118825601D03*
D24*
X330818275Y-134065601D03*
X306942275Y-134065601D03*
D17*
X323960275Y-127080601D03*
X313800275Y-127080601D03*
D18*
X316380275Y-123080601D03*
D19*
X318880275Y-127080601D03*
G36*
G01*
X314318963Y-125377951D02*
X314318958Y-125377946D01*
G75*
G02*
X314232930Y-123789284I751317J837345D01*
G01*
X315542932Y-122329284D01*
G75*
G02*
X317131594Y-122243256I837345J-751317D01*
G01*
X317131594Y-122243256D01*
G75*
G02*
X317217622Y-123831918I-751317J-837345D01*
G01*
X315907620Y-125291918D01*
G75*
G02*
X314318958Y-125377946I-837345J751317D01*
G01*
G37*
D18*
X321420275Y-122000601D03*
G36*
G01*
X321303758Y-123702996D02*
X321302872Y-123702935D01*
G75*
G02*
X320257941Y-122503198I77403J1122334D01*
G01*
X320297941Y-121923198D01*
G75*
G02*
X321497678Y-120878267I1122334J-77403D01*
G01*
X321497678Y-120878267D01*
G75*
G02*
X322542609Y-122078004I-77403J-1122334D01*
G01*
X322502609Y-122658004D01*
G75*
G02*
X321302872Y-123702935I-1122334J77403D01*
G01*
G37*
D17*
X293005275Y-127080601D03*
X282845275Y-127080601D03*
D18*
X285425275Y-123080601D03*
D19*
X287925275Y-127080601D03*
G36*
G01*
X283363963Y-125377951D02*
X283363958Y-125377946D01*
G75*
G02*
X283277930Y-123789284I751317J837345D01*
G01*
X284587932Y-122329284D01*
G75*
G02*
X286176594Y-122243256I837345J-751317D01*
G01*
X286176594Y-122243256D01*
G75*
G02*
X286262622Y-123831918I-751317J-837345D01*
G01*
X284952620Y-125291918D01*
G75*
G02*
X283363958Y-125377946I-837345J751317D01*
G01*
G37*
D18*
X290465275Y-122000601D03*
G36*
G01*
X290348758Y-123702996D02*
X290347872Y-123702935D01*
G75*
G02*
X289302941Y-122503198I77403J1122334D01*
G01*
X289342941Y-121923198D01*
G75*
G02*
X290542678Y-120878267I1122334J-77403D01*
G01*
X290542678Y-120878267D01*
G75*
G02*
X291587609Y-122078004I-77403J-1122334D01*
G01*
X291547609Y-122658004D01*
G75*
G02*
X290347872Y-123702935I-1122334J77403D01*
G01*
G37*
G36*
G01*
X271298758Y-123702996D02*
X271297872Y-123702935D01*
G75*
G02*
X270252941Y-122503198I77403J1122334D01*
G01*
X270292941Y-121923198D01*
G75*
G02*
X271492678Y-120878267I1122334J-77403D01*
G01*
X271492678Y-120878267D01*
G75*
G02*
X272537609Y-122078004I-77403J-1122334D01*
G01*
X272497609Y-122658004D01*
G75*
G02*
X271297872Y-123702935I-1122334J77403D01*
G01*
G37*
X271415275Y-122000601D03*
G36*
G01*
X264313963Y-125377951D02*
X264313958Y-125377946D01*
G75*
G02*
X264227930Y-123789284I751317J837345D01*
G01*
X265537932Y-122329284D01*
G75*
G02*
X267126594Y-122243256I837345J-751317D01*
G01*
X267126594Y-122243256D01*
G75*
G02*
X267212622Y-123831918I-751317J-837345D01*
G01*
X265902620Y-125291918D01*
G75*
G02*
X264313958Y-125377946I-837345J751317D01*
G01*
G37*
D19*
X268875275Y-127080601D03*
D18*
X266375275Y-123080601D03*
D17*
X263795275Y-127080601D03*
X273955275Y-127080601D03*
X254905275Y-127080601D03*
X244745275Y-127080601D03*
D18*
X247325275Y-123080601D03*
D19*
X249825275Y-127080601D03*
G36*
G01*
X245263963Y-125377951D02*
X245263958Y-125377946D01*
G75*
G02*
X245177930Y-123789284I751317J837345D01*
G01*
X246487932Y-122329284D01*
G75*
G02*
X248076594Y-122243256I837345J-751317D01*
G01*
X248076594Y-122243256D01*
G75*
G02*
X248162622Y-123831918I-751317J-837345D01*
G01*
X246852620Y-125291918D01*
G75*
G02*
X245263958Y-125377946I-837345J751317D01*
G01*
G37*
D18*
X252365275Y-122000601D03*
G36*
G01*
X252248758Y-123702996D02*
X252247872Y-123702935D01*
G75*
G02*
X251202941Y-122503198I77403J1122334D01*
G01*
X251242941Y-121923198D01*
G75*
G02*
X252442678Y-120878267I1122334J-77403D01*
G01*
X252442678Y-120878267D01*
G75*
G02*
X253487609Y-122078004I-77403J-1122334D01*
G01*
X253447609Y-122658004D01*
G75*
G02*
X252247872Y-123702935I-1122334J77403D01*
G01*
G37*
D17*
X235855275Y-127080601D03*
X225695275Y-127080601D03*
D18*
X228275275Y-123080601D03*
D19*
X230775275Y-127080601D03*
G36*
G01*
X226213963Y-125377951D02*
X226213958Y-125377946D01*
G75*
G02*
X226127930Y-123789284I751317J837345D01*
G01*
X227437932Y-122329284D01*
G75*
G02*
X229026594Y-122243256I837345J-751317D01*
G01*
X229026594Y-122243256D01*
G75*
G02*
X229112622Y-123831918I-751317J-837345D01*
G01*
X227802620Y-125291918D01*
G75*
G02*
X226213958Y-125377946I-837345J751317D01*
G01*
G37*
D18*
X233315275Y-122000601D03*
G36*
G01*
X233198758Y-123702996D02*
X233197872Y-123702935D01*
G75*
G02*
X232152941Y-122503198I77403J1122334D01*
G01*
X232192941Y-121923198D01*
G75*
G02*
X233392678Y-120878267I1122334J-77403D01*
G01*
X233392678Y-120878267D01*
G75*
G02*
X234437609Y-122078004I-77403J-1122334D01*
G01*
X234397609Y-122658004D01*
G75*
G02*
X233197872Y-123702935I-1122334J77403D01*
G01*
G37*
D17*
X216805275Y-127080601D03*
X206645275Y-127080601D03*
D18*
X209225275Y-123080601D03*
D19*
X211725275Y-127080601D03*
G36*
G01*
X207163963Y-125377951D02*
X207163958Y-125377946D01*
G75*
G02*
X207077930Y-123789284I751317J837345D01*
G01*
X208387932Y-122329284D01*
G75*
G02*
X209976594Y-122243256I837345J-751317D01*
G01*
X209976594Y-122243256D01*
G75*
G02*
X210062622Y-123831918I-751317J-837345D01*
G01*
X208752620Y-125291918D01*
G75*
G02*
X207163958Y-125377946I-837345J751317D01*
G01*
G37*
D18*
X214265275Y-122000601D03*
G36*
G01*
X214148758Y-123702996D02*
X214147872Y-123702935D01*
G75*
G02*
X213102941Y-122503198I77403J1122334D01*
G01*
X213142941Y-121923198D01*
G75*
G02*
X214342678Y-120878267I1122334J-77403D01*
G01*
X214342678Y-120878267D01*
G75*
G02*
X215387609Y-122078004I-77403J-1122334D01*
G01*
X215347609Y-122658004D01*
G75*
G02*
X214147872Y-123702935I-1122334J77403D01*
G01*
G37*
D17*
X197755275Y-127080601D03*
X187595275Y-127080601D03*
D18*
X190175275Y-123080601D03*
D19*
X192675275Y-127080601D03*
G36*
G01*
X188113963Y-125377951D02*
X188113958Y-125377946D01*
G75*
G02*
X188027930Y-123789284I751317J837345D01*
G01*
X189337932Y-122329284D01*
G75*
G02*
X190926594Y-122243256I837345J-751317D01*
G01*
X190926594Y-122243256D01*
G75*
G02*
X191012622Y-123831918I-751317J-837345D01*
G01*
X189702620Y-125291918D01*
G75*
G02*
X188113958Y-125377946I-837345J751317D01*
G01*
G37*
D18*
X195215275Y-122000601D03*
G36*
G01*
X195098758Y-123702996D02*
X195097872Y-123702935D01*
G75*
G02*
X194052941Y-122503198I77403J1122334D01*
G01*
X194092941Y-121923198D01*
G75*
G02*
X195292678Y-120878267I1122334J-77403D01*
G01*
X195292678Y-120878267D01*
G75*
G02*
X196337609Y-122078004I-77403J-1122334D01*
G01*
X196297609Y-122658004D01*
G75*
G02*
X195097872Y-123702935I-1122334J77403D01*
G01*
G37*
D17*
X178705274Y-127080601D03*
X168545274Y-127080601D03*
D18*
X171125274Y-123080601D03*
D19*
X173625274Y-127080601D03*
G36*
G01*
X169063962Y-125377951D02*
X169063957Y-125377946D01*
G75*
G02*
X168977929Y-123789284I751317J837345D01*
G01*
X170287931Y-122329284D01*
G75*
G02*
X171876593Y-122243256I837345J-751317D01*
G01*
X171876593Y-122243256D01*
G75*
G02*
X171962621Y-123831918I-751317J-837345D01*
G01*
X170652619Y-125291918D01*
G75*
G02*
X169063957Y-125377946I-837345J751317D01*
G01*
G37*
D18*
X176165274Y-122000601D03*
G36*
G01*
X176048757Y-123702996D02*
X176047871Y-123702935D01*
G75*
G02*
X175002940Y-122503198I77403J1122334D01*
G01*
X175042940Y-121923198D01*
G75*
G02*
X176242677Y-120878267I1122334J-77403D01*
G01*
X176242677Y-120878267D01*
G75*
G02*
X177287608Y-122078004I-77403J-1122334D01*
G01*
X177247608Y-122658004D01*
G75*
G02*
X176047871Y-123702935I-1122334J77403D01*
G01*
G37*
D17*
X159655475Y-127080601D03*
X149495475Y-127080601D03*
D18*
X152075475Y-123080601D03*
D19*
X154575475Y-127080601D03*
G36*
G01*
X150014163Y-125377951D02*
X150014158Y-125377946D01*
G75*
G02*
X149928130Y-123789284I751317J837345D01*
G01*
X151238132Y-122329284D01*
G75*
G02*
X152826794Y-122243256I837345J-751317D01*
G01*
X152826794Y-122243256D01*
G75*
G02*
X152912822Y-123831918I-751317J-837345D01*
G01*
X151602820Y-125291918D01*
G75*
G02*
X150014158Y-125377946I-837345J751317D01*
G01*
G37*
D18*
X157115475Y-122000601D03*
G36*
G01*
X156998958Y-123702996D02*
X156998072Y-123702935D01*
G75*
G02*
X155953141Y-122503198I77403J1122334D01*
G01*
X155993141Y-121923198D01*
G75*
G02*
X157192878Y-120878267I1122334J-77403D01*
G01*
X157192878Y-120878267D01*
G75*
G02*
X158237809Y-122078004I-77403J-1122334D01*
G01*
X158197809Y-122658004D01*
G75*
G02*
X156998072Y-123702935I-1122334J77403D01*
G01*
G37*
D17*
X140605474Y-127080601D03*
X130445474Y-127080601D03*
D18*
X133025474Y-123080601D03*
D19*
X135525474Y-127080601D03*
G36*
G01*
X130964162Y-125377951D02*
X130964157Y-125377946D01*
G75*
G02*
X130878129Y-123789284I751317J837345D01*
G01*
X132188131Y-122329284D01*
G75*
G02*
X133776793Y-122243256I837345J-751317D01*
G01*
X133776793Y-122243256D01*
G75*
G02*
X133862821Y-123831918I-751317J-837345D01*
G01*
X132552819Y-125291918D01*
G75*
G02*
X130964157Y-125377946I-837345J751317D01*
G01*
G37*
D18*
X138065474Y-122000601D03*
G36*
G01*
X137948957Y-123702996D02*
X137948071Y-123702935D01*
G75*
G02*
X136903140Y-122503198I77403J1122334D01*
G01*
X136943140Y-121923198D01*
G75*
G02*
X138142877Y-120878267I1122334J-77403D01*
G01*
X138142877Y-120878267D01*
G75*
G02*
X139187808Y-122078004I-77403J-1122334D01*
G01*
X139147808Y-122658004D01*
G75*
G02*
X137948071Y-123702935I-1122334J77403D01*
G01*
G37*
D17*
X121555474Y-127080601D03*
X111395474Y-127080601D03*
D18*
X113975474Y-123080601D03*
D19*
X116475474Y-127080601D03*
G36*
G01*
X111914162Y-125377951D02*
X111914157Y-125377946D01*
G75*
G02*
X111828129Y-123789284I751317J837345D01*
G01*
X113138131Y-122329284D01*
G75*
G02*
X114726793Y-122243256I837345J-751317D01*
G01*
X114726793Y-122243256D01*
G75*
G02*
X114812821Y-123831918I-751317J-837345D01*
G01*
X113502819Y-125291918D01*
G75*
G02*
X111914157Y-125377946I-837345J751317D01*
G01*
G37*
D18*
X119015474Y-122000601D03*
G36*
G01*
X118898957Y-123702996D02*
X118898071Y-123702935D01*
G75*
G02*
X117853140Y-122503198I77403J1122334D01*
G01*
X117893140Y-121923198D01*
G75*
G02*
X119092877Y-120878267I1122334J-77403D01*
G01*
X119092877Y-120878267D01*
G75*
G02*
X120137808Y-122078004I-77403J-1122334D01*
G01*
X120097808Y-122658004D01*
G75*
G02*
X118898071Y-123702935I-1122334J77403D01*
G01*
G37*
D17*
X102505475Y-127080601D03*
X92345475Y-127080601D03*
D18*
X94925475Y-123080601D03*
D19*
X97425475Y-127080601D03*
G36*
G01*
X92864163Y-125377951D02*
X92864158Y-125377946D01*
G75*
G02*
X92778130Y-123789284I751317J837345D01*
G01*
X94088132Y-122329284D01*
G75*
G02*
X95676794Y-122243256I837345J-751317D01*
G01*
X95676794Y-122243256D01*
G75*
G02*
X95762822Y-123831918I-751317J-837345D01*
G01*
X94452820Y-125291918D01*
G75*
G02*
X92864158Y-125377946I-837345J751317D01*
G01*
G37*
D18*
X99965475Y-122000601D03*
G36*
G01*
X99848958Y-123702996D02*
X99848072Y-123702935D01*
G75*
G02*
X98803141Y-122503198I77403J1122334D01*
G01*
X98843141Y-121923198D01*
G75*
G02*
X100042878Y-120878267I1122334J-77403D01*
G01*
X100042878Y-120878267D01*
G75*
G02*
X101087809Y-122078004I-77403J-1122334D01*
G01*
X101047809Y-122658004D01*
G75*
G02*
X99848072Y-123702935I-1122334J77403D01*
G01*
G37*
D17*
X76310305Y-127080601D03*
X66150305Y-127080601D03*
D18*
X68730305Y-123080601D03*
D19*
X71230305Y-127080601D03*
G36*
G01*
X66668993Y-125377951D02*
X66668988Y-125377946D01*
G75*
G02*
X66582960Y-123789284I751317J837345D01*
G01*
X67892962Y-122329284D01*
G75*
G02*
X69481624Y-122243256I837345J-751317D01*
G01*
X69481624Y-122243256D01*
G75*
G02*
X69567652Y-123831918I-751317J-837345D01*
G01*
X68257650Y-125291918D01*
G75*
G02*
X66668988Y-125377946I-837345J751317D01*
G01*
G37*
D18*
X73770305Y-122000601D03*
G36*
G01*
X73653788Y-123702996D02*
X73652902Y-123702935D01*
G75*
G02*
X72607971Y-122503198I77403J1122334D01*
G01*
X72647971Y-121923198D01*
G75*
G02*
X73847708Y-120878267I1122334J-77403D01*
G01*
X73847708Y-120878267D01*
G75*
G02*
X74892639Y-122078004I-77403J-1122334D01*
G01*
X74852639Y-122658004D01*
G75*
G02*
X73652902Y-123702935I-1122334J77403D01*
G01*
G37*
D17*
X307293274Y-108030601D03*
X297133274Y-108030601D03*
D18*
X299713274Y-104030601D03*
D19*
X302213274Y-108030601D03*
G36*
G01*
X297651962Y-106327951D02*
X297651957Y-106327946D01*
G75*
G02*
X297565929Y-104739284I751317J837345D01*
G01*
X298875931Y-103279284D01*
G75*
G02*
X300464593Y-103193256I837345J-751317D01*
G01*
X300464593Y-103193256D01*
G75*
G02*
X300550621Y-104781918I-751317J-837345D01*
G01*
X299240619Y-106241918D01*
G75*
G02*
X297651957Y-106327946I-837345J751317D01*
G01*
G37*
D18*
X304753274Y-102950601D03*
G36*
G01*
X304636757Y-104652996D02*
X304635871Y-104652935D01*
G75*
G02*
X303590940Y-103453198I77403J1122334D01*
G01*
X303630940Y-102873198D01*
G75*
G02*
X304830677Y-101828267I1122334J-77403D01*
G01*
X304830677Y-101828267D01*
G75*
G02*
X305875608Y-103028004I-77403J-1122334D01*
G01*
X305835608Y-103608004D01*
G75*
G02*
X304635871Y-104652935I-1122334J77403D01*
G01*
G37*
D17*
X288243275Y-108030601D03*
X278083275Y-108030601D03*
D18*
X280663275Y-104030601D03*
D19*
X283163275Y-108030601D03*
G36*
G01*
X278601963Y-106327951D02*
X278601958Y-106327946D01*
G75*
G02*
X278515930Y-104739284I751317J837345D01*
G01*
X279825932Y-103279284D01*
G75*
G02*
X281414594Y-103193256I837345J-751317D01*
G01*
X281414594Y-103193256D01*
G75*
G02*
X281500622Y-104781918I-751317J-837345D01*
G01*
X280190620Y-106241918D01*
G75*
G02*
X278601958Y-106327946I-837345J751317D01*
G01*
G37*
D18*
X285703275Y-102950601D03*
G36*
G01*
X285586758Y-104652996D02*
X285585872Y-104652935D01*
G75*
G02*
X284540941Y-103453198I77403J1122334D01*
G01*
X284580941Y-102873198D01*
G75*
G02*
X285780678Y-101828267I1122334J-77403D01*
G01*
X285780678Y-101828267D01*
G75*
G02*
X286825609Y-103028004I-77403J-1122334D01*
G01*
X286785609Y-103608004D01*
G75*
G02*
X285585872Y-104652935I-1122334J77403D01*
G01*
G37*
D17*
X269193275Y-108030601D03*
X259033275Y-108030601D03*
D18*
X261613275Y-104030601D03*
D19*
X264113275Y-108030601D03*
G36*
G01*
X259551963Y-106327951D02*
X259551958Y-106327946D01*
G75*
G02*
X259465930Y-104739284I751317J837345D01*
G01*
X260775932Y-103279284D01*
G75*
G02*
X262364594Y-103193256I837345J-751317D01*
G01*
X262364594Y-103193256D01*
G75*
G02*
X262450622Y-104781918I-751317J-837345D01*
G01*
X261140620Y-106241918D01*
G75*
G02*
X259551958Y-106327946I-837345J751317D01*
G01*
G37*
D18*
X266653275Y-102950601D03*
G36*
G01*
X266536758Y-104652996D02*
X266535872Y-104652935D01*
G75*
G02*
X265490941Y-103453198I77403J1122334D01*
G01*
X265530941Y-102873198D01*
G75*
G02*
X266730678Y-101828267I1122334J-77403D01*
G01*
X266730678Y-101828267D01*
G75*
G02*
X267775609Y-103028004I-77403J-1122334D01*
G01*
X267735609Y-103608004D01*
G75*
G02*
X266535872Y-104652935I-1122334J77403D01*
G01*
G37*
D17*
X250143275Y-108030601D03*
X239983275Y-108030601D03*
D18*
X242563275Y-104030601D03*
D19*
X245063275Y-108030601D03*
G36*
G01*
X240501963Y-106327951D02*
X240501958Y-106327946D01*
G75*
G02*
X240415930Y-104739284I751317J837345D01*
G01*
X241725932Y-103279284D01*
G75*
G02*
X243314594Y-103193256I837345J-751317D01*
G01*
X243314594Y-103193256D01*
G75*
G02*
X243400622Y-104781918I-751317J-837345D01*
G01*
X242090620Y-106241918D01*
G75*
G02*
X240501958Y-106327946I-837345J751317D01*
G01*
G37*
D18*
X247603275Y-102950601D03*
G36*
G01*
X247486758Y-104652996D02*
X247485872Y-104652935D01*
G75*
G02*
X246440941Y-103453198I77403J1122334D01*
G01*
X246480941Y-102873198D01*
G75*
G02*
X247680678Y-101828267I1122334J-77403D01*
G01*
X247680678Y-101828267D01*
G75*
G02*
X248725609Y-103028004I-77403J-1122334D01*
G01*
X248685609Y-103608004D01*
G75*
G02*
X247485872Y-104652935I-1122334J77403D01*
G01*
G37*
D17*
X231093275Y-108030601D03*
X220933275Y-108030601D03*
D18*
X223513275Y-104030601D03*
D19*
X226013275Y-108030601D03*
G36*
G01*
X221451963Y-106327951D02*
X221451958Y-106327946D01*
G75*
G02*
X221365930Y-104739284I751317J837345D01*
G01*
X222675932Y-103279284D01*
G75*
G02*
X224264594Y-103193256I837345J-751317D01*
G01*
X224264594Y-103193256D01*
G75*
G02*
X224350622Y-104781918I-751317J-837345D01*
G01*
X223040620Y-106241918D01*
G75*
G02*
X221451958Y-106327946I-837345J751317D01*
G01*
G37*
D18*
X228553275Y-102950601D03*
G36*
G01*
X228436758Y-104652996D02*
X228435872Y-104652935D01*
G75*
G02*
X227390941Y-103453198I77403J1122334D01*
G01*
X227430941Y-102873198D01*
G75*
G02*
X228630678Y-101828267I1122334J-77403D01*
G01*
X228630678Y-101828267D01*
G75*
G02*
X229675609Y-103028004I-77403J-1122334D01*
G01*
X229635609Y-103608004D01*
G75*
G02*
X228435872Y-104652935I-1122334J77403D01*
G01*
G37*
D17*
X212043275Y-108030601D03*
X201883275Y-108030601D03*
D18*
X204463275Y-104030601D03*
D19*
X206963275Y-108030601D03*
G36*
G01*
X202401963Y-106327951D02*
X202401958Y-106327946D01*
G75*
G02*
X202315930Y-104739284I751317J837345D01*
G01*
X203625932Y-103279284D01*
G75*
G02*
X205214594Y-103193256I837345J-751317D01*
G01*
X205214594Y-103193256D01*
G75*
G02*
X205300622Y-104781918I-751317J-837345D01*
G01*
X203990620Y-106241918D01*
G75*
G02*
X202401958Y-106327946I-837345J751317D01*
G01*
G37*
D18*
X209503275Y-102950601D03*
G36*
G01*
X209386758Y-104652996D02*
X209385872Y-104652935D01*
G75*
G02*
X208340941Y-103453198I77403J1122334D01*
G01*
X208380941Y-102873198D01*
G75*
G02*
X209580678Y-101828267I1122334J-77403D01*
G01*
X209580678Y-101828267D01*
G75*
G02*
X210625609Y-103028004I-77403J-1122334D01*
G01*
X210585609Y-103608004D01*
G75*
G02*
X209385872Y-104652935I-1122334J77403D01*
G01*
G37*
D17*
X192993275Y-108030601D03*
X182833275Y-108030601D03*
D18*
X185413275Y-104030601D03*
D19*
X187913275Y-108030601D03*
G36*
G01*
X183351963Y-106327951D02*
X183351958Y-106327946D01*
G75*
G02*
X183265930Y-104739284I751317J837345D01*
G01*
X184575932Y-103279284D01*
G75*
G02*
X186164594Y-103193256I837345J-751317D01*
G01*
X186164594Y-103193256D01*
G75*
G02*
X186250622Y-104781918I-751317J-837345D01*
G01*
X184940620Y-106241918D01*
G75*
G02*
X183351958Y-106327946I-837345J751317D01*
G01*
G37*
D18*
X190453275Y-102950601D03*
G36*
G01*
X190336758Y-104652996D02*
X190335872Y-104652935D01*
G75*
G02*
X189290941Y-103453198I77403J1122334D01*
G01*
X189330941Y-102873198D01*
G75*
G02*
X190530678Y-101828267I1122334J-77403D01*
G01*
X190530678Y-101828267D01*
G75*
G02*
X191575609Y-103028004I-77403J-1122334D01*
G01*
X191535609Y-103608004D01*
G75*
G02*
X190335872Y-104652935I-1122334J77403D01*
G01*
G37*
D17*
X173943275Y-108030601D03*
X163783275Y-108030601D03*
D18*
X166363275Y-104030601D03*
D19*
X168863275Y-108030601D03*
G36*
G01*
X164301963Y-106327951D02*
X164301958Y-106327946D01*
G75*
G02*
X164215930Y-104739284I751317J837345D01*
G01*
X165525932Y-103279284D01*
G75*
G02*
X167114594Y-103193256I837345J-751317D01*
G01*
X167114594Y-103193256D01*
G75*
G02*
X167200622Y-104781918I-751317J-837345D01*
G01*
X165890620Y-106241918D01*
G75*
G02*
X164301958Y-106327946I-837345J751317D01*
G01*
G37*
D18*
X171403275Y-102950601D03*
G36*
G01*
X171286758Y-104652996D02*
X171285872Y-104652935D01*
G75*
G02*
X170240941Y-103453198I77403J1122334D01*
G01*
X170280941Y-102873198D01*
G75*
G02*
X171480678Y-101828267I1122334J-77403D01*
G01*
X171480678Y-101828267D01*
G75*
G02*
X172525609Y-103028004I-77403J-1122334D01*
G01*
X172485609Y-103608004D01*
G75*
G02*
X171285872Y-104652935I-1122334J77403D01*
G01*
G37*
D17*
X154892975Y-108030601D03*
X144732975Y-108030601D03*
D18*
X147312975Y-104030601D03*
D19*
X149812975Y-108030601D03*
G36*
G01*
X145251663Y-106327951D02*
X145251658Y-106327946D01*
G75*
G02*
X145165630Y-104739284I751317J837345D01*
G01*
X146475632Y-103279284D01*
G75*
G02*
X148064294Y-103193256I837345J-751317D01*
G01*
X148064294Y-103193256D01*
G75*
G02*
X148150322Y-104781918I-751317J-837345D01*
G01*
X146840320Y-106241918D01*
G75*
G02*
X145251658Y-106327946I-837345J751317D01*
G01*
G37*
D18*
X152352975Y-102950601D03*
G36*
G01*
X152236458Y-104652996D02*
X152235572Y-104652935D01*
G75*
G02*
X151190641Y-103453198I77403J1122334D01*
G01*
X151230641Y-102873198D01*
G75*
G02*
X152430378Y-101828267I1122334J-77403D01*
G01*
X152430378Y-101828267D01*
G75*
G02*
X153475309Y-103028004I-77403J-1122334D01*
G01*
X153435309Y-103608004D01*
G75*
G02*
X152235572Y-104652935I-1122334J77403D01*
G01*
G37*
D17*
X135842975Y-108030601D03*
X125682975Y-108030601D03*
D18*
X128262975Y-104030601D03*
D19*
X130762975Y-108030601D03*
G36*
G01*
X126201663Y-106327951D02*
X126201658Y-106327946D01*
G75*
G02*
X126115630Y-104739284I751317J837345D01*
G01*
X127425632Y-103279284D01*
G75*
G02*
X129014294Y-103193256I837345J-751317D01*
G01*
X129014294Y-103193256D01*
G75*
G02*
X129100322Y-104781918I-751317J-837345D01*
G01*
X127790320Y-106241918D01*
G75*
G02*
X126201658Y-106327946I-837345J751317D01*
G01*
G37*
D18*
X133302975Y-102950601D03*
G36*
G01*
X133186458Y-104652996D02*
X133185572Y-104652935D01*
G75*
G02*
X132140641Y-103453198I77403J1122334D01*
G01*
X132180641Y-102873198D01*
G75*
G02*
X133380378Y-101828267I1122334J-77403D01*
G01*
X133380378Y-101828267D01*
G75*
G02*
X134425309Y-103028004I-77403J-1122334D01*
G01*
X134385309Y-103608004D01*
G75*
G02*
X133185572Y-104652935I-1122334J77403D01*
G01*
G37*
D17*
X116792975Y-108030601D03*
X106632975Y-108030601D03*
D18*
X109212975Y-104030601D03*
D19*
X111712975Y-108030601D03*
G36*
G01*
X107151663Y-106327951D02*
X107151658Y-106327946D01*
G75*
G02*
X107065630Y-104739284I751317J837345D01*
G01*
X108375632Y-103279284D01*
G75*
G02*
X109964294Y-103193256I837345J-751317D01*
G01*
X109964294Y-103193256D01*
G75*
G02*
X110050322Y-104781918I-751317J-837345D01*
G01*
X108740320Y-106241918D01*
G75*
G02*
X107151658Y-106327946I-837345J751317D01*
G01*
G37*
D18*
X114252975Y-102950601D03*
G36*
G01*
X114136458Y-104652996D02*
X114135572Y-104652935D01*
G75*
G02*
X113090641Y-103453198I77403J1122334D01*
G01*
X113130641Y-102873198D01*
G75*
G02*
X114330378Y-101828267I1122334J-77403D01*
G01*
X114330378Y-101828267D01*
G75*
G02*
X115375309Y-103028004I-77403J-1122334D01*
G01*
X115335309Y-103608004D01*
G75*
G02*
X114135572Y-104652935I-1122334J77403D01*
G01*
G37*
D17*
X97742974Y-108030601D03*
X87582974Y-108030601D03*
D18*
X90162974Y-104030601D03*
D19*
X92662974Y-108030601D03*
G36*
G01*
X88101662Y-106327951D02*
X88101657Y-106327946D01*
G75*
G02*
X88015629Y-104739284I751317J837345D01*
G01*
X89325631Y-103279284D01*
G75*
G02*
X90914293Y-103193256I837345J-751317D01*
G01*
X90914293Y-103193256D01*
G75*
G02*
X91000321Y-104781918I-751317J-837345D01*
G01*
X89690319Y-106241918D01*
G75*
G02*
X88101657Y-106327946I-837345J751317D01*
G01*
G37*
D18*
X95202974Y-102950601D03*
G36*
G01*
X95086457Y-104652996D02*
X95085571Y-104652935D01*
G75*
G02*
X94040640Y-103453198I77403J1122334D01*
G01*
X94080640Y-102873198D01*
G75*
G02*
X95280377Y-101828267I1122334J-77403D01*
G01*
X95280377Y-101828267D01*
G75*
G02*
X96325308Y-103028004I-77403J-1122334D01*
G01*
X96285308Y-103608004D01*
G75*
G02*
X95085571Y-104652935I-1122334J77403D01*
G01*
G37*
D17*
X73930435Y-108030601D03*
X63770435Y-108030601D03*
D18*
X66350435Y-104030601D03*
D19*
X68850435Y-108030601D03*
G36*
G01*
X64289123Y-106327951D02*
X64289118Y-106327946D01*
G75*
G02*
X64203090Y-104739284I751317J837345D01*
G01*
X65513092Y-103279284D01*
G75*
G02*
X67101754Y-103193256I837345J-751317D01*
G01*
X67101754Y-103193256D01*
G75*
G02*
X67187782Y-104781918I-751317J-837345D01*
G01*
X65877780Y-106241918D01*
G75*
G02*
X64289118Y-106327946I-837345J751317D01*
G01*
G37*
D18*
X71390435Y-102950601D03*
G36*
G01*
X71273918Y-104652996D02*
X71273032Y-104652935D01*
G75*
G02*
X70228101Y-103453198I77403J1122334D01*
G01*
X70268101Y-102873198D01*
G75*
G02*
X71467838Y-101828267I1122334J-77403D01*
G01*
X71467838Y-101828267D01*
G75*
G02*
X72512769Y-103028004I-77403J-1122334D01*
G01*
X72472769Y-103608004D01*
G75*
G02*
X71273032Y-104652935I-1122334J77403D01*
G01*
G37*
D17*
X354918275Y-88980600D03*
X344758275Y-88980600D03*
D18*
X347338275Y-84980600D03*
D19*
X349838275Y-88980600D03*
G36*
G01*
X345276963Y-87277950D02*
X345276958Y-87277945D01*
G75*
G02*
X345190930Y-85689283I751317J837345D01*
G01*
X346500932Y-84229283D01*
G75*
G02*
X348089594Y-84143255I837345J-751317D01*
G01*
X348089594Y-84143255D01*
G75*
G02*
X348175622Y-85731917I-751317J-837345D01*
G01*
X346865620Y-87191917D01*
G75*
G02*
X345276958Y-87277945I-837345J751317D01*
G01*
G37*
D18*
X352378275Y-83900600D03*
G36*
G01*
X352261758Y-85602995D02*
X352260872Y-85602934D01*
G75*
G02*
X351215941Y-84403197I77403J1122334D01*
G01*
X351255941Y-83823197D01*
G75*
G02*
X352455678Y-82778266I1122334J-77403D01*
G01*
X352455678Y-82778266D01*
G75*
G02*
X353500609Y-83978003I-77403J-1122334D01*
G01*
X353460609Y-84558003D01*
G75*
G02*
X352260872Y-85602934I-1122334J77403D01*
G01*
G37*
D19*
X333201275Y-97235600D03*
X309325275Y-97235600D03*
D24*
X333201275Y-81995600D03*
X309325275Y-81995600D03*
D17*
X326343275Y-88980600D03*
X316183275Y-88980600D03*
D18*
X318763275Y-84980600D03*
D19*
X321263275Y-88980600D03*
G36*
G01*
X316701963Y-87277950D02*
X316701958Y-87277945D01*
G75*
G02*
X316615930Y-85689283I751317J837345D01*
G01*
X317925932Y-84229283D01*
G75*
G02*
X319514594Y-84143255I837345J-751317D01*
G01*
X319514594Y-84143255D01*
G75*
G02*
X319600622Y-85731917I-751317J-837345D01*
G01*
X318290620Y-87191917D01*
G75*
G02*
X316701958Y-87277945I-837345J751317D01*
G01*
G37*
D18*
X323803275Y-83900600D03*
G36*
G01*
X323686758Y-85602995D02*
X323685872Y-85602934D01*
G75*
G02*
X322640941Y-84403197I77403J1122334D01*
G01*
X322680941Y-83823197D01*
G75*
G02*
X323880678Y-82778266I1122334J-77403D01*
G01*
X323880678Y-82778266D01*
G75*
G02*
X324925609Y-83978003I-77403J-1122334D01*
G01*
X324885609Y-84558003D01*
G75*
G02*
X323685872Y-85602934I-1122334J77403D01*
G01*
G37*
D17*
X297768275Y-88980600D03*
X287608275Y-88980600D03*
D18*
X290188275Y-84980600D03*
D19*
X292688275Y-88980600D03*
G36*
G01*
X288126963Y-87277950D02*
X288126958Y-87277945D01*
G75*
G02*
X288040930Y-85689283I751317J837345D01*
G01*
X289350932Y-84229283D01*
G75*
G02*
X290939594Y-84143255I837345J-751317D01*
G01*
X290939594Y-84143255D01*
G75*
G02*
X291025622Y-85731917I-751317J-837345D01*
G01*
X289715620Y-87191917D01*
G75*
G02*
X288126958Y-87277945I-837345J751317D01*
G01*
G37*
D18*
X295228275Y-83900600D03*
G36*
G01*
X295111758Y-85602995D02*
X295110872Y-85602934D01*
G75*
G02*
X294065941Y-84403197I77403J1122334D01*
G01*
X294105941Y-83823197D01*
G75*
G02*
X295305678Y-82778266I1122334J-77403D01*
G01*
X295305678Y-82778266D01*
G75*
G02*
X296350609Y-83978003I-77403J-1122334D01*
G01*
X296310609Y-84558003D01*
G75*
G02*
X295110872Y-85602934I-1122334J77403D01*
G01*
G37*
D17*
X278718275Y-88980600D03*
X268558275Y-88980600D03*
D18*
X271138275Y-84980600D03*
D19*
X273638275Y-88980600D03*
G36*
G01*
X269076963Y-87277950D02*
X269076958Y-87277945D01*
G75*
G02*
X268990930Y-85689283I751317J837345D01*
G01*
X270300932Y-84229283D01*
G75*
G02*
X271889594Y-84143255I837345J-751317D01*
G01*
X271889594Y-84143255D01*
G75*
G02*
X271975622Y-85731917I-751317J-837345D01*
G01*
X270665620Y-87191917D01*
G75*
G02*
X269076958Y-87277945I-837345J751317D01*
G01*
G37*
D18*
X276178275Y-83900600D03*
G36*
G01*
X276061758Y-85602995D02*
X276060872Y-85602934D01*
G75*
G02*
X275015941Y-84403197I77403J1122334D01*
G01*
X275055941Y-83823197D01*
G75*
G02*
X276255678Y-82778266I1122334J-77403D01*
G01*
X276255678Y-82778266D01*
G75*
G02*
X277300609Y-83978003I-77403J-1122334D01*
G01*
X277260609Y-84558003D01*
G75*
G02*
X276060872Y-85602934I-1122334J77403D01*
G01*
G37*
D17*
X259668275Y-88980600D03*
X249508275Y-88980600D03*
D18*
X252088275Y-84980600D03*
D19*
X254588275Y-88980600D03*
G36*
G01*
X250026963Y-87277950D02*
X250026958Y-87277945D01*
G75*
G02*
X249940930Y-85689283I751317J837345D01*
G01*
X251250932Y-84229283D01*
G75*
G02*
X252839594Y-84143255I837345J-751317D01*
G01*
X252839594Y-84143255D01*
G75*
G02*
X252925622Y-85731917I-751317J-837345D01*
G01*
X251615620Y-87191917D01*
G75*
G02*
X250026958Y-87277945I-837345J751317D01*
G01*
G37*
D18*
X257128275Y-83900600D03*
G36*
G01*
X257011758Y-85602995D02*
X257010872Y-85602934D01*
G75*
G02*
X255965941Y-84403197I77403J1122334D01*
G01*
X256005941Y-83823197D01*
G75*
G02*
X257205678Y-82778266I1122334J-77403D01*
G01*
X257205678Y-82778266D01*
G75*
G02*
X258250609Y-83978003I-77403J-1122334D01*
G01*
X258210609Y-84558003D01*
G75*
G02*
X257010872Y-85602934I-1122334J77403D01*
G01*
G37*
D17*
X240618275Y-88980600D03*
X230458275Y-88980600D03*
D18*
X233038275Y-84980600D03*
D19*
X235538275Y-88980600D03*
G36*
G01*
X230976963Y-87277950D02*
X230976958Y-87277945D01*
G75*
G02*
X230890930Y-85689283I751317J837345D01*
G01*
X232200932Y-84229283D01*
G75*
G02*
X233789594Y-84143255I837345J-751317D01*
G01*
X233789594Y-84143255D01*
G75*
G02*
X233875622Y-85731917I-751317J-837345D01*
G01*
X232565620Y-87191917D01*
G75*
G02*
X230976958Y-87277945I-837345J751317D01*
G01*
G37*
D18*
X238078275Y-83900600D03*
G36*
G01*
X237961758Y-85602995D02*
X237960872Y-85602934D01*
G75*
G02*
X236915941Y-84403197I77403J1122334D01*
G01*
X236955941Y-83823197D01*
G75*
G02*
X238155678Y-82778266I1122334J-77403D01*
G01*
X238155678Y-82778266D01*
G75*
G02*
X239200609Y-83978003I-77403J-1122334D01*
G01*
X239160609Y-84558003D01*
G75*
G02*
X237960872Y-85602934I-1122334J77403D01*
G01*
G37*
D17*
X202518275Y-88980600D03*
X192358275Y-88980600D03*
D18*
X194938275Y-84980600D03*
D19*
X197438275Y-88980600D03*
G36*
G01*
X192876963Y-87277950D02*
X192876958Y-87277945D01*
G75*
G02*
X192790930Y-85689283I751317J837345D01*
G01*
X194100932Y-84229283D01*
G75*
G02*
X195689594Y-84143255I837345J-751317D01*
G01*
X195689594Y-84143255D01*
G75*
G02*
X195775622Y-85731917I-751317J-837345D01*
G01*
X194465620Y-87191917D01*
G75*
G02*
X192876958Y-87277945I-837345J751317D01*
G01*
G37*
D18*
X199978275Y-83900600D03*
G36*
G01*
X199861758Y-85602995D02*
X199860872Y-85602934D01*
G75*
G02*
X198815941Y-84403197I77403J1122334D01*
G01*
X198855941Y-83823197D01*
G75*
G02*
X200055678Y-82778266I1122334J-77403D01*
G01*
X200055678Y-82778266D01*
G75*
G02*
X201100609Y-83978003I-77403J-1122334D01*
G01*
X201060609Y-84558003D01*
G75*
G02*
X199860872Y-85602934I-1122334J77403D01*
G01*
G37*
D17*
X183466275Y-88980600D03*
X173306275Y-88980600D03*
D18*
X175886275Y-84980600D03*
D19*
X178386275Y-88980600D03*
G36*
G01*
X173824963Y-87277950D02*
X173824958Y-87277945D01*
G75*
G02*
X173738930Y-85689283I751317J837345D01*
G01*
X175048932Y-84229283D01*
G75*
G02*
X176637594Y-84143255I837345J-751317D01*
G01*
X176637594Y-84143255D01*
G75*
G02*
X176723622Y-85731917I-751317J-837345D01*
G01*
X175413620Y-87191917D01*
G75*
G02*
X173824958Y-87277945I-837345J751317D01*
G01*
G37*
D18*
X180926275Y-83900600D03*
G36*
G01*
X180809758Y-85602995D02*
X180808872Y-85602934D01*
G75*
G02*
X179763941Y-84403197I77403J1122334D01*
G01*
X179803941Y-83823197D01*
G75*
G02*
X181003678Y-82778266I1122334J-77403D01*
G01*
X181003678Y-82778266D01*
G75*
G02*
X182048609Y-83978003I-77403J-1122334D01*
G01*
X182008609Y-84558003D01*
G75*
G02*
X180808872Y-85602934I-1122334J77403D01*
G01*
G37*
D17*
X164416575Y-88980600D03*
X154256575Y-88980600D03*
D18*
X156836575Y-84980600D03*
D19*
X159336575Y-88980600D03*
G36*
G01*
X154775263Y-87277950D02*
X154775258Y-87277945D01*
G75*
G02*
X154689230Y-85689283I751317J837345D01*
G01*
X155999232Y-84229283D01*
G75*
G02*
X157587894Y-84143255I837345J-751317D01*
G01*
X157587894Y-84143255D01*
G75*
G02*
X157673922Y-85731917I-751317J-837345D01*
G01*
X156363920Y-87191917D01*
G75*
G02*
X154775258Y-87277945I-837345J751317D01*
G01*
G37*
D18*
X161876575Y-83900600D03*
G36*
G01*
X161760058Y-85602995D02*
X161759172Y-85602934D01*
G75*
G02*
X160714241Y-84403197I77403J1122334D01*
G01*
X160754241Y-83823197D01*
G75*
G02*
X161953978Y-82778266I1122334J-77403D01*
G01*
X161953978Y-82778266D01*
G75*
G02*
X162998909Y-83978003I-77403J-1122334D01*
G01*
X162958909Y-84558003D01*
G75*
G02*
X161759172Y-85602934I-1122334J77403D01*
G01*
G37*
D17*
X145367974Y-88980600D03*
X135207974Y-88980600D03*
D18*
X137787974Y-84980600D03*
D19*
X140287974Y-88980600D03*
G36*
G01*
X135726662Y-87277950D02*
X135726657Y-87277945D01*
G75*
G02*
X135640629Y-85689283I751317J837345D01*
G01*
X136950631Y-84229283D01*
G75*
G02*
X138539293Y-84143255I837345J-751317D01*
G01*
X138539293Y-84143255D01*
G75*
G02*
X138625321Y-85731917I-751317J-837345D01*
G01*
X137315319Y-87191917D01*
G75*
G02*
X135726657Y-87277945I-837345J751317D01*
G01*
G37*
D18*
X142827974Y-83900600D03*
G36*
G01*
X142711457Y-85602995D02*
X142710571Y-85602934D01*
G75*
G02*
X141665640Y-84403197I77403J1122334D01*
G01*
X141705640Y-83823197D01*
G75*
G02*
X142905377Y-82778266I1122334J-77403D01*
G01*
X142905377Y-82778266D01*
G75*
G02*
X143950308Y-83978003I-77403J-1122334D01*
G01*
X143910308Y-84558003D01*
G75*
G02*
X142710571Y-85602934I-1122334J77403D01*
G01*
G37*
D17*
X126317975Y-88980600D03*
X116157975Y-88980600D03*
D18*
X118737975Y-84980600D03*
D19*
X121237975Y-88980600D03*
G36*
G01*
X116676663Y-87277950D02*
X116676658Y-87277945D01*
G75*
G02*
X116590630Y-85689283I751317J837345D01*
G01*
X117900632Y-84229283D01*
G75*
G02*
X119489294Y-84143255I837345J-751317D01*
G01*
X119489294Y-84143255D01*
G75*
G02*
X119575322Y-85731917I-751317J-837345D01*
G01*
X118265320Y-87191917D01*
G75*
G02*
X116676658Y-87277945I-837345J751317D01*
G01*
G37*
D18*
X123777975Y-83900600D03*
G36*
G01*
X123661458Y-85602995D02*
X123660572Y-85602934D01*
G75*
G02*
X122615641Y-84403197I77403J1122334D01*
G01*
X122655641Y-83823197D01*
G75*
G02*
X123855378Y-82778266I1122334J-77403D01*
G01*
X123855378Y-82778266D01*
G75*
G02*
X124900309Y-83978003I-77403J-1122334D01*
G01*
X124860309Y-84558003D01*
G75*
G02*
X123660572Y-85602934I-1122334J77403D01*
G01*
G37*
D17*
X107267975Y-88980600D03*
X97107975Y-88980600D03*
D18*
X99687975Y-84980600D03*
D19*
X102187975Y-88980600D03*
G36*
G01*
X97626663Y-87277950D02*
X97626658Y-87277945D01*
G75*
G02*
X97540630Y-85689283I751317J837345D01*
G01*
X98850632Y-84229283D01*
G75*
G02*
X100439294Y-84143255I837345J-751317D01*
G01*
X100439294Y-84143255D01*
G75*
G02*
X100525322Y-85731917I-751317J-837345D01*
G01*
X99215320Y-87191917D01*
G75*
G02*
X97626658Y-87277945I-837345J751317D01*
G01*
G37*
D18*
X104727975Y-83900600D03*
G36*
G01*
X104611458Y-85602995D02*
X104610572Y-85602934D01*
G75*
G02*
X103565641Y-84403197I77403J1122334D01*
G01*
X103605641Y-83823197D01*
G75*
G02*
X104805378Y-82778266I1122334J-77403D01*
G01*
X104805378Y-82778266D01*
G75*
G02*
X105850309Y-83978003I-77403J-1122334D01*
G01*
X105810309Y-84558003D01*
G75*
G02*
X104610572Y-85602934I-1122334J77403D01*
G01*
G37*
D17*
X88217975Y-88980600D03*
X78057975Y-88980600D03*
D18*
X80637975Y-84980600D03*
D19*
X83137975Y-88980600D03*
G36*
G01*
X78576663Y-87277950D02*
X78576658Y-87277945D01*
G75*
G02*
X78490630Y-85689283I751317J837345D01*
G01*
X79800632Y-84229283D01*
G75*
G02*
X81389294Y-84143255I837345J-751317D01*
G01*
X81389294Y-84143255D01*
G75*
G02*
X81475322Y-85731917I-751317J-837345D01*
G01*
X80165320Y-87191917D01*
G75*
G02*
X78576658Y-87277945I-837345J751317D01*
G01*
G37*
D18*
X85677975Y-83900600D03*
G36*
G01*
X85561458Y-85602995D02*
X85560572Y-85602934D01*
G75*
G02*
X84515641Y-84403197I77403J1122334D01*
G01*
X84555641Y-83823197D01*
G75*
G02*
X85755378Y-82778266I1122334J-77403D01*
G01*
X85755378Y-82778266D01*
G75*
G02*
X86800309Y-83978003I-77403J-1122334D01*
G01*
X86760309Y-84558003D01*
G75*
G02*
X85560572Y-85602934I-1122334J77403D01*
G01*
G37*
D17*
X69167925Y-88980600D03*
X59007925Y-88980600D03*
D18*
X61587925Y-84980600D03*
D19*
X64087925Y-88980600D03*
G36*
G01*
X59526613Y-87277950D02*
X59526608Y-87277945D01*
G75*
G02*
X59440580Y-85689283I751317J837345D01*
G01*
X60750582Y-84229283D01*
G75*
G02*
X62339244Y-84143255I837345J-751317D01*
G01*
X62339244Y-84143255D01*
G75*
G02*
X62425272Y-85731917I-751317J-837345D01*
G01*
X61115270Y-87191917D01*
G75*
G02*
X59526608Y-87277945I-837345J751317D01*
G01*
G37*
D18*
X66627925Y-83900600D03*
G36*
G01*
X66511408Y-85602995D02*
X66510522Y-85602934D01*
G75*
G02*
X65465591Y-84403197I77403J1122334D01*
G01*
X65505591Y-83823197D01*
G75*
G02*
X66705328Y-82778266I1122334J-77403D01*
G01*
X66705328Y-82778266D01*
G75*
G02*
X67750259Y-83978003I-77403J-1122334D01*
G01*
X67710259Y-84558003D01*
G75*
G02*
X66510522Y-85602934I-1122334J77403D01*
G01*
G37*
D25*
X132715000Y-163195000D03*
D26*
X132715000Y-160655000D03*
X130175000Y-163195000D03*
X130175000Y-160655000D03*
X127635000Y-163195000D03*
X127635000Y-160655000D03*
G36*
G01*
X201285000Y-92573000D02*
X200035000Y-92573000D01*
G75*
G02*
X199785000Y-92323000I0J250000D01*
G01*
X199785000Y-91573000D01*
G75*
G02*
X200035000Y-91323000I250000J0D01*
G01*
X201285000Y-91323000D01*
G75*
G02*
X201535000Y-91573000I0J-250000D01*
G01*
X201535000Y-92323000D01*
G75*
G02*
X201285000Y-92573000I-250000J0D01*
G01*
G37*
G36*
G01*
X201285000Y-95373000D02*
X200035000Y-95373000D01*
G75*
G02*
X199785000Y-95123000I0J250000D01*
G01*
X199785000Y-94373000D01*
G75*
G02*
X200035000Y-94123000I250000J0D01*
G01*
X201285000Y-94123000D01*
G75*
G02*
X201535000Y-94373000I0J-250000D01*
G01*
X201535000Y-95123000D01*
G75*
G02*
X201285000Y-95373000I-250000J0D01*
G01*
G37*
D27*
X341312500Y-164243750D03*
X341312500Y-167543750D03*
X341312500Y-145193750D03*
X341312500Y-148493750D03*
X341312500Y-126143750D03*
X341312500Y-129443750D03*
X341312500Y-107093750D03*
X341312500Y-110393750D03*
X341312500Y-88521000D03*
X341312500Y-91821000D03*
X322262500Y-164243750D03*
X322262500Y-167543750D03*
X322262500Y-145193750D03*
X322262500Y-148493750D03*
X334962500Y-126143750D03*
X334962500Y-129443750D03*
X334962500Y-107093750D03*
X334962500Y-110393750D03*
X338137500Y-88521000D03*
X338137500Y-91821000D03*
X303212500Y-164243750D03*
X303212500Y-167543750D03*
X313531250Y-145193750D03*
X313531250Y-148493750D03*
X310356250Y-107093750D03*
X310356250Y-110393750D03*
X300831250Y-88521000D03*
X300831250Y-91821000D03*
X284162500Y-164243750D03*
X284162500Y-167543750D03*
X286543750Y-145193750D03*
X286543750Y-148493750D03*
X296068750Y-126143750D03*
X296068750Y-129443750D03*
X291306250Y-107093750D03*
X291306250Y-110393750D03*
X281781250Y-88521000D03*
X281781250Y-91821000D03*
X265112500Y-164243750D03*
X265112500Y-167543750D03*
X267493750Y-145193750D03*
X267493750Y-148493750D03*
X277018750Y-126143750D03*
X277018750Y-129443750D03*
X272256250Y-107093750D03*
X272256250Y-110393750D03*
X262731250Y-88521000D03*
X262731250Y-91821000D03*
X246062500Y-164243750D03*
X246062500Y-167543750D03*
X248443750Y-145193750D03*
X248443750Y-148493750D03*
X257968750Y-126143750D03*
X257968750Y-129443750D03*
X253206250Y-107093750D03*
X253206250Y-110393750D03*
X243681250Y-88521000D03*
X243681250Y-91821000D03*
X229393750Y-145193750D03*
X229393750Y-148493750D03*
X238918750Y-126143750D03*
X238918750Y-129443750D03*
X234156250Y-107093750D03*
X234156250Y-110393750D03*
X224631250Y-88521000D03*
X224631250Y-91821000D03*
X210343750Y-145193750D03*
X210343750Y-148493750D03*
X219868750Y-126143750D03*
X219868750Y-129443750D03*
X215106250Y-107093750D03*
X215106250Y-110393750D03*
X189357000Y-88520000D03*
X189357000Y-91820000D03*
X191293750Y-145193750D03*
X191293750Y-148493750D03*
X200818750Y-126143750D03*
X200818750Y-129443750D03*
X196056250Y-107093750D03*
X196056250Y-110393750D03*
X186531250Y-88521000D03*
X186531250Y-91821000D03*
X195262500Y-164211000D03*
X195262500Y-167511000D03*
X172243750Y-145193750D03*
X172243750Y-148493750D03*
X181768750Y-126143750D03*
X181768750Y-129443750D03*
X177006250Y-107093750D03*
X177006250Y-110393750D03*
X167481250Y-88521000D03*
X167481250Y-91821000D03*
X153193750Y-145193750D03*
X153193750Y-148493750D03*
X162718750Y-126143750D03*
X162718750Y-129443750D03*
X157956250Y-107093750D03*
X157956250Y-110393750D03*
X148431250Y-88519000D03*
X148431250Y-91819000D03*
X134143750Y-145193750D03*
X134143750Y-148493750D03*
X143668750Y-126143750D03*
X143668750Y-129443750D03*
X138906250Y-107093750D03*
X138906250Y-110393750D03*
X129381250Y-88519000D03*
X129381250Y-91819000D03*
X123031250Y-164243750D03*
X123031250Y-167543750D03*
X115093750Y-145193750D03*
X115093750Y-148493750D03*
X124618750Y-126143750D03*
X124618750Y-129443750D03*
X119856250Y-107093750D03*
X119856250Y-110393750D03*
X110331250Y-88519000D03*
X110331250Y-91819000D03*
X99218750Y-164243750D03*
X99218750Y-167543750D03*
X105568750Y-126143750D03*
X105568750Y-129443750D03*
X100806250Y-107093750D03*
X100806250Y-110393750D03*
X91281250Y-88519000D03*
X91281250Y-91819000D03*
X75406250Y-164243750D03*
X75406250Y-167543750D03*
X92868750Y-145193750D03*
X92868750Y-148493750D03*
X80168750Y-126206250D03*
X80168750Y-129506250D03*
X77787500Y-107093750D03*
X77787500Y-110393750D03*
X72231250Y-88519000D03*
X72231250Y-91819000D03*
X203200000Y-94994000D03*
X203200000Y-91694000D03*
X210693000Y-94994000D03*
X210693000Y-91694000D03*
G36*
G01*
X221993000Y-172118000D02*
X221993000Y-173068000D01*
G75*
G02*
X221743000Y-173318000I-250000J0D01*
G01*
X221243000Y-173318000D01*
G75*
G02*
X220993000Y-173068000I0J250000D01*
G01*
X220993000Y-172118000D01*
G75*
G02*
X221243000Y-171868000I250000J0D01*
G01*
X221743000Y-171868000D01*
G75*
G02*
X221993000Y-172118000I0J-250000D01*
G01*
G37*
G36*
G01*
X223893000Y-172118000D02*
X223893000Y-173068000D01*
G75*
G02*
X223643000Y-173318000I-250000J0D01*
G01*
X223143000Y-173318000D01*
G75*
G02*
X222893000Y-173068000I0J250000D01*
G01*
X222893000Y-172118000D01*
G75*
G02*
X223143000Y-171868000I250000J0D01*
G01*
X223643000Y-171868000D01*
G75*
G02*
X223893000Y-172118000I0J-250000D01*
G01*
G37*
G36*
G01*
X213327000Y-161917000D02*
X212377000Y-161917000D01*
G75*
G02*
X212127000Y-161667000I0J250000D01*
G01*
X212127000Y-161167000D01*
G75*
G02*
X212377000Y-160917000I250000J0D01*
G01*
X213327000Y-160917000D01*
G75*
G02*
X213577000Y-161167000I0J-250000D01*
G01*
X213577000Y-161667000D01*
G75*
G02*
X213327000Y-161917000I-250000J0D01*
G01*
G37*
G36*
G01*
X213327000Y-163817000D02*
X212377000Y-163817000D01*
G75*
G02*
X212127000Y-163567000I0J250000D01*
G01*
X212127000Y-163067000D01*
G75*
G02*
X212377000Y-162817000I250000J0D01*
G01*
X213327000Y-162817000D01*
G75*
G02*
X213577000Y-163067000I0J-250000D01*
G01*
X213577000Y-163567000D01*
G75*
G02*
X213327000Y-163817000I-250000J0D01*
G01*
G37*
G36*
G01*
X206049500Y-159227500D02*
X206049500Y-160177500D01*
G75*
G02*
X205799500Y-160427500I-250000J0D01*
G01*
X205299500Y-160427500D01*
G75*
G02*
X205049500Y-160177500I0J250000D01*
G01*
X205049500Y-159227500D01*
G75*
G02*
X205299500Y-158977500I250000J0D01*
G01*
X205799500Y-158977500D01*
G75*
G02*
X206049500Y-159227500I0J-250000D01*
G01*
G37*
G36*
G01*
X207949500Y-159227500D02*
X207949500Y-160177500D01*
G75*
G02*
X207699500Y-160427500I-250000J0D01*
G01*
X207199500Y-160427500D01*
G75*
G02*
X206949500Y-160177500I0J250000D01*
G01*
X206949500Y-159227500D01*
G75*
G02*
X207199500Y-158977500I250000J0D01*
G01*
X207699500Y-158977500D01*
G75*
G02*
X207949500Y-159227500I0J-250000D01*
G01*
G37*
G36*
G01*
X206952000Y-154335500D02*
X206952000Y-153385500D01*
G75*
G02*
X207202000Y-153135500I250000J0D01*
G01*
X207702000Y-153135500D01*
G75*
G02*
X207952000Y-153385500I0J-250000D01*
G01*
X207952000Y-154335500D01*
G75*
G02*
X207702000Y-154585500I-250000J0D01*
G01*
X207202000Y-154585500D01*
G75*
G02*
X206952000Y-154335500I0J250000D01*
G01*
G37*
G36*
G01*
X205052000Y-154335500D02*
X205052000Y-153385500D01*
G75*
G02*
X205302000Y-153135500I250000J0D01*
G01*
X205802000Y-153135500D01*
G75*
G02*
X206052000Y-153385500I0J-250000D01*
G01*
X206052000Y-154335500D01*
G75*
G02*
X205802000Y-154585500I-250000J0D01*
G01*
X205302000Y-154585500D01*
G75*
G02*
X205052000Y-154335500I0J250000D01*
G01*
G37*
G36*
G01*
X222766000Y-154145000D02*
X222766000Y-153195000D01*
G75*
G02*
X223016000Y-152945000I250000J0D01*
G01*
X223516000Y-152945000D01*
G75*
G02*
X223766000Y-153195000I0J-250000D01*
G01*
X223766000Y-154145000D01*
G75*
G02*
X223516000Y-154395000I-250000J0D01*
G01*
X223016000Y-154395000D01*
G75*
G02*
X222766000Y-154145000I0J250000D01*
G01*
G37*
G36*
G01*
X220866000Y-154145000D02*
X220866000Y-153195000D01*
G75*
G02*
X221116000Y-152945000I250000J0D01*
G01*
X221616000Y-152945000D01*
G75*
G02*
X221866000Y-153195000I0J-250000D01*
G01*
X221866000Y-154145000D01*
G75*
G02*
X221616000Y-154395000I-250000J0D01*
G01*
X221116000Y-154395000D01*
G75*
G02*
X220866000Y-154145000I0J250000D01*
G01*
G37*
M02*
