M48
; DRILL file {KiCad (5.1.10)-1} date 06/12/21 19:04:12
; FORMAT={-:-/ absolute / metric / decimal}
; #@! TF.CreationDate,2021-06-12T19:04:12-06:00
; #@! TF.GenerationSoftware,Kicad,Pcbnew,(5.1.10)-1
; #@! TF.FileFunction,Plated,1,2,PTH
FMAT,2
METRIC
T1C0.400
T2C0.600
T3C1.000
T4C1.470
%
G90
G05
T1
X102.743Y-168.402
X127.635Y-168.275
X154.305Y-163.703
X156.464Y-169.799
X157.099Y-159.385
X158.242Y-155.321
X159.131Y-152.019
X160.274Y-154.94
X161.036Y-158.369
X167.64Y-139.319
X168.402Y-138.43
X190.754Y-168.402
X194.945Y-91.821
X195.199Y-170.561
X199.644Y-97.028
X200.152Y-160.147
X202.819Y-86.995
X203.835Y-86.741
X203.962Y-164.004
X204.724Y-98.933
X205.486Y-85.725
X208.623Y-85.598
X208.788Y-110.363
X209.423Y-86.36
X209.423Y-97.028
X210.947Y-87.376
X211.709Y-110.363
X212.598Y-147.701
X213.106Y-129.413
X216.662Y-129.413
X216.789Y-155.194
X217.927Y-153.676
X218.567Y-152.908
X221.107Y-155.448
X221.361Y-91.821
X221.361Y-149.606
X222.758Y-138.43
X223.266Y-149.479
X223.52Y-170.942
X224.056Y-152.146
X225.171Y-151.476
X227.076Y-155.448
X227.203Y-150.749
X232.918Y-163.83
X249.682Y-96.012
X251.587Y-149.606
X252.73Y-149.606
X254.635Y-167.774
X258.445Y-114.427
X262.128Y-168.402
X281.432Y-168.402
X300.228Y-168.275
X319.151Y-168.402
X338.328Y-168.402
T3
X127.635Y-160.655
X127.635Y-163.195
X130.175Y-160.655
X130.175Y-163.195
X132.715Y-160.655
X132.715Y-163.195
T4
X60.278Y-86.441
X61.588Y-84.981
X62.659Y-162.641
X63.969Y-161.181
X65.04Y-105.491
X66.35Y-104.031
X66.588Y-84.481
X66.628Y-83.901
X67.42Y-124.541
X68.73Y-123.081
X68.969Y-160.681
X69.009Y-160.101
X71.35Y-103.531
X71.39Y-102.951
X72.184Y-143.591
X73.494Y-142.131
X73.73Y-122.581
X73.77Y-122.001
X78.494Y-141.631
X78.534Y-141.051
X79.328Y-86.441
X80.638Y-84.981
X85.638Y-84.481
X85.678Y-83.901
X86.47Y-162.641
X87.78Y-161.181
X88.853Y-105.491
X90.163Y-104.031
X92.78Y-160.681
X92.82Y-160.101
X93.615Y-124.541
X94.925Y-123.081
X95.163Y-103.531
X95.203Y-102.951
X98.378Y-86.441
X99.688Y-84.981
X99.925Y-122.581
X99.965Y-122.001
X103.14Y-143.591
X104.45Y-142.131
X104.688Y-84.481
X104.728Y-83.901
X107.903Y-105.491
X109.213Y-104.031
X109.45Y-141.631
X109.49Y-141.051
X110.284Y-162.641
X111.594Y-161.181
X112.665Y-124.541
X113.975Y-123.081
X114.213Y-103.531
X114.253Y-102.951
X116.594Y-160.681
X116.634Y-160.101
X117.428Y-86.441
X118.738Y-84.981
X118.975Y-122.581
X119.015Y-122.001
X122.19Y-143.591
X123.5Y-142.131
X123.738Y-84.481
X123.778Y-83.901
X126.953Y-105.491
X128.263Y-104.031
X128.5Y-141.631
X128.54Y-141.051
X131.715Y-124.541
X133.025Y-123.081
X133.263Y-103.531
X133.303Y-102.951
X136.478Y-86.441
X137.788Y-84.981
X138.025Y-122.581
X138.065Y-122.001
X141.24Y-143.591
X142.55Y-142.131
X142.788Y-84.481
X142.828Y-83.901
X146.003Y-105.491
X147.313Y-104.031
X147.55Y-141.631
X147.59Y-141.051
X150.765Y-124.541
X152.075Y-123.081
X152.313Y-103.531
X152.353Y-102.951
X155.527Y-86.441
X156.837Y-84.981
X157.075Y-122.581
X157.115Y-122.001
X160.29Y-143.591
X161.6Y-142.131
X161.837Y-84.481
X161.877Y-83.901
X165.053Y-105.491
X166.363Y-104.031
X166.6Y-141.631
X166.64Y-141.051
X169.815Y-124.541
X171.125Y-123.081
X171.363Y-103.531
X171.403Y-102.951
X174.576Y-86.441
X175.886Y-84.981
X176.125Y-122.581
X176.165Y-122.001
X179.34Y-143.591
X180.65Y-142.131
X180.886Y-84.481
X180.926Y-83.901
X181.72Y-162.641
X183.03Y-161.181
X184.103Y-105.491
X185.413Y-104.031
X185.65Y-141.631
X185.69Y-141.051
X188.03Y-160.681
X188.07Y-160.101
X188.865Y-124.541
X190.175Y-123.081
X190.413Y-103.531
X190.453Y-102.951
X193.628Y-86.441
X194.938Y-84.981
X195.175Y-122.581
X195.215Y-122.001
X198.39Y-143.591
X199.7Y-142.131
X199.938Y-84.481
X199.978Y-83.901
X203.153Y-105.491
X204.463Y-104.031
X204.7Y-141.631
X204.74Y-141.051
X207.915Y-124.541
X209.225Y-123.081
X209.463Y-103.531
X209.503Y-102.951
X212.678Y-86.441
X213.988Y-84.981
X214.225Y-122.581
X214.265Y-122.001
X217.44Y-143.591
X218.75Y-142.131
X218.988Y-84.481
X219.028Y-83.901
X222.203Y-105.491
X223.513Y-104.031
X223.75Y-141.631
X223.79Y-141.051
X226.965Y-124.541
X228.275Y-123.081
X228.513Y-103.531
X228.553Y-102.951
X231.728Y-86.441
X233.038Y-84.981
X233.275Y-122.581
X233.315Y-122.001
X236.49Y-143.591
X237.8Y-142.131
X238.038Y-84.481
X238.078Y-83.901
X241.253Y-105.491
X242.563Y-104.031
X242.8Y-141.631
X242.84Y-141.051
X246.015Y-124.541
X247.325Y-123.081
X247.563Y-103.531
X247.603Y-102.951
X250.778Y-86.441
X250.778Y-162.641
X252.088Y-84.981
X252.088Y-161.181
X252.325Y-122.581
X252.365Y-122.001
X255.54Y-143.591
X256.85Y-142.131
X257.088Y-84.481
X257.088Y-160.681
X257.128Y-83.901
X257.128Y-160.101
X260.303Y-105.491
X261.613Y-104.031
X261.85Y-141.631
X261.89Y-141.051
X265.065Y-124.541
X266.375Y-123.081
X266.613Y-103.531
X266.653Y-102.951
X269.828Y-86.441
X269.828Y-162.641
X271.138Y-84.981
X271.138Y-161.181
X271.375Y-122.581
X271.415Y-122.001
X274.59Y-143.591
X275.9Y-142.131
X276.138Y-84.481
X276.138Y-160.681
X276.178Y-83.901
X276.178Y-160.101
X279.353Y-105.491
X280.663Y-104.031
X280.9Y-141.631
X280.94Y-141.051
X284.115Y-124.541
X285.425Y-123.081
X285.663Y-103.531
X285.703Y-102.951
X288.878Y-86.441
X288.878Y-162.641
X290.188Y-84.981
X290.188Y-161.181
X290.425Y-122.581
X290.465Y-122.001
X295.188Y-84.481
X295.188Y-160.681
X295.228Y-83.901
X295.228Y-160.101
X298.403Y-105.491
X299.713Y-104.031
X300.784Y-143.591
X302.094Y-142.131
X304.713Y-103.531
X304.753Y-102.951
X307.094Y-141.631
X307.134Y-141.051
X307.928Y-162.641
X309.238Y-161.181
X314.238Y-160.681
X314.278Y-160.101
X315.07Y-124.541
X316.38Y-123.081
X317.453Y-86.441
X318.763Y-84.981
X321.38Y-122.581
X321.42Y-122.001
X322.215Y-105.491
X323.525Y-104.031
X323.763Y-84.481
X323.803Y-83.901
X326.978Y-143.591
X326.978Y-162.641
X328.288Y-142.131
X328.288Y-161.181
X328.525Y-103.531
X328.565Y-102.951
X333.288Y-141.631
X333.288Y-160.681
X333.328Y-141.051
X333.328Y-160.101
X346.028Y-86.441
X346.028Y-105.491
X346.028Y-124.541
X346.028Y-143.591
X346.028Y-162.641
X347.338Y-84.981
X347.338Y-104.031
X347.338Y-123.081
X347.338Y-142.131
X347.338Y-161.181
X352.338Y-84.481
X352.338Y-103.531
X352.338Y-122.581
X352.338Y-141.631
X352.338Y-160.681
X352.378Y-83.901
X352.378Y-102.951
X352.378Y-122.001
X352.378Y-141.051
X352.378Y-160.101
T2
G00X202.643Y-77.865
M15
G01X202.643Y-78.465
M16
G05
G00X202.643Y-81.795
M15
G01X202.643Y-82.895
M16
G05
G00X211.283Y-77.865
M15
G01X211.283Y-78.465
M16
G05
G00X211.283Y-81.795
M15
G01X211.283Y-82.895
M16
G05
T0
M30
