G04 #@! TF.GenerationSoftware,KiCad,Pcbnew,(5.1.10)-1*
G04 #@! TF.CreationDate,2021-06-12T19:03:55-06:00*
G04 #@! TF.ProjectId,pcb,7063622e-6b69-4636-9164-5f7063625858,rev?*
G04 #@! TF.SameCoordinates,Original*
G04 #@! TF.FileFunction,Copper,L1,Top*
G04 #@! TF.FilePolarity,Positive*
%FSLAX46Y46*%
G04 Gerber Fmt 4.6, Leading zero omitted, Abs format (unit mm)*
G04 Created by KiCad (PCBNEW (5.1.10)-1) date 2021-06-12 19:03:55*
%MOMM*%
%LPD*%
G01*
G04 APERTURE LIST*
G04 #@! TA.AperFunction,ComponentPad*
%ADD10O,1.000000X2.100000*%
G04 #@! TD*
G04 #@! TA.AperFunction,ComponentPad*
%ADD11O,1.000000X1.600000*%
G04 #@! TD*
G04 #@! TA.AperFunction,ComponentPad*
%ADD12C,2.250000*%
G04 #@! TD*
G04 #@! TA.AperFunction,ComponentPad*
%ADD13R,1.700000X1.700000*%
G04 #@! TD*
G04 #@! TA.AperFunction,ComponentPad*
%ADD14C,1.700000*%
G04 #@! TD*
G04 #@! TA.AperFunction,ViaPad*
%ADD15C,0.800000*%
G04 #@! TD*
G04 #@! TA.AperFunction,Conductor*
%ADD16C,0.381000*%
G04 #@! TD*
G04 #@! TA.AperFunction,Conductor*
%ADD17C,0.254000*%
G04 #@! TD*
G04 APERTURE END LIST*
D10*
X202643075Y-82345000D03*
X211283075Y-82345000D03*
D11*
X202643075Y-78165000D03*
X211283075Y-78165000D03*
D12*
X213988275Y-84980600D03*
G04 #@! TA.AperFunction,ComponentPad*
G36*
G01*
X211926963Y-87277950D02*
X211926958Y-87277945D01*
G75*
G02*
X211840930Y-85689283I751317J837345D01*
G01*
X213150932Y-84229283D01*
G75*
G02*
X214739594Y-84143255I837345J-751317D01*
G01*
X214739594Y-84143255D01*
G75*
G02*
X214825622Y-85731917I-751317J-837345D01*
G01*
X213515620Y-87191917D01*
G75*
G02*
X211926958Y-87277945I-837345J751317D01*
G01*
G37*
G04 #@! TD.AperFunction*
X219028275Y-83900600D03*
G04 #@! TA.AperFunction,ComponentPad*
G36*
G01*
X218911758Y-85602995D02*
X218910872Y-85602934D01*
G75*
G02*
X217865941Y-84403197I77403J1122334D01*
G01*
X217905941Y-83823197D01*
G75*
G02*
X219105678Y-82778266I1122334J-77403D01*
G01*
X219105678Y-82778266D01*
G75*
G02*
X220150609Y-83978003I-77403J-1122334D01*
G01*
X220110609Y-84558003D01*
G75*
G02*
X218910872Y-85602934I-1122334J77403D01*
G01*
G37*
G04 #@! TD.AperFunction*
X347338275Y-104030601D03*
G04 #@! TA.AperFunction,ComponentPad*
G36*
G01*
X345276963Y-106327951D02*
X345276958Y-106327946D01*
G75*
G02*
X345190930Y-104739284I751317J837345D01*
G01*
X346500932Y-103279284D01*
G75*
G02*
X348089594Y-103193256I837345J-751317D01*
G01*
X348089594Y-103193256D01*
G75*
G02*
X348175622Y-104781918I-751317J-837345D01*
G01*
X346865620Y-106241918D01*
G75*
G02*
X345276958Y-106327946I-837345J751317D01*
G01*
G37*
G04 #@! TD.AperFunction*
X352378275Y-102950601D03*
G04 #@! TA.AperFunction,ComponentPad*
G36*
G01*
X352261758Y-104652996D02*
X352260872Y-104652935D01*
G75*
G02*
X351215941Y-103453198I77403J1122334D01*
G01*
X351255941Y-102873198D01*
G75*
G02*
X352455678Y-101828267I1122334J-77403D01*
G01*
X352455678Y-101828267D01*
G75*
G02*
X353500609Y-103028004I-77403J-1122334D01*
G01*
X353460609Y-103608004D01*
G75*
G02*
X352260872Y-104652935I-1122334J77403D01*
G01*
G37*
G04 #@! TD.AperFunction*
X323525275Y-104030601D03*
G04 #@! TA.AperFunction,ComponentPad*
G36*
G01*
X321463963Y-106327951D02*
X321463958Y-106327946D01*
G75*
G02*
X321377930Y-104739284I751317J837345D01*
G01*
X322687932Y-103279284D01*
G75*
G02*
X324276594Y-103193256I837345J-751317D01*
G01*
X324276594Y-103193256D01*
G75*
G02*
X324362622Y-104781918I-751317J-837345D01*
G01*
X323052620Y-106241918D01*
G75*
G02*
X321463958Y-106327946I-837345J751317D01*
G01*
G37*
G04 #@! TD.AperFunction*
X328565275Y-102950601D03*
G04 #@! TA.AperFunction,ComponentPad*
G36*
G01*
X328448758Y-104652996D02*
X328447872Y-104652935D01*
G75*
G02*
X327402941Y-103453198I77403J1122334D01*
G01*
X327442941Y-102873198D01*
G75*
G02*
X328642678Y-101828267I1122334J-77403D01*
G01*
X328642678Y-101828267D01*
G75*
G02*
X329687609Y-103028004I-77403J-1122334D01*
G01*
X329647609Y-103608004D01*
G75*
G02*
X328447872Y-104652935I-1122334J77403D01*
G01*
G37*
G04 #@! TD.AperFunction*
X347338275Y-161180760D03*
G04 #@! TA.AperFunction,ComponentPad*
G36*
G01*
X345276963Y-163478110D02*
X345276958Y-163478105D01*
G75*
G02*
X345190930Y-161889443I751317J837345D01*
G01*
X346500932Y-160429443D01*
G75*
G02*
X348089594Y-160343415I837345J-751317D01*
G01*
X348089594Y-160343415D01*
G75*
G02*
X348175622Y-161932077I-751317J-837345D01*
G01*
X346865620Y-163392077D01*
G75*
G02*
X345276958Y-163478105I-837345J751317D01*
G01*
G37*
G04 #@! TD.AperFunction*
X352378275Y-160100760D03*
G04 #@! TA.AperFunction,ComponentPad*
G36*
G01*
X352261758Y-161803155D02*
X352260872Y-161803094D01*
G75*
G02*
X351215941Y-160603357I77403J1122334D01*
G01*
X351255941Y-160023357D01*
G75*
G02*
X352455678Y-158978426I1122334J-77403D01*
G01*
X352455678Y-158978426D01*
G75*
G02*
X353500609Y-160178163I-77403J-1122334D01*
G01*
X353460609Y-160758163D01*
G75*
G02*
X352260872Y-161803094I-1122334J77403D01*
G01*
G37*
G04 #@! TD.AperFunction*
X328288275Y-161180760D03*
G04 #@! TA.AperFunction,ComponentPad*
G36*
G01*
X326226963Y-163478110D02*
X326226958Y-163478105D01*
G75*
G02*
X326140930Y-161889443I751317J837345D01*
G01*
X327450932Y-160429443D01*
G75*
G02*
X329039594Y-160343415I837345J-751317D01*
G01*
X329039594Y-160343415D01*
G75*
G02*
X329125622Y-161932077I-751317J-837345D01*
G01*
X327815620Y-163392077D01*
G75*
G02*
X326226958Y-163478105I-837345J751317D01*
G01*
G37*
G04 #@! TD.AperFunction*
X333328275Y-160100760D03*
G04 #@! TA.AperFunction,ComponentPad*
G36*
G01*
X333211758Y-161803155D02*
X333210872Y-161803094D01*
G75*
G02*
X332165941Y-160603357I77403J1122334D01*
G01*
X332205941Y-160023357D01*
G75*
G02*
X333405678Y-158978426I1122334J-77403D01*
G01*
X333405678Y-158978426D01*
G75*
G02*
X334450609Y-160178163I-77403J-1122334D01*
G01*
X334410609Y-160758163D01*
G75*
G02*
X333210872Y-161803094I-1122334J77403D01*
G01*
G37*
G04 #@! TD.AperFunction*
X309238275Y-161180760D03*
G04 #@! TA.AperFunction,ComponentPad*
G36*
G01*
X307176963Y-163478110D02*
X307176958Y-163478105D01*
G75*
G02*
X307090930Y-161889443I751317J837345D01*
G01*
X308400932Y-160429443D01*
G75*
G02*
X309989594Y-160343415I837345J-751317D01*
G01*
X309989594Y-160343415D01*
G75*
G02*
X310075622Y-161932077I-751317J-837345D01*
G01*
X308765620Y-163392077D01*
G75*
G02*
X307176958Y-163478105I-837345J751317D01*
G01*
G37*
G04 #@! TD.AperFunction*
X314278275Y-160100760D03*
G04 #@! TA.AperFunction,ComponentPad*
G36*
G01*
X314161758Y-161803155D02*
X314160872Y-161803094D01*
G75*
G02*
X313115941Y-160603357I77403J1122334D01*
G01*
X313155941Y-160023357D01*
G75*
G02*
X314355678Y-158978426I1122334J-77403D01*
G01*
X314355678Y-158978426D01*
G75*
G02*
X315400609Y-160178163I-77403J-1122334D01*
G01*
X315360609Y-160758163D01*
G75*
G02*
X314160872Y-161803094I-1122334J77403D01*
G01*
G37*
G04 #@! TD.AperFunction*
X290188275Y-161180760D03*
G04 #@! TA.AperFunction,ComponentPad*
G36*
G01*
X288126963Y-163478110D02*
X288126958Y-163478105D01*
G75*
G02*
X288040930Y-161889443I751317J837345D01*
G01*
X289350932Y-160429443D01*
G75*
G02*
X290939594Y-160343415I837345J-751317D01*
G01*
X290939594Y-160343415D01*
G75*
G02*
X291025622Y-161932077I-751317J-837345D01*
G01*
X289715620Y-163392077D01*
G75*
G02*
X288126958Y-163478105I-837345J751317D01*
G01*
G37*
G04 #@! TD.AperFunction*
X295228275Y-160100760D03*
G04 #@! TA.AperFunction,ComponentPad*
G36*
G01*
X295111758Y-161803155D02*
X295110872Y-161803094D01*
G75*
G02*
X294065941Y-160603357I77403J1122334D01*
G01*
X294105941Y-160023357D01*
G75*
G02*
X295305678Y-158978426I1122334J-77403D01*
G01*
X295305678Y-158978426D01*
G75*
G02*
X296350609Y-160178163I-77403J-1122334D01*
G01*
X296310609Y-160758163D01*
G75*
G02*
X295110872Y-161803094I-1122334J77403D01*
G01*
G37*
G04 #@! TD.AperFunction*
X271138275Y-161180760D03*
G04 #@! TA.AperFunction,ComponentPad*
G36*
G01*
X269076963Y-163478110D02*
X269076958Y-163478105D01*
G75*
G02*
X268990930Y-161889443I751317J837345D01*
G01*
X270300932Y-160429443D01*
G75*
G02*
X271889594Y-160343415I837345J-751317D01*
G01*
X271889594Y-160343415D01*
G75*
G02*
X271975622Y-161932077I-751317J-837345D01*
G01*
X270665620Y-163392077D01*
G75*
G02*
X269076958Y-163478105I-837345J751317D01*
G01*
G37*
G04 #@! TD.AperFunction*
X276178275Y-160100760D03*
G04 #@! TA.AperFunction,ComponentPad*
G36*
G01*
X276061758Y-161803155D02*
X276060872Y-161803094D01*
G75*
G02*
X275015941Y-160603357I77403J1122334D01*
G01*
X275055941Y-160023357D01*
G75*
G02*
X276255678Y-158978426I1122334J-77403D01*
G01*
X276255678Y-158978426D01*
G75*
G02*
X277300609Y-160178163I-77403J-1122334D01*
G01*
X277260609Y-160758163D01*
G75*
G02*
X276060872Y-161803094I-1122334J77403D01*
G01*
G37*
G04 #@! TD.AperFunction*
X252088275Y-161180760D03*
G04 #@! TA.AperFunction,ComponentPad*
G36*
G01*
X250026963Y-163478110D02*
X250026958Y-163478105D01*
G75*
G02*
X249940930Y-161889443I751317J837345D01*
G01*
X251250932Y-160429443D01*
G75*
G02*
X252839594Y-160343415I837345J-751317D01*
G01*
X252839594Y-160343415D01*
G75*
G02*
X252925622Y-161932077I-751317J-837345D01*
G01*
X251615620Y-163392077D01*
G75*
G02*
X250026958Y-163478105I-837345J751317D01*
G01*
G37*
G04 #@! TD.AperFunction*
X257128275Y-160100760D03*
G04 #@! TA.AperFunction,ComponentPad*
G36*
G01*
X257011758Y-161803155D02*
X257010872Y-161803094D01*
G75*
G02*
X255965941Y-160603357I77403J1122334D01*
G01*
X256005941Y-160023357D01*
G75*
G02*
X257205678Y-158978426I1122334J-77403D01*
G01*
X257205678Y-158978426D01*
G75*
G02*
X258250609Y-160178163I-77403J-1122334D01*
G01*
X258210609Y-160758163D01*
G75*
G02*
X257010872Y-161803094I-1122334J77403D01*
G01*
G37*
G04 #@! TD.AperFunction*
X183030275Y-161180760D03*
G04 #@! TA.AperFunction,ComponentPad*
G36*
G01*
X180968963Y-163478110D02*
X180968958Y-163478105D01*
G75*
G02*
X180882930Y-161889443I751317J837345D01*
G01*
X182192932Y-160429443D01*
G75*
G02*
X183781594Y-160343415I837345J-751317D01*
G01*
X183781594Y-160343415D01*
G75*
G02*
X183867622Y-161932077I-751317J-837345D01*
G01*
X182557620Y-163392077D01*
G75*
G02*
X180968958Y-163478105I-837345J751317D01*
G01*
G37*
G04 #@! TD.AperFunction*
X188070275Y-160100760D03*
G04 #@! TA.AperFunction,ComponentPad*
G36*
G01*
X187953758Y-161803155D02*
X187952872Y-161803094D01*
G75*
G02*
X186907941Y-160603357I77403J1122334D01*
G01*
X186947941Y-160023357D01*
G75*
G02*
X188147678Y-158978426I1122334J-77403D01*
G01*
X188147678Y-158978426D01*
G75*
G02*
X189192609Y-160178163I-77403J-1122334D01*
G01*
X189152609Y-160758163D01*
G75*
G02*
X187952872Y-161803094I-1122334J77403D01*
G01*
G37*
G04 #@! TD.AperFunction*
X111594275Y-161180760D03*
G04 #@! TA.AperFunction,ComponentPad*
G36*
G01*
X109532963Y-163478110D02*
X109532958Y-163478105D01*
G75*
G02*
X109446930Y-161889443I751317J837345D01*
G01*
X110756932Y-160429443D01*
G75*
G02*
X112345594Y-160343415I837345J-751317D01*
G01*
X112345594Y-160343415D01*
G75*
G02*
X112431622Y-161932077I-751317J-837345D01*
G01*
X111121620Y-163392077D01*
G75*
G02*
X109532958Y-163478105I-837345J751317D01*
G01*
G37*
G04 #@! TD.AperFunction*
X116634275Y-160100760D03*
G04 #@! TA.AperFunction,ComponentPad*
G36*
G01*
X116517758Y-161803155D02*
X116516872Y-161803094D01*
G75*
G02*
X115471941Y-160603357I77403J1122334D01*
G01*
X115511941Y-160023357D01*
G75*
G02*
X116711678Y-158978426I1122334J-77403D01*
G01*
X116711678Y-158978426D01*
G75*
G02*
X117756609Y-160178163I-77403J-1122334D01*
G01*
X117716609Y-160758163D01*
G75*
G02*
X116516872Y-161803094I-1122334J77403D01*
G01*
G37*
G04 #@! TD.AperFunction*
X87780275Y-161180760D03*
G04 #@! TA.AperFunction,ComponentPad*
G36*
G01*
X85718963Y-163478110D02*
X85718958Y-163478105D01*
G75*
G02*
X85632930Y-161889443I751317J837345D01*
G01*
X86942932Y-160429443D01*
G75*
G02*
X88531594Y-160343415I837345J-751317D01*
G01*
X88531594Y-160343415D01*
G75*
G02*
X88617622Y-161932077I-751317J-837345D01*
G01*
X87307620Y-163392077D01*
G75*
G02*
X85718958Y-163478105I-837345J751317D01*
G01*
G37*
G04 #@! TD.AperFunction*
X92820275Y-160100760D03*
G04 #@! TA.AperFunction,ComponentPad*
G36*
G01*
X92703758Y-161803155D02*
X92702872Y-161803094D01*
G75*
G02*
X91657941Y-160603357I77403J1122334D01*
G01*
X91697941Y-160023357D01*
G75*
G02*
X92897678Y-158978426I1122334J-77403D01*
G01*
X92897678Y-158978426D01*
G75*
G02*
X93942609Y-160178163I-77403J-1122334D01*
G01*
X93902609Y-160758163D01*
G75*
G02*
X92702872Y-161803094I-1122334J77403D01*
G01*
G37*
G04 #@! TD.AperFunction*
X63969185Y-161180760D03*
G04 #@! TA.AperFunction,ComponentPad*
G36*
G01*
X61907873Y-163478110D02*
X61907868Y-163478105D01*
G75*
G02*
X61821840Y-161889443I751317J837345D01*
G01*
X63131842Y-160429443D01*
G75*
G02*
X64720504Y-160343415I837345J-751317D01*
G01*
X64720504Y-160343415D01*
G75*
G02*
X64806532Y-161932077I-751317J-837345D01*
G01*
X63496530Y-163392077D01*
G75*
G02*
X61907868Y-163478105I-837345J751317D01*
G01*
G37*
G04 #@! TD.AperFunction*
X69009185Y-160100760D03*
G04 #@! TA.AperFunction,ComponentPad*
G36*
G01*
X68892668Y-161803155D02*
X68891782Y-161803094D01*
G75*
G02*
X67846851Y-160603357I77403J1122334D01*
G01*
X67886851Y-160023357D01*
G75*
G02*
X69086588Y-158978426I1122334J-77403D01*
G01*
X69086588Y-158978426D01*
G75*
G02*
X70131519Y-160178163I-77403J-1122334D01*
G01*
X70091519Y-160758163D01*
G75*
G02*
X68891782Y-161803094I-1122334J77403D01*
G01*
G37*
G04 #@! TD.AperFunction*
X347338275Y-142130800D03*
G04 #@! TA.AperFunction,ComponentPad*
G36*
G01*
X345276963Y-144428150D02*
X345276958Y-144428145D01*
G75*
G02*
X345190930Y-142839483I751317J837345D01*
G01*
X346500932Y-141379483D01*
G75*
G02*
X348089594Y-141293455I837345J-751317D01*
G01*
X348089594Y-141293455D01*
G75*
G02*
X348175622Y-142882117I-751317J-837345D01*
G01*
X346865620Y-144342117D01*
G75*
G02*
X345276958Y-144428145I-837345J751317D01*
G01*
G37*
G04 #@! TD.AperFunction*
X352378275Y-141050800D03*
G04 #@! TA.AperFunction,ComponentPad*
G36*
G01*
X352261758Y-142753195D02*
X352260872Y-142753134D01*
G75*
G02*
X351215941Y-141553397I77403J1122334D01*
G01*
X351255941Y-140973397D01*
G75*
G02*
X352455678Y-139928466I1122334J-77403D01*
G01*
X352455678Y-139928466D01*
G75*
G02*
X353500609Y-141128203I-77403J-1122334D01*
G01*
X353460609Y-141708203D01*
G75*
G02*
X352260872Y-142753134I-1122334J77403D01*
G01*
G37*
G04 #@! TD.AperFunction*
X328288275Y-142130800D03*
G04 #@! TA.AperFunction,ComponentPad*
G36*
G01*
X326226963Y-144428150D02*
X326226958Y-144428145D01*
G75*
G02*
X326140930Y-142839483I751317J837345D01*
G01*
X327450932Y-141379483D01*
G75*
G02*
X329039594Y-141293455I837345J-751317D01*
G01*
X329039594Y-141293455D01*
G75*
G02*
X329125622Y-142882117I-751317J-837345D01*
G01*
X327815620Y-144342117D01*
G75*
G02*
X326226958Y-144428145I-837345J751317D01*
G01*
G37*
G04 #@! TD.AperFunction*
X333328275Y-141050800D03*
G04 #@! TA.AperFunction,ComponentPad*
G36*
G01*
X333211758Y-142753195D02*
X333210872Y-142753134D01*
G75*
G02*
X332165941Y-141553397I77403J1122334D01*
G01*
X332205941Y-140973397D01*
G75*
G02*
X333405678Y-139928466I1122334J-77403D01*
G01*
X333405678Y-139928466D01*
G75*
G02*
X334450609Y-141128203I-77403J-1122334D01*
G01*
X334410609Y-141708203D01*
G75*
G02*
X333210872Y-142753134I-1122334J77403D01*
G01*
G37*
G04 #@! TD.AperFunction*
X302094274Y-142130800D03*
G04 #@! TA.AperFunction,ComponentPad*
G36*
G01*
X300032962Y-144428150D02*
X300032957Y-144428145D01*
G75*
G02*
X299946929Y-142839483I751317J837345D01*
G01*
X301256931Y-141379483D01*
G75*
G02*
X302845593Y-141293455I837345J-751317D01*
G01*
X302845593Y-141293455D01*
G75*
G02*
X302931621Y-142882117I-751317J-837345D01*
G01*
X301621619Y-144342117D01*
G75*
G02*
X300032957Y-144428145I-837345J751317D01*
G01*
G37*
G04 #@! TD.AperFunction*
X307134274Y-141050800D03*
G04 #@! TA.AperFunction,ComponentPad*
G36*
G01*
X307017757Y-142753195D02*
X307016871Y-142753134D01*
G75*
G02*
X305971940Y-141553397I77403J1122334D01*
G01*
X306011940Y-140973397D01*
G75*
G02*
X307211677Y-139928466I1122334J-77403D01*
G01*
X307211677Y-139928466D01*
G75*
G02*
X308256608Y-141128203I-77403J-1122334D01*
G01*
X308216608Y-141708203D01*
G75*
G02*
X307016871Y-142753134I-1122334J77403D01*
G01*
G37*
G04 #@! TD.AperFunction*
X275900275Y-142130800D03*
G04 #@! TA.AperFunction,ComponentPad*
G36*
G01*
X273838963Y-144428150D02*
X273838958Y-144428145D01*
G75*
G02*
X273752930Y-142839483I751317J837345D01*
G01*
X275062932Y-141379483D01*
G75*
G02*
X276651594Y-141293455I837345J-751317D01*
G01*
X276651594Y-141293455D01*
G75*
G02*
X276737622Y-142882117I-751317J-837345D01*
G01*
X275427620Y-144342117D01*
G75*
G02*
X273838958Y-144428145I-837345J751317D01*
G01*
G37*
G04 #@! TD.AperFunction*
X280940275Y-141050800D03*
G04 #@! TA.AperFunction,ComponentPad*
G36*
G01*
X280823758Y-142753195D02*
X280822872Y-142753134D01*
G75*
G02*
X279777941Y-141553397I77403J1122334D01*
G01*
X279817941Y-140973397D01*
G75*
G02*
X281017678Y-139928466I1122334J-77403D01*
G01*
X281017678Y-139928466D01*
G75*
G02*
X282062609Y-141128203I-77403J-1122334D01*
G01*
X282022609Y-141708203D01*
G75*
G02*
X280822872Y-142753134I-1122334J77403D01*
G01*
G37*
G04 #@! TD.AperFunction*
X256850275Y-142130800D03*
G04 #@! TA.AperFunction,ComponentPad*
G36*
G01*
X254788963Y-144428150D02*
X254788958Y-144428145D01*
G75*
G02*
X254702930Y-142839483I751317J837345D01*
G01*
X256012932Y-141379483D01*
G75*
G02*
X257601594Y-141293455I837345J-751317D01*
G01*
X257601594Y-141293455D01*
G75*
G02*
X257687622Y-142882117I-751317J-837345D01*
G01*
X256377620Y-144342117D01*
G75*
G02*
X254788958Y-144428145I-837345J751317D01*
G01*
G37*
G04 #@! TD.AperFunction*
X261890275Y-141050800D03*
G04 #@! TA.AperFunction,ComponentPad*
G36*
G01*
X261773758Y-142753195D02*
X261772872Y-142753134D01*
G75*
G02*
X260727941Y-141553397I77403J1122334D01*
G01*
X260767941Y-140973397D01*
G75*
G02*
X261967678Y-139928466I1122334J-77403D01*
G01*
X261967678Y-139928466D01*
G75*
G02*
X263012609Y-141128203I-77403J-1122334D01*
G01*
X262972609Y-141708203D01*
G75*
G02*
X261772872Y-142753134I-1122334J77403D01*
G01*
G37*
G04 #@! TD.AperFunction*
X237800275Y-142130800D03*
G04 #@! TA.AperFunction,ComponentPad*
G36*
G01*
X235738963Y-144428150D02*
X235738958Y-144428145D01*
G75*
G02*
X235652930Y-142839483I751317J837345D01*
G01*
X236962932Y-141379483D01*
G75*
G02*
X238551594Y-141293455I837345J-751317D01*
G01*
X238551594Y-141293455D01*
G75*
G02*
X238637622Y-142882117I-751317J-837345D01*
G01*
X237327620Y-144342117D01*
G75*
G02*
X235738958Y-144428145I-837345J751317D01*
G01*
G37*
G04 #@! TD.AperFunction*
X242840275Y-141050800D03*
G04 #@! TA.AperFunction,ComponentPad*
G36*
G01*
X242723758Y-142753195D02*
X242722872Y-142753134D01*
G75*
G02*
X241677941Y-141553397I77403J1122334D01*
G01*
X241717941Y-140973397D01*
G75*
G02*
X242917678Y-139928466I1122334J-77403D01*
G01*
X242917678Y-139928466D01*
G75*
G02*
X243962609Y-141128203I-77403J-1122334D01*
G01*
X243922609Y-141708203D01*
G75*
G02*
X242722872Y-142753134I-1122334J77403D01*
G01*
G37*
G04 #@! TD.AperFunction*
X218750275Y-142130800D03*
G04 #@! TA.AperFunction,ComponentPad*
G36*
G01*
X216688963Y-144428150D02*
X216688958Y-144428145D01*
G75*
G02*
X216602930Y-142839483I751317J837345D01*
G01*
X217912932Y-141379483D01*
G75*
G02*
X219501594Y-141293455I837345J-751317D01*
G01*
X219501594Y-141293455D01*
G75*
G02*
X219587622Y-142882117I-751317J-837345D01*
G01*
X218277620Y-144342117D01*
G75*
G02*
X216688958Y-144428145I-837345J751317D01*
G01*
G37*
G04 #@! TD.AperFunction*
X223790275Y-141050800D03*
G04 #@! TA.AperFunction,ComponentPad*
G36*
G01*
X223673758Y-142753195D02*
X223672872Y-142753134D01*
G75*
G02*
X222627941Y-141553397I77403J1122334D01*
G01*
X222667941Y-140973397D01*
G75*
G02*
X223867678Y-139928466I1122334J-77403D01*
G01*
X223867678Y-139928466D01*
G75*
G02*
X224912609Y-141128203I-77403J-1122334D01*
G01*
X224872609Y-141708203D01*
G75*
G02*
X223672872Y-142753134I-1122334J77403D01*
G01*
G37*
G04 #@! TD.AperFunction*
X199700275Y-142130800D03*
G04 #@! TA.AperFunction,ComponentPad*
G36*
G01*
X197638963Y-144428150D02*
X197638958Y-144428145D01*
G75*
G02*
X197552930Y-142839483I751317J837345D01*
G01*
X198862932Y-141379483D01*
G75*
G02*
X200451594Y-141293455I837345J-751317D01*
G01*
X200451594Y-141293455D01*
G75*
G02*
X200537622Y-142882117I-751317J-837345D01*
G01*
X199227620Y-144342117D01*
G75*
G02*
X197638958Y-144428145I-837345J751317D01*
G01*
G37*
G04 #@! TD.AperFunction*
X204740275Y-141050800D03*
G04 #@! TA.AperFunction,ComponentPad*
G36*
G01*
X204623758Y-142753195D02*
X204622872Y-142753134D01*
G75*
G02*
X203577941Y-141553397I77403J1122334D01*
G01*
X203617941Y-140973397D01*
G75*
G02*
X204817678Y-139928466I1122334J-77403D01*
G01*
X204817678Y-139928466D01*
G75*
G02*
X205862609Y-141128203I-77403J-1122334D01*
G01*
X205822609Y-141708203D01*
G75*
G02*
X204622872Y-142753134I-1122334J77403D01*
G01*
G37*
G04 #@! TD.AperFunction*
X180650275Y-142130800D03*
G04 #@! TA.AperFunction,ComponentPad*
G36*
G01*
X178588963Y-144428150D02*
X178588958Y-144428145D01*
G75*
G02*
X178502930Y-142839483I751317J837345D01*
G01*
X179812932Y-141379483D01*
G75*
G02*
X181401594Y-141293455I837345J-751317D01*
G01*
X181401594Y-141293455D01*
G75*
G02*
X181487622Y-142882117I-751317J-837345D01*
G01*
X180177620Y-144342117D01*
G75*
G02*
X178588958Y-144428145I-837345J751317D01*
G01*
G37*
G04 #@! TD.AperFunction*
X185690275Y-141050800D03*
G04 #@! TA.AperFunction,ComponentPad*
G36*
G01*
X185573758Y-142753195D02*
X185572872Y-142753134D01*
G75*
G02*
X184527941Y-141553397I77403J1122334D01*
G01*
X184567941Y-140973397D01*
G75*
G02*
X185767678Y-139928466I1122334J-77403D01*
G01*
X185767678Y-139928466D01*
G75*
G02*
X186812609Y-141128203I-77403J-1122334D01*
G01*
X186772609Y-141708203D01*
G75*
G02*
X185572872Y-142753134I-1122334J77403D01*
G01*
G37*
G04 #@! TD.AperFunction*
X161600275Y-142130800D03*
G04 #@! TA.AperFunction,ComponentPad*
G36*
G01*
X159538963Y-144428150D02*
X159538958Y-144428145D01*
G75*
G02*
X159452930Y-142839483I751317J837345D01*
G01*
X160762932Y-141379483D01*
G75*
G02*
X162351594Y-141293455I837345J-751317D01*
G01*
X162351594Y-141293455D01*
G75*
G02*
X162437622Y-142882117I-751317J-837345D01*
G01*
X161127620Y-144342117D01*
G75*
G02*
X159538958Y-144428145I-837345J751317D01*
G01*
G37*
G04 #@! TD.AperFunction*
X166640275Y-141050800D03*
G04 #@! TA.AperFunction,ComponentPad*
G36*
G01*
X166523758Y-142753195D02*
X166522872Y-142753134D01*
G75*
G02*
X165477941Y-141553397I77403J1122334D01*
G01*
X165517941Y-140973397D01*
G75*
G02*
X166717678Y-139928466I1122334J-77403D01*
G01*
X166717678Y-139928466D01*
G75*
G02*
X167762609Y-141128203I-77403J-1122334D01*
G01*
X167722609Y-141708203D01*
G75*
G02*
X166522872Y-142753134I-1122334J77403D01*
G01*
G37*
G04 #@! TD.AperFunction*
X142550475Y-142130800D03*
G04 #@! TA.AperFunction,ComponentPad*
G36*
G01*
X140489163Y-144428150D02*
X140489158Y-144428145D01*
G75*
G02*
X140403130Y-142839483I751317J837345D01*
G01*
X141713132Y-141379483D01*
G75*
G02*
X143301794Y-141293455I837345J-751317D01*
G01*
X143301794Y-141293455D01*
G75*
G02*
X143387822Y-142882117I-751317J-837345D01*
G01*
X142077820Y-144342117D01*
G75*
G02*
X140489158Y-144428145I-837345J751317D01*
G01*
G37*
G04 #@! TD.AperFunction*
X147590475Y-141050800D03*
G04 #@! TA.AperFunction,ComponentPad*
G36*
G01*
X147473958Y-142753195D02*
X147473072Y-142753134D01*
G75*
G02*
X146428141Y-141553397I77403J1122334D01*
G01*
X146468141Y-140973397D01*
G75*
G02*
X147667878Y-139928466I1122334J-77403D01*
G01*
X147667878Y-139928466D01*
G75*
G02*
X148712809Y-141128203I-77403J-1122334D01*
G01*
X148672809Y-141708203D01*
G75*
G02*
X147473072Y-142753134I-1122334J77403D01*
G01*
G37*
G04 #@! TD.AperFunction*
X123500475Y-142130800D03*
G04 #@! TA.AperFunction,ComponentPad*
G36*
G01*
X121439163Y-144428150D02*
X121439158Y-144428145D01*
G75*
G02*
X121353130Y-142839483I751317J837345D01*
G01*
X122663132Y-141379483D01*
G75*
G02*
X124251794Y-141293455I837345J-751317D01*
G01*
X124251794Y-141293455D01*
G75*
G02*
X124337822Y-142882117I-751317J-837345D01*
G01*
X123027820Y-144342117D01*
G75*
G02*
X121439158Y-144428145I-837345J751317D01*
G01*
G37*
G04 #@! TD.AperFunction*
X128540475Y-141050800D03*
G04 #@! TA.AperFunction,ComponentPad*
G36*
G01*
X128423958Y-142753195D02*
X128423072Y-142753134D01*
G75*
G02*
X127378141Y-141553397I77403J1122334D01*
G01*
X127418141Y-140973397D01*
G75*
G02*
X128617878Y-139928466I1122334J-77403D01*
G01*
X128617878Y-139928466D01*
G75*
G02*
X129662809Y-141128203I-77403J-1122334D01*
G01*
X129622809Y-141708203D01*
G75*
G02*
X128423072Y-142753134I-1122334J77403D01*
G01*
G37*
G04 #@! TD.AperFunction*
X104450475Y-142130800D03*
G04 #@! TA.AperFunction,ComponentPad*
G36*
G01*
X102389163Y-144428150D02*
X102389158Y-144428145D01*
G75*
G02*
X102303130Y-142839483I751317J837345D01*
G01*
X103613132Y-141379483D01*
G75*
G02*
X105201794Y-141293455I837345J-751317D01*
G01*
X105201794Y-141293455D01*
G75*
G02*
X105287822Y-142882117I-751317J-837345D01*
G01*
X103977820Y-144342117D01*
G75*
G02*
X102389158Y-144428145I-837345J751317D01*
G01*
G37*
G04 #@! TD.AperFunction*
X109490475Y-141050800D03*
G04 #@! TA.AperFunction,ComponentPad*
G36*
G01*
X109373958Y-142753195D02*
X109373072Y-142753134D01*
G75*
G02*
X108328141Y-141553397I77403J1122334D01*
G01*
X108368141Y-140973397D01*
G75*
G02*
X109567878Y-139928466I1122334J-77403D01*
G01*
X109567878Y-139928466D01*
G75*
G02*
X110612809Y-141128203I-77403J-1122334D01*
G01*
X110572809Y-141708203D01*
G75*
G02*
X109373072Y-142753134I-1122334J77403D01*
G01*
G37*
G04 #@! TD.AperFunction*
X73494175Y-142130800D03*
G04 #@! TA.AperFunction,ComponentPad*
G36*
G01*
X71432863Y-144428150D02*
X71432858Y-144428145D01*
G75*
G02*
X71346830Y-142839483I751317J837345D01*
G01*
X72656832Y-141379483D01*
G75*
G02*
X74245494Y-141293455I837345J-751317D01*
G01*
X74245494Y-141293455D01*
G75*
G02*
X74331522Y-142882117I-751317J-837345D01*
G01*
X73021520Y-144342117D01*
G75*
G02*
X71432858Y-144428145I-837345J751317D01*
G01*
G37*
G04 #@! TD.AperFunction*
X78534175Y-141050800D03*
G04 #@! TA.AperFunction,ComponentPad*
G36*
G01*
X78417658Y-142753195D02*
X78416772Y-142753134D01*
G75*
G02*
X77371841Y-141553397I77403J1122334D01*
G01*
X77411841Y-140973397D01*
G75*
G02*
X78611578Y-139928466I1122334J-77403D01*
G01*
X78611578Y-139928466D01*
G75*
G02*
X79656509Y-141128203I-77403J-1122334D01*
G01*
X79616509Y-141708203D01*
G75*
G02*
X78416772Y-142753134I-1122334J77403D01*
G01*
G37*
G04 #@! TD.AperFunction*
X347338275Y-123080601D03*
G04 #@! TA.AperFunction,ComponentPad*
G36*
G01*
X345276963Y-125377951D02*
X345276958Y-125377946D01*
G75*
G02*
X345190930Y-123789284I751317J837345D01*
G01*
X346500932Y-122329284D01*
G75*
G02*
X348089594Y-122243256I837345J-751317D01*
G01*
X348089594Y-122243256D01*
G75*
G02*
X348175622Y-123831918I-751317J-837345D01*
G01*
X346865620Y-125291918D01*
G75*
G02*
X345276958Y-125377946I-837345J751317D01*
G01*
G37*
G04 #@! TD.AperFunction*
X352378275Y-122000601D03*
G04 #@! TA.AperFunction,ComponentPad*
G36*
G01*
X352261758Y-123702996D02*
X352260872Y-123702935D01*
G75*
G02*
X351215941Y-122503198I77403J1122334D01*
G01*
X351255941Y-121923198D01*
G75*
G02*
X352455678Y-120878267I1122334J-77403D01*
G01*
X352455678Y-120878267D01*
G75*
G02*
X353500609Y-122078004I-77403J-1122334D01*
G01*
X353460609Y-122658004D01*
G75*
G02*
X352260872Y-123702935I-1122334J77403D01*
G01*
G37*
G04 #@! TD.AperFunction*
X316380275Y-123080601D03*
G04 #@! TA.AperFunction,ComponentPad*
G36*
G01*
X314318963Y-125377951D02*
X314318958Y-125377946D01*
G75*
G02*
X314232930Y-123789284I751317J837345D01*
G01*
X315542932Y-122329284D01*
G75*
G02*
X317131594Y-122243256I837345J-751317D01*
G01*
X317131594Y-122243256D01*
G75*
G02*
X317217622Y-123831918I-751317J-837345D01*
G01*
X315907620Y-125291918D01*
G75*
G02*
X314318958Y-125377946I-837345J751317D01*
G01*
G37*
G04 #@! TD.AperFunction*
X321420275Y-122000601D03*
G04 #@! TA.AperFunction,ComponentPad*
G36*
G01*
X321303758Y-123702996D02*
X321302872Y-123702935D01*
G75*
G02*
X320257941Y-122503198I77403J1122334D01*
G01*
X320297941Y-121923198D01*
G75*
G02*
X321497678Y-120878267I1122334J-77403D01*
G01*
X321497678Y-120878267D01*
G75*
G02*
X322542609Y-122078004I-77403J-1122334D01*
G01*
X322502609Y-122658004D01*
G75*
G02*
X321302872Y-123702935I-1122334J77403D01*
G01*
G37*
G04 #@! TD.AperFunction*
X285425275Y-123080601D03*
G04 #@! TA.AperFunction,ComponentPad*
G36*
G01*
X283363963Y-125377951D02*
X283363958Y-125377946D01*
G75*
G02*
X283277930Y-123789284I751317J837345D01*
G01*
X284587932Y-122329284D01*
G75*
G02*
X286176594Y-122243256I837345J-751317D01*
G01*
X286176594Y-122243256D01*
G75*
G02*
X286262622Y-123831918I-751317J-837345D01*
G01*
X284952620Y-125291918D01*
G75*
G02*
X283363958Y-125377946I-837345J751317D01*
G01*
G37*
G04 #@! TD.AperFunction*
X290465275Y-122000601D03*
G04 #@! TA.AperFunction,ComponentPad*
G36*
G01*
X290348758Y-123702996D02*
X290347872Y-123702935D01*
G75*
G02*
X289302941Y-122503198I77403J1122334D01*
G01*
X289342941Y-121923198D01*
G75*
G02*
X290542678Y-120878267I1122334J-77403D01*
G01*
X290542678Y-120878267D01*
G75*
G02*
X291587609Y-122078004I-77403J-1122334D01*
G01*
X291547609Y-122658004D01*
G75*
G02*
X290347872Y-123702935I-1122334J77403D01*
G01*
G37*
G04 #@! TD.AperFunction*
G04 #@! TA.AperFunction,ComponentPad*
G36*
G01*
X271298758Y-123702996D02*
X271297872Y-123702935D01*
G75*
G02*
X270252941Y-122503198I77403J1122334D01*
G01*
X270292941Y-121923198D01*
G75*
G02*
X271492678Y-120878267I1122334J-77403D01*
G01*
X271492678Y-120878267D01*
G75*
G02*
X272537609Y-122078004I-77403J-1122334D01*
G01*
X272497609Y-122658004D01*
G75*
G02*
X271297872Y-123702935I-1122334J77403D01*
G01*
G37*
G04 #@! TD.AperFunction*
X271415275Y-122000601D03*
G04 #@! TA.AperFunction,ComponentPad*
G36*
G01*
X264313963Y-125377951D02*
X264313958Y-125377946D01*
G75*
G02*
X264227930Y-123789284I751317J837345D01*
G01*
X265537932Y-122329284D01*
G75*
G02*
X267126594Y-122243256I837345J-751317D01*
G01*
X267126594Y-122243256D01*
G75*
G02*
X267212622Y-123831918I-751317J-837345D01*
G01*
X265902620Y-125291918D01*
G75*
G02*
X264313958Y-125377946I-837345J751317D01*
G01*
G37*
G04 #@! TD.AperFunction*
X266375275Y-123080601D03*
X247325275Y-123080601D03*
G04 #@! TA.AperFunction,ComponentPad*
G36*
G01*
X245263963Y-125377951D02*
X245263958Y-125377946D01*
G75*
G02*
X245177930Y-123789284I751317J837345D01*
G01*
X246487932Y-122329284D01*
G75*
G02*
X248076594Y-122243256I837345J-751317D01*
G01*
X248076594Y-122243256D01*
G75*
G02*
X248162622Y-123831918I-751317J-837345D01*
G01*
X246852620Y-125291918D01*
G75*
G02*
X245263958Y-125377946I-837345J751317D01*
G01*
G37*
G04 #@! TD.AperFunction*
X252365275Y-122000601D03*
G04 #@! TA.AperFunction,ComponentPad*
G36*
G01*
X252248758Y-123702996D02*
X252247872Y-123702935D01*
G75*
G02*
X251202941Y-122503198I77403J1122334D01*
G01*
X251242941Y-121923198D01*
G75*
G02*
X252442678Y-120878267I1122334J-77403D01*
G01*
X252442678Y-120878267D01*
G75*
G02*
X253487609Y-122078004I-77403J-1122334D01*
G01*
X253447609Y-122658004D01*
G75*
G02*
X252247872Y-123702935I-1122334J77403D01*
G01*
G37*
G04 #@! TD.AperFunction*
X228275275Y-123080601D03*
G04 #@! TA.AperFunction,ComponentPad*
G36*
G01*
X226213963Y-125377951D02*
X226213958Y-125377946D01*
G75*
G02*
X226127930Y-123789284I751317J837345D01*
G01*
X227437932Y-122329284D01*
G75*
G02*
X229026594Y-122243256I837345J-751317D01*
G01*
X229026594Y-122243256D01*
G75*
G02*
X229112622Y-123831918I-751317J-837345D01*
G01*
X227802620Y-125291918D01*
G75*
G02*
X226213958Y-125377946I-837345J751317D01*
G01*
G37*
G04 #@! TD.AperFunction*
X233315275Y-122000601D03*
G04 #@! TA.AperFunction,ComponentPad*
G36*
G01*
X233198758Y-123702996D02*
X233197872Y-123702935D01*
G75*
G02*
X232152941Y-122503198I77403J1122334D01*
G01*
X232192941Y-121923198D01*
G75*
G02*
X233392678Y-120878267I1122334J-77403D01*
G01*
X233392678Y-120878267D01*
G75*
G02*
X234437609Y-122078004I-77403J-1122334D01*
G01*
X234397609Y-122658004D01*
G75*
G02*
X233197872Y-123702935I-1122334J77403D01*
G01*
G37*
G04 #@! TD.AperFunction*
X209225275Y-123080601D03*
G04 #@! TA.AperFunction,ComponentPad*
G36*
G01*
X207163963Y-125377951D02*
X207163958Y-125377946D01*
G75*
G02*
X207077930Y-123789284I751317J837345D01*
G01*
X208387932Y-122329284D01*
G75*
G02*
X209976594Y-122243256I837345J-751317D01*
G01*
X209976594Y-122243256D01*
G75*
G02*
X210062622Y-123831918I-751317J-837345D01*
G01*
X208752620Y-125291918D01*
G75*
G02*
X207163958Y-125377946I-837345J751317D01*
G01*
G37*
G04 #@! TD.AperFunction*
X214265275Y-122000601D03*
G04 #@! TA.AperFunction,ComponentPad*
G36*
G01*
X214148758Y-123702996D02*
X214147872Y-123702935D01*
G75*
G02*
X213102941Y-122503198I77403J1122334D01*
G01*
X213142941Y-121923198D01*
G75*
G02*
X214342678Y-120878267I1122334J-77403D01*
G01*
X214342678Y-120878267D01*
G75*
G02*
X215387609Y-122078004I-77403J-1122334D01*
G01*
X215347609Y-122658004D01*
G75*
G02*
X214147872Y-123702935I-1122334J77403D01*
G01*
G37*
G04 #@! TD.AperFunction*
X190175275Y-123080601D03*
G04 #@! TA.AperFunction,ComponentPad*
G36*
G01*
X188113963Y-125377951D02*
X188113958Y-125377946D01*
G75*
G02*
X188027930Y-123789284I751317J837345D01*
G01*
X189337932Y-122329284D01*
G75*
G02*
X190926594Y-122243256I837345J-751317D01*
G01*
X190926594Y-122243256D01*
G75*
G02*
X191012622Y-123831918I-751317J-837345D01*
G01*
X189702620Y-125291918D01*
G75*
G02*
X188113958Y-125377946I-837345J751317D01*
G01*
G37*
G04 #@! TD.AperFunction*
X195215275Y-122000601D03*
G04 #@! TA.AperFunction,ComponentPad*
G36*
G01*
X195098758Y-123702996D02*
X195097872Y-123702935D01*
G75*
G02*
X194052941Y-122503198I77403J1122334D01*
G01*
X194092941Y-121923198D01*
G75*
G02*
X195292678Y-120878267I1122334J-77403D01*
G01*
X195292678Y-120878267D01*
G75*
G02*
X196337609Y-122078004I-77403J-1122334D01*
G01*
X196297609Y-122658004D01*
G75*
G02*
X195097872Y-123702935I-1122334J77403D01*
G01*
G37*
G04 #@! TD.AperFunction*
X171125274Y-123080601D03*
G04 #@! TA.AperFunction,ComponentPad*
G36*
G01*
X169063962Y-125377951D02*
X169063957Y-125377946D01*
G75*
G02*
X168977929Y-123789284I751317J837345D01*
G01*
X170287931Y-122329284D01*
G75*
G02*
X171876593Y-122243256I837345J-751317D01*
G01*
X171876593Y-122243256D01*
G75*
G02*
X171962621Y-123831918I-751317J-837345D01*
G01*
X170652619Y-125291918D01*
G75*
G02*
X169063957Y-125377946I-837345J751317D01*
G01*
G37*
G04 #@! TD.AperFunction*
X176165274Y-122000601D03*
G04 #@! TA.AperFunction,ComponentPad*
G36*
G01*
X176048757Y-123702996D02*
X176047871Y-123702935D01*
G75*
G02*
X175002940Y-122503198I77403J1122334D01*
G01*
X175042940Y-121923198D01*
G75*
G02*
X176242677Y-120878267I1122334J-77403D01*
G01*
X176242677Y-120878267D01*
G75*
G02*
X177287608Y-122078004I-77403J-1122334D01*
G01*
X177247608Y-122658004D01*
G75*
G02*
X176047871Y-123702935I-1122334J77403D01*
G01*
G37*
G04 #@! TD.AperFunction*
X152075475Y-123080601D03*
G04 #@! TA.AperFunction,ComponentPad*
G36*
G01*
X150014163Y-125377951D02*
X150014158Y-125377946D01*
G75*
G02*
X149928130Y-123789284I751317J837345D01*
G01*
X151238132Y-122329284D01*
G75*
G02*
X152826794Y-122243256I837345J-751317D01*
G01*
X152826794Y-122243256D01*
G75*
G02*
X152912822Y-123831918I-751317J-837345D01*
G01*
X151602820Y-125291918D01*
G75*
G02*
X150014158Y-125377946I-837345J751317D01*
G01*
G37*
G04 #@! TD.AperFunction*
X157115475Y-122000601D03*
G04 #@! TA.AperFunction,ComponentPad*
G36*
G01*
X156998958Y-123702996D02*
X156998072Y-123702935D01*
G75*
G02*
X155953141Y-122503198I77403J1122334D01*
G01*
X155993141Y-121923198D01*
G75*
G02*
X157192878Y-120878267I1122334J-77403D01*
G01*
X157192878Y-120878267D01*
G75*
G02*
X158237809Y-122078004I-77403J-1122334D01*
G01*
X158197809Y-122658004D01*
G75*
G02*
X156998072Y-123702935I-1122334J77403D01*
G01*
G37*
G04 #@! TD.AperFunction*
X133025474Y-123080601D03*
G04 #@! TA.AperFunction,ComponentPad*
G36*
G01*
X130964162Y-125377951D02*
X130964157Y-125377946D01*
G75*
G02*
X130878129Y-123789284I751317J837345D01*
G01*
X132188131Y-122329284D01*
G75*
G02*
X133776793Y-122243256I837345J-751317D01*
G01*
X133776793Y-122243256D01*
G75*
G02*
X133862821Y-123831918I-751317J-837345D01*
G01*
X132552819Y-125291918D01*
G75*
G02*
X130964157Y-125377946I-837345J751317D01*
G01*
G37*
G04 #@! TD.AperFunction*
X138065474Y-122000601D03*
G04 #@! TA.AperFunction,ComponentPad*
G36*
G01*
X137948957Y-123702996D02*
X137948071Y-123702935D01*
G75*
G02*
X136903140Y-122503198I77403J1122334D01*
G01*
X136943140Y-121923198D01*
G75*
G02*
X138142877Y-120878267I1122334J-77403D01*
G01*
X138142877Y-120878267D01*
G75*
G02*
X139187808Y-122078004I-77403J-1122334D01*
G01*
X139147808Y-122658004D01*
G75*
G02*
X137948071Y-123702935I-1122334J77403D01*
G01*
G37*
G04 #@! TD.AperFunction*
X113975474Y-123080601D03*
G04 #@! TA.AperFunction,ComponentPad*
G36*
G01*
X111914162Y-125377951D02*
X111914157Y-125377946D01*
G75*
G02*
X111828129Y-123789284I751317J837345D01*
G01*
X113138131Y-122329284D01*
G75*
G02*
X114726793Y-122243256I837345J-751317D01*
G01*
X114726793Y-122243256D01*
G75*
G02*
X114812821Y-123831918I-751317J-837345D01*
G01*
X113502819Y-125291918D01*
G75*
G02*
X111914157Y-125377946I-837345J751317D01*
G01*
G37*
G04 #@! TD.AperFunction*
X119015474Y-122000601D03*
G04 #@! TA.AperFunction,ComponentPad*
G36*
G01*
X118898957Y-123702996D02*
X118898071Y-123702935D01*
G75*
G02*
X117853140Y-122503198I77403J1122334D01*
G01*
X117893140Y-121923198D01*
G75*
G02*
X119092877Y-120878267I1122334J-77403D01*
G01*
X119092877Y-120878267D01*
G75*
G02*
X120137808Y-122078004I-77403J-1122334D01*
G01*
X120097808Y-122658004D01*
G75*
G02*
X118898071Y-123702935I-1122334J77403D01*
G01*
G37*
G04 #@! TD.AperFunction*
X94925475Y-123080601D03*
G04 #@! TA.AperFunction,ComponentPad*
G36*
G01*
X92864163Y-125377951D02*
X92864158Y-125377946D01*
G75*
G02*
X92778130Y-123789284I751317J837345D01*
G01*
X94088132Y-122329284D01*
G75*
G02*
X95676794Y-122243256I837345J-751317D01*
G01*
X95676794Y-122243256D01*
G75*
G02*
X95762822Y-123831918I-751317J-837345D01*
G01*
X94452820Y-125291918D01*
G75*
G02*
X92864158Y-125377946I-837345J751317D01*
G01*
G37*
G04 #@! TD.AperFunction*
X99965475Y-122000601D03*
G04 #@! TA.AperFunction,ComponentPad*
G36*
G01*
X99848958Y-123702996D02*
X99848072Y-123702935D01*
G75*
G02*
X98803141Y-122503198I77403J1122334D01*
G01*
X98843141Y-121923198D01*
G75*
G02*
X100042878Y-120878267I1122334J-77403D01*
G01*
X100042878Y-120878267D01*
G75*
G02*
X101087809Y-122078004I-77403J-1122334D01*
G01*
X101047809Y-122658004D01*
G75*
G02*
X99848072Y-123702935I-1122334J77403D01*
G01*
G37*
G04 #@! TD.AperFunction*
X68730305Y-123080601D03*
G04 #@! TA.AperFunction,ComponentPad*
G36*
G01*
X66668993Y-125377951D02*
X66668988Y-125377946D01*
G75*
G02*
X66582960Y-123789284I751317J837345D01*
G01*
X67892962Y-122329284D01*
G75*
G02*
X69481624Y-122243256I837345J-751317D01*
G01*
X69481624Y-122243256D01*
G75*
G02*
X69567652Y-123831918I-751317J-837345D01*
G01*
X68257650Y-125291918D01*
G75*
G02*
X66668988Y-125377946I-837345J751317D01*
G01*
G37*
G04 #@! TD.AperFunction*
X73770305Y-122000601D03*
G04 #@! TA.AperFunction,ComponentPad*
G36*
G01*
X73653788Y-123702996D02*
X73652902Y-123702935D01*
G75*
G02*
X72607971Y-122503198I77403J1122334D01*
G01*
X72647971Y-121923198D01*
G75*
G02*
X73847708Y-120878267I1122334J-77403D01*
G01*
X73847708Y-120878267D01*
G75*
G02*
X74892639Y-122078004I-77403J-1122334D01*
G01*
X74852639Y-122658004D01*
G75*
G02*
X73652902Y-123702935I-1122334J77403D01*
G01*
G37*
G04 #@! TD.AperFunction*
X299713274Y-104030601D03*
G04 #@! TA.AperFunction,ComponentPad*
G36*
G01*
X297651962Y-106327951D02*
X297651957Y-106327946D01*
G75*
G02*
X297565929Y-104739284I751317J837345D01*
G01*
X298875931Y-103279284D01*
G75*
G02*
X300464593Y-103193256I837345J-751317D01*
G01*
X300464593Y-103193256D01*
G75*
G02*
X300550621Y-104781918I-751317J-837345D01*
G01*
X299240619Y-106241918D01*
G75*
G02*
X297651957Y-106327946I-837345J751317D01*
G01*
G37*
G04 #@! TD.AperFunction*
X304753274Y-102950601D03*
G04 #@! TA.AperFunction,ComponentPad*
G36*
G01*
X304636757Y-104652996D02*
X304635871Y-104652935D01*
G75*
G02*
X303590940Y-103453198I77403J1122334D01*
G01*
X303630940Y-102873198D01*
G75*
G02*
X304830677Y-101828267I1122334J-77403D01*
G01*
X304830677Y-101828267D01*
G75*
G02*
X305875608Y-103028004I-77403J-1122334D01*
G01*
X305835608Y-103608004D01*
G75*
G02*
X304635871Y-104652935I-1122334J77403D01*
G01*
G37*
G04 #@! TD.AperFunction*
X280663275Y-104030601D03*
G04 #@! TA.AperFunction,ComponentPad*
G36*
G01*
X278601963Y-106327951D02*
X278601958Y-106327946D01*
G75*
G02*
X278515930Y-104739284I751317J837345D01*
G01*
X279825932Y-103279284D01*
G75*
G02*
X281414594Y-103193256I837345J-751317D01*
G01*
X281414594Y-103193256D01*
G75*
G02*
X281500622Y-104781918I-751317J-837345D01*
G01*
X280190620Y-106241918D01*
G75*
G02*
X278601958Y-106327946I-837345J751317D01*
G01*
G37*
G04 #@! TD.AperFunction*
X285703275Y-102950601D03*
G04 #@! TA.AperFunction,ComponentPad*
G36*
G01*
X285586758Y-104652996D02*
X285585872Y-104652935D01*
G75*
G02*
X284540941Y-103453198I77403J1122334D01*
G01*
X284580941Y-102873198D01*
G75*
G02*
X285780678Y-101828267I1122334J-77403D01*
G01*
X285780678Y-101828267D01*
G75*
G02*
X286825609Y-103028004I-77403J-1122334D01*
G01*
X286785609Y-103608004D01*
G75*
G02*
X285585872Y-104652935I-1122334J77403D01*
G01*
G37*
G04 #@! TD.AperFunction*
X261613275Y-104030601D03*
G04 #@! TA.AperFunction,ComponentPad*
G36*
G01*
X259551963Y-106327951D02*
X259551958Y-106327946D01*
G75*
G02*
X259465930Y-104739284I751317J837345D01*
G01*
X260775932Y-103279284D01*
G75*
G02*
X262364594Y-103193256I837345J-751317D01*
G01*
X262364594Y-103193256D01*
G75*
G02*
X262450622Y-104781918I-751317J-837345D01*
G01*
X261140620Y-106241918D01*
G75*
G02*
X259551958Y-106327946I-837345J751317D01*
G01*
G37*
G04 #@! TD.AperFunction*
X266653275Y-102950601D03*
G04 #@! TA.AperFunction,ComponentPad*
G36*
G01*
X266536758Y-104652996D02*
X266535872Y-104652935D01*
G75*
G02*
X265490941Y-103453198I77403J1122334D01*
G01*
X265530941Y-102873198D01*
G75*
G02*
X266730678Y-101828267I1122334J-77403D01*
G01*
X266730678Y-101828267D01*
G75*
G02*
X267775609Y-103028004I-77403J-1122334D01*
G01*
X267735609Y-103608004D01*
G75*
G02*
X266535872Y-104652935I-1122334J77403D01*
G01*
G37*
G04 #@! TD.AperFunction*
X242563275Y-104030601D03*
G04 #@! TA.AperFunction,ComponentPad*
G36*
G01*
X240501963Y-106327951D02*
X240501958Y-106327946D01*
G75*
G02*
X240415930Y-104739284I751317J837345D01*
G01*
X241725932Y-103279284D01*
G75*
G02*
X243314594Y-103193256I837345J-751317D01*
G01*
X243314594Y-103193256D01*
G75*
G02*
X243400622Y-104781918I-751317J-837345D01*
G01*
X242090620Y-106241918D01*
G75*
G02*
X240501958Y-106327946I-837345J751317D01*
G01*
G37*
G04 #@! TD.AperFunction*
X247603275Y-102950601D03*
G04 #@! TA.AperFunction,ComponentPad*
G36*
G01*
X247486758Y-104652996D02*
X247485872Y-104652935D01*
G75*
G02*
X246440941Y-103453198I77403J1122334D01*
G01*
X246480941Y-102873198D01*
G75*
G02*
X247680678Y-101828267I1122334J-77403D01*
G01*
X247680678Y-101828267D01*
G75*
G02*
X248725609Y-103028004I-77403J-1122334D01*
G01*
X248685609Y-103608004D01*
G75*
G02*
X247485872Y-104652935I-1122334J77403D01*
G01*
G37*
G04 #@! TD.AperFunction*
X223513275Y-104030601D03*
G04 #@! TA.AperFunction,ComponentPad*
G36*
G01*
X221451963Y-106327951D02*
X221451958Y-106327946D01*
G75*
G02*
X221365930Y-104739284I751317J837345D01*
G01*
X222675932Y-103279284D01*
G75*
G02*
X224264594Y-103193256I837345J-751317D01*
G01*
X224264594Y-103193256D01*
G75*
G02*
X224350622Y-104781918I-751317J-837345D01*
G01*
X223040620Y-106241918D01*
G75*
G02*
X221451958Y-106327946I-837345J751317D01*
G01*
G37*
G04 #@! TD.AperFunction*
X228553275Y-102950601D03*
G04 #@! TA.AperFunction,ComponentPad*
G36*
G01*
X228436758Y-104652996D02*
X228435872Y-104652935D01*
G75*
G02*
X227390941Y-103453198I77403J1122334D01*
G01*
X227430941Y-102873198D01*
G75*
G02*
X228630678Y-101828267I1122334J-77403D01*
G01*
X228630678Y-101828267D01*
G75*
G02*
X229675609Y-103028004I-77403J-1122334D01*
G01*
X229635609Y-103608004D01*
G75*
G02*
X228435872Y-104652935I-1122334J77403D01*
G01*
G37*
G04 #@! TD.AperFunction*
X204463275Y-104030601D03*
G04 #@! TA.AperFunction,ComponentPad*
G36*
G01*
X202401963Y-106327951D02*
X202401958Y-106327946D01*
G75*
G02*
X202315930Y-104739284I751317J837345D01*
G01*
X203625932Y-103279284D01*
G75*
G02*
X205214594Y-103193256I837345J-751317D01*
G01*
X205214594Y-103193256D01*
G75*
G02*
X205300622Y-104781918I-751317J-837345D01*
G01*
X203990620Y-106241918D01*
G75*
G02*
X202401958Y-106327946I-837345J751317D01*
G01*
G37*
G04 #@! TD.AperFunction*
X209503275Y-102950601D03*
G04 #@! TA.AperFunction,ComponentPad*
G36*
G01*
X209386758Y-104652996D02*
X209385872Y-104652935D01*
G75*
G02*
X208340941Y-103453198I77403J1122334D01*
G01*
X208380941Y-102873198D01*
G75*
G02*
X209580678Y-101828267I1122334J-77403D01*
G01*
X209580678Y-101828267D01*
G75*
G02*
X210625609Y-103028004I-77403J-1122334D01*
G01*
X210585609Y-103608004D01*
G75*
G02*
X209385872Y-104652935I-1122334J77403D01*
G01*
G37*
G04 #@! TD.AperFunction*
X185413275Y-104030601D03*
G04 #@! TA.AperFunction,ComponentPad*
G36*
G01*
X183351963Y-106327951D02*
X183351958Y-106327946D01*
G75*
G02*
X183265930Y-104739284I751317J837345D01*
G01*
X184575932Y-103279284D01*
G75*
G02*
X186164594Y-103193256I837345J-751317D01*
G01*
X186164594Y-103193256D01*
G75*
G02*
X186250622Y-104781918I-751317J-837345D01*
G01*
X184940620Y-106241918D01*
G75*
G02*
X183351958Y-106327946I-837345J751317D01*
G01*
G37*
G04 #@! TD.AperFunction*
X190453275Y-102950601D03*
G04 #@! TA.AperFunction,ComponentPad*
G36*
G01*
X190336758Y-104652996D02*
X190335872Y-104652935D01*
G75*
G02*
X189290941Y-103453198I77403J1122334D01*
G01*
X189330941Y-102873198D01*
G75*
G02*
X190530678Y-101828267I1122334J-77403D01*
G01*
X190530678Y-101828267D01*
G75*
G02*
X191575609Y-103028004I-77403J-1122334D01*
G01*
X191535609Y-103608004D01*
G75*
G02*
X190335872Y-104652935I-1122334J77403D01*
G01*
G37*
G04 #@! TD.AperFunction*
X166363275Y-104030601D03*
G04 #@! TA.AperFunction,ComponentPad*
G36*
G01*
X164301963Y-106327951D02*
X164301958Y-106327946D01*
G75*
G02*
X164215930Y-104739284I751317J837345D01*
G01*
X165525932Y-103279284D01*
G75*
G02*
X167114594Y-103193256I837345J-751317D01*
G01*
X167114594Y-103193256D01*
G75*
G02*
X167200622Y-104781918I-751317J-837345D01*
G01*
X165890620Y-106241918D01*
G75*
G02*
X164301958Y-106327946I-837345J751317D01*
G01*
G37*
G04 #@! TD.AperFunction*
X171403275Y-102950601D03*
G04 #@! TA.AperFunction,ComponentPad*
G36*
G01*
X171286758Y-104652996D02*
X171285872Y-104652935D01*
G75*
G02*
X170240941Y-103453198I77403J1122334D01*
G01*
X170280941Y-102873198D01*
G75*
G02*
X171480678Y-101828267I1122334J-77403D01*
G01*
X171480678Y-101828267D01*
G75*
G02*
X172525609Y-103028004I-77403J-1122334D01*
G01*
X172485609Y-103608004D01*
G75*
G02*
X171285872Y-104652935I-1122334J77403D01*
G01*
G37*
G04 #@! TD.AperFunction*
X147312975Y-104030601D03*
G04 #@! TA.AperFunction,ComponentPad*
G36*
G01*
X145251663Y-106327951D02*
X145251658Y-106327946D01*
G75*
G02*
X145165630Y-104739284I751317J837345D01*
G01*
X146475632Y-103279284D01*
G75*
G02*
X148064294Y-103193256I837345J-751317D01*
G01*
X148064294Y-103193256D01*
G75*
G02*
X148150322Y-104781918I-751317J-837345D01*
G01*
X146840320Y-106241918D01*
G75*
G02*
X145251658Y-106327946I-837345J751317D01*
G01*
G37*
G04 #@! TD.AperFunction*
X152352975Y-102950601D03*
G04 #@! TA.AperFunction,ComponentPad*
G36*
G01*
X152236458Y-104652996D02*
X152235572Y-104652935D01*
G75*
G02*
X151190641Y-103453198I77403J1122334D01*
G01*
X151230641Y-102873198D01*
G75*
G02*
X152430378Y-101828267I1122334J-77403D01*
G01*
X152430378Y-101828267D01*
G75*
G02*
X153475309Y-103028004I-77403J-1122334D01*
G01*
X153435309Y-103608004D01*
G75*
G02*
X152235572Y-104652935I-1122334J77403D01*
G01*
G37*
G04 #@! TD.AperFunction*
X128262975Y-104030601D03*
G04 #@! TA.AperFunction,ComponentPad*
G36*
G01*
X126201663Y-106327951D02*
X126201658Y-106327946D01*
G75*
G02*
X126115630Y-104739284I751317J837345D01*
G01*
X127425632Y-103279284D01*
G75*
G02*
X129014294Y-103193256I837345J-751317D01*
G01*
X129014294Y-103193256D01*
G75*
G02*
X129100322Y-104781918I-751317J-837345D01*
G01*
X127790320Y-106241918D01*
G75*
G02*
X126201658Y-106327946I-837345J751317D01*
G01*
G37*
G04 #@! TD.AperFunction*
X133302975Y-102950601D03*
G04 #@! TA.AperFunction,ComponentPad*
G36*
G01*
X133186458Y-104652996D02*
X133185572Y-104652935D01*
G75*
G02*
X132140641Y-103453198I77403J1122334D01*
G01*
X132180641Y-102873198D01*
G75*
G02*
X133380378Y-101828267I1122334J-77403D01*
G01*
X133380378Y-101828267D01*
G75*
G02*
X134425309Y-103028004I-77403J-1122334D01*
G01*
X134385309Y-103608004D01*
G75*
G02*
X133185572Y-104652935I-1122334J77403D01*
G01*
G37*
G04 #@! TD.AperFunction*
X109212975Y-104030601D03*
G04 #@! TA.AperFunction,ComponentPad*
G36*
G01*
X107151663Y-106327951D02*
X107151658Y-106327946D01*
G75*
G02*
X107065630Y-104739284I751317J837345D01*
G01*
X108375632Y-103279284D01*
G75*
G02*
X109964294Y-103193256I837345J-751317D01*
G01*
X109964294Y-103193256D01*
G75*
G02*
X110050322Y-104781918I-751317J-837345D01*
G01*
X108740320Y-106241918D01*
G75*
G02*
X107151658Y-106327946I-837345J751317D01*
G01*
G37*
G04 #@! TD.AperFunction*
X114252975Y-102950601D03*
G04 #@! TA.AperFunction,ComponentPad*
G36*
G01*
X114136458Y-104652996D02*
X114135572Y-104652935D01*
G75*
G02*
X113090641Y-103453198I77403J1122334D01*
G01*
X113130641Y-102873198D01*
G75*
G02*
X114330378Y-101828267I1122334J-77403D01*
G01*
X114330378Y-101828267D01*
G75*
G02*
X115375309Y-103028004I-77403J-1122334D01*
G01*
X115335309Y-103608004D01*
G75*
G02*
X114135572Y-104652935I-1122334J77403D01*
G01*
G37*
G04 #@! TD.AperFunction*
X90162974Y-104030601D03*
G04 #@! TA.AperFunction,ComponentPad*
G36*
G01*
X88101662Y-106327951D02*
X88101657Y-106327946D01*
G75*
G02*
X88015629Y-104739284I751317J837345D01*
G01*
X89325631Y-103279284D01*
G75*
G02*
X90914293Y-103193256I837345J-751317D01*
G01*
X90914293Y-103193256D01*
G75*
G02*
X91000321Y-104781918I-751317J-837345D01*
G01*
X89690319Y-106241918D01*
G75*
G02*
X88101657Y-106327946I-837345J751317D01*
G01*
G37*
G04 #@! TD.AperFunction*
X95202974Y-102950601D03*
G04 #@! TA.AperFunction,ComponentPad*
G36*
G01*
X95086457Y-104652996D02*
X95085571Y-104652935D01*
G75*
G02*
X94040640Y-103453198I77403J1122334D01*
G01*
X94080640Y-102873198D01*
G75*
G02*
X95280377Y-101828267I1122334J-77403D01*
G01*
X95280377Y-101828267D01*
G75*
G02*
X96325308Y-103028004I-77403J-1122334D01*
G01*
X96285308Y-103608004D01*
G75*
G02*
X95085571Y-104652935I-1122334J77403D01*
G01*
G37*
G04 #@! TD.AperFunction*
X66350435Y-104030601D03*
G04 #@! TA.AperFunction,ComponentPad*
G36*
G01*
X64289123Y-106327951D02*
X64289118Y-106327946D01*
G75*
G02*
X64203090Y-104739284I751317J837345D01*
G01*
X65513092Y-103279284D01*
G75*
G02*
X67101754Y-103193256I837345J-751317D01*
G01*
X67101754Y-103193256D01*
G75*
G02*
X67187782Y-104781918I-751317J-837345D01*
G01*
X65877780Y-106241918D01*
G75*
G02*
X64289118Y-106327946I-837345J751317D01*
G01*
G37*
G04 #@! TD.AperFunction*
X71390435Y-102950601D03*
G04 #@! TA.AperFunction,ComponentPad*
G36*
G01*
X71273918Y-104652996D02*
X71273032Y-104652935D01*
G75*
G02*
X70228101Y-103453198I77403J1122334D01*
G01*
X70268101Y-102873198D01*
G75*
G02*
X71467838Y-101828267I1122334J-77403D01*
G01*
X71467838Y-101828267D01*
G75*
G02*
X72512769Y-103028004I-77403J-1122334D01*
G01*
X72472769Y-103608004D01*
G75*
G02*
X71273032Y-104652935I-1122334J77403D01*
G01*
G37*
G04 #@! TD.AperFunction*
X347338275Y-84980600D03*
G04 #@! TA.AperFunction,ComponentPad*
G36*
G01*
X345276963Y-87277950D02*
X345276958Y-87277945D01*
G75*
G02*
X345190930Y-85689283I751317J837345D01*
G01*
X346500932Y-84229283D01*
G75*
G02*
X348089594Y-84143255I837345J-751317D01*
G01*
X348089594Y-84143255D01*
G75*
G02*
X348175622Y-85731917I-751317J-837345D01*
G01*
X346865620Y-87191917D01*
G75*
G02*
X345276958Y-87277945I-837345J751317D01*
G01*
G37*
G04 #@! TD.AperFunction*
X352378275Y-83900600D03*
G04 #@! TA.AperFunction,ComponentPad*
G36*
G01*
X352261758Y-85602995D02*
X352260872Y-85602934D01*
G75*
G02*
X351215941Y-84403197I77403J1122334D01*
G01*
X351255941Y-83823197D01*
G75*
G02*
X352455678Y-82778266I1122334J-77403D01*
G01*
X352455678Y-82778266D01*
G75*
G02*
X353500609Y-83978003I-77403J-1122334D01*
G01*
X353460609Y-84558003D01*
G75*
G02*
X352260872Y-85602934I-1122334J77403D01*
G01*
G37*
G04 #@! TD.AperFunction*
X318763275Y-84980600D03*
G04 #@! TA.AperFunction,ComponentPad*
G36*
G01*
X316701963Y-87277950D02*
X316701958Y-87277945D01*
G75*
G02*
X316615930Y-85689283I751317J837345D01*
G01*
X317925932Y-84229283D01*
G75*
G02*
X319514594Y-84143255I837345J-751317D01*
G01*
X319514594Y-84143255D01*
G75*
G02*
X319600622Y-85731917I-751317J-837345D01*
G01*
X318290620Y-87191917D01*
G75*
G02*
X316701958Y-87277945I-837345J751317D01*
G01*
G37*
G04 #@! TD.AperFunction*
X323803275Y-83900600D03*
G04 #@! TA.AperFunction,ComponentPad*
G36*
G01*
X323686758Y-85602995D02*
X323685872Y-85602934D01*
G75*
G02*
X322640941Y-84403197I77403J1122334D01*
G01*
X322680941Y-83823197D01*
G75*
G02*
X323880678Y-82778266I1122334J-77403D01*
G01*
X323880678Y-82778266D01*
G75*
G02*
X324925609Y-83978003I-77403J-1122334D01*
G01*
X324885609Y-84558003D01*
G75*
G02*
X323685872Y-85602934I-1122334J77403D01*
G01*
G37*
G04 #@! TD.AperFunction*
X290188275Y-84980600D03*
G04 #@! TA.AperFunction,ComponentPad*
G36*
G01*
X288126963Y-87277950D02*
X288126958Y-87277945D01*
G75*
G02*
X288040930Y-85689283I751317J837345D01*
G01*
X289350932Y-84229283D01*
G75*
G02*
X290939594Y-84143255I837345J-751317D01*
G01*
X290939594Y-84143255D01*
G75*
G02*
X291025622Y-85731917I-751317J-837345D01*
G01*
X289715620Y-87191917D01*
G75*
G02*
X288126958Y-87277945I-837345J751317D01*
G01*
G37*
G04 #@! TD.AperFunction*
X295228275Y-83900600D03*
G04 #@! TA.AperFunction,ComponentPad*
G36*
G01*
X295111758Y-85602995D02*
X295110872Y-85602934D01*
G75*
G02*
X294065941Y-84403197I77403J1122334D01*
G01*
X294105941Y-83823197D01*
G75*
G02*
X295305678Y-82778266I1122334J-77403D01*
G01*
X295305678Y-82778266D01*
G75*
G02*
X296350609Y-83978003I-77403J-1122334D01*
G01*
X296310609Y-84558003D01*
G75*
G02*
X295110872Y-85602934I-1122334J77403D01*
G01*
G37*
G04 #@! TD.AperFunction*
X271138275Y-84980600D03*
G04 #@! TA.AperFunction,ComponentPad*
G36*
G01*
X269076963Y-87277950D02*
X269076958Y-87277945D01*
G75*
G02*
X268990930Y-85689283I751317J837345D01*
G01*
X270300932Y-84229283D01*
G75*
G02*
X271889594Y-84143255I837345J-751317D01*
G01*
X271889594Y-84143255D01*
G75*
G02*
X271975622Y-85731917I-751317J-837345D01*
G01*
X270665620Y-87191917D01*
G75*
G02*
X269076958Y-87277945I-837345J751317D01*
G01*
G37*
G04 #@! TD.AperFunction*
X276178275Y-83900600D03*
G04 #@! TA.AperFunction,ComponentPad*
G36*
G01*
X276061758Y-85602995D02*
X276060872Y-85602934D01*
G75*
G02*
X275015941Y-84403197I77403J1122334D01*
G01*
X275055941Y-83823197D01*
G75*
G02*
X276255678Y-82778266I1122334J-77403D01*
G01*
X276255678Y-82778266D01*
G75*
G02*
X277300609Y-83978003I-77403J-1122334D01*
G01*
X277260609Y-84558003D01*
G75*
G02*
X276060872Y-85602934I-1122334J77403D01*
G01*
G37*
G04 #@! TD.AperFunction*
X252088275Y-84980600D03*
G04 #@! TA.AperFunction,ComponentPad*
G36*
G01*
X250026963Y-87277950D02*
X250026958Y-87277945D01*
G75*
G02*
X249940930Y-85689283I751317J837345D01*
G01*
X251250932Y-84229283D01*
G75*
G02*
X252839594Y-84143255I837345J-751317D01*
G01*
X252839594Y-84143255D01*
G75*
G02*
X252925622Y-85731917I-751317J-837345D01*
G01*
X251615620Y-87191917D01*
G75*
G02*
X250026958Y-87277945I-837345J751317D01*
G01*
G37*
G04 #@! TD.AperFunction*
X257128275Y-83900600D03*
G04 #@! TA.AperFunction,ComponentPad*
G36*
G01*
X257011758Y-85602995D02*
X257010872Y-85602934D01*
G75*
G02*
X255965941Y-84403197I77403J1122334D01*
G01*
X256005941Y-83823197D01*
G75*
G02*
X257205678Y-82778266I1122334J-77403D01*
G01*
X257205678Y-82778266D01*
G75*
G02*
X258250609Y-83978003I-77403J-1122334D01*
G01*
X258210609Y-84558003D01*
G75*
G02*
X257010872Y-85602934I-1122334J77403D01*
G01*
G37*
G04 #@! TD.AperFunction*
X233038275Y-84980600D03*
G04 #@! TA.AperFunction,ComponentPad*
G36*
G01*
X230976963Y-87277950D02*
X230976958Y-87277945D01*
G75*
G02*
X230890930Y-85689283I751317J837345D01*
G01*
X232200932Y-84229283D01*
G75*
G02*
X233789594Y-84143255I837345J-751317D01*
G01*
X233789594Y-84143255D01*
G75*
G02*
X233875622Y-85731917I-751317J-837345D01*
G01*
X232565620Y-87191917D01*
G75*
G02*
X230976958Y-87277945I-837345J751317D01*
G01*
G37*
G04 #@! TD.AperFunction*
X238078275Y-83900600D03*
G04 #@! TA.AperFunction,ComponentPad*
G36*
G01*
X237961758Y-85602995D02*
X237960872Y-85602934D01*
G75*
G02*
X236915941Y-84403197I77403J1122334D01*
G01*
X236955941Y-83823197D01*
G75*
G02*
X238155678Y-82778266I1122334J-77403D01*
G01*
X238155678Y-82778266D01*
G75*
G02*
X239200609Y-83978003I-77403J-1122334D01*
G01*
X239160609Y-84558003D01*
G75*
G02*
X237960872Y-85602934I-1122334J77403D01*
G01*
G37*
G04 #@! TD.AperFunction*
X194938275Y-84980600D03*
G04 #@! TA.AperFunction,ComponentPad*
G36*
G01*
X192876963Y-87277950D02*
X192876958Y-87277945D01*
G75*
G02*
X192790930Y-85689283I751317J837345D01*
G01*
X194100932Y-84229283D01*
G75*
G02*
X195689594Y-84143255I837345J-751317D01*
G01*
X195689594Y-84143255D01*
G75*
G02*
X195775622Y-85731917I-751317J-837345D01*
G01*
X194465620Y-87191917D01*
G75*
G02*
X192876958Y-87277945I-837345J751317D01*
G01*
G37*
G04 #@! TD.AperFunction*
X199978275Y-83900600D03*
G04 #@! TA.AperFunction,ComponentPad*
G36*
G01*
X199861758Y-85602995D02*
X199860872Y-85602934D01*
G75*
G02*
X198815941Y-84403197I77403J1122334D01*
G01*
X198855941Y-83823197D01*
G75*
G02*
X200055678Y-82778266I1122334J-77403D01*
G01*
X200055678Y-82778266D01*
G75*
G02*
X201100609Y-83978003I-77403J-1122334D01*
G01*
X201060609Y-84558003D01*
G75*
G02*
X199860872Y-85602934I-1122334J77403D01*
G01*
G37*
G04 #@! TD.AperFunction*
X175886275Y-84980600D03*
G04 #@! TA.AperFunction,ComponentPad*
G36*
G01*
X173824963Y-87277950D02*
X173824958Y-87277945D01*
G75*
G02*
X173738930Y-85689283I751317J837345D01*
G01*
X175048932Y-84229283D01*
G75*
G02*
X176637594Y-84143255I837345J-751317D01*
G01*
X176637594Y-84143255D01*
G75*
G02*
X176723622Y-85731917I-751317J-837345D01*
G01*
X175413620Y-87191917D01*
G75*
G02*
X173824958Y-87277945I-837345J751317D01*
G01*
G37*
G04 #@! TD.AperFunction*
X180926275Y-83900600D03*
G04 #@! TA.AperFunction,ComponentPad*
G36*
G01*
X180809758Y-85602995D02*
X180808872Y-85602934D01*
G75*
G02*
X179763941Y-84403197I77403J1122334D01*
G01*
X179803941Y-83823197D01*
G75*
G02*
X181003678Y-82778266I1122334J-77403D01*
G01*
X181003678Y-82778266D01*
G75*
G02*
X182048609Y-83978003I-77403J-1122334D01*
G01*
X182008609Y-84558003D01*
G75*
G02*
X180808872Y-85602934I-1122334J77403D01*
G01*
G37*
G04 #@! TD.AperFunction*
X156836575Y-84980600D03*
G04 #@! TA.AperFunction,ComponentPad*
G36*
G01*
X154775263Y-87277950D02*
X154775258Y-87277945D01*
G75*
G02*
X154689230Y-85689283I751317J837345D01*
G01*
X155999232Y-84229283D01*
G75*
G02*
X157587894Y-84143255I837345J-751317D01*
G01*
X157587894Y-84143255D01*
G75*
G02*
X157673922Y-85731917I-751317J-837345D01*
G01*
X156363920Y-87191917D01*
G75*
G02*
X154775258Y-87277945I-837345J751317D01*
G01*
G37*
G04 #@! TD.AperFunction*
X161876575Y-83900600D03*
G04 #@! TA.AperFunction,ComponentPad*
G36*
G01*
X161760058Y-85602995D02*
X161759172Y-85602934D01*
G75*
G02*
X160714241Y-84403197I77403J1122334D01*
G01*
X160754241Y-83823197D01*
G75*
G02*
X161953978Y-82778266I1122334J-77403D01*
G01*
X161953978Y-82778266D01*
G75*
G02*
X162998909Y-83978003I-77403J-1122334D01*
G01*
X162958909Y-84558003D01*
G75*
G02*
X161759172Y-85602934I-1122334J77403D01*
G01*
G37*
G04 #@! TD.AperFunction*
X137787974Y-84980600D03*
G04 #@! TA.AperFunction,ComponentPad*
G36*
G01*
X135726662Y-87277950D02*
X135726657Y-87277945D01*
G75*
G02*
X135640629Y-85689283I751317J837345D01*
G01*
X136950631Y-84229283D01*
G75*
G02*
X138539293Y-84143255I837345J-751317D01*
G01*
X138539293Y-84143255D01*
G75*
G02*
X138625321Y-85731917I-751317J-837345D01*
G01*
X137315319Y-87191917D01*
G75*
G02*
X135726657Y-87277945I-837345J751317D01*
G01*
G37*
G04 #@! TD.AperFunction*
X142827974Y-83900600D03*
G04 #@! TA.AperFunction,ComponentPad*
G36*
G01*
X142711457Y-85602995D02*
X142710571Y-85602934D01*
G75*
G02*
X141665640Y-84403197I77403J1122334D01*
G01*
X141705640Y-83823197D01*
G75*
G02*
X142905377Y-82778266I1122334J-77403D01*
G01*
X142905377Y-82778266D01*
G75*
G02*
X143950308Y-83978003I-77403J-1122334D01*
G01*
X143910308Y-84558003D01*
G75*
G02*
X142710571Y-85602934I-1122334J77403D01*
G01*
G37*
G04 #@! TD.AperFunction*
X118737975Y-84980600D03*
G04 #@! TA.AperFunction,ComponentPad*
G36*
G01*
X116676663Y-87277950D02*
X116676658Y-87277945D01*
G75*
G02*
X116590630Y-85689283I751317J837345D01*
G01*
X117900632Y-84229283D01*
G75*
G02*
X119489294Y-84143255I837345J-751317D01*
G01*
X119489294Y-84143255D01*
G75*
G02*
X119575322Y-85731917I-751317J-837345D01*
G01*
X118265320Y-87191917D01*
G75*
G02*
X116676658Y-87277945I-837345J751317D01*
G01*
G37*
G04 #@! TD.AperFunction*
X123777975Y-83900600D03*
G04 #@! TA.AperFunction,ComponentPad*
G36*
G01*
X123661458Y-85602995D02*
X123660572Y-85602934D01*
G75*
G02*
X122615641Y-84403197I77403J1122334D01*
G01*
X122655641Y-83823197D01*
G75*
G02*
X123855378Y-82778266I1122334J-77403D01*
G01*
X123855378Y-82778266D01*
G75*
G02*
X124900309Y-83978003I-77403J-1122334D01*
G01*
X124860309Y-84558003D01*
G75*
G02*
X123660572Y-85602934I-1122334J77403D01*
G01*
G37*
G04 #@! TD.AperFunction*
X99687975Y-84980600D03*
G04 #@! TA.AperFunction,ComponentPad*
G36*
G01*
X97626663Y-87277950D02*
X97626658Y-87277945D01*
G75*
G02*
X97540630Y-85689283I751317J837345D01*
G01*
X98850632Y-84229283D01*
G75*
G02*
X100439294Y-84143255I837345J-751317D01*
G01*
X100439294Y-84143255D01*
G75*
G02*
X100525322Y-85731917I-751317J-837345D01*
G01*
X99215320Y-87191917D01*
G75*
G02*
X97626658Y-87277945I-837345J751317D01*
G01*
G37*
G04 #@! TD.AperFunction*
X104727975Y-83900600D03*
G04 #@! TA.AperFunction,ComponentPad*
G36*
G01*
X104611458Y-85602995D02*
X104610572Y-85602934D01*
G75*
G02*
X103565641Y-84403197I77403J1122334D01*
G01*
X103605641Y-83823197D01*
G75*
G02*
X104805378Y-82778266I1122334J-77403D01*
G01*
X104805378Y-82778266D01*
G75*
G02*
X105850309Y-83978003I-77403J-1122334D01*
G01*
X105810309Y-84558003D01*
G75*
G02*
X104610572Y-85602934I-1122334J77403D01*
G01*
G37*
G04 #@! TD.AperFunction*
X80637975Y-84980600D03*
G04 #@! TA.AperFunction,ComponentPad*
G36*
G01*
X78576663Y-87277950D02*
X78576658Y-87277945D01*
G75*
G02*
X78490630Y-85689283I751317J837345D01*
G01*
X79800632Y-84229283D01*
G75*
G02*
X81389294Y-84143255I837345J-751317D01*
G01*
X81389294Y-84143255D01*
G75*
G02*
X81475322Y-85731917I-751317J-837345D01*
G01*
X80165320Y-87191917D01*
G75*
G02*
X78576658Y-87277945I-837345J751317D01*
G01*
G37*
G04 #@! TD.AperFunction*
X85677975Y-83900600D03*
G04 #@! TA.AperFunction,ComponentPad*
G36*
G01*
X85561458Y-85602995D02*
X85560572Y-85602934D01*
G75*
G02*
X84515641Y-84403197I77403J1122334D01*
G01*
X84555641Y-83823197D01*
G75*
G02*
X85755378Y-82778266I1122334J-77403D01*
G01*
X85755378Y-82778266D01*
G75*
G02*
X86800309Y-83978003I-77403J-1122334D01*
G01*
X86760309Y-84558003D01*
G75*
G02*
X85560572Y-85602934I-1122334J77403D01*
G01*
G37*
G04 #@! TD.AperFunction*
X61587925Y-84980600D03*
G04 #@! TA.AperFunction,ComponentPad*
G36*
G01*
X59526613Y-87277950D02*
X59526608Y-87277945D01*
G75*
G02*
X59440580Y-85689283I751317J837345D01*
G01*
X60750582Y-84229283D01*
G75*
G02*
X62339244Y-84143255I837345J-751317D01*
G01*
X62339244Y-84143255D01*
G75*
G02*
X62425272Y-85731917I-751317J-837345D01*
G01*
X61115270Y-87191917D01*
G75*
G02*
X59526608Y-87277945I-837345J751317D01*
G01*
G37*
G04 #@! TD.AperFunction*
X66627925Y-83900600D03*
G04 #@! TA.AperFunction,ComponentPad*
G36*
G01*
X66511408Y-85602995D02*
X66510522Y-85602934D01*
G75*
G02*
X65465591Y-84403197I77403J1122334D01*
G01*
X65505591Y-83823197D01*
G75*
G02*
X66705328Y-82778266I1122334J-77403D01*
G01*
X66705328Y-82778266D01*
G75*
G02*
X67750259Y-83978003I-77403J-1122334D01*
G01*
X67710259Y-84558003D01*
G75*
G02*
X66510522Y-85602934I-1122334J77403D01*
G01*
G37*
G04 #@! TD.AperFunction*
D13*
X132715000Y-163195000D03*
D14*
X132715000Y-160655000D03*
X130175000Y-163195000D03*
X130175000Y-160655000D03*
X127635000Y-163195000D03*
X127635000Y-160655000D03*
D15*
X200152000Y-160147000D03*
X161036000Y-158369000D03*
X156464000Y-169799000D03*
X199644000Y-97028000D03*
X209423000Y-97028000D03*
X223266000Y-149479000D03*
X157099000Y-159385000D03*
X203962000Y-164004500D03*
X227076000Y-155448000D03*
X221107000Y-155448000D03*
X232918000Y-163830000D03*
X223520000Y-170942000D03*
X204724000Y-98933000D03*
X221361000Y-149606000D03*
X252730000Y-149606000D03*
X249682000Y-96012000D03*
X194945000Y-91821000D03*
X221361000Y-91821000D03*
X251587000Y-149606000D03*
X258445000Y-114427000D03*
X208788000Y-110363000D03*
X211709000Y-110363000D03*
X213106000Y-129413000D03*
X216662000Y-129413000D03*
X227203000Y-150749000D03*
X212598000Y-147701000D03*
X127635000Y-168275000D03*
X195199000Y-170561000D03*
X254635130Y-167774238D03*
X159131000Y-152019000D03*
X158242000Y-155321000D03*
X102743000Y-168402000D03*
X217926814Y-153676223D03*
X167640000Y-139319000D03*
X218567000Y-152908000D03*
X168402000Y-138430000D03*
X160274000Y-154940000D03*
X190754000Y-168402000D03*
X224056500Y-152146000D03*
X225171000Y-151476000D03*
X222758000Y-138430000D03*
X262128000Y-168402000D03*
X281432000Y-168402000D03*
X300228000Y-168275000D03*
X319151000Y-168402000D03*
X338328000Y-168402000D03*
X205486000Y-85725000D03*
X202819000Y-86995000D03*
X208622575Y-85598000D03*
X210947000Y-87376000D03*
X154305000Y-163703000D03*
X216789000Y-155194000D03*
X209423000Y-86360000D03*
X203835000Y-86741000D03*
D16*
X200152000Y-160147000D02*
X198374000Y-158369000D01*
X198374000Y-158369000D02*
X161036000Y-158369000D01*
X156464000Y-169799000D02*
X158369000Y-167894000D01*
X158369000Y-161036000D02*
X161036000Y-158369000D01*
X158369000Y-167894000D02*
X158369000Y-161036000D01*
X199644000Y-97028000D02*
X209423000Y-97028000D01*
X209423000Y-97028000D02*
X210693000Y-97028000D01*
X210693000Y-97028000D02*
X217932000Y-104267000D01*
X217932000Y-104267000D02*
X217932000Y-123952000D01*
X217932000Y-123952000D02*
X221615000Y-127635000D01*
X221615000Y-141694779D02*
X224827221Y-144907000D01*
X221615000Y-127635000D02*
X221615000Y-141694779D01*
X224827221Y-144907000D02*
X224827221Y-147790779D01*
X223266000Y-149352000D02*
X223266000Y-149479000D01*
X224827221Y-147790779D02*
X223266000Y-149352000D01*
X128875501Y-164435501D02*
X127635000Y-163195000D01*
X129159000Y-164719000D02*
X128875501Y-164435501D01*
X150368000Y-164846000D02*
X150368000Y-164719000D01*
X156111501Y-170589501D02*
X150368000Y-164846000D01*
X193265499Y-170589501D02*
X156111501Y-170589501D01*
X199850500Y-164004500D02*
X193265499Y-170589501D01*
X203962000Y-164004500D02*
X199850500Y-164004500D01*
X150368000Y-164719000D02*
X129159000Y-164719000D01*
X150368000Y-164719000D02*
X155702000Y-159385000D01*
X155702000Y-159385000D02*
X157099000Y-159385000D01*
X227076000Y-155448000D02*
X221107000Y-155448000D01*
X232918000Y-163830000D02*
X232918000Y-167513000D01*
X229489000Y-170942000D02*
X223520000Y-170942000D01*
X232918000Y-167513000D02*
X229489000Y-170942000D01*
X210899500Y-170942000D02*
X203962000Y-164004500D01*
X223520000Y-170942000D02*
X210899500Y-170942000D01*
X204724000Y-98933000D02*
X210693000Y-98933000D01*
X210693000Y-98933000D02*
X211201000Y-98933000D01*
X211201000Y-98933000D02*
X216916000Y-104648000D01*
X216916000Y-104648000D02*
X216916000Y-124333000D01*
X216916000Y-124333000D02*
X220726000Y-128143000D01*
X220726000Y-142077611D02*
X223901000Y-145252611D01*
X220726000Y-128143000D02*
X220726000Y-142077611D01*
X223901000Y-147066000D02*
X221361000Y-149606000D01*
X223901000Y-145252611D02*
X223901000Y-147066000D01*
D17*
X252730000Y-149606000D02*
X252730000Y-143256000D01*
X252730000Y-143256000D02*
X261874000Y-134112000D01*
X261874000Y-134112000D02*
X261874000Y-122428000D01*
X261874000Y-122428000D02*
X259588000Y-120142000D01*
X249682000Y-100458288D02*
X249682000Y-96012000D01*
X259588000Y-110364288D02*
X249682000Y-100458288D01*
X259588000Y-120142000D02*
X259588000Y-110364288D01*
X194945000Y-91821000D02*
X221361000Y-91821000D01*
X251587000Y-149606000D02*
X251587000Y-142748000D01*
X251587000Y-142748000D02*
X260604000Y-133731000D01*
X260604000Y-133731000D02*
X260604000Y-122682000D01*
X258445000Y-120523000D02*
X258445000Y-114427000D01*
X260604000Y-122682000D02*
X258445000Y-120523000D01*
X208788000Y-110363000D02*
X211709000Y-110363000D01*
X213106000Y-129413000D02*
X216662000Y-129413000D01*
X215646000Y-150749000D02*
X227203000Y-150749000D01*
X213360000Y-148463000D02*
X215646000Y-150749000D01*
X213360000Y-148463000D02*
X212598000Y-147701000D01*
X127635000Y-168275000D02*
X138049000Y-168275000D01*
X138684000Y-168275000D02*
X142875000Y-172466000D01*
X138049000Y-168275000D02*
X138684000Y-168275000D01*
X193294000Y-172466000D02*
X195199000Y-170561000D01*
X142875000Y-172466000D02*
X193294000Y-172466000D01*
X195199000Y-170561000D02*
X198755000Y-174117000D01*
X198755000Y-174117000D02*
X241427000Y-174117000D01*
X241427000Y-174117000D02*
X248285000Y-174117000D01*
X248292368Y-174117000D02*
X254635130Y-167774238D01*
X248285000Y-174117000D02*
X248292368Y-174117000D01*
X159131000Y-154432000D02*
X158242000Y-155321000D01*
X159131000Y-152019000D02*
X159131000Y-154432000D01*
X60277925Y-100728091D02*
X65040435Y-105490601D01*
X60277925Y-86440600D02*
X60277925Y-100728091D01*
X65040435Y-122160731D02*
X67420305Y-124540601D01*
X65040435Y-105490601D02*
X65040435Y-122160731D01*
X67420305Y-138826930D02*
X72184175Y-143590800D01*
X67420305Y-124540601D02*
X67420305Y-138826930D01*
X72184175Y-153115770D02*
X62659185Y-162640760D01*
X72184175Y-143590800D02*
X72184175Y-153115770D01*
X79327975Y-95965602D02*
X88852974Y-105490601D01*
X79327975Y-86440600D02*
X79327975Y-95965602D01*
X88852974Y-105490601D02*
X88852974Y-119300026D01*
X93615475Y-124062527D02*
X93615475Y-124540601D01*
X88852974Y-119300026D02*
X93615475Y-124062527D01*
X93615475Y-155495560D02*
X86470275Y-162640760D01*
X93615475Y-124540601D02*
X93615475Y-155495560D01*
X86940326Y-162170709D02*
X86470275Y-162640760D01*
X96511709Y-162170709D02*
X86940326Y-162170709D01*
X102743000Y-168402000D02*
X96511709Y-162170709D01*
X98377975Y-95965601D02*
X107902975Y-105490601D01*
X98377975Y-86440600D02*
X98377975Y-95965601D01*
X107902975Y-119778102D02*
X112665474Y-124540601D01*
X107902975Y-105490601D02*
X107902975Y-119778102D01*
X112665474Y-134065801D02*
X103140475Y-143590800D01*
X112665474Y-124540601D02*
X112665474Y-134065801D01*
X103140475Y-155496960D02*
X110284275Y-162640760D01*
X103140475Y-143590800D02*
X103140475Y-155496960D01*
X117427975Y-95965601D02*
X126952975Y-105490601D01*
X117427975Y-86440600D02*
X117427975Y-95965601D01*
X126952975Y-119778102D02*
X131715474Y-124540601D01*
X126952975Y-105490601D02*
X126952975Y-119778102D01*
X131715474Y-124540601D02*
X131715474Y-134065801D01*
X131715474Y-134065801D02*
X122190475Y-143590800D01*
X131715474Y-134128474D02*
X131715474Y-134065801D01*
X181997223Y-153676223D02*
X167640000Y-139319000D01*
X217926814Y-153676223D02*
X181997223Y-153676223D01*
X136477974Y-95965600D02*
X146002975Y-105490601D01*
X136477974Y-86440600D02*
X136477974Y-95965600D01*
X146002975Y-119778101D02*
X150765475Y-124540601D01*
X146002975Y-105490601D02*
X146002975Y-119778101D01*
X150765475Y-134065800D02*
X141240475Y-143590800D01*
X150765475Y-124540601D02*
X150765475Y-134065800D01*
X150765475Y-134128475D02*
X150765475Y-134065800D01*
X182880000Y-152908000D02*
X168402000Y-138430000D01*
X218567000Y-152908000D02*
X182880000Y-152908000D01*
X155526575Y-95963901D02*
X165053275Y-105490601D01*
X155526575Y-86440600D02*
X155526575Y-95963901D01*
X165053275Y-119778602D02*
X169815274Y-124540601D01*
X165053275Y-105490601D02*
X165053275Y-119778602D01*
X161993169Y-143590800D02*
X160290275Y-143590800D01*
X169815274Y-135768695D02*
X161993169Y-143590800D01*
X169815274Y-124540601D02*
X169815274Y-135768695D01*
X160290275Y-154923725D02*
X160274000Y-154940000D01*
X160290275Y-143590800D02*
X160290275Y-154923725D01*
X190754000Y-168402000D02*
X188341000Y-165989000D01*
X188341000Y-165989000D02*
X188341000Y-163322000D01*
X186199760Y-161180760D02*
X183030275Y-161180760D01*
X188341000Y-163322000D02*
X186199760Y-161180760D01*
X174576275Y-95963601D02*
X184103275Y-105490601D01*
X174576275Y-86440600D02*
X174576275Y-95963601D01*
X184103275Y-119778601D02*
X188865275Y-124540601D01*
X184103275Y-105490601D02*
X184103275Y-119778601D01*
X188865275Y-134065800D02*
X179340275Y-143590800D01*
X188959725Y-132444725D02*
X188865275Y-132444725D01*
X188865275Y-132444725D02*
X188865275Y-134065800D01*
X188865275Y-124540601D02*
X188865275Y-132444725D01*
X179419111Y-143511964D02*
X179340275Y-143590800D01*
X196215000Y-143511964D02*
X179419111Y-143511964D01*
X204849036Y-152146000D02*
X196215000Y-143511964D01*
X224056500Y-152146000D02*
X204849036Y-152146000D01*
X193628275Y-95965601D02*
X203153275Y-105490601D01*
X193628275Y-86440600D02*
X193628275Y-95965601D01*
X203153275Y-119778601D02*
X207915275Y-124540601D01*
X203153275Y-105490601D02*
X203153275Y-119778601D01*
X207915275Y-134065800D02*
X198390275Y-143590800D01*
X207915275Y-131842275D02*
X207915275Y-134065800D01*
X207915275Y-124540601D02*
X207915275Y-131842275D01*
X207411838Y-143590800D02*
X198390275Y-143590800D01*
X215024048Y-151203010D02*
X207411838Y-143590800D01*
X224898010Y-151203010D02*
X215024048Y-151203010D01*
X225171000Y-151476000D02*
X224898010Y-151203010D01*
X212678275Y-86440600D02*
X212690001Y-86452326D01*
X212678275Y-86290600D02*
X213988275Y-84980600D01*
X212678275Y-86440600D02*
X212678275Y-86290600D01*
X212678275Y-86440600D02*
X217250600Y-86440600D01*
X222203275Y-91393275D02*
X222203275Y-105490601D01*
X217250600Y-86440600D02*
X222203275Y-91393275D01*
X222203275Y-119778601D02*
X226965275Y-124540601D01*
X222203275Y-105490601D02*
X222203275Y-119778601D01*
X226965275Y-134222725D02*
X222758000Y-138430000D01*
X226965275Y-124540601D02*
X226965275Y-134222725D01*
X231728275Y-95965601D02*
X241253275Y-105490601D01*
X231728275Y-86440600D02*
X231728275Y-95965601D01*
X241253275Y-119778601D02*
X246015275Y-124540601D01*
X241253275Y-105490601D02*
X241253275Y-119778601D01*
X246015275Y-134065800D02*
X236490275Y-143590800D01*
X246015275Y-124540601D02*
X246015275Y-134065800D01*
X236490275Y-148352760D02*
X250778275Y-162640760D01*
X236490275Y-143590800D02*
X236490275Y-148352760D01*
X250778275Y-95965601D02*
X260303275Y-105490601D01*
X250778275Y-86440600D02*
X250778275Y-95965601D01*
X260303275Y-119778601D02*
X265065275Y-124540601D01*
X260303275Y-105490601D02*
X260303275Y-119778601D01*
X257201313Y-143590800D02*
X255540275Y-143590800D01*
X265065275Y-135726838D02*
X257201313Y-143590800D01*
X265065275Y-124540601D02*
X265065275Y-135726838D01*
X255540275Y-148352760D02*
X269828275Y-162640760D01*
X255540275Y-143590800D02*
X255540275Y-148352760D01*
X267889240Y-162640760D02*
X269828275Y-162640760D01*
X262128000Y-168402000D02*
X267889240Y-162640760D01*
X269828275Y-95965601D02*
X279353275Y-105490601D01*
X269828275Y-86440600D02*
X269828275Y-95965601D01*
X279353275Y-119778601D02*
X284115275Y-124540601D01*
X279353275Y-105490601D02*
X279353275Y-119778601D01*
X284115275Y-134065800D02*
X274590275Y-143590800D01*
X284115275Y-124540601D02*
X284115275Y-134065800D01*
X288878275Y-161461750D02*
X288878275Y-162640760D01*
X274590275Y-147173750D02*
X288878275Y-161461750D01*
X274590275Y-143590800D02*
X274590275Y-147173750D01*
X287193240Y-162640760D02*
X288878275Y-162640760D01*
X281432000Y-168402000D02*
X287193240Y-162640760D01*
X288878275Y-95965602D02*
X298403274Y-105490601D01*
X288878275Y-86440600D02*
X288878275Y-95965602D01*
X298403274Y-141209800D02*
X300784274Y-143590800D01*
X298403274Y-105490601D02*
X298403274Y-141209800D01*
X300784274Y-155496759D02*
X307928275Y-162640760D01*
X300784274Y-143590800D02*
X300784274Y-155496759D01*
X305862240Y-162640760D02*
X307928275Y-162640760D01*
X300228000Y-168275000D02*
X305862240Y-162640760D01*
X317453275Y-100728601D02*
X322215275Y-105490601D01*
X317453275Y-86440600D02*
X317453275Y-100728601D01*
X322215275Y-117395601D02*
X315070275Y-124540601D01*
X322215275Y-105490601D02*
X322215275Y-117395601D01*
X315070275Y-131682800D02*
X326978275Y-143590800D01*
X315070275Y-124540601D02*
X315070275Y-131682800D01*
X326978275Y-143590800D02*
X326978275Y-162640760D01*
X324912240Y-162640760D02*
X326978275Y-162640760D01*
X319151000Y-168402000D02*
X324912240Y-162640760D01*
X346028275Y-86440600D02*
X346028275Y-105490601D01*
X346028275Y-105490601D02*
X346028275Y-162640760D01*
X344089240Y-162640760D02*
X346028275Y-162640760D01*
X338328000Y-168402000D02*
X344089240Y-162640760D01*
X202819000Y-86681038D02*
X202819000Y-86995000D01*
X203775038Y-85725000D02*
X202819000Y-86681038D01*
X205486000Y-85725000D02*
X203775038Y-85725000D01*
X210947000Y-86808038D02*
X210947000Y-87376000D01*
X209736962Y-85598000D02*
X210947000Y-86808038D01*
X208622575Y-85598000D02*
X209736962Y-85598000D01*
X162814000Y-155194000D02*
X154305000Y-163703000D01*
X210693000Y-155194000D02*
X162814000Y-155194000D01*
X210693000Y-155194000D02*
X216789000Y-155194000D01*
D16*
X209042000Y-86741000D02*
X203835000Y-86741000D01*
X209423000Y-86360000D02*
X209042000Y-86741000D01*
M02*
