G04 #@! TF.GenerationSoftware,KiCad,Pcbnew,(5.1.10)-1*
G04 #@! TF.CreationDate,2021-06-12T19:03:55-06:00*
G04 #@! TF.ProjectId,pcb,7063622e-6b69-4636-9164-5f7063625858,rev?*
G04 #@! TF.SameCoordinates,Original*
G04 #@! TF.FileFunction,Soldermask,Top*
G04 #@! TF.FilePolarity,Negative*
%FSLAX46Y46*%
G04 Gerber Fmt 4.6, Leading zero omitted, Abs format (unit mm)*
G04 Created by KiCad (PCBNEW (5.1.10)-1) date 2021-06-12 19:03:55*
%MOMM*%
%LPD*%
G01*
G04 APERTURE LIST*
%ADD10C,0.650000*%
%ADD11O,1.000000X2.100000*%
%ADD12O,1.000000X1.600000*%
%ADD13C,1.750000*%
%ADD14C,3.987800*%
%ADD15C,3.048000*%
%ADD16R,1.700000X1.700000*%
%ADD17C,1.700000*%
G04 APERTURE END LIST*
D10*
X209853075Y-81815000D03*
X204073075Y-81815000D03*
D11*
X202643075Y-82345000D03*
X211283075Y-82345000D03*
D12*
X202643075Y-78165000D03*
X211283075Y-78165000D03*
D13*
X221568275Y-88980600D03*
X211408275Y-88980600D03*
D14*
X216488275Y-88980600D03*
D13*
X354918275Y-108030601D03*
X344758275Y-108030601D03*
D14*
X349838275Y-108030601D03*
D13*
X331105275Y-108030601D03*
X320945275Y-108030601D03*
D14*
X326025275Y-108030601D03*
D13*
X354918275Y-165180760D03*
X344758275Y-165180760D03*
D14*
X349838275Y-165180760D03*
D13*
X335868275Y-165180760D03*
X325708275Y-165180760D03*
D14*
X330788275Y-165180760D03*
D13*
X316818275Y-165180760D03*
X306658275Y-165180760D03*
D14*
X311738275Y-165180760D03*
D13*
X297768275Y-165180760D03*
X287608275Y-165180760D03*
D14*
X292688275Y-165180760D03*
D13*
X278718275Y-165180760D03*
X268558275Y-165180760D03*
D14*
X273638275Y-165180760D03*
D13*
X259668275Y-165180760D03*
X249508275Y-165180760D03*
D14*
X254588275Y-165180760D03*
X235530175Y-156925760D03*
X135530375Y-156925760D03*
D15*
X235530175Y-172165760D03*
X135530375Y-172165760D03*
D13*
X190610275Y-165180760D03*
X180450275Y-165180760D03*
D14*
X185530275Y-165180760D03*
D13*
X119174275Y-165180760D03*
X109014275Y-165180760D03*
D14*
X114094275Y-165180760D03*
D13*
X95360275Y-165180760D03*
X85200275Y-165180760D03*
D14*
X90280275Y-165180760D03*
D13*
X71549185Y-165180760D03*
X61389185Y-165180760D03*
D14*
X66469185Y-165180760D03*
D13*
X354918275Y-146130800D03*
X344758275Y-146130800D03*
D14*
X349838275Y-146130800D03*
D13*
X335868275Y-146130800D03*
X325708275Y-146130800D03*
D14*
X330788275Y-146130800D03*
D13*
X309674274Y-146130800D03*
X299514274Y-146130800D03*
D14*
X304594274Y-146130800D03*
D13*
X283480275Y-146130800D03*
X273320275Y-146130800D03*
D14*
X278400275Y-146130800D03*
D13*
X264430275Y-146130800D03*
X254270275Y-146130800D03*
D14*
X259350275Y-146130800D03*
D13*
X245380275Y-146130800D03*
X235220275Y-146130800D03*
D14*
X240300275Y-146130800D03*
D13*
X226330275Y-146130800D03*
X216170275Y-146130800D03*
D14*
X221250275Y-146130800D03*
D13*
X207280275Y-146130800D03*
X197120275Y-146130800D03*
D14*
X202200275Y-146130800D03*
D13*
X188230275Y-146130800D03*
X178070275Y-146130800D03*
D14*
X183150275Y-146130800D03*
D13*
X169180275Y-146130800D03*
X159020275Y-146130800D03*
D14*
X164100275Y-146130800D03*
D13*
X150130475Y-146130800D03*
X139970475Y-146130800D03*
D14*
X145050475Y-146130800D03*
D13*
X131080475Y-146130800D03*
X120920475Y-146130800D03*
D14*
X126000475Y-146130800D03*
D13*
X112030475Y-146130800D03*
X101870475Y-146130800D03*
D14*
X106950475Y-146130800D03*
X87932175Y-137875800D03*
X64056175Y-137875800D03*
D15*
X87932175Y-153115800D03*
X64056175Y-153115800D03*
D13*
X81074175Y-146130800D03*
X70914175Y-146130800D03*
D14*
X75994175Y-146130800D03*
D13*
X354918275Y-127080601D03*
X344758275Y-127080601D03*
D14*
X349838275Y-127080601D03*
X330818275Y-118825601D03*
X306942275Y-118825601D03*
D15*
X330818275Y-134065601D03*
X306942275Y-134065601D03*
D13*
X323960275Y-127080601D03*
X313800275Y-127080601D03*
D14*
X318880275Y-127080601D03*
D13*
X293005275Y-127080601D03*
X282845275Y-127080601D03*
D14*
X287925275Y-127080601D03*
X268875275Y-127080601D03*
D13*
X263795275Y-127080601D03*
X273955275Y-127080601D03*
X254905275Y-127080601D03*
X244745275Y-127080601D03*
D14*
X249825275Y-127080601D03*
D13*
X235855275Y-127080601D03*
X225695275Y-127080601D03*
D14*
X230775275Y-127080601D03*
D13*
X216805275Y-127080601D03*
X206645275Y-127080601D03*
D14*
X211725275Y-127080601D03*
D13*
X197755275Y-127080601D03*
X187595275Y-127080601D03*
D14*
X192675275Y-127080601D03*
D13*
X178705274Y-127080601D03*
X168545274Y-127080601D03*
D14*
X173625274Y-127080601D03*
D13*
X159655475Y-127080601D03*
X149495475Y-127080601D03*
D14*
X154575475Y-127080601D03*
D13*
X140605474Y-127080601D03*
X130445474Y-127080601D03*
D14*
X135525474Y-127080601D03*
D13*
X121555474Y-127080601D03*
X111395474Y-127080601D03*
D14*
X116475474Y-127080601D03*
D13*
X102505475Y-127080601D03*
X92345475Y-127080601D03*
D14*
X97425475Y-127080601D03*
D13*
X76310305Y-127080601D03*
X66150305Y-127080601D03*
D14*
X71230305Y-127080601D03*
D13*
X307293274Y-108030601D03*
X297133274Y-108030601D03*
D14*
X302213274Y-108030601D03*
D13*
X288243275Y-108030601D03*
X278083275Y-108030601D03*
D14*
X283163275Y-108030601D03*
D13*
X269193275Y-108030601D03*
X259033275Y-108030601D03*
D14*
X264113275Y-108030601D03*
D13*
X250143275Y-108030601D03*
X239983275Y-108030601D03*
D14*
X245063275Y-108030601D03*
D13*
X231093275Y-108030601D03*
X220933275Y-108030601D03*
D14*
X226013275Y-108030601D03*
D13*
X212043275Y-108030601D03*
X201883275Y-108030601D03*
D14*
X206963275Y-108030601D03*
D13*
X192993275Y-108030601D03*
X182833275Y-108030601D03*
D14*
X187913275Y-108030601D03*
D13*
X173943275Y-108030601D03*
X163783275Y-108030601D03*
D14*
X168863275Y-108030601D03*
D13*
X154892975Y-108030601D03*
X144732975Y-108030601D03*
D14*
X149812975Y-108030601D03*
D13*
X135842975Y-108030601D03*
X125682975Y-108030601D03*
D14*
X130762975Y-108030601D03*
D13*
X116792975Y-108030601D03*
X106632975Y-108030601D03*
D14*
X111712975Y-108030601D03*
D13*
X97742974Y-108030601D03*
X87582974Y-108030601D03*
D14*
X92662974Y-108030601D03*
D13*
X73930435Y-108030601D03*
X63770435Y-108030601D03*
D14*
X68850435Y-108030601D03*
D13*
X354918275Y-88980600D03*
X344758275Y-88980600D03*
D14*
X349838275Y-88980600D03*
X333201275Y-97235600D03*
X309325275Y-97235600D03*
D15*
X333201275Y-81995600D03*
X309325275Y-81995600D03*
D13*
X326343275Y-88980600D03*
X316183275Y-88980600D03*
D14*
X321263275Y-88980600D03*
D13*
X297768275Y-88980600D03*
X287608275Y-88980600D03*
D14*
X292688275Y-88980600D03*
D13*
X278718275Y-88980600D03*
X268558275Y-88980600D03*
D14*
X273638275Y-88980600D03*
D13*
X259668275Y-88980600D03*
X249508275Y-88980600D03*
D14*
X254588275Y-88980600D03*
D13*
X240618275Y-88980600D03*
X230458275Y-88980600D03*
D14*
X235538275Y-88980600D03*
D13*
X202518275Y-88980600D03*
X192358275Y-88980600D03*
D14*
X197438275Y-88980600D03*
D13*
X183466275Y-88980600D03*
X173306275Y-88980600D03*
D14*
X178386275Y-88980600D03*
D13*
X164416575Y-88980600D03*
X154256575Y-88980600D03*
D14*
X159336575Y-88980600D03*
D13*
X145367974Y-88980600D03*
X135207974Y-88980600D03*
D14*
X140287974Y-88980600D03*
D13*
X126317975Y-88980600D03*
X116157975Y-88980600D03*
D14*
X121237975Y-88980600D03*
D13*
X107267975Y-88980600D03*
X97107975Y-88980600D03*
D14*
X102187975Y-88980600D03*
D13*
X88217975Y-88980600D03*
X78057975Y-88980600D03*
D14*
X83137975Y-88980600D03*
D13*
X69167925Y-88980600D03*
X59007925Y-88980600D03*
D14*
X64087925Y-88980600D03*
D16*
X132715000Y-163195000D03*
D17*
X132715000Y-160655000D03*
X130175000Y-163195000D03*
X130175000Y-160655000D03*
X127635000Y-163195000D03*
X127635000Y-160655000D03*
M02*
